<svg xmlns="http://www.w3.org/2000/svg" viewBox="0 0 4000 2000"><g data-name="medical team"><g data-name="male doctor"><path fill="#fff" d="M2430.57,548.74,2556.8,689.15l96.95-46.68s-35.91,181.33-95.16,206.46-201.07-206.46-201.07-206.46S2334.86,519.64,2430.57,548.74Z"/><g data-name="doctor 01"><path fill="#b3ddff" d="M2539.82,1253.23c-61.85-59.5-475.33-36.43-518.08,12.49l250-410.79Z"/><polygon fill="#fff" points="2470.39 1651.97 2475.65 1710.5 2407.77 1733.63 2398.77 1653.12 2470.39 1651.97"/><path fill="#1e4359" d="M2398.32,1758.62l4-52.42s33.52,16.13,44.76,7.09c3.49-29.11,37.83-32.82,55.41-5.44l55.21,23.87-40.75,26.9Z"/><path fill="#1e4359" d="M2489.25,1758.62a44.62,44.62,0,0,1,43.4-34.92c23.7,0,41.67,11.67,42,34.92Z"/><path fill="#2f678c" d="M2256,902.33c42.91,251.73,140,749.64,140,749.64l4.23,41.09,75.48-8.62-2.47-32.47s-26.69-492.25-51.85-749.64Z"/><polygon fill="#fff" points="2089.71 1651.97 2084.45 1710.5 2152.33 1733.63 2161.34 1653.12 2089.71 1651.97"/><path fill="#2f678c" d="M2296,902.33c-26.16,264.79-132,750.79-132,750.79l-5.09,39.56-74.47-8.24,2.22-33.63s29.62-491.09,54.78-748.48Z"/><path fill="#b3ddff" d="M2133.09,944.63c26.91,19.58,200.86,29.06,295.28,7.93-10.08-109.72-22.8-222.35-16.25-334.44,1.4-24.1,3.74-49.81,6.33-74.07-37.1-58.56-251.61-45-282.41,1.42,4,32.31,6.73,64.58,8.38,96.84h0C2149.58,743.3,2144.07,844,2133.09,944.63Z"/><path fill="#fff" d="M2347.91,802.55l8.55,485.37c85.09-5.44,158.41-13.88,183.37-34.69L2437.61,811.92,2428.37,772l.28-28.47,1.92-194.79c-13.58-17.54-43.11-29.78-72.36-36.81L2351,715.2l-2.65,74.86Z"/><path fill="#fff" d="M2021.75,1265.71c34.26,22.21,117.41,29.35,185.46,25.62L2215.76,806l-.63-14.86L2212,719.28l-8.82-205.95c-36.95,9.19-56.54,17.91-70.13,35.45l1.76,180.78.45,45.86-11,47.3Z"/><path fill="#f7a58e" d="M2228.11,530.09c3.52,20.52,53.84,44.68,53.84,44.68s51.27-24.16,56.69-44.68l-5-40.36-1.47-19.47h-97.55l-2.4,31.55Z"/><path fill="#f7a58e" d="M2192.31,395.47C2196,447.58,2232,501.64,2281,505.16c35.25.93,87.09-55.62,88.67-109.69,6.45-82.58-15.65-146.53-87.94-146.53C2211.4,248.94,2185.75,312,2192.31,395.47Z"/><path fill="#f7a58e" d="M2361.32,417.45a10.26,10.26,0,0,0,4.49,1c6.73.1,13.93-5.47,17.49-14.42,4.39-10.94,1.68-22.57-6.08-26.16a11.93,11.93,0,0,0-7.21-.69c-5.79,1.19-11.69,6.36-14.77,14.12C2350.84,402.23,2353.55,413.87,2361.32,417.45Z"/><path fill="#f7a58e" d="M2180.15,404c3.27,8.15,9.54,13.43,15.62,14.22a10.84,10.84,0,0,0,6.36-.79c4.21-1.89,6.92-6.37,7.76-11.74a25.23,25.23,0,0,0-1.59-14.12c0-.1-.09-.2-.09-.3-3.37-8.35-9.92-13.82-16.28-14.32a11.75,11.75,0,0,0-5.8.89C2178.46,381.45,2175.75,393.08,2180.15,404Z"/><path fill="#723917" d="M2346,307.8c-7.18-22,24.61-22.31,29.2.16,9.89,35.17-5.15,69.21-5.15,69.21s-10.9,7.62-12.45,12.16C2368.67,359.87,2368,319.13,2346,307.8Z"/><path fill="#723917" d="M2191.07,281.9a108.6,108.6,0,0,1,14,14.51c4.64,5.81,8.88,12.29,11.4,19.33a38.08,38.08,0,0,1,1.16,3.81c-9.1,5.09-11.56,9.77-11.56,9.77-5.33,24.63-5,43.87-3.5,62.05-2.89-5.8-10.66-14.4-10.66-14.4s-7.75-42.55-7.42-72A74.82,74.82,0,0,1,2191.07,281.9Z"/><path fill="#73382a" d="M2270,428.62l.17.08c.4.14,9.84,3.47,15.18.63s-1.64-30.84-3.89-39.35a1,1,0,0,0-1.85.48c4.43,16.77,7.54,35.74,4.84,37.18-4.59,2.44-13.55-.71-13.64-.74a1,1,0,0,0-.81,1.72Z"/><path fill="#73382a" d="M2279.81,460.51a88.79,88.79,0,0,0,30.24-5.68,1,1,0,0,0,.51-1.26,1,1,0,0,0-1.25-.51c-.35.14-35,14.24-58.92-3.07a1,1,0,0,0-1.13,1.55C2258.73,458.38,2269.76,460.51,2279.81,460.51Z"/><ellipse cx="2322.71" cy="387.94" fill="#231f20" rx="9.5" ry="5.34" transform="rotate(-85.81 2322.767 387.903)"/><path fill="#231f20" d="M2232.25,388.15c.55,5.22,3.37,9.2,6.3,8.89s4.87-4.78,4.33-10-3.37-9.2-6.3-8.89S2231.71,382.94,2232.25,388.15Z"/><path fill="#723917" d="M2333.21,475.25s-19.85,29.53-51.26,39.53c-37.4-12-50.95-32.68-50.95-32.68s29.15,15.6,52,15.7C2308.7,497.92,2333.21,475.25,2333.21,475.25Z"/><path fill="#fff" d="M2351.23,452.5c-6-7.38-8.39-19.15-6.63-40.32-34,20.28-54.1-6-62.49-5.67-9.24.4-34.42,21.89-64.46,7.2,0,0-1.9,24.06-14.48,26.27,7.29,25.95,45.93,63.78,77.08,67S2351.23,452.5,2351.23,452.5Z"/><path fill="#fff" d="M2343.21,416c11.44-27.6,26.93-38.28,27.08-38.38l-.55-.82c-.16.1-15.88,10.92-27.44,38.82Z"/><path fill="#fff" d="M2347.17,458.36c11.87-15.12,19-39.54,19.11-39.78l-1-.28c-.07.25-7.19,24.48-18.94,39.45Z"/><path fill="#fff" d="M2218.23,415.72l.92-.38c-11.57-27.9-27.29-38.72-27.44-38.82l-.56.82C2191.31,377.44,2206.79,388.12,2218.23,415.72Z"/><path fill="#fff" d="M2214.28,460.81l.78-.61c-11.75-15-18.87-41.86-18.94-42.13l-1,.26C2195.23,418.6,2202.4,445.69,2214.28,460.81Z"/><path fill="#dbefff" d="M2326.92,440.83c-.43-.29-24.6-9.46-41.56-11.5-14.31-1.73-47.79,13.68-47.79,13.68s29.66-5.24,47.28-4.76C2301.25,438.69,2326.92,440.83,2326.92,440.83Z"/><path fill="#dbefff" d="M2238.7,469.49c.43.29,25.74,17,42.7,19,14.31,1.72,46.66-21.22,46.66-21.22s-28.53,12.77-46.14,12.3C2265.52,479.16,2238.7,469.49,2238.7,469.49Z"/><path fill="#dbefff" d="M2324.27,451.16s-30.52-.59-42.61,0-42.21,4-42.21,4l43.93,1.65Z"/><path fill="#fff" d="M2246.49,416.52c-10.19,1.92-23.58.62-31.8-4.34-10.21-6.16-6.86-30.3-6.31-33.83Q2227.43,397.44,2246.49,416.52Z" opacity=".15"/><path fill="#fff" d="M2303.94,370.52l41.25,41.25c-.2.14-.39.29-.59.41-11,6.65-31.35,6.73-40.77,1.28-9.09-5.26-14.85-11.31-16.64-20.81-2-10.44.33-15.34.33-15.34C2289.15,374.37,2295.66,372,2303.94,370.52Z" opacity=".15"/><path fill="#231f20" d="M2302.32,416.08c-10.71-6.2-16.29-13.25-18.1-22.87-2.07-11.08.28-16.59.56-17.18l.1-.19c4.08-7.36,24.55-9.89,37.34-9.81,9.62.06,26.47,1.5,31.27,10.44l.23.43.09.48c.52,3,4.78,29.89-7.65,37.39-6.12,3.69-15.22,5.59-24,5.59C2314.6,420.36,2307.29,419,2302.32,416.08Zm19.86-44c-17-.13-30.08,3.78-31.94,6.58-.27.74-1.64,5.12-.08,13.44,1.47,7.84,6,13.45,15.19,18.75,8.18,4.74,27.18,5.09,37.69-1.25,7.34-4.43,6-23.52,4.9-30.64C2345.24,374.84,2335.25,372.16,2322.18,372.07Z"/><path fill="#231f20" d="M2213.13,414.77c-12.44-7.5-8.18-34.35-7.65-37.39l.08-.48.23-.43c4.8-8.93,21.66-10.38,31.28-10.44,12.77-.07,33.26,2.45,37.34,9.81l.1.19c.27.59,2.63,6.1.55,17.18-1.8,9.62-7.38,16.67-18.09,22.87-5,2.87-12.29,4.28-19.85,4.28C2228.35,420.36,2219.25,418.46,2213.13,414.77Zm24.71-42.7h-.73c-13.07.09-23.06,2.77-25.77,6.88-1.13,7.12-2.44,26.21,4.91,30.64,10.51,6.34,29.51,6,37.69,1.25,9.17-5.3,13.71-10.91,15.18-18.75,1.56-8.32.2-12.7-.07-13.44C2267.21,375.89,2254.45,372.07,2237.84,372.07Z"/><path fill="#231f20" d="M2271.79,383.18a18.13,18.13,0,0,1,16.91,0v-9.95a19.93,19.93,0,0,0-16.91,0Z"/><path fill="#231f20" d="M2348.46,381.75l30.08-7.15c5.89,0,5.89-9.48,0-9.48l-30.08,7.15Z"/><path fill="#231f20" d="M2184.77,375.1l22.4,6.65,4-9.48-26.4-6.64a4.74,4.74,0,0,0-4.73,4.74h0A4.73,4.73,0,0,0,2184.77,375.1Z"/><path fill="#723917" d="M2218.25,293.1s30.57-10.5,40.85,25c8.31,28.71,38.37,30.89,38.37,30.89s-25.88-24.41-9.58-36.59c23.09,8.7,43,30.47,44.77,47.67,7.12-19-5-40.56-5-40.56s18.67,3.2,24.9,35.82c4.72-15.31,5.92-32.32-3.56-47.44,18.08,6.82,35.57,22.23,36.56,44.42a69.2,69.2,0,0,0-4.37-47.45c14.28,5.76,21.93-10.52,21.93-10.52-12.83,5.18-33.06-3.71-45.34-14,17.95,4.87,26.34-13.88,26.34-13.88s-18.27,5.79-34.7-6.53c-15.35-11.51-47.18-34-92.7-20.32S2218.25,293.1,2218.25,293.1Z"/><path fill="#723917" d="M2251.67,299.78s-21.74,22.19-46.39,36c-17.66,2.25-22.38-16.78-22.08-31.51s17.11-49.55,40.48-53.8C2255.85,244.63,2269.11,263.11,2251.67,299.78Z"/><path fill="#723917" d="M2184.67,296.48s-4.15,25.2-16.9,30.78c14.61,2.72,39-21.6,32.94-35.08S2184.67,296.48,2184.67,296.48Z"/><path fill="#1e4359" d="M2160.12,1757.21l-4-52.43s-33.51,16.13-44.76,7.09c-3.48-29.1-37.83-32.82-55.41-5.44l-55.2,23.87,40.74,26.91Z"/><path fill="#1e4359" d="M2069.18,1757.21a44.61,44.61,0,0,0-43.39-34.93c-23.7,0-41.68,11.68-42,34.93Z"/><polygon fill="#1951a6" points="2268.44 579.84 2275.05 596.74 2262.71 815.99 2284.48 849.18 2313.33 811.07 2285.88 595.89 2293.21 578.67 2280.73 572.24 2268.44 579.84"/><path fill="#61b8ff" d="M2232.56,495.54c.67,25.75,26.56,59.35,44.58,69.27,37.75-23,58.45-46.2,57.62-66l18.37,12.72c1.8,10.95,3.29,52.53-23.78,95.11C2319,592.27,2306,580,2277.62,574l-50.12,32c-9.48-20.38-26.45-73.72-13.45-99.87Z"/></g><path fill="#b3ddff" d="M2581.56,644.53s-10.84,46.59,20.37,48.13,57.23-38.89,51.16-58.53S2593.26,613,2581.56,644.53Z"/><polygon fill="#2b6a8c" points="3264.18 250.18 2878.92 437.69 2884.97 450.13 3239.3 277.67 3266.04 254 3264.18 250.18"/><path fill="#fff" d="M2784.31,578l-825,401.54-69.21-142.19,825-401.55a68.09,68.09,0,0,1,91,31.42l9.62,19.78A68.07,68.07,0,0,1,2784.31,578Z" opacity=".7"/><polygon fill="#fff" points="2906.25 457.4 2767.6 538.71 2736.79 475.41 2886.32 416.45 2906.25 457.4"/><rect width="37.95" height="335.27" x="1902.04" y="743.97" fill="#fff" transform="rotate(-25.95 1921.229 911.65)"/><path fill="#00a0a1" d="M2715.23,455.93l-529.57,260,53.15,109.2,529.88-260.27a60.66,60.66,0,0,0,33.53-61.31h0C2797.46,461.84,2752.87,437.45,2715.23,455.93Z"/><rect width="37.95" height="253.84" x="1702.96" y="881.58" fill="#fff" transform="rotate(-25.95 1722.135 1008.56)"/><rect width="521.13" height="65.8" x="1695.66" y="861.57" fill="#fff" transform="rotate(-25.95 1956.462 894.515)"/><polygon fill="#d1eeff" points="1791.99 1011 1753.4 1029.78 1724.6 970.61 1743.9 961.22 1791.99 1011"/><rect width="12.54" height="65.8" x="1891.23" y="890.15" fill="#d1eeff" transform="rotate(-25.95 1897.726 923.1)"/><rect width="27.56" height="125.01" x="2186.92" y="711.82" fill="#2b6a8c" transform="rotate(-25.95 2200.95 774.357)"/><path fill="#fff" d="M2740.66,495.47,1983.39,864l-12.17-25,757.26-368.57a12,12,0,0,1,16,5.52l1.69,3.48A12,12,0,0,1,2740.66,495.47Z" opacity=".5"/><path fill="#f7a58e" d="M2646.27,646c.84-2.67,13.21-70.91,7.45-74.26s-14.2,38.58-14.2,38.58-.82-36.38-4-39.21c-2.73-.25-16.87,46.65-16.87,46.65s-.41-36.73-2.48-38c-5.7-3.4-15.88,42.18-15.88,42.18s-.39-34.43-3-29.53c-12.33,23.26-14.76,75.55-5,79.16C2614.8,679.91,2639.19,668.47,2646.27,646Z"/><path fill="#f7a58e" d="M2639,659.54c1.25-.53,36.24-42.78,36.24-42.78s-5.71-10.14-14.17-.82c-13.35,14.72-15,4.36-25.62,11.18S2628.62,663.9,2639,659.54Z"/><path fill="#f7a58e" d="M2157,827.07c4.58.52,26.67,21.6,41.69,40.9-6.92,20.74-17.9,43.41-57.07,33S2089.73,819.49,2157,827.07Z"/><path fill="#fff" d="M2142.08,538.34s-132.85,174.15-127.47,246,84.66,119.2,84.66,119.2l80.79-71.82-48.75-95.85s61-59.25,66.42-89.77S2179.78,534.75,2142.08,538.34Z"/><path fill="#5e94bf" d="M2099.6,903.92l-.66-.85c26.92-21.21,74.23-66.19,78.29-70.06l-38.63-84.27.11-.23,40.44-88.79,1,.44-40.34,88.58,38.74,84.52-.27.27C2177.74,834,2127.64,881.81,2099.6,903.92Z"/></g><g data-name="nurse 01"><path fill="#b32816" d="M3032.85,664.34c39.37-15-2.92-48.09-23.13-98-17.72-43.72,39-57.59,53.34-60.34l2.09-.39c29.28,2.26,81,69.67,95.55,199.43s-135.76,82-180.17,39.25S2993.47,679.31,3032.85,664.34Z"/><path fill="#f79883" d="M3255.2,685.49c3.11-1.37,171.38,44.44,171.38,44.44l176.47-101,15.26,24.84s-140.38,126.34-178.12,140.3-189.66-31.34-189.66-31.34Z"/><path fill="#40a2ff" d="M3187.63,670.39c2.3-1.91,54.08.85,106.92,21.82,16.6,19.58-.58,86.59-24.54,94.72S3131.34,717.13,3187.63,670.39Z"/><polygon fill="#fff" points="3008.24 1690.49 2995.16 1748.72 2942.07 1748.72 2950.5 1690.68 3008.24 1690.49"/><path fill="#266fbf" d="M3185.82,1001.91c-11.47,181.23-122.29,452.73-179.86,710.49l-71.06,1.09c16.78-215.68,62-519.62,89.94-710.84Z"/><polygon fill="#fff" points="3285.23 1687.93 3283.95 1748.05 3230.52 1748.76 3225.58 1690.48 3285.23 1687.93"/><path fill="#266fbf" d="M3227.36,1709.53l5.51-340.65L3100.54,971.71l149-26.26c11.67,51.76,83,215.88,100,382,16,155.82-53.66,313.41-59.55,382Z"/><path fill="#34464f" d="M3066.28,525.51s-.38,0-1.06.17h-.07Z"/><path fill="#40a2ff" d="M3001.74,1078.52c71.44,17.8,264.76,16.89,289.88-10.55-8.28-53.42-34.88-108.47-43.44-179.16,0,0,17.14-74.43,14.82-98.4-3.32-34.4-32.55-101.72-32.55-101.72-60.06-32-106.78-34.3-170.16.3-29.54,30.72-10.33,101.27-4.49,148.26,5,40.29,11.33,71.08,11.33,71.08s-10,18.83-22.5,46.67C3029.47,988.78,3010.66,1035.83,3001.74,1078.52Z"/><path fill="#218cf0" d="M3044.63,955c18.82-23.11,59.48-21.18,113-23.11-49.12-32.7-73-81.77-65.32-151.23l-38.06,33.47c5,40.29,12.85,94.2,12.85,94.2S3057.11,927.16,3044.63,955Z"/><rect width="141.72" height="98.25" x="3010.28" y="938.22" fill="#267fbf" transform="rotate(-21.5 3080.757 987.3)"/><path fill="#f79883" d="M3087.41,752.38,3020,868c31.84,41.63,30.21,92.45,62.91,143.79,14.38,20-16.54,31.93-22.49,12.13-1.49-3.76-117.78-123.07-118.32-153.2-.77-42.36,83.76-151.21,83.76-151.21Z"/><path fill="#40a2ff" d="M3059.18,819c-10.33,2.38-67.68-46.08-73.47-57.56,12.08-29.66,52.56-70.37,91.14-76.06,40-5.88,52.16,56,38.65,76.06C3109.41,770.53,3059.18,819,3059.18,819Z"/><rect width="10.69" height="29.67" x="3102.25" y="962.09" fill="#cef" transform="rotate(-111.5 3107.526 976.979)"/><rect width="10.69" height="29.67" x="3102.25" y="962.09" fill="#cef" transform="rotate(158.5 3107.591 976.999)"/><path fill="#f79883" d="M3082.48,1010.6c10.58,3.54,3.86,14.12,23.79,21.13,3.19,6.87-17.21,25-36,16.16-10.62-14.48-11.57-28.57-11.57-28.57C3061.8,1007.11,3074.13,1006.48,3082.48,1010.6Z"/><path fill="#f79883" d="M3082.59,1010.7l25,10.88s0,3.48-3.3,3.79-6.92-2.94-10-2.3-13.57,6.93-17-2S3079.25,1010.79,3082.59,1010.7Z"/><path fill="#f79883" d="M3190.06,684.17l-.48-9.91-1.75-35.5-2.28-46.91L3128.5,583l-19.31,94.22c.14,16.61,49.78,60.5,49.78,60.5S3194.35,700.38,3190.06,684.17Z"/><path d="M3137.53,620.71s32.2,42.8,52,53.55l-1.75-35.5Z" style="mix-blend-mode:soft-light" fill="#0d0d0d" opacity=".5"/><path fill="#f79883" d="M3231.37,542.27c15.05,32.85,13.25,82.23-25.15,100.11s-86.62-7.88-107.47-52.65-6.63-95.57,31.77-113.45S3221.3,487.5,3231.37,542.27Z"/><path fill="#733602" d="M3196,579.38a.65.65,0,0,1-.5-.42.67.67,0,0,1,.39-.86c.08,0,7.84-3,8.16-8.71.19-3.44-3.45-4-7.86-4.24-1.79-.12-3.08-.2-3.76-.7l-.13-.09-4-8.06a.66.66,0,0,1,.3-.89.66.66,0,0,1,.89.3l3.82,7.73a12.9,12.9,0,0,0,2.94.38c3.74.24,9.39.61,9.11,5.64-.36,6.62-8.67,9.76-9,9.89A.56.56,0,0,1,3196,579.38Z"/><path fill="#522601" d="M3204.2,545.34a14,14,0,0,1-1.34-6.33c.12-2.19,1-3.75,2.43-4.4s3.18-.27,4.9,1.09a14,14,0,0,1,3.86,5.19l-2.08.94a11.91,11.91,0,0,0-3.19-4.34c-1-.79-1.93-1.08-2.56-.8s-1,1.17-1.08,2.45a11.85,11.85,0,0,0,1.14,5.26Z"/><path fill="#522601" d="M3143.4,565.54c-2.19-4.85-1.73-9.47,1.08-10.73s6.57,1.43,8.76,6.28l-2.08.94c-1.66-3.68-4.4-5.75-5.74-5.14s-1.6,4,.06,7.71Z"/><path fill="#733602" d="M3170.09,608.8a46.8,46.8,0,0,1-20.67-9.68.69.69,0,0,1-.11-.94.68.68,0,0,1,.94-.11c29.76,23.46,59.16-1.31,59.45-1.56a.67.67,0,0,1,.87,1C3210.34,597.72,3192.35,612.89,3170.09,608.8Z"/><path fill="#b32816" d="M3229.07,532.58s-2.57-32.89-44.81-35.68c4.41,10.19,17.38,18.55,31.48,26.66,0,0-37.7,4.52-62.34-13.08,1.89,11.37,15.64,21.61,15.64,21.61s-27.64,7.11-41.48-6c3.27,48.53-33,53.34-6.89,95.07C3081.49,589,3059.42,571.51,3055,539c-6.29-46.57,45.76-84.46,90.24-90.62C3226,434.44,3252.76,485.39,3229.07,532.58Z"/><path fill="#ffa88f" d="M3126,574.57a14.61,14.61,0,1,1-16.85-11.94A14.61,14.61,0,0,1,3126,574.57Z"/><path fill="#ff9475" d="M3204.86,561.7c.59,3.52,7.21,5.36,14.8,4.09s13.26-5.14,12.67-8.67-7.21-5.36-14.8-4.1S3204.27,558.17,3204.86,561.7Z"/><path fill="#ff9475" d="M3136.62,581.11c.59,3.53,7.5,5.31,15.44,4s13.9-5.25,13.32-8.78-7.5-5.31-15.44-4S3136,577.58,3136.62,581.11Z"/><rect width="52.48" height="28.56" x="3102.52" y="800.51" fill="#fff" transform="rotate(180 3128.765 814.79)"/><path fill="#fff" d="M3223.31,1760.72l109.3,3.56s2.25-23.91-20.9-24.7c-20-.69-22.83-18.95-22.83-18.95-20.78-11.7-30.6,6.26-60.48.73C3221.81,1729.18,3222.13,1753.35,3223.31,1760.72Z"/><path fill="#fff" d="M2935.57,1760.72l109.3,3.56s2.25-23.91-20.91-24.7c-20-.69-22.82-18.95-22.82-18.95-20.79-11.7-30.61,6.26-60.49.73C2934.06,1729.18,2934.39,1753.35,2935.57,1760.72Z"/><path fill="#fff" d="M3237.29,559.41s.09,11.31-44.89,5c-7.67-1.07-37.39,31.9-63.64,6.75,0,25.15-10.22,31.72-10.22,31.72s20.66,44.83,61.45,44.56S3254.83,610.81,3237.29,559.41Z"/><path fill="#fff" d="M3130.83,575a.41.41,0,0,0,.22-.07.4.4,0,0,0,.1-.55c-.06-.08-5.77-8.05-13.59-11.1a.39.39,0,1,0-.28.72c7.6,3,13.18,10.75,13.23,10.83A.4.4,0,0,0,3130.83,575Z"/><path fill="#fff" d="M3121.07,607l.67-.39c-4.95-8.33-9.75-15.17-9.8-15.23l-.64.44C3111.35,591.93,3116.14,598.74,3121.07,607Z"/><path fill="#d9f1ff" d="M3227.5,586s-21.74-7-37.92-3c-21,5.21-35,20.5-35,20.5C3180.27,587.92,3207.26,581.64,3227.5,586Z"/><path fill="#d9f1ff" d="M3155.71,627.32s21.75,7,37.92,3c21-5.22,35-20.5,35-20.5C3202.94,625.36,3176,631.64,3155.71,627.32Z"/><path fill="#d9f1ff" d="M3226.14,596.35c.73-.45-71.58,18.79-71.58,18.79S3200.84,611.9,3226.14,596.35Z"/></g><path fill="#132c3b" d="M3334,564.14c82.49-60.69,152.46-147.42,197.55-244.52.13-.28.27-.55.4-.83,70.4,63.42,160.52,103.26,254.23,112.15l46.17,293.27c21.13,134.19,4.42,265.89-49.67,391.44-35.53,82.5-77.5,139.39-99.18,165.79l-3.77-1.66c-28.74-12.69-81.75-40.78-136.51-93.59-87.06-84-141.92-194.59-163-328.78Z"/><path fill="#d9ffff" d="M3813.93,390.06h0c-.21-1.28-.3-1.85-.32-2Z"/><path fill="#d9ffff" d="M3813.93,390.06h0c-.21-1.28-.3-1.85-.32-2Z"/><path fill="#d9ffff" d="M3305.87,539.72s-.28-1.74-.31-2l.31,2Z"/><path fill="#d9ffff" d="M3305.87,539.72s-.28-1.74-.31-2l.31,2Z"/><path fill="#008891" d="M3536.55,320c.14-.28.28-.55.4-.83,70.4,63.42,160.53,103.26,254.24,112.15l46.17,293.27c21.12,134.19,4.41,265.88-49.67,391.44-35.54,82.5-77.5,139.39-99.18,165.78-1.19-.5-2.49-1.08-3.78-1.65-28.73-12.69-81.74-40.78-136.5-93.59-87.07-84-141.93-194.59-163.05-328.78L3339,564.53C3421.5,503.84,3491.47,417.1,3536.55,320Z"/><path fill="#008891" d="M3528.63,327.73c.13-.28.27-.55.4-.83,70.4,63.42,160.52,103.26,254.23,112.16,54.81,320.89,111.39,568.36-107.05,842.18-295.84-132.74-300.31-421.7-345.12-709C3413.58,511.56,3483.55,424.83,3528.63,327.73Z"/><path fill="#008891" d="M3461.93,607.77c40-38.89,96.46-110.08,128.1-158.42,43.39,26.25,121.92,58,170.13,70.86l40.53,273c10.36,105.62-20.35,196.31-55.71,273.38-13.15,28.66-35.21,67.41-47.53,87.6-17.35-11.49-36.53-27.33-57.26-45.93-84.37-75.72-127.38-162.6-141.7-253.57Z"/><path fill="#00e4f2" d="M3416.36,598.65l37,235.23c17.73,112.58,64.48,206.08,139,277.93a446.33,446.33,0,0,0,99.07,72.48,655.85,655.85,0,0,0,68.45-121.82c46.26-107.41,60.73-219,43-331.52l-37-235.24a490.26,490.26,0,0,1-196.15-84.36C3528.94,483,3476.23,547.37,3416.36,598.65Zm35.33,8.43c40-38.89,96.46-110.08,128.1-158.43,43.39,26.25,121.05,55.89,171.92,64.2l38.74,279.67c10.36,105.62-20.36,196.31-55.71,273.38-13.15,28.66-35.21,67.41-47.53,87.59-17.35-11.48-36.53-27.32-57.26-45.92C3545.57,1031.85,3502.56,945,3488.24,854Z"/><path fill="#fff" d="M3306.21,540.05c1.61,10.17,10.47,66.45,51.33,325.93,53.88,342.37,297.09,449,337.69,464.21.45.19.86.34,1.26.49,30-35.77,223-268.06,168.51-614.17-40.83-259.49-49.72-315.77-51.29-325.95-105.87-4.24-212-54.8-285.9-132.66v0c-.4-.37-.75-.74-1.11-1.11C3482.84,369.91,3401.86,476.31,3306.21,540.05Zm32.8,24.48C3421.5,503.84,3491.47,417.1,3536.55,320c.14-.28.28-.55.4-.83,70.4,63.42,160.53,103.26,254.24,112.15l46.17,293.27c21.12,134.19,4.41,265.88-49.67,391.44-35.54,82.5-77.5,139.39-99.18,165.78-1.19-.5-2.49-1.08-3.78-1.65-28.73-12.69-81.74-40.78-136.5-93.59-87.07-84-141.93-194.59-163.05-328.78Z"/><polygon fill="#fff" points="3679.27 869.22 3619.76 891.25 3589.35 662.16 3648.86 640.13 3679.27 869.22"/><polygon fill="#fff" points="3542.22 836.74 3532.87 766.3 3726.41 694.65 3735.76 765.08 3542.22 836.74"/><g data-name="female doctor"><g data-name="doctor 02"><path fill="#fff" d="M1437.94,502l-159.12,57-68.88-175.23-61.25,28.7s20.41,211,58.38,245.25,195.6-1.5,195.6-1.5S1461.52,569.55,1437.94,502Z"/><path fill="#383838" d="M1675.28,426.59s30.91,10.49,29.16,38-14,35.94-14,35.94,42.72,21.65,31.7,57.23-31.1,37.45-31.1,37.45,24.07,19.56,16.7,48.92-47.55,27.57-47.55,27.57,6.5,29.89-41.54,31.41S1546.42,646,1546.42,646s-26.28,29.64-57.84-9.89S1478,554.69,1478,554.69l77.76-66.88s-31.67-13.92-10-44.5,73.46,1.37,73.46,1.37-.82-43.52,24.58-41.86S1675.28,426.59,1675.28,426.59Z"/><path fill="#ff9c80" d="M1427.45,974.9,1157.8,1683.55l-50,2.17,162.82-722.33C1297.47,798,1457.93,868.42,1427.45,974.9Z"/><path fill="#214a63" d="M1035.91,1758.71c1.07-10.34,39.94-31.57,39.94-31.57l29-62.63,53.42-1,15.21,36.63-79.36,58.28Z"/><polygon fill="#214a63" points="1157.96 1758.12 1132.2 1695.48 1172.75 1699.92 1165.53 1758.08 1157.96 1758.12"/><path fill="#ff9c80" d="M1550.69,938.08c16.68,318.52,7.6,731.8,7.6,731.8l-58.62.28-77-703.36C1417.87,874.32,1529.91,806.05,1550.69,938.08Z"/><path fill="#214a63" d="M1558.29,1669.88l24,61.41c4.58,4.26,30.88,6.1,35.21,26.86l-81.56.4-43.11-61.82,4.25-26.55Z"/><path fill="#214a63" d="M1501.32,1756.81l27.37-64.94-36,4.63c1.74,17.15-2.71,29.69.37,60.35Z"/><path fill="#214a63" d="M1480.75,796.51s89.79,87.49,82.08,419.68c-138.22,42.64-357-10.84-357-10.84s44.83-209.95,109.9-408Z"/><path fill="#9eddae" d="M1290.83,837.24c24.92,18.75,103.7,38.43,174.94,42.07l68.56-11.79s-24.08-99-18.65-108.08c14.7-23.88,40.19-60.55,59.22-97.18,2.06-4,4.06-7.91,6-11.85,13.36-27.65,22.05-54.5,18.67-75.17-6.76-49.36-156.85-83.63-182-64s-47.67,46.37-58.12,67.24c-3.07,6.22-6,24.09-8.3,46.07s-4.37,48.17-6,71.13C1343,727.34,1290.83,837.24,1290.83,837.24Z"/><path fill="#e67a5c" d="M1471.37,544.3c23.37,17.87,70.4,3.67,77.82-9.95l26.53-101.49c-16.4-2.22-53-7.33-69.1-9.51-1.69,4-6,12.74-11.44,23.29-4,7.9-19.67,37.39-26.45,62.42C1464.52,524.63,1463.75,538.46,1471.37,544.3Z"/><path fill="#c25d42" d="M1468.73,509.06c54.9,12,80-44.22,80-44.22a66.86,66.86,0,0,0-53.56-18.2C1491.18,454.54,1475.51,484,1468.73,509.06Z"/><path fill="#e67a5c" d="M1489.18,329.07c-41.33,34.95-56.68,97-40,118.58,27.1,35.07,102.35,38.93,143.68,4s51.63-90.73,23-124.57S1530.51,294.11,1489.18,329.07Z"/><path fill="#383838" d="M1556,298.43s29.42,97.65-.37,191.77c16.63-3.12,21.73-14.28,34.62-19.19,49.54-18.89,72.64-51.35,67.45-96.81C1651.8,322.91,1602.11,291.37,1556,298.43Z"/><path fill="#383838" d="M1559.14,311.4s-32.08-6.65-67.9,15.75c29.12-31.14,107.67-68.11,154.8,13S1559.14,311.4,1559.14,311.4Z"/><path fill="#e67a5c" d="M1557.3,421.8a19,19,0,1,0,26.26,5.39A19,19,0,0,0,1557.3,421.8Z"/><path fill="#c2674e" d="M1556.82,448.41a1.74,1.74,0,0,0,.33.18,1.41,1.41,0,0,0,1.83-.81c2-5.1,4.78-8.37,8.34-9.73a13.18,13.18,0,0,1,9.71.53,1.42,1.42,0,0,0,1.29-2.52,15.92,15.92,0,0,0-12-.67c-4.36,1.65-7.72,5.48-10,11.37A1.43,1.43,0,0,0,1556.82,448.41Z"/><path fill="#c2674e" d="M1475.6,394.5a16.35,16.35,0,0,0,4.28,2.29,1.4,1.4,0,0,0,.88-2.66c-.3-.1-7.52-2.6-7.33-9.11a2.21,2.21,0,0,1,.93-1.83c3.21-2.46,12.78-.87,16.19-.06a1.4,1.4,0,0,0,.66-2.72c-1.39-.34-13.72-3.15-18.55.55a5,5,0,0,0-2,4A11.26,11.26,0,0,0,1475.6,394.5Z"/><path fill="#f0f0f0" d="M1516.83,393.68c-7-5.39-14.19-12.84-14.28-17.33h0c-.12-5.48,5.53-15.91,12.17-17.46,7-1.64,25.44,6.76,32.28,22.55.87,2,.55,4.77-.91,7.72a23.64,23.64,0,0,1-14.32,11.75,6.79,6.79,0,0,1-3.62-.48C1524.82,399.25,1520.47,396.46,1516.83,393.68Zm-1.91-33.93c-6.07,1.42-11.6,11.38-11.49,16.58.09,4.17,7.29,11.55,13.94,16.64,6.25,4.79,12,7.63,14.18,7.08,6.39-1.58,11.6-7,13.75-11.29,1.34-2.71,1.65-5.19.88-7-4.64-10.73-15.11-18.1-23.15-20.93C1519.73,359.7,1516.84,359.3,1514.92,359.75Z"/><path fill="#f0f0f0" d="M1471.37,353.41c-1.89-1.82-6.28-6.34-6.06-9.05.37-4.44,3.16-9.46,7.11-12.78,2.48-2.09,5-3.14,7-3,11.61,1,23.45,15,23.07,20.47-.39,5.75-9.51,13.59-14,14.15h0a8,8,0,0,1-3.57-.57C1480.88,361.22,1475.51,357.37,1471.37,353.41Zm17.08,8.95c4-.5,12.83-8.15,13.18-13.33s-11.33-18.56-22.27-19.53c-1.79-.16-4.11.85-6.37,2.75-3.78,3.18-6.45,8-6.8,12.19-.13,1.59,2.09,4.78,5.8,8.33,5.21,5,12.76,10.06,16.46,9.59Z"/><path fill="#282828" d="M1568.11,418.53a1.4,1.4,0,0,0,1.83-2.12l-23.64-23.62c4-5.79,2.46-13.68-4.32-21.37-8.22-9.32-22.51-16.29-30.64-12.07a98.9,98.9,0,0,1-8.17-6.48c1.69-7.22-4.77-15.38-12.2-20.44s-14.5-6.24-18.19-3.15a1.4,1.4,0,1,0,1.8,2.15c2.62-2.2,8.72-.83,14.82,3.32,6.63,4.52,12.86,12.12,10.86,18.13a1.39,1.39,0,0,0,.37,1.46,95.3,95.3,0,0,0,9.86,7.83,1.41,1.41,0,0,0,1.55,0c6.57-4.29,20.11,2.32,27.83,11.08,3,3.37,9.26,12,3.5,18.74a1.4,1.4,0,0,0,.07,1.9L1568,418.4Z"/><path fill="#0e0e0e" d="M1526.75,381.47c-2,3.29-2.17,6.89-.3,8s5-.57,7.07-3.86,2.18-6.9.31-8.05S1528.79,378.18,1526.75,381.47Z"/><path fill="#0e0e0e" d="M1485.43,347.79c-2,3.29-2.17,6.89-.3,8s5-.57,7.07-3.86,2.18-6.89.31-8.05S1487.47,344.5,1485.43,347.79Z"/><path fill="#c25d42" d="M1463,413c.07,1.63.18,3.2.35,4.7,4.36,40.72,41,35.29,53.39,17a25.92,25.92,0,0,0,2.54-4.72C1485.91,425,1463,413,1463,413Z"/><path fill="#fff" d="M1432.68,726.94c19.36-45.51,11-124.62,103.76-178,13.33-10.55,11.47-15.85,14.34-20.61,29.48,15.53,40.15,26.69,54.67,54.26,18.51,41.36-59,197-59,197l80.23,344s-29.23,72.1-274.86,52.69l-5.83-1S1413.33,772.45,1432.68,726.94Z"/><path fill="#fff" d="M1356.2,698.49c-6.74,48.76-138,444.87-138,444.87-20.31-17-46-52.14-28.91-96.85,0,0,130.37-277.62,139-321.87s5.2-164.26,91.12-214.57c21.52-8.62,51.85-9.12,51.85-9.12a90.16,90.16,0,0,0-3,11.38C1448.46,521.93,1383,557.27,1356.2,698.49Z"/></g><path fill="#6bcaff" d="M1243.1,1052.9l-312.8-33.82A54.53,54.53,0,0,1,882,959l49-452.95A54.52,54.52,0,0,1,991,457.73l312.8,33.82a54.53,54.53,0,0,1,48.34,60.06l-49,452.95A54.51,54.51,0,0,1,1243.1,1052.9Z"/><path fill="#00c4a6" d="M924.11,765.59,903,961.29a33.45,33.45,0,0,0,29.62,36.81l312.8,33.82a33.44,33.44,0,0,0,36.8-29.63l21.17-195.7Z"/><rect width="110.94" height="305.57" x="1092.74" y="314.36" fill="#6bcaff" transform="rotate(-83.83 1148.19 467.15)"/><path fill="#1951a6" d="M1353.08,433.5l-397.82-43,4-36.64a22.69,22.69,0,0,1,25-20.11l352.73,38.14a22.68,22.68,0,0,1,20.11,25Z"/><rect width="269.93" height="284.98" x="1041.37" y="583.2" fill="#1951a6" transform="rotate(6.17 1176.554 725.86)"/><rect width="161.29" height="50.15" x="1095.32" y="703.96" fill="#6bcaff" transform="rotate(-83.83 1175.942 729.036)"/><rect width="50.15" height="161.29" x="1150.9" y="648.39" fill="#6bcaff" transform="rotate(-83.83 1175.942 729.036)"/><path fill="#fff" d="M952.73,964.22h0a34.33,34.33,0,0,1-30.45-37.83l43-398A34.34,34.34,0,0,1,1003.15,498h0a34.34,34.34,0,0,1,30.45,37.83l-43,398A34.34,34.34,0,0,1,952.73,964.22Z" opacity=".8"/><rect width="42.04" height="305.57" x="1130.89" y="280.11" fill="#3da8e3" transform="rotate(-83.83 1151.894 432.907)"/><path fill="#f7a594" d="M1160,802.38l-43.53-26.28s-8.2,2.4-.44,10,10.57,13.7,8.91,19.07-60.18,8.15-60.86,11.9c-.24,1.33,40.39,7.2,40.39,7.2s-31.23,9.65-31,13.72c.15,3.29,36-.62,36-.62s-20.46,15.25-20.34,18.31c.13,3.4,28.85-7.23,28.85-7.23s-11.84,13.83-9.8,13.67c8.89-.56,60.61-27.29,60.61-27.29Z"/><path fill="#fff" d="M1524.09,569.05,1373.92,755.47,1153,796.9s-8.63,100.11-6.91,94.93,210.59-22.44,274.45-38,145-146.72,145-146.72C1615.57,638.1,1614.52,556.91,1524.09,569.05Z"/></g><g><g data-name="nurse 02"><polygon fill="#f7a594" points="439.1 732.72 374.11 905.25 297.21 1082.32 331.13 1090.34 419.39 960.13 531.47 739.34 439.1 732.72"/><path fill="#4098ff" d="M517.64,791.41s57.07-165.12,22.85-175.68-94.33,49.33-115.06,149C441.13,771.12,517.64,791.41,517.64,791.41Z"/><polygon fill="#266fbf" points="464.22 1620.08 532.94 1626.75 522.16 1715.23 468.71 1716.23 464.22 1620.08"/><path fill="#fff" d="M530.54,1753,525,1693.68s-9.08,13-22.4,9.18c-15-25.63-56-35.57-63.72-8.48,0,0-16.2-2-48.63,15.15-13.92,7.38-17,26.87-13.48,45.46Z"/><path fill="#1d5591" d="M456.38,1654.38h77.14c30.54-217.55,32.33-487.14,62.67-662.47L439.1,993.62C441.09,1290.61,451.62,1372.15,456.38,1654.38Z"/><polygon fill="#133f5e" points="567.43 1271.45 536.86 1155.33 560.12 1376.47 567.43 1271.45"/><polygon fill="#266fbf" points="632.76 1624.48 703.65 1623.58 709.04 1719.23 651.08 1716.23 632.76 1624.48"/><path fill="#1d5591" d="M634.82,1654.38H709C701.83,1437,687,1168,686.9,991.91L521,993.62C558.54,1296,574.19,1373.8,634.82,1654.38Z"/><path fill="#fff" d="M717.71,1753l-10.25-58.51s-1,11.55-24.25,8.38c-3.15-32.87-60.65-35.57-64.83-8.48,0,0-16.46-2-46.64,15.15-13,7.38-13.48,26.87-7.54,45.46Z"/><path fill="#4098ff" d="M692.85,1016.47c-30.17,20.18-228.54,13.28-257.6-7.53,28.52-227.21,8.54-401.3,113.33-400,46.2.49,100.15-5.21,121,40.39,18,35.76,10.42,137.49,8.24,197.38C674.67,934.44,692.85,1016.47,692.85,1016.47Z"/><path fill="#f7a594" d="M535.92,665.06s81.28-35,82.93-49.7c-.47-2.61-13.87-74.92-13.74-74.57-2.94.55-48.89,13.64-66.22,14.92a147.78,147.78,0,0,1,1.56,15.63,155.85,155.85,0,0,1-1.45,32.1,96.15,96.15,0,0,1-5.22,19.83A85.32,85.32,0,0,0,535.92,665.06Z"/><path fill="#f08771" d="M538.82,607.4c26.81-5.86,46.56-49.24,46.56-49.24-13.44-2.25-31.08,4.35-44.93,13.18C540.91,580.13,540.7,595.62,538.82,607.4Z"/><path fill="#f7a594" d="M498.07,574.45a48.06,48.06,0,0,0,8.38,4.25c31.91,12.5,85.89-1.65,112-43.08,28.54-45.33,21-101.44-17-125.32s-91.8-6.5-120.35,38.83q-1.23,2-2.35,3.95C453.46,497.93,469,555.84,498.07,574.45Z"/><path fill="#9c4b3a" d="M622.17,429.69c-20.89-54.08-59.92-46.69-97.93-36.35-26.68,7.26-45.71,12.58-64.77,2.52,2.16,65.92,88.3,87.31,139.88,61.06-15.51,25.2-2.12,65.51,18.89,77.57C644,512.77,665.25,446,622.17,429.69Z"/><circle cx="610.55" cy="529.68" r="21.32" fill="#f7a594" transform="rotate(-8.47 610.383 529.544)"/><path fill="#bd4a31" d="M494.55,527.79c3.95,1.81,9.8,1.31,10.67,1.22a1.12,1.12,0,0,0,1-1.18,1,1,0,0,0-1.05-1c-2.85.29-10.57.28-12-3.11-.17-.41-.54-3.12,8.92-16.88,5.07-7.38,10.46-14.27,10.51-14.34a1.12,1.12,0,0,0-.09-1.52,1,1,0,0,0-1.43.18c-.05.07-5.48,7-10.59,14.45-9.46,13.75-9.87,17.42-9.17,19.09A6,6,0,0,0,494.55,527.79Z"/><path fill="#0e0e0e" d="M552.3,493.9c3.89,10.25-7.44,21.92-6.41,4.2C546.81,492.71,550.27,490.93,552.3,493.9Z"/><path fill="#0e0e0e" d="M487.46,478.77c9.24-.07-5.07,28.4-3.85,6.52C484.29,481.94,485.89,479.32,487.46,478.77Z"/><path fill="#db6a58" d="M550.36,555.34a.57.57,0,0,0,.28-.16,7.92,7.92,0,0,0,2.08-5.49c-.12-2.43-1.57-4.67-4.29-6.65a.55.55,0,0,0-.78.18.6.6,0,0,0,.12.82c2.44,1.77,3.73,3.71,3.84,5.76a6.77,6.77,0,0,1-1.72,4.54.63.63,0,0,0,0,.84A.5.5,0,0,0,550.36,555.34Z"/><path fill="#bd4a31" d="M595.82,535.91l0,0a1.08,1.08,0,0,0,1.41-.63c1.5-3.87,3.81-6.5,6.85-7.82,5.12-2.22,10.68,0,10.74,0a1.09,1.09,0,0,0,.82-2c-.26-.11-6.47-2.56-12.43,0-3.6,1.56-6.3,4.6-8,9A1.1,1.1,0,0,0,595.82,535.91Z"/><path fill="#0e0e0e" d="M520.94,494.53c4.84-14.35,19.46-22.43,32.59-18s19.88,19.7,15,34.06S549.11,533,536,528.58,516.11,508.88,520.94,494.53Zm2.07.69c-4.42,13.11,1.74,27.07,13.73,31.11s25.35-3.33,29.77-16.44-1.74-27.07-13.74-31.11S527.43,482.11,523,495.22Z"/><path fill="#0e0e0e" d="M456.78,477.35c4.83-14.33,18.6-22.66,30.7-18.59s18,19.06,13.18,33.38-18.6,22.67-30.7,18.59S452,491.68,456.78,477.35Zm2,.67c-4.43,13.13.92,26.84,11.93,30.55s23.57-4,28-17.09-.93-26.84-11.94-30.56S463.18,464.88,458.76,478Z"/><path fill="#0e0e0e" d="M501.79,483.08c8.07-3.29,14.91-1.06,20.91,6.82l1.66-1.48c-6.52-8.56-14.33-11.07-23.22-7.45Z"/><path fill="#0e0e0e" d="M569.83,507.28a1,1,0,0,0,.43.05L593.69,505a1.21,1.21,0,0,0,1-1.28,1,1,0,0,0-1.14-1.06L570.17,505a1.22,1.22,0,0,0-1,1.29A1.08,1.08,0,0,0,569.83,507.28Z"/><path fill="#bd4a31" d="M511.79,557.31c17.14,5.78,34.8-6.91,35-7.07a.82.82,0,0,0,.17-1.14.81.81,0,0,0-1.14-.18c-.26.2-26.79,19.23-45.5-1.2a.82.82,0,1,0-1.21,1.11A30.21,30.21,0,0,0,511.79,557.31Z"/><rect width="33.27" height="28.25" x="561.73" y="736.95" fill="#fff" transform="rotate(-180 579.822 749.274)"/></g><path fill="#fff" d="M864.11,1042.17l-189,306.47a37.24,37.24,0,0,1-51.25,12.15L143.07,1064.33a37.25,37.25,0,0,1-12.16-51.25l189-306.47a37.25,37.25,0,0,1,51.25-12.16L852,990.92A37.24,37.24,0,0,1,864.11,1042.17Z"/><rect width="75.76" height="153.9" x="315.72" y="762.4" fill="#b3e2ff" rx="34.71" transform="rotate(31.65 353.626 839.49)"/><path fill="#ebf7ff" d="M317,898.69h0a31.55,31.55,0,0,1-10.27-43.29l40.15-65.12A31.56,31.56,0,0,1,390.19,780h0a31.57,31.57,0,0,1,10.27,43.3l-40.15,65.11A31.56,31.56,0,0,1,317,898.69Z"/><rect width="62.95" height="3.4" x="322.82" y="836.49" fill="#a8deff" transform="matrix(.85 .52 -.52 .85 492.62 -61.23)"/><path d="M397,789.89c-.85,25.8-41.82,109.29-67.4,110.54a29.54,29.54,0,0,0,29.37-13.65l39.44-64A29.51,29.51,0,0,0,397,789.89Z" style="mix-blend-mode:multiply" fill="#d1efff"/><rect width="75.76" height="153.9" x="219.79" y="919.74" fill="#b3e2ff" rx="34.71" transform="rotate(31.65 257.662 996.853)"/><path fill="#ebf7ff" d="M221.08,1056h0a31.55,31.55,0,0,1-10.27-43.29L251,947.62a31.57,31.57,0,0,1,43.3-10.27h0a31.57,31.57,0,0,1,10.27,43.3l-40.14,65.11A31.56,31.56,0,0,1,221.08,1056Z"/><rect width="62.95" height="3.4" x="226.89" y="993.83" fill="#a8deff" transform="rotate(31.66 258.364 995.413)"/><path d="M301,947.23c-.86,25.8-41.82,109.29-67.4,110.54A29.52,29.52,0,0,0,263,1044.12l39.44-64A29.51,29.51,0,0,0,301,947.23Z" style="mix-blend-mode:multiply" fill="#d1efff"/><rect width="75.76" height="153.9" x="409.52" y="819.6" fill="#b3e2ff" rx="34.71" transform="rotate(31.65 447.425 896.7)"/><path fill="#ebf7ff" d="M410.81,955.88h0a31.55,31.55,0,0,1-10.27-43.29l40.15-65.11A31.55,31.55,0,0,1,484,837.21h0a31.55,31.55,0,0,1,10.27,43.29l-40.15,65.12A31.55,31.55,0,0,1,410.81,955.88Z"/><rect width="62.95" height="3.4" x="416.62" y="893.69" fill="#a8deff" transform="rotate(31.66 448.077 895.268)"/><path d="M490.76,847.08c-.85,25.8-41.82,109.29-67.4,110.54A29.51,29.51,0,0,0,452.72,944l39.45-64A29.53,29.53,0,0,0,490.76,847.08Z" style="mix-blend-mode:multiply" fill="#d1efff"/><rect width="75.76" height="153.9" x="313.58" y="976.94" fill="#b3e2ff" rx="34.71" transform="rotate(31.65 351.478 1054.057)"/><path fill="#ebf7ff" d="M314.88,1113.23h0a31.57,31.57,0,0,1-10.27-43.3l40.14-65.11a31.56,31.56,0,0,1,43.3-10.27h0a31.55,31.55,0,0,1,10.27,43.29L358.17,1103A31.55,31.55,0,0,1,314.88,1113.23Z"/><rect width="62.95" height="3.4" x="320.69" y="1051.03" fill="#a8deff" transform="matrix(.85 .52 -.52 .85 604.89 -28.19)"/><path d="M394.83,1004.42c-.86,25.8-41.83,109.29-67.4,110.54a29.52,29.52,0,0,0,29.36-13.65l39.44-64A29.53,29.53,0,0,0,394.83,1004.42Z" style="mix-blend-mode:multiply" fill="#d1efff"/><path fill="#b3e2ff" d="M501.42,1019.61l-1.21-.74a37.28,37.28,0,0,1-12.13-51.15L529.83,900A37.28,37.28,0,0,1,581,887.87l1.21.74a37.28,37.28,0,0,1,12.13,51.15l-41.75,67.72A37.28,37.28,0,0,1,501.42,1019.61Z"/><path fill="#ebf7ff" d="M504.61,1013.08h0a31.57,31.57,0,0,1-10.27-43.3l40.15-65.11a31.56,31.56,0,0,1,43.3-10.27h0a31.56,31.56,0,0,1,10.27,43.3l-40.15,65.11A31.56,31.56,0,0,1,504.61,1013.08Z"/><rect width="62.95" height="3.4" x="510.42" y="950.88" fill="#a8deff" transform="rotate(31.66 541.875 952.464)"/><path d="M584.56,904.27c-.85,25.8-41.82,109.29-67.4,110.54a29.52,29.52,0,0,0,29.36-13.64l39.45-64A29.53,29.53,0,0,0,584.56,904.27Z" style="mix-blend-mode:multiply" fill="#d1efff"/><rect width="75.76" height="153.9" x="407.38" y="1034.13" fill="#b3e2ff" rx="34.71" transform="rotate(31.66 445.256 1110.956)"/><path fill="#ebf7ff" d="M408.68,1170.42h0a31.56,31.56,0,0,1-10.27-43.3L438.55,1062a31.57,31.57,0,0,1,43.3-10.27h0a31.56,31.56,0,0,1,10.27,43.3L452,1160.15A31.55,31.55,0,0,1,408.68,1170.42Z"/><rect width="62.95" height="3.4" x="414.48" y="1108.22" fill="#a8deff" transform="matrix(.85 .52 -.52 .85 648.87 -68.91)"/><path d="M488.63,1061.61c-.86,25.8-41.83,109.29-67.4,110.54a29.53,29.53,0,0,0,29.36-13.64l39.44-64A29.54,29.54,0,0,0,488.63,1061.61Z" style="mix-blend-mode:multiply" fill="#d1efff"/><path fill="#b3e2ff" d="M595.22,1076.8l-1.21-.74a37.28,37.28,0,0,1-12.13-51.15l41.75-67.72a37.28,37.28,0,0,1,51.15-12.13l1.21.74A37.28,37.28,0,0,1,688.12,997l-41.75,67.72A37.28,37.28,0,0,1,595.22,1076.8Z"/><path fill="#ebf7ff" d="M598.41,1070.27h0a31.56,31.56,0,0,1-10.27-43.3l40.15-65.11a31.56,31.56,0,0,1,43.3-10.27h0a31.56,31.56,0,0,1,10.27,43.3L641.71,1060A31.56,31.56,0,0,1,598.41,1070.27Z"/><rect width="62.95" height="3.4" x="604.22" y="1008.07" fill="#a8deff" transform="rotate(31.66 635.65 1009.647)"/><path d="M678.36,961.46c-.85,25.81-41.82,109.29-67.4,110.54a29.52,29.52,0,0,0,29.36-13.64l39.45-64A29.54,29.54,0,0,0,678.36,961.46Z" style="mix-blend-mode:multiply" fill="#d1efff"/><rect width="75.76" height="153.9" x="501.18" y="1091.32" fill="#b3e2ff" rx="34.71" transform="rotate(31.65 539.092 1168.47)"/><path fill="#ebf7ff" d="M502.48,1227.61h0a31.56,31.56,0,0,1-10.27-43.3l40.14-65.11a31.57,31.57,0,0,1,43.3-10.27h0a31.56,31.56,0,0,1,10.27,43.3l-40.15,65.11A31.55,31.55,0,0,1,502.48,1227.61Z"/><rect width="62.95" height="3.4" x="508.28" y="1165.41" fill="#a8deff" transform="matrix(.85 .52 -.52 .85 692.84 -109.62)"/><path d="M582.43,1118.8c-.86,25.81-41.83,109.29-67.4,110.55a29.55,29.55,0,0,0,29.36-13.65l39.44-64A29.54,29.54,0,0,0,582.43,1118.8Z" style="mix-blend-mode:multiply" fill="#d1efff"/><rect width="75.76" height="153.9" x="690.92" y="991.17" fill="#b3e2ff" rx="34.71" transform="rotate(31.65 728.855 1068.317)"/><path fill="#ebf7ff" d="M692.21,1127.46h0a31.55,31.55,0,0,1-10.27-43.29l40.15-65.12a31.55,31.55,0,0,1,43.29-10.27h0a31.55,31.55,0,0,1,10.27,43.3l-40.14,65.11A31.56,31.56,0,0,1,692.21,1127.46Z"/><rect width="62.95" height="3.4" x="698.02" y="1065.26" fill="#a8deff" transform="rotate(31.66 729.441 1066.826)"/><path d="M772.16,1018.66c-.85,25.8-41.82,109.29-67.4,110.54a29.51,29.51,0,0,0,29.36-13.65l39.44-64A29.51,29.51,0,0,0,772.16,1018.66Z" style="mix-blend-mode:multiply" fill="#d1efff"/><rect width="75.76" height="153.9" x="594.98" y="1148.51" fill="#b3e2ff" rx="34.71" transform="rotate(31.66 632.843 1225.388)"/><path fill="#ebf7ff" d="M596.28,1284.8h0A31.54,31.54,0,0,1,586,1241.51l40.14-65.12a31.57,31.57,0,0,1,43.3-10.27h0a31.57,31.57,0,0,1,10.27,43.3l-40.15,65.11A31.54,31.54,0,0,1,596.28,1284.8Z"/><rect width="62.95" height="3.4" x="602.08" y="1222.6" fill="#a8deff" transform="rotate(31.66 633.52 1224.149)"/><path d="M676.23,1176c-.86,25.8-41.83,109.29-67.4,110.54a29.53,29.53,0,0,0,29.36-13.65l39.44-64A29.53,29.53,0,0,0,676.23,1176Z" style="mix-blend-mode:multiply" fill="#d1efff"/><path fill="#f7a594" d="M264.8,795.15s9.87,12.24,11,27.41c.28,3.88-14.68-6.87-15.85-2.76-1.44,5,10.48,24.92,5.83,29.77-2.41,2.5-11.63-15.3-13.83-13.78-3.89,2.68,3.66,20.22.93,21.83-10.67,6.3-24-10-24-10S213.3,802,278.4,775.72C271.6,785.44,264.8,798.07,264.8,795.15Z"/><path fill="#f7a594" d="M627.07,750.94l38.66,142.39-69.54,182,28.89,15.93S730.7,933.77,738.69,895.74s-19.81-176.18-19.81-176.18Z"/><path fill="#4098ff" d="M725.64,743.82c-16.31-69.19-53.48-123.08-89.14-126.35s-27.41,37.22-13.15,159.11C640,779.58,708.79,768.79,725.64,743.82Z"/><path fill="#f7a594" d="M600.3,1071.08l-36.61,28.81s-.6,7.8,8.4,3.6,15.16-4.63,19.23-1.47-12.49,54.22-9.49,56c1.06.64,19.24-32.29,19.24-32.29s-1.84,29.89,1.71,31c2.87.94,11.11-31,11.11-31s6.45,22.47,9.12,23.36c3,1,3.13-27.07,3.13-27.07s8,14.63,8.55,12.82c2.4-7.8-3.78-60.78-3.78-60.78Z"/></g><rect width="3646.25" height="5.35" x="198.35" y="1759.33" fill="#214a63"/></g></svg>