<svg xmlns="http://www.w3.org/2000/svg" viewBox="0 0 165 165"><path fill="#1d79bb" d="M163.5 82.5c0-29.6-16.1-56.8-42.1-71V7.2c0-.6-.4-1-1-1h-10.7C101 3.1 91.8 1.5 82.5 1.5c-44.7 0-81 36.3-81 81 0 12.3 2.7 24.1 8 35.1v13.7c0 5.2 4.2 9.4 9.4 9.4h7.3c15.2 14.7 35.2 22.8 56.3 22.8s41.1-8.1 56.3-22.8h7.3c5.2 0 9.4-4.2 9.4-9.4v-13.7c5.3-11 8-22.8 8-35.1zm-2 0c0 10.5-2 20.6-6 30.2V67.9c0-5.2-4.2-9.4-9.4-9.4h-25v-3.4h12.2c.4 0 .8-.3.9-.7.1-.4 0-.8-.3-1.1l-16-13.4V16.5h2.5c.6 0 1-.4 1-1v-1.7c24.8 14 40.1 40.2 40.1 68.7zm-45.6-66v21.8l-13.1-11V16.5h13.1zm14.6 36.7H23.9L77.2 8.5c17.6 14.8 33.7 28.2 53.3 44.7zm-4.1 78.8H28.1v-5.9h98.3v5.9zm-7.3-76.8v69H35.4v-69h83.7zm-85.7 68.9h-6.3c-.6 0-1 .4-1 1v6.9h-4.2V67.2h11.4v56.9zm94 0h-6.3V67.2h11.4v64.9h-4.1v-6.9c0-.6-.5-1.1-1-1.1zm-8-109.6H99.3V8.2h20.2v6.3zM3.5 82.5c0-43.6 35.4-79 79-79 7 0 13.8.9 20.5 2.7h-4.7c-.6 0-1 .4-1 1v8.3c0 .6.4 1 1 1h2.5v9.2L77.9 6.4c-.4-.3-.9-.3-1.3 0l-56 47c-.3.3-.4.7-.3 1.1.1.4.5.7.9.7h12.2v3.4H18.9c-5.2 0-9.4 4.2-9.4 9.4v44.8c-4-9.7-6-19.8-6-30.3zm25.6 58.2h106.8c-14.6 13.4-33.5 20.8-53.4 20.8s-38.8-7.4-53.4-20.8zm124.4-9.4c0 4.1-3.3 7.4-7.4 7.4H18.9c-4.1 0-7.4-3.3-7.4-7.4V67.9c0-4.1 3.3-7.4 7.4-7.4h14.5v4.7H20.9c-.6 0-1 .4-1 1v66.9c0 .6.4 1 1 1h112.6c.6 0 1-.4 1-1V66.2c0-.6-.4-1-1-1h-12.4v-4.7h25c4.1 0 7.4 3.3 7.4 7.4v63.4z" class="color000000 svgShape"/><path fill="#1d79bb" d="M80.2 146.8c0-.6-.4-1-1-1H55c-.6 0-1 .4-1 1s.4 1 1 1h24.2c.5 0 1-.5 1-1zM88.1 146.8c0-.6-.4-1-1-1h-4c-.6 0-1 .4-1 1s.4 1 1 1h4c.5 0 1-.5 1-1zM90.5 147.8h2.6c.6 0 1-.4 1-1s-.4-1-1-1h-2.6c-.6 0-1 .4-1 1s.4 1 1 1zM110 150.7H85.8c-.6 0-1 .4-1 1s.4 1 1 1H110c.6 0 1-.4 1-1s-.4-1-1-1zM81.9 150.7h-4c-.6 0-1 .4-1 1s.4 1 1 1h4c.6 0 1-.4 1-1s-.4-1-1-1zM74.5 150.7h-2.6c-.6 0-1 .4-1 1s.4 1 1 1h2.6c.6 0 1-.4 1-1s-.4-1-1-1zM143.9 92.2c-4.1 0-7.4 3.3-7.4 7.4s3.3 7.4 7.4 7.4 7.4-3.3 7.4-7.4-3.4-7.4-7.4-7.4zm0 12.8c-3 0-5.4-2.4-5.4-5.4s2.4-5.4 5.4-5.4 5.4 2.4 5.4 5.4-2.5 5.4-5.4 5.4zM64.1 35.9C64.1 43.1 70 49 77.2 49s13.1-5.9 13.1-13.1-5.9-13.1-13.1-13.1-13.1 5.9-13.1 13.1zm24.2 0c0 6.1-5 11.1-11.1 11.1s-11.1-5-11.1-11.1 5-11.1 11.1-11.1 11.1 5 11.1 11.1z" class="color000000 svgShape"/><path fill="#1d79bb" d="M70.1 35.9c0 3.9 3.2 7.1 7.1 7.1s7.1-3.2 7.1-7.1-3.2-7.1-7.1-7.1-7.1 3.2-7.1 7.1zm12.2 0c0 2.8-2.3 5.1-5.1 5.1s-5.1-2.3-5.1-5.1 2.3-5.1 5.1-5.1 5.1 2.3 5.1 5.1zM77.2 93.3c-5.4 0-9.8 4.4-9.8 9.8s4.4 9.8 9.8 9.8 9.8-4.4 9.8-9.8c0-5.5-4.4-9.8-9.8-9.8zm0 17.5c-4.3 0-7.8-3.5-7.8-7.8s3.5-7.8 7.8-7.8S85 98.7 85 103s-3.5 7.8-7.8 7.8zM52.8 78.6c13.5-13.5 35.4-13.5 48.9 0 .4.4 1 .4 1.4 0 .4-.4.4-1 0-1.4-14.3-14.3-37.4-14.3-51.7 0-.4.4-.4 1 0 1.4s1 .4 1.4 0z" class="color000000 svgShape"/><path fill="#1d79bb" d="M77.2 75.4c-7.4 0-14.3 2.9-19.5 8.1-.4.4-.4 1 0 1.4s1 .4 1.4 0c4.8-4.8 11.3-7.5 18.1-7.5s13.3 2.7 18.1 7.5c.4.4 1 .4 1.4 0 .4-.4.4-1 0-1.4-5.2-5.2-12.1-8.1-19.5-8.1z" class="color000000 svgShape"/><path fill="#1d79bb" d="M64 89.8c-.4.4-.4 1 0 1.4s1 .4 1.4 0c6.5-6.5 17.1-6.5 23.6 0 .4.4 1 .4 1.4 0 .4-.4.4-1 0-1.4-7.3-7.3-19.1-7.3-26.4 0z" class="color000000 svgShape"/></svg>