<svg xmlns="http://www.w3.org/2000/svg" viewBox="0 0 16.933 16.933"><path style="line-height:normal;font-variant-ligatures:normal;font-variant-position:normal;font-variant-caps:normal;font-variant-numeric:normal;font-variant-alternates:normal;font-feature-settings:normal;text-indent:0;text-align:start;text-decoration-line:none;text-decoration-style:solid;text-decoration-color:#000;text-transform:none;text-orientation:mixed;shape-padding:0;isolation:auto;mix-blend-mode:normal" fill="#1d79bb" d="M6050.0662 2547.8388v5.5371l-6.6504 5.6933a1.0000999 1.0000999 0 0 0-.3496.7598v26.0078a1.0000999 1.0000999 0 0 0 1 1h14a1.0000999 1.0000999 0 0 0 1-1v-26.0078a1.0000999 1.0000999 0 0 0-.3496-.7598l-6.6504-5.6933v-5.5371zm.9981 11a.99997646.99997646 0 0 1 1 1 .99997646.99997646 0 0 1-1 1 .99997646.99997646 0 0 1-1-1 .99997646.99997646 0 0 1 1-1zm.5 8a1.0001 1.0001 0 0 1 1.0156 1.0156v.9844h.9726a1.0001 1.0001 0 1 1 0 2h-2.9843c-.5548 0-.9883.4328-.9883 1 0 .5672.4335 1 .9883 1h.9941c1.6418 0 2.9902 1.358 2.9902 3 0 1.6359-1.339 2.9881-2.9726 2.998v.9883a1.0001 1.0001 0 1 1-2 0v-.9863h-1a1.0001 1.0001 0 1 1 0-2h1.9844v0h.9961c.5546 0 .9902-.4328.9902-1 0-.5672-.4356-1-.9902-1h-.9941c-1.6418 0-2.9883-1.358-2.9883-3 0-1.642 1.3465-3 2.9883-3h.012v-.9844a1.0001 1.0001 0 0 1 .9844-1.0156zM6039.0404 2544.3465c-.8719.021-1.6112.3982-2.0743.8516-4.2105 4.1227-8.4026 8.2786-12.6035 12.416-3.2451 3.1961-4.2949 7.4913-4.2949 10.709v22.0078h8 3 1c-.01-2.3291 1.1633-3.7278 2.1504-5.332.9872-1.6042 1.8496-3.1151 1.8496-5.3438 0-1.9491-.328-3.4107-.7793-4.8847-.8582-2.8033-1.2227-6.0134-1.2227-11.4102v-.018c0-1.6552-1.3431-2.998-3-2.998-1.6569 0-3 1.3428-3 2.998v13.0195c-1.0095 0-2.0192-.6769-2-2.0292v-10.9883c0-2.7371 2.2634-4.9981 5-4.9981.8599 0 1.6652.2341 2.373.6289 2.5885-2.5916 5.3233-5.4136 7.627-7.6308.5531-.5287 1.01-1.1786 1-2-.014-1.1844 0-.0007 0-2 0-1.6422-1.3611-2.9981-3.0039-2.9981-.01-.0001-.013-.0001-.023 0zM6063.0921 2544.3465c.8719.021 1.6112.3982 2.0743.8516 4.2106 4.1227 8.4027 8.2786 12.6036 12.416 3.2451 3.1961 4.2948 7.4913 4.2948 10.709v22.0078h-8-3-1c.01-2.3291-1.1633-3.7278-2.1504-5.332-.9872-1.6042-1.8496-3.1151-1.8496-5.3438 0-1.9491.3281-3.4107.7794-4.8847.8581-2.8033 1.2227-6.0134 1.2227-11.4102v-.018c0-1.6552 1.3431-2.998 3-2.998 1.6569 0 3 1.3428 3 2.998v13.0195c1.0095 0 2.0192-.6769 2-2.0292v-10.9883c0-2.7371-2.2634-4.9981-5-4.9981-.86 0-1.6653.2341-2.373.6289-2.5885-2.5916-5.3233-5.4136-7.627-7.6308-.5531-.5287-1.01-1.1786-1-2 .014-1.1844 0-.0007 0-2 0-1.6422 1.3611-2.9981 3.0039-2.9981.01-.0001.013-.0001.023 0z" class="color3b3c3d svgShape" color="#000" font-family="sans-serif" font-weight="400" overflow="visible" transform="translate(-1592.545 -671.075) scale(.26458)"/></svg>