<svg xmlns="http://www.w3.org/2000/svg" enable-background="new 0 0 1364 960" viewBox="0 0 1364 960"><ellipse cx="682" cy="789.03" fill="#d4efff" rx="599.36" ry="52.08"/><path fill="#d8edff" d="M274.31,656.34h299.43c16.19-35.36,16.19-70.74,0-106.1H274.31C290.5,585.6,290.5,620.98,274.31,656.34z"/><path fill="#fff" d="M573.74,656.34h340.79c29.3,0,53.05-23.75,53.05-53.05v0c0-29.3-23.75-53.05-53.05-53.05H573.74
				C590.77,585.6,590.77,620.98,573.74,656.34z"/><path fill="#d8edff" d="M932.15,553.3c20.62,7.27,35.43,26.88,35.43,49.99l0,0c0,29.3-23.75,53.05-53.05,53.05h-55.69
				C939.71,630.1,936.17,573.26,932.15,553.3z"/><path fill="#52aceb" d="M923.76,668.93c24.21,0,44.83-18.05,47.95-41.99c2.08-15.95,2.24-31.71,0.47-46.86
					c-2.83-24.19-23.47-42.44-48.01-42.44H267.31c-4.45,0-8.05,3.61-8.05,8.05s3.61,8.05,8.05,8.05h656.86
					c16.37,0,30.13,12.12,32.01,28.2c1.62,13.83,1.47,28.26-0.45,42.9c-2.08,15.94-15.83,27.96-31.98,27.96l-656.44,0
					c-4.45,0-8.05,3.61-8.05,8.05s3.61,8.05,8.05,8.05L923.76,668.93z"/><polygon fill="#e65247" points="670.36 608.21 683.42 600.79 696.47 608.21 696.47 576.56 670.36 576.56"/><path fill="#d8edff" d="M716.93,588.72h200.05c1.16,0,2.09-0.94,2.09-2.09l0,0c0-1.16-0.94-2.09-2.09-2.09H716.93
						c-1.16,0-2.09,0.94-2.09,2.09l0,0C714.83,587.79,715.77,588.72,716.93,588.72z"/><path fill="#d8edff" d="M608.12,628.44H834.4c1.16,0,2.09-0.94,2.09-2.09l0,0c0-1.16-0.94-2.09-2.09-2.09H608.12
						c-1.16,0-2.09,0.94-2.09,2.09l0,0C606.02,627.51,606.96,628.44,608.12,628.44z"/><path fill="#d8edff" d="M716.93,609.01h126.59c1.16,0,2.09-0.94,2.09-2.09l0,0c0-1.16-0.94-2.09-2.09-2.09H716.93
						c-1.16,0-2.09,0.94-2.09,2.09l0,0C714.83,608.07,715.77,609.01,716.93,609.01z"/><path fill="#d8edff" d="M861.97,609.01h57.2c1.16,0,2.09-0.94,2.09-2.09l0,0c0-1.16-0.94-2.09-2.09-2.09h-57.2
						c-1.16,0-2.09,0.94-2.09,2.09l0,0C859.87,608.07,860.81,609.01,861.97,609.01z"/><path fill="#d8edff" d="M598.05,609.01h57.2c1.16,0,2.09-0.94,2.09-2.09l0,0c0-1.16-0.94-2.09-2.09-2.09h-57.2
						c-1.16,0-2.09,0.94-2.09,2.09l0,0C595.96,608.07,596.9,609.01,598.05,609.01z"/><path fill="#d8edff" d="M633.45,590.81h21.8c1.16,0,2.09-0.94,2.09-2.09l0,0c0-1.16-0.94-2.09-2.09-2.09h-21.8
						c-1.16,0-2.09,0.94-2.09,2.09l0,0C631.36,589.88,632.3,590.81,633.45,590.81z"/><path fill="#d8edff" d="M854.26,628.44h21.8c1.16,0,2.09-0.94,2.09-2.09l0,0c0-1.16-0.94-2.09-2.09-2.09h-21.8
						c-1.16,0-2.09,0.94-2.09,2.09l0,0C852.17,627.51,853.11,628.44,854.26,628.44z"/><path fill="#fff" d="M484.91,596.27H299.55c-1.07,0-1.94-0.87-1.94-1.94l0,0c0-1.07,0.87-1.94,1.94-1.94h185.36
						c1.07,0,1.94,0.87,1.94,1.94l0,0C486.85,595.4,485.98,596.27,484.91,596.27z"/><path fill="#fff" d="M484.91,615.06h-117.3c-1.07,0-1.94-0.87-1.94-1.94l0,0c0-1.07,0.87-1.94,1.94-1.94h117.3
						c1.07,0,1.94,0.87,1.94,1.94l0,0C486.85,614.2,485.98,615.06,484.91,615.06z"/><path fill="#fff" d="M350.52,615.06h-53c-1.07,0-1.94-0.87-1.94-1.94l0,0c0-1.07,0.87-1.94,1.94-1.94h53
						c1.07,0,1.94,0.87,1.94,1.94l0,0C352.46,614.2,351.59,615.06,350.52,615.06z"/><path fill="#fff" d="M569.04,615.06h-53c-1.07,0-1.94-0.87-1.94-1.94l0,0c0-1.07,0.87-1.94,1.94-1.94h53
						c1.07,0,1.94,0.87,1.94,1.94l0,0C570.98,614.2,570.11,615.06,569.04,615.06z"/><path fill="#fff" d="M549.2,598.2H529c-1.07,0-1.94-0.87-1.94-1.94l0,0c0-1.07,0.87-1.94,1.94-1.94h20.2
						c1.07,0,1.94,0.87,1.94,1.94l0,0C551.14,597.34,550.27,598.2,549.2,598.2z"/><path fill="#fff" d="M386.45,633.07h-20.2c-1.07,0-1.94-0.87-1.94-1.94l0,0c0-1.07,0.87-1.94,1.94-1.94h20.2
						c1.07,0,1.94,0.87,1.94,1.94l0,0C388.39,632.2,387.52,633.07,386.45,633.07z"/><path fill="#fff" d="M454.3,633.07h-53c-1.07,0-1.94-0.87-1.94-1.94l0,0c0-1.07,0.87-1.94,1.94-1.94h53
						c1.07,0,1.94,0.87,1.94,1.94l0,0C456.24,632.2,455.37,633.07,454.3,633.07z"/><path fill="#fff" d="M551.59,633.07h-53c-1.07,0-1.94-0.87-1.94-1.94l0,0c0-1.07,0.87-1.94,1.94-1.94h53
						c1.07,0,1.94,0.87,1.94,1.94l0,0C553.53,632.2,552.66,633.07,551.59,633.07z"/><path fill="#fff" d="M482.87,633.07h-20.2c-1.07,0-1.94-0.87-1.94-1.94l0,0c0-1.07,0.87-1.94,1.94-1.94h20.2
						c1.07,0,1.94,0.87,1.94,1.94l0,0C484.81,632.2,483.94,633.07,482.87,633.07z"/><path fill="#d8edff" d="M888.92,527.62H650.28c-12.9-28.18-12.9-56.38,0-84.56h238.64C876.02,471.24,876.02,499.44,888.92,527.62z"/><path fill="#fff" d="M650.28,527.62h-271.6c-23.35,0-42.28-18.93-42.28-42.28v0c0-23.35,18.93-42.28,42.28-42.28h271.6
				C636.7,471.24,636.7,499.44,650.28,527.62z"/><path fill="#d8edff" d="M364.63,445.49c-16.44,5.8-28.24,21.42-28.24,39.84l0,0c0,23.35,18.93,42.28,42.28,42.28h44.39
				C358.6,506.7,361.42,461.4,364.63,445.49z"/><path fill="#e65247" d="M371.32,537.65c-19.29,0-35.73-14.39-38.22-33.46c-1.66-12.71-1.79-25.28-0.38-37.34
					c2.25-19.28,18.71-33.82,38.26-33.82h523.51c3.55,0,6.42,2.87,6.42,6.42c0,3.54-2.87,6.42-6.42,6.42H370.99
					c-13.05,0-24.02,9.66-25.51,22.47c-1.29,11.02-1.17,22.52,0.36,34.19c1.66,12.71,12.62,22.29,25.49,22.29l523.18,0
					c3.55,0,6.42,2.87,6.42,6.42s-2.87,6.42-6.42,6.42L371.32,537.65z"/><polygon fill="#e65247" points="573.27 489.26 562.86 483.35 552.46 489.26 552.46 464.03 573.27 464.03"/><path fill="#d8edff" d="M536.16,473.73H376.72c-0.92,0-1.67-0.75-1.67-1.67l0,0c0-0.92,0.75-1.67,1.67-1.67h159.44
						c0.92,0,1.67,0.75,1.67,1.67l0,0C537.83,472.98,537.08,473.73,536.16,473.73z"/><path fill="#d8edff" d="M622.88,505.38H442.53c-0.92,0-1.67-0.75-1.67-1.67l0,0c0-0.92,0.75-1.67,1.67-1.67h180.34
						c0.92,0,1.67,0.75,1.67,1.67l0,0C624.55,504.64,623.8,505.38,622.88,505.38z"/><path fill="#d8edff" d="M536.16,489.9H435.27c-0.92,0-1.67-0.75-1.67-1.67l0,0c0-0.92,0.75-1.67,1.67-1.67h100.89
						c0.92,0,1.67,0.75,1.67,1.67l0,0C537.83,489.15,537.08,489.9,536.16,489.9z"/><path fill="#d8edff" d="M420.56,489.9h-45.59c-0.92,0-1.67-0.75-1.67-1.67l0,0c0-0.92,0.75-1.67,1.67-1.67h45.59
						c0.92,0,1.67,0.75,1.67,1.67l0,0C422.23,489.15,421.49,489.9,420.56,489.9z"/><path fill="#d8edff" d="M630.9,489.9h-45.59c-0.92,0-1.67-0.75-1.67-1.67l0,0c0-0.92,0.75-1.67,1.67-1.67h45.59
						c0.92,0,1.67,0.75,1.67,1.67l0,0C632.56,489.15,631.82,489.9,630.9,489.9z"/><path fill="#d8edff" d="M602.68,475.39h-17.38c-0.92,0-1.67-0.75-1.67-1.67l0,0c0-0.92,0.75-1.67,1.67-1.67h17.38
						c0.92,0,1.67,0.75,1.67,1.67l0,0C604.35,474.65,603.61,475.39,602.68,475.39z"/><path fill="#d8edff" d="M426.7,505.38h-17.38c-0.92,0-1.67-0.75-1.67-1.67l0,0c0-0.92,0.75-1.67,1.67-1.67h17.38
						c0.92,0,1.67,0.75,1.67,1.67l0,0C428.37,504.64,427.62,505.38,426.7,505.38z"/><path fill="#fff" d="M721.07,479.74H868.8c0.85,0,1.55-0.69,1.55-1.55l0,0c0-0.85-0.69-1.55-1.55-1.55H721.07
						c-0.85,0-1.55,0.69-1.55,1.55l0,0C719.53,479.05,720.22,479.74,721.07,479.74z"/><path fill="#fff" d="M721.07,494.72h93.48c0.85,0,1.54-0.69,1.54-1.55l0,0c0-0.85-0.69-1.55-1.54-1.55h-93.48
						c-0.85,0-1.55,0.69-1.55,1.55l0,0C719.53,494.03,720.22,494.72,721.07,494.72z"/><path fill="#fff" d="M828.18,494.72h42.24c0.85,0,1.55-0.69,1.55-1.55l0,0c0-0.85-0.69-1.55-1.55-1.55h-42.24
						c-0.85,0-1.55,0.69-1.55,1.55l0,0C826.63,494.03,827.33,494.72,828.18,494.72z"/><path fill="#fff" d="M654.02,494.72h42.24c0.85,0,1.55-0.69,1.55-1.55l0,0c0-0.85-0.69-1.55-1.55-1.55h-42.24
						c-0.85,0-1.55,0.69-1.55,1.55l0,0C652.47,494.03,653.17,494.72,654.02,494.72z"/><path fill="#fff" d="M669.83,481.28h16.1c0.85,0,1.55-0.69,1.55-1.55l0,0c0-0.85-0.69-1.55-1.55-1.55h-16.1
						c-0.85,0-1.55,0.69-1.55,1.55l0,0C668.28,480.59,668.98,481.28,669.83,481.28z"/><path fill="#fff" d="M799.54,509.07h16.1c0.85,0,1.55-0.69,1.55-1.55l0,0c0-0.85-0.69-1.55-1.55-1.55h-16.1
						c-0.85,0-1.55,0.69-1.55,1.55l0,0C798,508.38,798.69,509.07,799.54,509.07z"/><path fill="#fff" d="M745.47,509.07h42.24c0.85,0,1.55-0.69,1.55-1.55l0,0c0-0.85-0.69-1.55-1.55-1.55h-42.24
						c-0.85,0-1.55,0.69-1.55,1.55l0,0C743.92,508.38,744.61,509.07,745.47,509.07z"/><path fill="#fff" d="M667.93,509.07h42.24c0.85,0,1.55-0.69,1.55-1.55l0,0c0-0.85-0.69-1.55-1.55-1.55h-42.24
						c-0.85,0-1.55,0.69-1.55,1.55l0,0C666.38,508.38,667.07,509.07,667.93,509.07z"/><path fill="#fff" d="M722.7,509.07h16.1c0.85,0,1.55-0.69,1.55-1.55l0,0c0-0.85-0.69-1.55-1.55-1.55h-16.1
						c-0.85,0-1.55,0.69-1.55,1.55l0,0C721.15,508.38,721.85,509.07,722.7,509.07z"/><g><path fill="#3da863" d="M241.78,668.93h463.89v115.93H241.78c-15.97,0-28.91-12.94-28.91-28.91v-58.11
				C212.86,681.87,225.81,668.93,241.78,668.93z"/><path fill="#fff" d="M665.14,675.23h334.48c-15.77,35.31-16.61,69.8,0,103.33H665.14c-14.81,0-26.81-12-26.81-26.81v-49.71
				C638.33,687.23,650.33,675.23,665.14,675.23z"/><path fill="#d8edff" d="M638.33,750.88v-49.71c0-11.48,7.23-21.24,17.37-25.07c-0.85,35.4,6.53,84.8,85.6,101.59h-76.16
				C650.33,777.69,638.33,765.69,638.33,750.88z"/><path fill="#369457" d="M663.14,668.93h351.39c2.91,0,5.27,2.36,5.27,5.27c0,2.91-2.36,5.27-5.27,5.27h-5.27H663.14
				c-10.15,0-18.38,8.23-18.38,18.38v58.11c0,10.15,8.23,18.38,18.38,18.38h346.13h5.27c2.91,0,5.27,2.36,5.27,5.27
				c0,2.91-2.36,5.27-5.27,5.27H663.14c-15.97,0-28.91-12.94-28.91-28.91v-58.11C634.23,681.87,647.17,668.93,663.14,668.93z"/><path fill="#d8edff" d="M799.81,710.18h188.21c1.09,0,1.97-0.88,1.97-1.97l0,0c0-1.09-0.88-1.97-1.97-1.97H799.81
						c-1.09,0-1.97,0.88-1.97,1.97l0,0C797.84,709.3,798.72,710.18,799.81,710.18z"/><path fill="#d8edff" d="M799.81,729.27h119.1c1.09,0,1.97-0.88,1.97-1.97l0,0c0-1.09-0.88-1.97-1.97-1.97h-119.1
						c-1.09,0-1.97,0.88-1.97,1.97l0,0C797.84,728.39,798.72,729.27,799.81,729.27z"/><path fill="#d8edff" d="M936.27,729.27h53.82c1.09,0,1.97-0.88,1.97-1.97l0,0c0-1.09-0.88-1.97-1.97-1.97h-53.82
						c-1.09,0-1.97,0.88-1.97,1.97l0,0C934.3,728.39,935.18,729.27,936.27,729.27z"/><path fill="#d8edff" d="M714.39,729.27h53.81c1.09,0,1.97-0.88,1.97-1.97l0,0c0-1.09-0.88-1.97-1.97-1.97h-53.81
						c-1.09,0-1.97,0.88-1.97,1.97l0,0C712.42,728.39,713.3,729.27,714.39,729.27z"/><path fill="#d8edff" d="M734.53,712.15h20.51c1.09,0,1.97-0.88,1.97-1.97l0,0c0-1.09-0.88-1.97-1.97-1.97h-20.51
						c-1.09,0-1.97,0.88-1.97,1.97l0,0C732.56,711.27,733.44,712.15,734.53,712.15z"/><path fill="#d8edff" d="M899.78,747.55h20.51c1.09,0,1.97-0.88,1.97-1.97l0,0c0-1.09-0.88-1.97-1.97-1.97h-20.51
						c-1.09,0-1.97,0.88-1.97,1.97l0,0C897.81,746.67,898.69,747.55,899.78,747.55z"/><path fill="#d8edff" d="M830.89,747.55h53.81c1.09,0,1.97-0.88,1.97-1.97l0,0c0-1.09-0.88-1.97-1.97-1.97h-53.81
						c-1.09,0-1.97,0.88-1.97,1.97l0,0C828.92,746.67,829.8,747.55,830.89,747.55z"/><path fill="#d8edff" d="M732.11,747.55h53.81c1.09,0,1.97-0.88,1.97-1.97l0,0c0-1.09-0.88-1.97-1.97-1.97h-53.81
						c-1.09,0-1.97,0.88-1.97,1.97l0,0C730.14,746.67,731.02,747.55,732.11,747.55z"/><path fill="#d8edff" d="M801.89,747.55h20.51c1.09,0,1.97-0.88,1.97-1.97l0,0c0-1.09-0.88-1.97-1.97-1.97h-20.51
						c-1.09,0-1.97,0.88-1.97,1.97l0,0C799.92,746.67,800.8,747.55,801.89,747.55z"/><circle cx="577.12" cy="726.9" r="25.28" fill="#fff"/><path fill="#fff" d="M212.87,706.93v9.77H475.1c2.7,0,4.89-2.19,4.89-4.89c0-2.7-2.19-4.89-4.89-4.89H212.87z"/><path fill="#fff" d="M212.87,737.09v9.77H475.1c2.7,0,4.89-2.19,4.89-4.89c0-2.7-2.19-4.89-4.89-4.89H212.87z"/><path fill="#cbd9bf" d="M241.78,784.86c-15.97,0-28.91-12.94-28.91-28.91v-58.11c0-15.97,12.94-28.91,28.91-28.91h4.42
				c18.93,33.89,71.65,93.64,212.74,115.93H241.78z"/></g><path fill="#005387" d="M867.23,799.55l-8.68-37.22l-0.88-3.76l-10.94-46.9l-0.88-3.76l-9.19-39.37l-0.88-3.76l-10.06-43.14
		l-0.88-3.77l-10.06-43.14l-0.88-3.76l-10.06-43.14l-0.88-3.77l-10.06-43.14l-0.88-3.77l-2.71-11.6c1.43-1.11,2.35-2.84,2.35-4.79
		c0-3.35-2.71-6.06-6.06-6.06c-3.35,0-6.06,2.72-6.06,6.06c0,2.72,1.8,5.03,4.27,5.79l2.47,10.59h-67.73l-2.61-11.22
		c1.23-1.11,2.01-2.71,2.01-4.5c0-3.35-2.71-6.06-6.06-6.06c-3.35,0-6.06,2.72-6.06,6.06c0,2.88,2.01,5.29,4.7,5.9l2.28,9.81
		l0.87,3.77l10.02,43.14l0.87,3.77l10.02,43.14l0.87,3.76l10.02,43.14l0.87,3.77l10.02,43.14l0.87,3.76l9.15,39.37l0.87,3.76
		l10.89,46.9l0.87,3.76l9.05,38.97h-1.63v6.25h9.88v-6.25h-2.51l-9.05-38.97h67.99l8.68,37.22h-1.45v6.25h9.88v-6.25H867.23z
		 M719.45,480.93h67.73l10.06,43.14h-67.77L719.45,480.93z M730.35,527.83h67.77l10.06,43.14h-67.81L730.35,527.83z M741.24,574.73
		h67.82l10.06,43.14h-67.86L741.24,574.73z M752.14,621.63H820l10.06,43.14h-67.9L752.14,621.63z M763.03,668.53h67.9l9.19,39.37
		h-67.94L763.03,668.53z M783.95,758.57l-10.89-46.9H841l10.94,46.9H783.95z"/><g><path fill="#c22323" d="M720.58,385.7c0,0-36.02,5.33-35.41,4.97c0.61-0.36,65.93,33.14,65.93,33.14l64.35-28.83l-31.91-9.28
				H720.58z"/><path fill="#ffd4c2" d="M734.41,434.85c-0.18,0-0.36,0-0.54,0.01c-0.11,0-0.22,0-0.33,0c-9.16,0.11-15.15-0.12-15.15-0.12
					s-0.44,0.1-1.24,0.26c-7.84,1.63-50.08,9.67-46.48-6.24c3.16-13.98,28.5-12.24,38.67-10.96c0.04,0,0.07,0.01,0.1,0.01
					c2.54,0.32,4.1,0.61,4.1,0.61s5.04-2.17,13-5.26c0.33-0.13,0.66-0.27,1-0.39c26.22-10.18,81.36-29.46,95.63-17.87
					c0,0.01,0,0.01,0,0.01c0.16,0.12,0.31,0.26,0.46,0.39c0.01-0.01,0.02,0,0.03,0.02c0.15,0.14,0.3,0.29,0.44,0.44
					c0.13,0.12,0.25,0.26,0.36,0.41c0.05,0.04,0.09,0.1,0.13,0.15c0.16,0.2,0.31,0.41,0.45,0.62c0,0.01,0.01,0.01,0.01,0.01
					c0.15,0.23,0.29,0.46,0.42,0.71c0.13,0.23,0.23,0.47,0.33,0.71c0.23,0.52,0.41,1.08,0.54,1.67c0.13,0.6,0.24,1.18,0.31,1.76
					c0.13,1.03,0.18,2.03,0.14,3.01C825.63,430.51,764.29,434.45,734.41,434.85z"/><path fill="#c22323" d="M734.89,437.84l-1.01-2.99l-0.44-1.3c-0.01-0.01,0-0.02,0-0.02l-6.89-20.37l-0.99-2.92
					c26.24-10.19,83.09-27.45,97.61-15.37l0.01,0.01c0.16,0.13,0.32,0.26,0.46,0.41c0.01-0.01,0.02,0,0.03,0.02
					c0.15,0.14,0.3,0.29,0.44,0.44c0.13,0.12,0.25,0.26,0.36,0.41c0.05,0.04,0.09,0.1,0.13,0.15c0.16,0.2,0.31,0.41,0.45,0.62
					c0,0.01,0.01,0.01,0.01,0.01c0.15,0.23,0.29,0.46,0.42,0.71c0.13,0.23,0.23,0.47,0.33,0.71c0.23,0.52,0.41,1.08,0.54,1.67
					c0.13,0.6,0.24,1.18,0.31,1.76c0.13,1.03,0.18,2.03,0.14,3.01C825.72,430.83,764.78,437.45,734.89,437.84z"/><path fill="#0a2036" d="M713.52,418.49c0,0-47.79-9.34-49.87,10.86c-2.24,21.7,54.73,5.45,54.73,5.45s-21.97,4.81-20.93-7.51
					C698.46,415.37,713.52,418.49,713.52,418.49z"/><path fill="#ffd4c2" d="M784.53,336.47c-9.38,13.17-0.99,49.22-0.99,49.22h-62.96c1.74-2.47,6.64-33.54-4.4-50.67
				c-17.82-27.63,1.38-49.12,1.38-49.12l26.18-4.76l1.67-8.34l1.15-5.74l0.27-1.33h11.78l0.43,2.5l0.92,5.46l1.36,8.05l24.07,5.23
				C785.39,286.98,806,306.3,784.53,336.47z"/><path fill="#ffbc47" d="M784.52,336.48c-9.38,13.17-0.98,49.21-0.98,49.21h-62.97c1.48-2.1,5.25-24.96-0.48-42.26
				c-1-3.03-2.29-5.87-3.92-8.42c-17.81-27.63,1.38-49.11,1.38-49.11l26.2-4.77c1,5.86,15.29,5.51,17.57,0.6l24.06,5.23
				C785.38,286.98,806.01,306.29,784.52,336.48z"/><path fill="#c4626e" d="M720.58,385.7c1.48-2.1,5.25-24.96-0.48-42.26c12.42-3.61,10.32,30.85,31,42.26H720.58z"/><path fill="#ffd4c2" d="M818.77,363.88c-0.65,4.08-3.53,8.5-7.78,12.88c-10.88,11.17-33.03,10.67-48.23,14.73l-1.59-8.1
				c0,0,27.13-7.65,32.97-17.17c0.62-1.02,1.05-1.96,1.22-2.81c1.98-9.48-9-21.34-9-21.34L785.19,287
				C785.19,287,822.07,343.13,818.77,363.88z"/><path fill="#ffbc47" d="M819.13,363.87c-0.7,3.84-3.01,8.66-6.84,12.86c-0.4,0.44-1.07,0.52-1.57,0.2l-4.66-3.03l-12.23-7.92
				c0.62-1.01,0.94-2.03,1.11-2.88c1.98-9.48-15.61-24.15-15.61-24.15l4.23-52.29c5.67-0.25,14.98,12.68,22.71,28.53
				c0,0,0.01,0.02,0.02,0.06C814.65,332.4,821.14,352.95,819.13,363.87z"/><path fill="#ffd4c2" d="M742.71,383.52l0.28,5.38c0.49-0.17,0.45-0.88-0.06-0.98c-13.55-2.8-35.81,1.07-46.65-8.13
				c-6.68-5.68-10.33-12.67-11.19-18.06c-3.3-20.74,32.67-75.78,32.67-75.78l-1.33,54.99c0,0-10.98,11.86-9,21.34
				c0.34,1.69,1.69,3.77,3.63,6.04C719.19,377.87,742.71,383.52,742.71,383.52z"/><path fill="#ffbc47" d="M707.43,362.29c0.34,1.69,2.65,3.16,4.59,5.44l-11.36,9.45l-4.57,3.79c-6.68-5.68-10.6-12.95-12.07-18.21
				c-2.27-8.09,0.96-21.91,6.41-35.64c0.02-0.08,0.04-0.11,0.04-0.11c8.22-20.71,21.45-41.16,28.37-41.33l3.99,55.8
				C722.82,341.48,705.45,352.81,707.43,362.29z"/><path fill="#ffd4c2" d="M831.77,426.97c3.79,16.18-39.29,8.34-47.29,6.75c-0.82-0.16-1.27-0.26-1.27-0.26s-6.24,0.29-15.77,0.25
					c-0.19,0-0.37,0-0.56,0c-13.83-0.07-34.28-0.83-52.6-4.1c-22.48-4.01-41.78-11.77-41.74-26.66c0-0.03,0-0.06,0-0.08
					c0.01-0.61,0.04-1.22,0.11-1.85c0-0.02,0-0.02,0-0.03c0.08-0.65,0.19-1.3,0.32-1.97c0.13-0.6,0.3-1.17,0.53-1.71
					c0.1-0.25,0.21-0.49,0.33-0.73c0.13-0.25,0.27-0.49,0.42-0.72c0,0,0.01,0,0.01-0.01c0.14-0.22,0.29-0.43,0.45-0.63
					c0.04-0.06,0.09-0.12,0.13-0.16c0.11-0.15,0.24-0.29,0.36-0.42c0.14-0.15,0.29-0.31,0.44-0.45c0-0.02,0.02-0.03,0.03-0.02
					c1.74-1.62,4.17-2.72,7.16-3.38c20.55-4.57,67.2,11.42,90.85,20.38c0.34,0.13,0.69,0.26,1.02,0.39
					c8.13,3.08,13.29,5.24,13.29,5.24s1.59-0.31,4.17-0.66c0.03-0.01,0.06-0.01,0.1-0.01C802.64,414.74,828.43,412.76,831.77,426.97
					z"/><path fill="#db3939" d="M775.72,408.58l-0.98,2.98l-7.29,22.15l-1.01,3.05c-12.55-0.06-30.47-1.15-47.29-4.27c0,0,0,0-0.01-0.01
					c-24.49-4.54-46.68-13.36-46.59-29.54c0-0.03,0-0.06,0-0.08c0.01-0.61,0.05-1.23,0.11-1.85c0-0.02,0-0.02,0-0.03
					c0.08-0.65,0.19-1.3,0.32-1.97c0.13-0.6,0.3-1.17,0.53-1.71c0.1-0.25,0.21-0.49,0.33-0.73c0.13-0.25,0.27-0.49,0.42-0.72
					c0,0,0.01,0,0.01-0.01c0.14-0.22,0.29-0.43,0.45-0.63c0.04-0.06,0.09-0.12,0.13-0.16c0.11-0.15,0.24-0.29,0.36-0.42
					c0.14-0.15,0.29-0.31,0.44-0.45c0-0.02,0.02-0.03,0.03-0.02c1.8-1.73,4.36-2.93,7.52-3.69
					C704.36,385.32,752.12,399.65,775.72,408.58z"/><path fill="#0a2036" d="M788.04,416.88c0,0,48.6-9.91,50.89,10.65c2.46,22.09-55.7,6.01-55.7,6.01s21.24,4.02,20.08-8.52
					C802.18,412.89,788.04,416.88,788.04,416.88z"/><path fill="#fff" d="M796.08,337.11v51.68c0,2.78-2.26,5.04-5.04,5.04h-79.18c-2.78,0-5.04-2.26-5.04-5.04v-51.68
				c0-2.78,2.26-5.04,5.04-5.04h79.18C793.82,332.07,796.08,334.33,796.08,337.11z"/><path fill="#e2edf0" d="M743.56,362.95c0-4.36,3.53-7.89,7.89-7.89c4.35,0,7.89,3.53,7.89,7.89s-3.53,7.89-7.89,7.89
				C747.1,370.84,743.56,367.31,743.56,362.95z"/><path fill="#fff" d="M796.08,337.11v51.68c0,2.78-2.26,5.04-5.04,5.04h-79.18c-2.78,0-5.04-2.26-5.04-5.04
				c80.08,3.68,89.26-8.07,84.22-56.72C793.82,332.07,796.08,334.33,796.08,337.11z"/><path fill="#ffd4c2" d="M731.2,220.66c0,0-11.04,19.73-6.17,36.87c2.48,8.74,10.44,17.87,21.4,17.3
				c17.39-0.9,21.95-12.75,23.2-19.82c1.98-11.27,2.07-22.93-0.08-29.65L731.2,220.66z"/><ellipse cx="754.71" cy="248.31" fill="#222731" rx="3.26" ry="2.28" transform="rotate(-88.642 754.736 248.306)"/><ellipse cx="732.69" cy="247.5" fill="#222731" rx="2.03" ry="2.9" transform="rotate(-2.144 732.775 247.054)"/><path fill="#f2e0d5" d="M740.42,250.31c1.08-1.83,3.03-3.33,3.13-5.65c0.04-0.37,0.61-0.42,0.67-0.03c1.26,2.92-2.37,4.65-2.5,6.84
				c-0.16,2.74,3.42,3.47,2.05,3.56C742.13,255.13,739.08,253.59,740.42,250.31z"/><path fill="#0a2036" d="M751.54,242.86c0.12-0.14,0.26-0.26,0.4-0.37c0.31-0.26,0.65-0.45,1.02-0.62c0.69-0.31,1.45-0.4,2.2-0.31
				c1.45,0.17,2.55,1.21,3.14,2.49c0.21,0.46-0.56,0.82-0.8,0.38c-0.26-0.48-0.59-0.82-1.08-1.08c-0.43-0.22-0.94-0.4-1.39-0.41
				c-0.26,0-0.48,0.02-0.68,0.07c-0.14,0.04-0.28,0.08-0.42,0.13c-0.14,0.05-0.14,0.06-0.26,0.12c-0.25,0.14-0.44,0.27-0.59,0.41
				c-0.28,0.26-0.46,0.59-0.85,0.72c-0.46,0.15-1.06-0.2-1.04-0.73C751.21,243.34,751.31,243.1,751.54,242.86z"/><path fill="#0a2036" d="M735.06,241.97c-0.12-0.11-0.25-0.21-0.39-0.3c-0.3-0.21-0.61-0.35-0.95-0.47
				c-0.64-0.22-1.32-0.24-1.97-0.1c-1.27,0.27-2.16,1.28-2.59,2.46c-0.15,0.42,0.57,0.68,0.74,0.27c0.19-0.45,0.46-0.78,0.87-1.04
				c0.37-0.23,0.8-0.43,1.2-0.48c0.23-0.02,0.42-0.02,0.61,0.01c0.13,0.02,0.26,0.05,0.38,0.09c0.13,0.04,0.13,0.04,0.24,0.09
				c0.23,0.1,0.41,0.21,0.55,0.32c0.27,0.21,0.45,0.49,0.81,0.57c0.42,0.1,0.93-0.27,0.86-0.73
				C735.39,242.37,735.28,242.16,735.06,241.97z"/><path fill="#fff" d="M739.68,259.89c-0.04,1.22,0.45,2.35,1.28,3.2c0.89,0.92,2.17,1.51,3.61,1.56
						c1.55,0.05,2.95-0.55,3.89-1.53c0.76-0.78,1.23-1.8,1.27-2.92c0.08-2.54-3.21-0.73-5.08-0.78
						C743.08,259.37,739.76,257.35,739.68,259.89z"/><path fill="#fff" d="M740.96,263.09c0.89,0.92,2.17,1.51,3.61,1.56c1.55,0.05,2.95-0.55,3.89-1.53
						c-0.73-0.78-2.07-1.33-3.62-1.37C743.16,261.7,741.69,262.25,740.96,263.09z"/><ellipse cx="755.27" cy="254.72" fill="#ffba9e" rx="5.55" ry="2.28" transform="rotate(-2.144 755.353 254.254)"/><ellipse cx="732.1" cy="254.09" fill="#ffba9e" rx="4.4" ry="1.81" transform="rotate(-2.144 732.193 253.646)"/><circle cx="754.1" cy="247.38" r=".63" fill="#fff"/><circle cx="732.2" cy="246.47" r=".56" fill="#fff"/><path fill="#0a2036" d="M721.91,221.93c-1.82,3.5-2.64,14.34,7.87,15.95c10.48,1.61,18.42-4.6,22.13-5.2
			c13.31-2.13,3.32,17.13,16.66,19.61c0.23-3.84,1.02-5.72,2.43-9.28c2.81-0.51,4.81,2.61,5.41,3.9c0,0,10.37-23.52-5.2-29.3
			c0,0-3.2-6.04-8.5-7.62C753.7,207.29,729.82,206.72,721.91,221.93z"/><path fill="#cf4242" d="M747.23,245.24l0.42-0.62l-1.25-0.85c-0.93-0.63-1.99-0.97-3.07-0.98l-0.53-0.01
					c-1.19-0.01-2.36,0.37-3.37,1.12l-0.87,0.64l0.44,0.6l0.87-0.64c0.88-0.65,1.89-0.98,2.92-0.97l0.53,0.01
					c0.93,0.01,1.85,0.3,2.65,0.85L747.23,245.24z"/><path fill="#cf4242" d="M755.77,240.32l-5.16-0.05c-2.1-0.03-3.82,1.64-3.89,3.73c0,0.03-0.01,0.06,0,0.09l-0.01,0.81l0,0.27
						c0,0.17,0,0.34,0.01,0.51c0.22,4.46,3.88,8.02,8.4,8.07c3.46,0.03,6.29-2.74,6.32-6.2l0.01-1.42
						C761.48,242.94,758.94,240.35,755.77,240.32z M760.44,246.23l-0.01,1.22c-0.03,2.99-2.47,5.39-5.46,5.36
						c-3.9-0.04-7.06-3.12-7.25-6.97c-0.01-0.15-0.01-0.29-0.01-0.44l0.01-0.93c0.02-1.84,1.52-3.31,3.36-3.29l4.46,0.04
						C758.27,241.26,760.47,243.5,760.44,246.23z"/><path fill="#cf4242" d="M735.41,239.36l-5.16-0.05c-3.17-0.03-5.77,2.51-5.8,5.69l-0.01,1.42c-0.03,3.46,2.74,6.29,6.2,6.33
						c0.17,0,0.34,0,0.51-0.01c4.23-0.21,7.66-3.52,8.04-7.72c0.02-0.23,0.03-0.45,0.03-0.68l0-0.27l0.01-0.81
						C739.25,241.12,737.54,239.38,735.41,239.36z M738.22,243.63l-0.01,0.93c-0.04,3.9-3.12,7.06-6.97,7.25
						c-0.15,0.01-0.29,0.01-0.44,0.01c-2.99-0.03-5.39-2.47-5.36-5.46l0.01-1.22c0.03-2.74,2.27-4.94,5.01-4.91l4.46,0.04
						C736.76,240.29,738.24,241.79,738.22,243.63z"/><rect width="9.95" height="1.09" x="761.11" y="244.8" fill="#cf4242" transform="rotate(-2.807 765.814 244.912)"/><path fill="#ffd4c2" d="M775.91,242c-0.87-1.67-2.45-1.26-3.77-0.49c-1.22,0.71-1.93,2.08-1.76,3.49c0.43,3.38-1.47,6.88-2.03,10.36
			C777.28,255.16,777.59,245.21,775.91,242z"/><path fill="#f2e0d5" d="M774.45,244.62c-0.63-0.34-1.57-0.24-1.94,0.43c-0.16,0.3,0.23,0.59,0.44,0.3c0.16-0.22,0.44-0.32,0.69-0.22
			c0.23,0.08,0.42,0.36,0.51,0.57c0.29,0.66-0.05,1.43-0.33,2.03c-0.28,0.6-0.64,1.17-1.05,1.68c-0.44,0.55-1.03,0.95-1.47,1.49
			c-0.42,0.51,0.27,1.3,0.84,0.98c0.44-0.25,0.77-0.66,1.09-1.04c0.3-0.35,0.57-0.73,0.82-1.12c0.5-0.8,0.93-1.7,1.14-2.63
			C775.38,246.26,775.3,245.07,774.45,244.62z"/></g><g><path fill="#8a5447" d="M482.53,288.63c-0.08-2.56-0.67-5.09-1.74-7.42c-1.18-2.58-2.99-4.75-4.63-7.04
					c-1.77-2.47-3.46-5.47-3.07-8.63c0.02-0.19-0.25-0.27-0.3-0.07c-1.15,5.4,3,9.48,5.61,13.69c2.8,4.51,3.56,10.05,2.08,15.14
					c-0.42,1.45-1.02,2.85-1.78,4.15c-0.81,1.4-1.84,2.61-2.8,3.9c-0.26,0.34,0.1,0.94,0.52,0.64c2.17-1.57,3.7-4.15,4.7-6.6
					C482.14,293.94,482.62,291.29,482.53,288.63z"/><path fill="#8a4728" d="M479.37,285.74c-1.5-3.91-4.21-7.32-5.3-11.36c-1.71-6.31,0.77-12.93,0.95-19.47
					c0.27-10.46-6-20.81-15.39-25.41l-15.91-9.67c-3.69-1.19-7.73-0.53-11.19,1.3c-4.25,1.38-8.08,4.06-10.79,7.62
					c-1.61,2.12-2.81,4.48-3.59,7.02c-0.94,3.08-1.42,6.34-3.04,9.18c-2.9,5.07-8.38,7.89-12.07,12.29
					c-1.81,2.17-3.34,4.73-3.72,7.57c-0.32,2.36,0.25,4.58,1.22,6.72c1.42,3.12,3.64,5.93,5.06,9.04c0.08,0.47,0.14,0.95,0.15,1.43
					c0.09,3.58-1.85,6.95-1.85,10.53c-0.01,6.14,5.85,10.98,11.88,12.1c6.03,1.12,12.19-0.52,18.16-1.96
					c5.97-1.44,12.31-2.68,18.16-0.8c4.72,1.51,8.8,4.98,13.73,5.49c5.07,0.53,10.19-2.45,12.73-6.87
					C481.1,296.09,481.2,290.5,479.37,285.74z M420.85,238.88c-0.62,2.64-1.07,5.37-2.35,7.76c-2.23,4.17-6.62,6.64-10.26,9.65
					c-3.63,3.01-6.84,7.21-6.62,11.92c0.13,2.64,1.31,5.07,2.37,7.52c-0.48-0.77-0.96-1.53-1.39-2.29
					c-1.11-1.92-2.06-3.96-2.28-6.19c-0.29-2.87,0.83-5.58,2.52-7.86c3.37-4.55,8.54-7.33,12-11.8c1.86-2.4,2.84-5.14,3.57-8.05
					c0.71-2.82,1.39-5.61,2.82-8.17c2.1-3.76,5.29-6.86,9.08-8.86c-0.69,0.5-1.35,1.05-1.95,1.64
					C424.36,228.05,422.14,233.44,420.85,238.88z"/><path fill="#ffdbcc" d="M461.8,291.45c0.79,25.11-18.14,17.37-27.59,0.94c1.47-1.41,2.2-3.17,2.58-5.26
				c0.49-2.65,0.43-5.83,0.65-9.5c0.03-0.62,0.08-1.27,0.14-1.92l1.56-0.17l3.7-0.4l11.79-1.29c-0.05,1.16-0.13,2.4-0.22,3.66
				c-0.27,4.25-0.54,8.82,0.27,11.87C455.05,290.81,460.84,290.87,461.8,291.45z"/><path fill="#edd0be" d="M428.94,255.17c0.7-0.09,1.53,0.33,1.63,1.08c0.04,0.33-0.42,0.46-0.51,0.12
				c-0.07-0.26-0.29-0.45-0.56-0.45c-0.24,0-0.51,0.18-0.67,0.34c-0.5,0.5-0.46,1.34-0.41,1.99c0.04,0.65,0.17,1.3,0.37,1.92
				c0.21,0.66,0.61,1.24,0.83,1.89c0.2,0.62-0.71,1.1-1.12,0.6c-0.31-0.39-0.48-0.88-0.64-1.35c-0.15-0.43-0.27-0.87-0.36-1.32
				c-0.18-0.92-0.26-1.9-0.12-2.83C427.5,256.36,428,255.29,428.94,255.17z"/><path fill="#ffdbcc" d="M470.78,226.15c0,0,11.62,22.56,5.5,41.59c-3.12,9.71-11.68,16.14-23.98,16.71
					c-17.02,0.8-21.45-12.46-22.57-20.44c-1.79-12.71,0.03-26.17,2.71-33.62L470.78,226.15z"/><path fill="#ffdbcc" d="M422.71,251.05c2.01-3.53,6.66,1.63,6.66,1.63l1.3,13.64C420.67,265.76,420.7,254.58,422.71,251.05z"/><path fill="#8a4728" d="M428.82,256.27c0.21,0.05,0.71-5.03,1.93-5.27c1.24-0.24,2.46-0.6,3.63-1.06
				c4.39-1.73,8.09-4.94,10.32-9.11c1.77-3.31,2.5-7.07,2.2-10.77c0.42-0.61,0.81-1,1.17-1.06c17.85-3.01,26.89,16.16,30.66,16.05
				c1.9-11.15-2.97-21.9-12.84-27.42c-9.87-5.52-23.49-5.23-32.06,2.16C423.5,228.71,423.86,251.77,428.82,256.27z M435.15,248.29
				c5.42-4.17,8.71-12.82,10.99-16.98c-0.17,4.44-1.79,8.85-4.7,12.22C439.71,245.53,437.55,247.15,435.15,248.29z"/><ellipse cx="444.54" cy="256.01" fill="#222731" rx="2.61" ry="3.73" transform="rotate(-5.126 444.438 256.104)"/><ellipse cx="469.59" cy="253.45" fill="#222731" rx="2.32" ry="3.32" transform="rotate(-1.621 470.02 254.146)"/><path fill="#edd0be" d="M460.99,257.22c-1.36-2.01-3.7-3.57-3.99-6.21c-0.07-0.42-0.72-0.43-0.77,0.01
					c-1.22,3.42,3.05,5.12,3.36,7.62c0.39,3.11-3.64,4.21-2.08,4.21C459.4,262.85,462.76,260.87,460.99,257.22z"/><path fill="#8a5447" d="M447.75,249.56c-0.15-0.15-0.32-0.27-0.49-0.4c-0.38-0.27-0.77-0.47-1.21-0.63
					c-0.81-0.3-1.69-0.35-2.53-0.19c-1.64,0.31-2.82,1.57-3.4,3.08c-0.21,0.54,0.71,0.9,0.94,0.37c0.26-0.57,0.61-0.98,1.15-1.31
					c0.48-0.29,1.04-0.53,1.56-0.57c0.29-0.02,0.54-0.02,0.78,0.03c0.17,0.03,0.33,0.07,0.49,0.12c0.16,0.05,0.17,0.05,0.3,0.12
					c0.29,0.14,0.52,0.28,0.7,0.43c0.34,0.28,0.57,0.64,1.02,0.76c0.54,0.14,1.2-0.31,1.13-0.91
					C448.17,250.08,448.03,249.82,447.75,249.56z"/><path fill="#8a5447" d="M466.47,247.31c0.13-0.13,0.27-0.25,0.42-0.37c0.32-0.26,0.67-0.45,1.05-0.6
					c0.71-0.29,1.49-0.37,2.24-0.26c1.47,0.21,2.56,1.29,3.13,2.62c0.2,0.47-0.59,0.82-0.83,0.36c-0.25-0.5-0.58-0.85-1.07-1.12
					c-0.44-0.24-0.94-0.43-1.41-0.45c-0.26-0.01-0.48,0-0.7,0.05c-0.15,0.03-0.29,0.08-0.43,0.13c-0.14,0.05-0.15,0.05-0.27,0.12
					c-0.25,0.13-0.45,0.27-0.61,0.41c-0.29,0.26-0.48,0.59-0.88,0.71c-0.47,0.14-1.08-0.23-1.04-0.77
					C466.13,247.79,466.24,247.55,466.47,247.31z"/><path fill="#942525" d="M462.55,268.1c0.13,1.39-0.34,2.72-1.22,3.74c-0.94,1.11-2.36,1.89-4,2.04
							c-1.76,0.17-3.4-0.41-4.56-1.45c-0.92-0.83-1.54-1.96-1.66-3.24c-0.28-2.9,3.6-1.07,5.74-1.27
							C458.64,267.75,462.27,265.2,462.55,268.1z"/><path fill="#ff7878" d="M461.33,271.84c-0.94,1.11-2.36,1.89-4,2.04c-1.76,0.17-3.4-0.41-4.56-1.45
							c0.78-0.95,2.27-1.67,4.03-1.84C458.71,270.42,460.44,270.93,461.33,271.84z"/><ellipse cx="444.39" cy="263.36" fill="#ffb394" rx="6.35" ry="2.61" transform="rotate(-1.621 444.774 264.055)"/><ellipse cx="470.76" cy="260.92" fill="#ffb394" rx="5.03" ry="2.07" transform="rotate(-1.621 471.18 261.632)"/><circle cx="445.16" cy="254.91" r=".72" fill="#fff"/><circle cx="470.08" cy="252.24" r=".64" fill="#fff"/><path fill="#edd0be" d="M425.26,253.35c0.77-0.23,1.78,0.1,2.02,0.93c0.11,0.36-0.39,0.59-0.55,0.23
				c-0.12-0.28-0.41-0.45-0.71-0.41c-0.27,0.04-0.54,0.29-0.7,0.51c-0.48,0.65-0.27,1.58-0.11,2.31c0.29,1.28,0.46,1.51,0.76,2.09
				c0.35,0.7,0.91,1.28,1.26,1.97c0.34,0.66-0.6,1.36-1.15,0.88c-0.42-0.38-0.69-0.9-0.96-1.4c-0.25-0.46-0.46-0.93-0.63-1.42
				c-0.36-1-0.63-2.08-0.63-3.15C423.85,254.94,424.22,253.66,425.26,253.35z"/><path fill="#fac9b4" d="M573.34,564.43c-2.48,4.12-12.46,3.23-15.71,1.25c-3.25-1.98-9.12-6.52-12.08-6.45
				c-2.96,0.07-9.21,0.3-10.6-2.71c-1.27-2.75-0.04-7.88,0.51-11.87l0.01,0c0.45-3.21-2.53-16.22-2.53-16.22l17.41,1.23
				c0,0-2.11,12.11,0.01,16.13c1.32,2.5,4.75,5.15,7.97,6.42C559.6,552.7,574.85,561.93,573.34,564.43z"/><path fill="#004c72" d="M576.25,564.73c-2.48,4.12-15.37,2.93-18.62,0.94c-3.25-1.98-9.12-6.52-12.08-6.45
				c-2.96,0.07-9.21,0.3-10.6-2.71c-1.27-2.75-0.04-7.88,0.51-11.87l0.01,0c0,0,1.46,3.47,3.56,6.05c2.11,2.58,20.3,10.8,22.83,2.97
				C566.28,553.86,577.76,562.23,576.25,564.73z"/><path fill="#ffd4c2" d="M457.73,562.24c-4.66,1.17-11.12-6.49-12.02-10.19c-0.91-3.69-1.87-11.06-4.03-13.09
				c-2.15-2.03-6.75-6.28-5.61-9.39c1.04-2.85,5.53-5.62,8.73-8.06l0.01,0c2.58-1.96,9.63-13.29,9.63-13.29l11.49,13.15
				c0,0-10.03,7.1-11.36,11.44c-0.83,2.7-0.26,7,1.13,10.17C456.24,544.24,460.56,561.53,457.73,562.24z"/><path fill="#004c72" d="M459.58,564.51c-4.66,1.17-12.97-8.75-13.87-12.45c-0.91-3.69-1.87-11.06-4.03-13.09
				c-2.15-2.03-6.75-6.28-5.61-9.39c1.04-2.85,5.53-5.62,8.73-8.06l0.01,0c0,0-1.41,3.49-1.73,6.8c-0.33,3.32,6.79,21.97,14.1,18.2
				C460.17,549.77,462.41,563.8,459.58,564.51z"/><path fill="#fac9b4" d="M549.29,540.68c-7.51,0.98-6.12,1.16-14.26-1.1c-3.1-16.58-14.21-82.18-7.17-113.68
			c0.27-1.21,22.92-12.41,22.92-12.41C564.49,428.42,549.5,529.07,549.29,540.68z"/><path fill="#fac9b4" d="M550.79,413.49c0.69,0.25-23.18,13.01-24.49,12.47c-12.68-5.25-67.93,12.18-91.72-8.42
			c-0.4-0.35-6.46-31.93,11.07-30.16C445.65,387.38,534.61,398.31,550.79,413.49z"/><path fill="#fac9b4" d="M500.19,347.68l30.29,33.66l-7.3,9.14c-18.82-14-44.01-26-47.15-41.65L500.19,347.68z"/><path fill="#d33531" d="M502.58,345.51c-6.95,7.32-19.08,14.65-29.53,18.44l-14.04-28l16.86-37.18
			C488.19,306.28,494.64,326.55,502.58,345.51z"/><path fill="#ffd4c2" d="M460.88,526.25c-7.52-3.58-6.32-2.71-12.49-9.68c11.72-15.72,30.72-63.93,56.06-88.84
				c0.97-0.96,23.42-1.83,23.42-1.83C536.94,452.28,469.38,517.61,460.88,526.25z"/><path fill="#ffd4c2" d="M492.06,442.59c0,0,36.48-16.25,35.8-16.69c-9.18-15.84-49.97-24.25-63.01-36.67
				c-12.59-4.39-40.29-12.81-41.46,4.75c-0.54,7.98-1.58,31.92,8.85,39.91C447.85,445.85,492.06,442.59,492.06,442.59z"/><path fill="#369457" d="M548.42,411.1c-16.97,8.11-44.58,15.17-56.35,31.49c0,0-45.68,5.55-60.3-7.43
			c-14.63-12.98-9.2-34.03-9.2-34.03L483.77,391C508.07,397.48,537.35,403.54,548.42,411.1z"/><path fill="#e65247" d="M415.53,338.03c1.07,1.99,2.37,3.91,3.76,5.81c6.17,8.51,13.95,16.74,10.19,30.1
			c-2.93,10.43-12.18,26.9-8.66,31.59c2.82,3.75,7.91,6.07,14.06,7.34c19.29,4.01,50.9-17.56,54.34-22.21
			c-2.38-5.39-8.06-16.83-8.36-22.01c-0.67-11.49,0.63-18.11,6.63-33.52c4.51-11.59,1.67-41.7-26.76-45.51
			c8.47,16.68-19.7,13.24-23.27,1.53c-5.15,0.94-14.35,6.87-17.73,10.84C410.71,312.58,410.12,322.3,415.53,338.03z"/><path fill="#fff" d="M459.52,304.26c-12.47,3.19-24.33-6.32-27.18-11.3c1.2-0.81,4.11-1.64,5.13-1.8
			c7.54,10.96,28.87,12.46,23.26-1.53c1.25-0.29,3.65,0.37,5.32,1.09C468,295.08,467,302.35,459.52,304.26z"/><g><path fill="#ffd4c2" d="M465.17,383.08l44.63,14.95l2.94,13.07c-23.62-1.4-53.93-5.04-65.96-14.31L465.17,383.08z"/><path fill="#ffd4c2" d="M465.17,383.08c0,0-17.51,14.71-18.38,13.71c-13.47-15.31-24.34-55.81-25.16-62.32
				c-2.4-19.06,20.28-12.38,24.05-3.11C451.27,345.11,465.17,383.08,465.17,383.08z"/><path fill="#d33531" d="M460.73,355.39c-10.57,8.28-21.89,9.8-32.4,11.47c0,0-27.31-42.26-2.85-53.29
				C450.7,302.2,460.73,355.39,460.73,355.39z"/></g><g><polygon fill="#205d73" points="451.26 413.49 488.64 413.49 552.08 413.49 567.57 365.04 504.14 365.04 489.75 409.78 451.26 409.78"/><path fill="#154759" d="M489.75,413.49h62.32l15.49-48.45h-7.4C548.09,411.44,507.46,404.56,489.75,413.49z"/></g><path fill="#8a4728" d="M407.2,300.11c2.42,4.21,8.59,9.22,14.08,9.65c0.82,0.07,1.86-0.02,2.99-0.2
			c4.61,0.74,10.25-0.32,13.44-3.99c1.57-1.81,1.92-4.07,1.03-6.28c-0.95-2.35-2.79-4.3-3.17-6.87c0.82-2.13,3.41-3.66,4.21-5.96
			c0.77-2.21-0.32-4.68-1.93-6.38c-1.6-1.7-3.67-2.88-5.46-4.39c-3.04-2.57-4.35-5.28-5.25-9.16L407.2,300.11z M427.37,308.85
			c2.39-0.67,4.75-1.6,6.15-2.45c2.73-1.66,4.57-5.12,3.53-8.14c-0.52-1.52-1.71-2.85-1.75-4.46c0-0.03,0-0.05,0-0.08
			c0.52,1.98,1.88,3.68,2.67,5.56c0.45,1.07,0.7,2.23,0.43,3.38c-0.28,1.2-1.07,2.24-1.98,3.04c-1.73,1.51-4.02,2.42-6.25,2.86
			C429.25,308.74,428.31,308.83,427.37,308.85z"/></g><g><path fill="#fff" d="M1208.53,704.39L971.02,447.11c-6.16,32.62-25.75,50.7-58.76,54.24l237.51,257.28
			c14.98,16.23,40.28,17.24,56.5,2.26l0,0C1222.5,745.91,1223.51,720.62,1208.53,704.39z"/><path fill="#d8edff" d="M1046.66,565.94l114.24,123.75c0.66,0.71,1.77,0.76,2.49,0.1l0,0c0.71-0.66,0.76-1.77,0.1-2.49
					l-114.24-123.75c-0.66-0.71-1.77-0.76-2.49-0.1l0,0C1046.04,564.11,1046,565.23,1046.66,565.94z"/><path fill="#d8edff" d="M1034.11,577.53l72.29,78.31c0.66,0.71,1.77,0.76,2.49,0.1l0,0c0.71-0.66,0.76-1.77,0.1-2.49l-72.29-78.31
					c-0.66-0.71-1.77-0.76-2.49-0.1l0,0C1033.49,575.7,1033.45,576.81,1034.11,577.53z"/><path fill="#d8edff" d="M1116.93,667.25l32.66,35.38c0.66,0.71,1.77,0.76,2.49,0.1l0,0c0.71-0.66,0.76-1.77,0.1-2.49l-32.67-35.38
					c-0.66-0.71-1.77-0.76-2.49-0.1l0,0C1116.32,665.42,1116.27,666.53,1116.93,667.25z"/><path fill="#d8edff" d="M982.26,521.36l32.66,35.38c0.66,0.72,1.77,0.76,2.49,0.1l0,0c0.71-0.66,0.76-1.77,0.1-2.49l-32.66-35.38
					c-0.66-0.72-1.77-0.76-2.49-0.1l0,0C981.64,519.53,981.6,520.65,982.26,521.36z"/><path fill="#d8edff" d="M1005.74,524.21l12.45,13.49c0.66,0.71,1.77,0.76,2.49,0.1l0,0c0.71-0.66,0.76-1.77,0.1-2.49l-12.45-13.49
					c-0.66-0.71-1.77-0.76-2.49-0.1l0,0C1005.12,522.39,1005.08,523.5,1005.74,524.21z"/><path fill="#d8edff" d="M1082.77,654.36l12.45,13.49c0.66,0.71,1.77,0.76,2.49,0.1l0,0c0.71-0.66,0.76-1.77,0.1-2.49l-12.45-13.49
					c-0.66-0.71-1.77-0.76-2.49-0.1l0,0C1082.15,652.53,1082.11,653.64,1082.77,654.36z"/><path fill="#d8edff" d="M1040.95,609.06l32.66,35.38c0.66,0.72,1.77,0.76,2.49,0.1l0,0c0.71-0.66,0.76-1.77,0.1-2.49l-32.66-35.38
					c-0.66-0.72-1.77-0.76-2.49-0.1l0,0C1040.34,607.23,1040.29,608.35,1040.95,609.06z"/><path fill="#d8edff" d="M980.99,544.11l32.66,35.38c0.66,0.72,1.77,0.76,2.49,0.1l0,0c0.71-0.66,0.76-1.77,0.1-2.49l-32.66-35.38
					c-0.66-0.72-1.77-0.76-2.49-0.1l0,0C980.37,542.28,980.33,543.39,980.99,544.11z"/><path fill="#d8edff" d="M1023.34,589.99l12.45,13.49c0.66,0.71,1.77,0.76,2.49,0.1l0,0c0.71-0.66,0.76-1.77,0.1-2.49l-12.45-13.49
					c-0.66-0.72-1.77-0.76-2.49-0.1l0,0C1022.73,588.16,1022.68,589.27,1023.34,589.99z"/><path fill="#d8edff" d="M1069.71,671.92l80.06,86.72c14.98,16.23,40.28,17.24,56.5,2.26l0,0c16.23-14.98,17.24-40.28,2.26-56.5
			C1208.53,704.39,1174.76,777.59,1069.71,671.92z"/><path fill="#ffc138" d="M1210.43,700.98L954.44,423.69c-1.86-2.01-5-2.14-7.01-0.28s-2.14,5-0.28,7.01l3.37,3.65l252.13,273.11
			c12.46,13.5,12.45,34.68-0.68,47.54c-13.64,13.36-35.6,12.73-48.46-1.2L900.89,479.88l-3.37-3.65c-1.86-2.01-5-2.14-7.01-0.28
			c-2.01,1.86-2.14,5-0.28,7.01l255.98,277.29c16.37,17.73,44.01,18.84,61.74,2.47l0,0C1225.69,746.35,1226.8,718.71,1210.43,700.98
			z"/><polygon fill="#e65247" points="1012.79 564.64 1022.23 567.65 1024.48 577.3 1039.82 563.13 1028.14 550.47"/></g><g><path fill="#005387" d="M608.67,676.09c-37.07,6.46-61.94,42.01-55.45,79.24c6.49,37.23,41.93,62.26,78.99,55.8
			c37.07-6.46,61.94-42.01,55.45-79.24C681.17,694.66,645.74,669.63,608.67,676.09z M610.48,686.48
			c31.41-5.48,61.34,15.66,66.84,47.21c5.5,31.55-15.51,61.57-46.92,67.05c-31.41,5.48-61.34-15.66-66.84-47.21
			C558.06,721.98,579.07,691.96,610.48,686.48z"/><rect width="18.98" height="18.9" x="541.66" y="746.24" fill="#005387" transform="rotate(-99.893 551.138 755.712)"/><path fill="#005387" d="M370.42,768.18c-10.44,1.49-17.58,11.34-15.76,21.78c1.82,10.43,11.87,17.3,22.2,15.16l139.97-29.05
			l7.8-1.61l5.85-1.22l7.8-1.61l9.75-2.02l-4.52-25.91l-9.85,1.39l-7.88,1.12l-5.91,0.83l-7.88,1.12L370.42,768.18z"/><polygon fill="#f7bd5a" points="525.76 746.19 530.48 773.22 538.28 771.61 533.65 745.07"/><polygon fill="#f7bd5a" points="511.97 748.14 516.84 776.06 524.63 774.45 519.85 747.02"/><path fill="#fff" d="M658.97,762.88c-9.34,15.52-24.48,20.03-23.73,21.46c0.89,1.69,23.39-1.94,32.73-18.75
			c9.2-16.56,0.9-37.36-1.17-37.26C664.91,728.42,669.15,745.95,658.97,762.88z"/><path fill="#fff" d="M629.49,782.6c-1.59-1.12-3.79-0.74-4.9,0.86c-1.12,1.6-0.73,3.8,0.86,4.93c1.59,1.12,3.79,0.74,4.9-0.86
			C631.47,785.93,631.09,783.73,629.49,782.6z"/></g><g><rect width="42.66" height="6.28" x="250.22" y="334.27" fill="#005387" transform="rotate(-20.128 271.577 337.44)"/><path fill="#005387" d="M283.45,367.06l-2.05,0.75c-10.49,3.85-22.18-1.72-26.11-12.44l0,0l40.05-14.68l0,0
			C299.27,351.41,293.94,363.22,283.45,367.06z"/><path fill="#ffc138" d="M293.54,252.34l0.01-0.01c0,0-0.04,0.13-0.1,0.32c-0.23,1.04-0.48,2.05-0.77,3.06
				c-2.43,10.11-10.73,41.67-2.82,63.25l-43.11,15.8c-7.46-20.34-31.9-37.62-41.77-44.49c-1.51-0.93-2.99-1.91-4.42-2.96
				c-0.07-0.06-0.13-0.08-0.13-0.08l0.01-0.01c-8.96-6.64-16.14-15.88-20.27-27.14c-11.25-30.69,4.5-64.67,35.19-75.92
				c12.97-4.75,26.54-4.68,38.74-0.69c16.62,5.45,30.69,18.17,37.18,35.88C295.31,230.32,295.85,241.71,293.54,252.34z"/><path fill="#ffc138" d="M196.34,174.91c-4.88-7.67-9.76-15.34-14.64-23c-1.67-2.63,2.42-5.21,4.1-2.57
					c4.88,7.67,9.76,15.33,14.64,23C202.11,174.96,198.02,177.54,196.34,174.91z"/><path fill="#ffc138" d="M166.53,202.4c-12.1-8.74-24.2-17.49-36.3-26.23c-1.06-0.77-0.93-2.55-0.12-3.42
					c0.98-1.05,2.36-0.89,3.42-0.12c12.1,8.74,24.2,17.49,36.3,26.23c1.06,0.77,0.93,2.55,0.12,3.42
					C168.97,203.34,167.6,203.17,166.53,202.4z"/><path fill="#ffc138" d="M129.29,238.7c8.33-0.16,16.66-0.32,24.98-0.48c3.12-0.06,3.35,4.77,0.23,4.83
					c-8.33,0.16-16.66,0.32-24.98,0.49C126.4,243.59,126.17,238.76,129.29,238.7z"/><path fill="#f9b52d" d="M293.54,252.34l0.01-0.01c0,0-0.04,0.13-0.1,0.32c-0.23,1.04-0.48,2.05-0.77,3.06
				c-2.43,10.11-10.73,41.67-2.82,63.25l-10.35,3.79c-7.45-18.03-2.12-43.28,3.79-81.58c5.91-38.28-29.22-57.69-29.22-57.69
				l0.03-0.01c16.62,5.45,30.69,18.17,37.18,35.88C295.31,230.32,295.85,241.71,293.54,252.34z"/><path fill="#ffefb9" d="M270.75,261.77c-1.48-1.85-3.29-2.82-5.37-2.86c-0.69-0.01-1.31,0.02-1.86,0.1
				c-1.48-0.67-4.44-1.29-8.17,1.62c-1.13,0.88-2,1.89-2.65,2.95c-2.17-0.53-4.49-0.5-6.69,0.44c-1.42,0.61-2.62,1.59-3.57,2.81
				c-3.37-1.68-6.81-1.3-9.74,1.1c-3.92,3.23-4.71,6.07-4.65,7.92c-1.37,1.41-1.99,3.5-1.73,5.99c0.8,7.56,19.27,31.11,28.36,42.29
				l-2.74,1l2.09,5.69l4.73-1.73c0.44,0.53,0.74,0.89,0.84,1.01l0.27,0.32l13.09-4.58l0.07-0.34c0.08-0.4,0.19-1,0.31-1.76
				l4.58-1.68l-2.09-5.69l-1.56,0.57C276.14,301.57,278.31,271.22,270.75,261.77z M263.34,260.29c1.76,0.94,2.71,2.73,2.74,4.07
				c0.02,0.6-0.14,1.41-0.96,1.85c-1.8,0.97-3.14,0.06-3.63-0.38c-1.06-0.93-1.5-2.44-1.05-3.58c0.3-0.77,0.96-1.35,1.92-1.7
				C262.66,260.45,262.99,260.36,263.34,260.29z M253.31,265.06c2.97,0.99,5.54,3.11,6.69,5.17c0.52,0.94,1.19,2.67-0.24,3.67
				c-2.16,1.53-4.38,1.21-5.92-0.86C252.33,271,251.98,267.88,253.31,265.06z M249.31,279.49c-0.16,1.35-0.85,2.2-2.07,2.54
				c-3.67,1.01-5.18-1.6-5.75-3.24c-1.07-3.06-0.56-7.28,1.34-10.32C246.95,271.05,249.67,276.37,249.31,279.49z M229.33,276.36
				c0.29-0.23,0.57-0.41,0.82-0.54c1.64-0.84,3.43-0.63,4.22,0.07c0.48,0.42,0.59,1,0.33,1.71c-0.43,1.17-1.23,1.82-2.25,1.81
				c-1.25,0-2.46-0.96-2.94-2.32C229.45,276.91,229.38,276.66,229.33,276.36z M227.55,281.72c-0.21-1.95,0.2-3.31,0.79-4.25
				c0,0.01,0.01,0.02,0.01,0.04c0.66,1.84,2.34,3.13,4.1,3.14c1.54,0.01,2.81-0.97,3.41-2.62c0.43-1.18,0.18-2.29-0.68-3.05
				c-1.3-1.15-3.66-1.25-5.6-0.24c-0.08,0.04-0.16,0.08-0.23,0.13c0.25-1.52,1.25-3.59,4.14-5.97c3.11-2.56,6.12-2.05,8.24-1.03
				c-2.07,3.35-2.6,7.92-1.41,11.33c1.2,3.43,3.9,4.94,7.24,4.02c1.7-0.46,2.75-1.74,2.96-3.58c0.45-3.91-2.82-9.49-7-12.17
				c0.81-1,1.8-1.81,2.96-2.3c1.83-0.78,3.77-0.83,5.61-0.43c-1.42,3.2-0.98,6.72,0.74,9.04c1.93,2.6,4.92,3.04,7.62,1.14
				c1.59-1.13,1.82-3.1,0.6-5.28c-1.27-2.27-3.96-4.55-7.14-5.68c0.56-0.85,1.28-1.64,2.19-2.35c1.75-1.37,3.53-2.02,5.15-1.91
				c-1.19,0.62-1.73,1.48-1.97,2.11c-0.64,1.63-0.07,3.67,1.38,4.95c1.42,1.26,3.3,1.46,5.03,0.54c1.05-0.57,1.64-1.65,1.6-2.96
				c-0.04-1.52-0.84-3.07-2.07-4.19c0.04,0,0.08,0,0.13,0c1.72,0.03,3.17,0.82,4.43,2.4c7.15,8.93,5.15,39.36,3.23,54.89l-17.1,6.27
				C247.02,312.73,228.32,288.96,227.55,281.72z M271.9,324.94L260.28,329c-0.08-0.09-0.18-0.21-0.28-0.34l12.03-4.41
				C271.98,324.49,271.94,324.73,271.9,324.94z"/><path fill="#a6a39a" d="M186.7,213.88c-5.59,8.9-6.55,18.36-2.14,21.13c4.41,2.77,12.51-2.2,18.11-11.11
				c5.59-8.9,6.55-18.36,2.14-21.13C200.4,200,192.29,204.98,186.7,213.88z"/><rect width="42.69" height="1.81" x="249.43" y="334.4" fill="#ccc" transform="rotate(-20.128 270.808 335.34)"/><path fill="#ccc" d="M295.88,342.42c-0.16-0.58-0.34-1.16-0.55-1.73l-40.05,14.68c0.21,0.57,0.45,1.13,0.7,1.67L295.88,342.42z"/><path fill="#005387" d="M289.69,318.75l-44.05,16.14c-1.45,0.53-2.2,2.14-1.67,3.59l0.87,2.38c0.53,1.45,2.14,2.2,3.59,1.67
			l44.05-16.14c1.45-0.53,2.2-2.14,1.67-3.59l-0.87-2.38C292.75,318.96,291.14,318.22,289.69,318.75z"/><path fill="#005387" d="M294.65,332.28l-44.05,16.14c-1.45,0.53-2.2,2.14-1.67,3.59l0.87,2.38c0.53,1.45,2.14,2.2,3.59,1.67
			l44.05-16.14c1.45-0.53,2.2-2.14,1.67-3.59l-0.87-2.38C297.71,332.5,296.1,331.75,294.65,332.28z"/><path fill="#026a9e" d="M252.71,348.89c-1.57,0.88-2.52,2.18-2.11,2.92s2.02,0.63,3.59-0.25c1.57-0.88,2.52-2.18,2.11-2.92
				C255.89,347.9,254.28,348.02,252.71,348.89z"/><path fill="#026a9e" d="M258.88,346.97c-0.71,0.4-1.14,0.99-0.95,1.32c0.19,0.33,0.91,0.28,1.62-0.11c0.71-0.4,1.14-0.99,0.95-1.32
				C260.31,346.53,259.59,346.58,258.88,346.97z"/><g><path fill="#026a9e" d="M247.8,335.51c-1.57,0.88-2.52,2.18-2.11,2.92c0.41,0.74,2.02,0.63,3.59-0.25
				c1.57-0.88,2.52-2.18,2.11-2.92C250.99,334.52,249.38,334.63,247.8,335.51z"/><path fill="#026a9e" d="M253.97,333.59c-0.71,0.4-1.14,0.99-0.95,1.32c0.19,0.33,0.91,0.28,1.62-0.11c0.71-0.4,1.14-0.99,0.95-1.32
				C255.41,333.14,254.68,333.19,253.97,333.59z"/></g></g><g><path fill="#3a6018" d="M148.14,707.32c-7.62-16.25-5.27-54.39-1.96-89.55c3.22-34.26-14.82-62.13-15.01-62.41l0.67-0.44
					c0.18,0.28,18.39,28.39,15.14,62.93c-3.3,35.06-5.66,73.06,1.88,89.13L148.14,707.32z"/><path fill="#3a6018" d="M153.3,705.47c-5.26-15.79-4.82-54.83,3.64-83.45c6.09-20.6,24.78-34.19,24.97-34.33l0.47,0.65
					c-0.19,0.13-18.65,13.57-24.66,33.9c-8.42,28.48-8.88,67.3-3.65,82.97L153.3,705.47z"/><path fill="#3a6018" d="M152.19,704.81c-5.26-15.79-5.74-78.4,2.73-107.02c6.09-20.6,24.78-34.19,24.97-34.33l0.47,0.65
					c-0.19,0.13-18.65,13.57-24.66,33.9c-8.42,28.48-7.96,90.87-2.73,106.54L152.19,704.81z"/><path fill="#3a6018" d="M149.77,711.62l-0.21-1.15c-0.02-0.12-0.59-3.23-1.27-8.51c-2.27-12.14-6.92-37.13-6.5-63.42
					c0.44-27.04-6.7-43.48-6.77-43.64l0.73-0.33c0.07,0.16,7.28,16.76,6.84,43.98c-0.32,19.57,2.19,38.44,4.43,51.78
					c-1.6-17.88-2.49-45.07,2.84-70.76c5.93-28.6,7.02-53.88,3.24-75.15l0.79-0.14c3.8,21.37,2.71,46.75-3.24,75.45
					c-6.65,32.08-3.58,66.52-1.56,82.09c0,0,0,0,0,0c1.16,6.22,1.52,8.2,1.23,8.76L149.77,711.62z"/><path fill="#3a6018" d="M150.13,709.61l-0.8-0.03c1.3-30.1-1.42-53.75-8.09-70.31c-6.64-16.47-15.03-20.07-17.45-20.78l0.23-0.77
					c3.21,0.95,11.38,4.91,17.97,21.25C148.7,655.62,151.44,679.39,150.13,709.61z"/><path fill="#3a6018" d="M148.42,708.59c-0.05-0.17-1.25-4.38-3.26-23.63c-2.48-23.73-7.47-36.09-15.27-37.77l0.17-0.78
					c8.3,1.79,13.35,14.01,15.9,38.47c2,19.12,3.22,23.45,3.23,23.49L148.42,708.59z"/><path fill="#3a6018" d="M146.8,707.91c0-0.26-0.5-26.19-10.13-37.31c-7.41-8.55-18.48-8.3-22.65-8.2
					c-1.29,0.03-1.63,0.04-1.84-0.19l0.59-0.55c-0.06-0.06-0.11-0.08-0.12-0.08c0.14,0.04,0.75,0.02,1.35,0.01
					c4.27-0.1,15.62-0.36,23.27,8.48c9.82,11.34,10.31,36.75,10.33,37.83L146.8,707.91z"/><path fill="#3a6018" d="M155.87,709.1c-0.03-0.29-3.01-29.61,0.7-43.41c7.2-26.79,23.31-33.48,23.47-33.55l0.3,0.75
					c-0.16,0.06-15.91,6.64-23,33.01c-3.67,13.65-0.71,42.82-0.68,43.11L155.87,709.1z"/><path fill="#3a6018" d="M151.3,707.94c-1.46-15.05,0.56-25.6,6.19-32.27c4.71-5.58,11.71-8.43,22.7-9.23l0.06,0.8
					c-10.76,0.78-17.59,3.54-22.14,8.95c-5.48,6.5-7.44,16.86-6,31.68L151.3,707.94z"/><path fill="#3a6018" d="M153.83,707.2c-0.02-0.17-2.17-17.31-1.51-37.52c0.61-18.69,3.81-43.92,15.61-57.95l0.61,0.52
					c-22.32,26.56-14.01,94.18-13.92,94.86L153.83,707.2z"/><path fill="#8ab564" d="M205.84,584.77c-8.62,2.05-10.52,11.24-18.35,11.58c-3.42,0.15-7.52-3.44-5.34-8.33
					c0,0-0.01,0.01-0.02,0.01c-2.12,0.87-5.64,1.42-7.41-1.68c-0.8-2.19,0.1-4.74,1.76-6.38c1.66-1.63,3.94-2.48,6.22-2.96
					C191.05,575.27,200.22,578.35,205.84,584.77z"/><path fill="#6e9e49" d="M143.64,590.14c-0.47,4.13-2.83,7.22-6.03,9.15c-5.16,3.12-12.5,3.22-17.58-0.18
					c-10.32-7.05-10.53-21.09-9.37-32.41c0.01-0.11,0.02-0.21,0.03-0.31C119.81,577.58,144.97,569.03,143.64,590.14z"/><path fill="#3a6018" d="M133.14,554.93c-0.03-0.01-0.06-0.01-0.09-0.01c-4.06-0.32-5.03,6.23-10.92,3.68
					c-9.53-5.81,0.74-21.65-12.03-26.37C144.73,526.74,152.51,557.25,133.14,554.93z"/><path fill="#6e9e49" d="M120.81,663.03l-0.38-0.13c0.05,0.05,0.11,0.11,0.15,0.16c7.89,8.44-14.19,23.35-30.13-12.61
						c9.49,5.43,15.27,1.28,24.45,0.54C120.48,650.84,128.32,660.1,120.81,663.03z"/><path fill="#517f2d" d="M90.46,650.45c0,0,6.85,10.56,22.33,11.11c3.21,0.11,5.78,0.47,7.8,1.5
						C128.47,671.51,106.39,686.41,90.46,650.45z"/><path fill="#335113" d="M175.73,567.84l0.41-0.31c-0.1,0.02-0.19,0.04-0.28,0.05c-14.51,2.3-14.49-31.56,34.72-22.76
						c-12.47,6.13-12.21,15.17-17.96,25.37C188.8,576.17,173.48,577.84,175.73,567.84z"/><path fill="#3a6018" d="M210.57,544.82c0,0-16-0.3-27.59,15.61c-2.41,3.3-4.6,5.75-7.13,7.15
						C161.35,569.88,161.36,536.02,210.57,544.82z"/><path fill="#3a6018" d="M133.32,647.76c-2.34,7.97-23.84,7.25-24.67-16.79c0,0,0,0.01,0.01,0.01c5.89,6.87,15.29,2.61,20.79,7.89
						C133.06,642.33,134.01,645.42,133.32,647.76z"/><path fill="#335113" d="M133.32,647.76c-2.34,7.97-23.84,7.25-24.67-16.79c0,0,0,0.01,0.01,0.01
						c0.21,0.33,5.03,10.66,11.42,11.87C127.27,644.22,130.22,645.3,133.32,647.76z"/><path fill="#8ab564" d="M128.69,616.9c-0.86,1.11-1.97,0.92-2.69,1.88c-0.43,0.56-0.73,1.52-0.77,3.37
						c-0.29,15.74-28.38,10.59-32.68-16.94c-0.01-0.03-0.01-0.06-0.02-0.09c7.54,1.22,15.75-2.49,23.5-1.33
						C123.31,604.89,133.6,610.54,128.69,616.9z"/><path fill="#6e9e49" d="M125.99,618.78c-0.43,0.56-0.73,1.52-0.77,3.37c-0.29,15.74-28.38,10.59-32.68-16.94
						c1.52,2.44,4.76,6.83,11.11,7.82C111.92,614.33,122.26,611.51,125.99,618.78z"/><path fill="#517f2d" d="M137.61,599.29c-5.16,3.12-12.5,3.22-17.58-0.18c-10.32-7.05-10.53-21.09-9.37-32.41
					c0.46,0.87,2.47,4.83,4.33,11.12c2.11,7.16,8.57,13.81,15.93,14.11C134.23,592.07,136.32,595.52,137.61,599.29z"/><path fill="#335113" d="M133.14,554.93c-0.03-0.01-0.06-0.01-0.09-0.01c-4.06-0.32-5.03,6.23-10.92,3.68
					c-9.53-5.81,0.74-21.65-12.03-26.37c0,0,11.11-1.24,11.92,8.69C122.65,548.77,130.6,551.78,133.14,554.93z"/><path fill="#8ab564" d="M153.49,544.35c-0.28,0.01-0.56,0-0.84-0.01c-9.21-6.37-12.96-19.15-8.64-29.48
						c4.38-10.84,17.41-19.45,15.23-32.29c0,0,0.01,0.01,0.02,0.02c9.55,10.69,13.85,22.74,15.29,34.8
						C175.83,528.05,168.92,544.3,153.49,544.35z"/><path fill="#6e9e49" d="M153.49,544.35c2.74-2.41,5.49-6.4,4.97-13.75c-0.68-9.75,2.54-19.18,5.39-28.45
						c2.77-9.04-4.23-19.04-4.6-19.56c9.55,10.69,13.85,22.74,15.29,34.8C175.83,528.05,168.92,544.3,153.49,544.35z"/><path fill="#6e9e49" d="M205.84,584.77c-8.62,2.05-10.52,11.24-18.35,11.58c-3.42,0.15-7.52-3.44-5.34-8.33
					c0,0,3.88-0.29,9.08-3.25C196.42,581.81,205.84,584.77,205.84,584.77z"/><path fill="#6e9e49" d="M195.71,608.29c-3.76-1.44-8.15-1.11-11.64,0.89c-4.89,3.94-13.27,9.77-16.62,1.17
						C165.73,596,192.69,597.27,195.71,608.29z"/><path fill="#517f2d" d="M195.71,608.29c-3.76-1.44-8.15-1.11-11.64,0.89c-4.89,3.94-13.27,9.77-16.62,1.17
						c0.69-0.63,1.78-1.73,3.6-1.52c7.06,0.81,5.03-1.58,12.38-4.21C190.78,601.99,195.71,608.29,195.71,608.29z"/><path fill="#3a6018" d="M212.7,622.19c-0.11,0.02-0.22,0.05-0.32,0.08c-13.26,3.14-15.13,11.93-23.01,20.45
						c-5.05,4.9-20.12,3.06-16-5.94c0.03-0.08,0.07-0.16,0.11-0.24l0.47-0.2C158.91,635.62,166.57,602.13,212.7,622.19z"/><path fill="#335113" d="M212.37,622.27c-13.26,3.14-15.13,11.93-23.01,20.45c-5.05,4.9-20.12,3.06-16-5.94
						c0.95-0.74,2.22-1.46,3.81-1.86c4.05-1,5.98-4.71,14.42-10.9C200.02,617.82,212.37,622.27,212.37,622.27z"/><g><path fill="#8ab564" d="M202.03,651.21c-2.25,7.93-6.77,13.73-12.18,18.14c-4.87,3.97-15.15,5.61-19.81-2.33
						c0-0.08,0-0.15,0.01-0.23c0.36-6.33,5.36-11.96,11.63-13.03C188.29,652.55,196.48,656.22,202.03,651.21z"/><path fill="#6e9e49" d="M202.03,651.21c-2.25,7.93-6.77,13.73-12.18,18.14c-4.87,3.97-15.15,5.61-19.81-2.33
						c0-0.08,0-0.15,0.01-0.23c1.35-0.45,3.48-0.86,6.67-0.82c6.59,0.09,5.72-6.89,13.53-6.73
						C197.39,659.4,198.48,654.33,202.03,651.21z"/></g><g><path fill="#e65247" d="M163.52,783.57h-25.86c-1.78,0-3.33-1.23-3.73-2.97c-5.27-23.08-8.34-51.22-5.9-85.98h45.12
					c2.15,34.36-0.48,62.57-5.91,85.99C166.85,782.35,165.31,783.57,163.52,783.57z"/><path fill="#e6e6e6" d="M173.16,694.62h-45.12c-0.34,4.83-0.57,9.52-0.7,14.09h9.51c16.02,0,29,13.11,28.73,29.13
					c-0.29,16.9-1.84,32.06-4.32,45.73h2.26c1.78,0,3.32-1.23,3.73-2.96C172.68,757.19,175.31,728.98,173.16,694.62z"/><path fill="#e65247" d="M172.94,690.64h-44.2c-2.36,0-4.27,1.86-4.27,4.16c0,2.3,1.91,4.16,4.27,4.16h44.2
					c2.36,0,4.27-1.86,4.27-4.16C177.21,692.5,175.3,690.64,172.94,690.64z"/></g></g><g><path fill="#8a4728" d="M1100.25,582.3c-4.97-5.43-22.32-10.6-35.41,2.53c-12.82,12.86-6,30.27-8.07,36.53s-10.98,15.73-2.93,28.24
			c8.04,12.51,64.37,13.69,69.86-3.47s-7.73-21.93-8.09-32.71C1115.25,602.65,1116.12,584.7,1100.25,582.3z"/><path fill="#8a4728" d="M1114.88,608.76c0-18.51-12.3-34.85-31.7-34.85c-17.51,0-31.7,16.35-31.7,34.85
			c0,18.51,14.19,33.51,31.7,33.51S1114.88,627.27,1114.88,608.76z"/><path fill="#517f2d" d="M1046.98,757.69c0,0-39.02,5.77-38.35,5.38c0.67-0.39,71.41,35.89,71.41,35.89l69.71-31.23l-34.56-10.05
				H1046.98z"/><path fill="#ffd4c2" d="M1061.97,810.93c-0.2,0-0.4,0-0.58,0.01c-0.12,0-0.24,0-0.36,0c-9.93,0.11-16.41-0.13-16.41-0.13
					s-0.48,0.11-1.34,0.29c-8.49,1.76-54.25,10.48-50.35-6.76c3.42-15.14,30.87-13.26,41.88-11.87c0.04,0,0.08,0.01,0.11,0.01
					c2.75,0.35,4.44,0.66,4.44,0.66s5.46-2.35,14.08-5.69c0.36-0.14,0.72-0.29,1.08-0.43c28.4-11.02,88.13-31.91,103.59-19.36
					c0,0.01,0,0.01,0,0.01c0.17,0.13,0.34,0.28,0.5,0.42c0.01-0.01,0.02,0.01,0.03,0.02c0.16,0.15,0.32,0.32,0.47,0.48
					c0.14,0.13,0.27,0.28,0.39,0.44c0.05,0.05,0.1,0.11,0.15,0.17c0.17,0.22,0.34,0.44,0.49,0.67c0,0.01,0.01,0.01,0.01,0.01
					c0.16,0.25,0.31,0.5,0.46,0.76c0.14,0.25,0.25,0.51,0.36,0.77c0.25,0.57,0.44,1.17,0.58,1.81c0.14,0.65,0.26,1.28,0.33,1.9
					c0.14,1.12,0.2,2.2,0.15,3.26C1160.77,806.23,1094.33,810.5,1061.97,810.93z"/><path fill="#517f2d" d="M1058.72,810.46l2.66,0.48l-0.48-1.41c-0.01-0.01,0-0.02,0-0.02l-7.47-22.07l-1.07-3.16
					c28.43-11.03,90.01-29.74,105.73-16.65l0.01,0.01c0.18,0.14,0.34,0.29,0.5,0.45c0.01-0.01,0.02,0.01,0.03,0.02
					c0.16,0.15,0.32,0.32,0.47,0.48c0.14,0.13,0.27,0.28,0.39,0.44c0.05,0.05,0.1,0.11,0.15,0.17c0.17,0.22,0.34,0.44,0.49,0.67
					c0,0.01,0.01,0.01,0.01,0.01c0.16,0.25,0.31,0.5,0.46,0.76c0.14,0.25,0.25,0.51,0.36,0.77c0.25,0.57,0.44,1.17,0.58,1.81
					c0.14,0.65,0.26,1.28,0.33,1.9c0.14,1.12,0.2,2.2,0.15,3.26C1160.87,806.58,1091.1,810.04,1058.72,810.46z"/><path fill="#30374c" d="M1039.33,793.21c0,0-51.76-10.11-54.02,11.77c-2.42,23.51,59.28,5.91,59.28,5.91s-23.8,5.21-22.67-8.14
					C1023.02,789.83,1039.33,793.21,1039.33,793.21z"/><path fill="#ffd4c2" d="M1116.25,704.38c-10.16,14.27-1.07,53.31-1.07,53.31h-68.2c1.88-2.67,7.19-36.33-4.77-54.88
				c-19.3-29.93,1.49-53.2,1.49-53.2l28.36-5.16l1.81-9.03l1.24-6.22l0.29-1.45h12.76l0.46,2.71l1,5.91l1.48,8.72l26.07,5.66
				C1117.18,650.76,1139.51,671.7,1116.25,704.38z"/><path fill="#ffbc47" d="M1042.2,702.8c1.77,2.76,3.17,5.84,4.25,9.12c6.22,18.73,2.13,43.5,0.53,45.77h68.21
				c0,0-9.1-39.04,1.06-53.3c23.27-32.7,0.93-53.62,0.93-53.62l-17.51-3.81l-8.56-1.86c-2.47,5.32-17.94,5.7-19.03-0.65l-10.98,2
				l-17.39,3.17C1043.7,649.61,1022.91,672.88,1042.2,702.8z"/><path fill="#c4626e" d="M1046.98,757.69c1.6-2.27,5.69-27.03-0.52-45.77c13.45-3.91,11.18,33.42,33.58,45.77H1046.98z"/><path fill="#ffd4c2" d="M1153.34,734.06c-0.71,4.42-3.82,9.21-8.43,13.95c-11.78,12.1-35.78,11.56-52.25,15.96l-1.72-8.77
				c0,0,29.39-8.29,35.71-18.6c0.67-1.1,1.14-2.13,1.32-3.04c2.14-10.27-9.75-23.12-9.75-23.12l-1.27-59.64
				C1116.96,650.79,1156.92,711.59,1153.34,734.06z"/><path fill="#ffbc47" d="M1153.73,734.06c-0.76,4.16-3.26,9.38-7.4,13.93c-0.44,0.48-1.16,0.56-1.71,0.21l-5.05-3.28l-13.24-8.58
				c0.67-1.1,1.02-2.2,1.2-3.12c2.14-10.27-16.91-26.16-16.91-26.16l4.58-56.64c6.14-0.28,16.22,13.73,24.59,30.9
				c0,0,0.01,0.02,0.02,0.06C1148.87,699.97,1155.91,722.23,1153.73,734.06z"/><path fill="#ffd4c2" d="M1070.95,755.34l0.3,5.83c0.53-0.18,0.48-0.95-0.06-1.06c-14.67-3.03-38.79,1.16-50.53-8.81
				c-7.23-6.15-11.18-13.73-12.12-19.56c-3.58-22.47,35.39-82.09,35.39-82.09l-1.44,59.57c0,0-11.9,12.85-9.75,23.12
				c0.37,1.83,1.83,4.08,3.93,6.54C1045.47,749.22,1070.95,755.34,1070.95,755.34z"/><path fill="#ffbc47" d="M1032.74,732.34c0.37,1.83,2.87,3.43,4.97,5.89l-12.3,10.23l-4.94,4.11c-7.23-6.15-11.48-14.03-13.07-19.72
				c-2.46-8.76,1.04-23.73,6.94-38.6c0.02-0.08,0.04-0.12,0.04-0.12c8.91-22.43,20.65-40.43,30.72-44.76l4.32,60.44
				C1049.41,709.8,1030.59,722.07,1032.74,732.34z"/><path fill="#ffd4c2" d="M1167.42,802.4c4.11,17.53-42.56,9.03-51.22,7.31c-0.89-0.17-1.37-0.28-1.37-0.28s-6.76,0.32-17.08,0.27
					c-0.2,0-0.4,0-0.6,0c-14.98-0.08-37.13-0.9-56.98-4.44c-24.35-4.34-45.25-12.75-45.21-28.88c0-0.04,0-0.06,0-0.09
					c0.01-0.66,0.05-1.32,0.12-2c0-0.02,0-0.03,0-0.04c0.08-0.7,0.2-1.41,0.35-2.13c0.14-0.65,0.33-1.27,0.58-1.85
					c0.11-0.27,0.23-0.53,0.36-0.79c0.14-0.27,0.3-0.53,0.46-0.78c0,0,0.01,0,0.01-0.01c0.15-0.23,0.32-0.46,0.49-0.68
					c0.05-0.06,0.1-0.13,0.15-0.17c0.12-0.17,0.25-0.32,0.39-0.45c0.16-0.17,0.31-0.33,0.48-0.49c0-0.02,0.02-0.03,0.03-0.02
					c1.88-1.76,4.52-2.94,7.76-3.66c22.26-4.95,72.79,12.37,98.41,22.07c0.37,0.14,0.74,0.28,1.11,0.42
					c8.81,3.33,14.39,5.68,14.39,5.68s1.72-0.33,4.52-0.71c0.03-0.01,0.07-0.01,0.11-0.02
					C1135.87,789.16,1163.81,787.01,1167.42,802.4z"/><path fill="#6e9e49" d="M1106.71,782.48l-1.06,3.23l-7.9,24l-1.09,3.31c-13.59-0.06-33.01-1.25-51.23-4.63c0,0,0,0-0.01-0.01
					c-26.53-4.91-50.56-14.48-50.46-31.99c0-0.04,0-0.06,0-0.09c0.01-0.66,0.05-1.33,0.12-2c0-0.02,0-0.03,0-0.04
					c0.08-0.7,0.2-1.41,0.35-2.13c0.14-0.65,0.33-1.27,0.58-1.85c0.11-0.27,0.23-0.53,0.36-0.79c0.14-0.27,0.3-0.53,0.46-0.78
					c0,0,0.01,0,0.01-0.01c0.15-0.23,0.32-0.46,0.49-0.68c0.05-0.06,0.1-0.13,0.15-0.17c0.12-0.17,0.25-0.32,0.39-0.45
					c0.16-0.17,0.31-0.33,0.48-0.49c0-0.02,0.02-0.03,0.03-0.02c1.95-1.88,4.72-3.18,8.14-4
					C1029.41,757.29,1081.15,772.81,1106.71,782.48z"/><path fill="#30374c" d="M1120.05,791.47c0,0,52.64-10.73,55.12,11.53c2.66,23.92-60.33,6.51-60.33,6.51s23.01,4.36,21.75-9.23
					C1135.37,787.15,1120.05,791.47,1120.05,791.47z"/><path fill="#fff" d="M1128.76,705.07v55.98c0,3.01-2.44,5.46-5.46,5.46h-85.77c-3.01,0-5.46-2.44-5.46-5.46v-55.98
				c0-3.01,2.44-5.46,5.46-5.46h85.77C1126.32,699.61,1128.76,702.06,1128.76,705.07z"/><path fill="#e2edf0" d="M1071.88,733.06c0-4.72,3.82-8.54,8.54-8.54c4.72,0,8.54,3.82,8.54,8.54c0,4.72-3.82,8.54-8.54,8.54
				C1075.7,741.6,1071.88,737.78,1071.88,733.06z"/><path fill="#fff" d="M1128.76,705.07v55.98c0,3.01-2.44,5.46-5.46,5.46h-85.77c-3.01,0-5.46-2.44-5.46-5.46
				c86.74,3.98,96.68-8.74,91.23-61.43C1126.32,699.61,1128.76,702.06,1128.76,705.07z"/><path fill="#ffd4c2" d="M1111.52,605.34c-2.11-3.53-6.7,1.79-6.7,1.79l-1.01,13.83C1113.92,620.18,1113.63,608.87,1111.52,605.34z"/><path fill="#f2e0d5" d="M1110.04,608.4c-0.73-0.35-1.79-0.17-2.17,0.61c-0.16,0.35,0.3,0.65,0.52,0.31c0.16-0.26,0.48-0.39,0.77-0.3
			c0.26,0.08,0.5,0.38,0.62,0.61c0.37,0.73,0.03,1.62-0.25,2.32c-0.28,0.7-0.65,1.37-1.08,1.98c-0.46,0.65-1.1,1.14-1.57,1.78
			c-0.44,0.61,0.39,1.46,1.02,1.05c0.48-0.31,0.83-0.8,1.17-1.25c0.32-0.42,0.6-0.86,0.85-1.32c0.52-0.94,0.95-1.99,1.12-3.05
			C1111.2,610.2,1111.02,608.87,1110.04,608.4z"/><path fill="#ffd4c2" d="M1102.33,585.9c12.66,36.16-3.84,54.27-23.53,53.89c-17.77-0.34-33.34-15.69-21.17-54.73L1102.33,585.9z"/><path fill="#8a4728" d="M1053.3,606.07c0.03,0.16,0.06,0.3,0.1,0.43c0.29,1.03,0.85,1.31,1.57,1.05c0.44-0.16,0.94-0.53,1.49-1.06
			c1.17-0.67,2.26-1.56,3.23-2.47c3.74-3.53,6.12-8.45,6.46-13.59c0.23-0.51,0.44-1,0.64-1.48c0.08,0.36,0.2,0.7,0.33,1.05
			c0.15,1.57,0.66,3.08,1.46,4.43c1.66,2.79,4.37,4.72,7.33,5.95c1.59,0.66,3.26,1.11,4.95,1.44c0.88,0.17,1.78,0.29,2.68,0.32
			c0.31,0.01,0.64,0.01,0.96,0.01c2.47,0.7,4.79,1.15,6.66,1.29c-1.23-2.55-3.1-9.61-3.1-9.61c6.53,4.66,13.05,11.82,16.55,16.26
			c0.87,1.11,1.55,2.04,2.01,2.73c0.03,0.05,0.06,0.1,0.09,0.14c0,0,0.81-3.9,1.25-8.38c0.33-3.26,0.47-6.81-0.01-9.42
			c-1.18-6.86-5.73-10.85-10.21-14.37C1080.62,567.32,1047.91,577.55,1053.3,606.07z M1067.74,591.37c2.46,4.5,8.36,7.89,14.1,9.92
			c-0.54-0.09-1.08-0.19-1.61-0.31c-3.07-0.67-6.16-1.8-8.59-3.84C1069.84,595.65,1068.4,593.63,1067.74,591.37z M1058.07,604.65
			c2.53-3.27,5.5-8.62,7.57-13.07c-0.14,0.89-0.33,1.77-0.58,2.63c-0.72,2.48-1.91,4.82-3.48,6.88c-0.79,1.02-1.67,1.97-2.62,2.83
			C1058.67,604.17,1058.38,604.41,1058.07,604.65z"/><ellipse cx="1088.99" cy="613.1" fill="#222731" rx="3.53" ry="2.47" transform="rotate(-88.642 1089.029 613.107)"/><ellipse cx="1065.14" cy="612.23" fill="#222731" rx="2.2" ry="3.14" transform="rotate(-2.144 1065.408 611.558)"/><path fill="#f2e0d5" d="M1073.51,615.27c1.17-1.99,3.28-3.6,3.39-6.12c0.04-0.41,0.66-0.45,0.73-0.03
				c1.37,3.16-2.57,5.03-2.71,7.41c-0.17,2.96,3.7,3.76,2.23,3.85C1075.36,620.49,1072.06,618.82,1073.51,615.27z"/><path fill="#30374c" d="M1085.55,607.2c0.13-0.15,0.28-0.28,0.44-0.4c0.34-0.28,0.7-0.49,1.1-0.67c0.75-0.33,1.57-0.43,2.38-0.33
				c1.57,0.19,2.76,1.31,3.4,2.7c0.23,0.5-0.61,0.89-0.87,0.41c-0.28-0.52-0.64-0.89-1.17-1.17c-0.47-0.24-1.01-0.44-1.51-0.45
				c-0.28-0.01-0.52,0.02-0.74,0.07c-0.16,0.04-0.31,0.09-0.46,0.15c-0.15,0.06-0.15,0.06-0.28,0.13c-0.27,0.15-0.47,0.3-0.64,0.45
				c-0.31,0.29-0.5,0.64-0.92,0.78c-0.5,0.16-1.15-0.22-1.13-0.79C1085.19,607.72,1085.31,607.46,1085.55,607.2z"/><path fill="#30374c" d="M1067.71,606.23c-0.13-0.12-0.27-0.22-0.42-0.32c-0.32-0.22-0.66-0.38-1.03-0.51
				c-0.69-0.23-1.43-0.26-2.14-0.11c-1.38,0.29-2.34,1.38-2.8,2.67c-0.16,0.46,0.61,0.74,0.8,0.29c0.21-0.49,0.5-0.84,0.94-1.13
				c0.4-0.25,0.86-0.47,1.3-0.52c0.25-0.03,0.46-0.03,0.66,0.01c0.14,0.02,0.28,0.05,0.42,0.09c0.14,0.04,0.14,0.04,0.26,0.09
				c0.25,0.11,0.44,0.22,0.6,0.35c0.29,0.23,0.49,0.53,0.87,0.62c0.45,0.1,1-0.29,0.94-0.79
				C1068.07,606.67,1067.95,606.44,1067.71,606.23z"/><path fill="#751e1e" d="M1072.71,625.65c-0.04,1.32,0.49,2.55,1.38,3.47c0.96,0.99,2.35,1.64,3.91,1.68
						c1.67,0.05,3.19-0.6,4.22-1.66c0.82-0.84,1.33-1.95,1.37-3.17c0.08-2.76-3.47-0.79-5.5-0.85
						C1076.39,625.08,1072.79,622.89,1072.71,625.65z"/><path fill="#ed7272" d="M1074.09,629.12c0.96,0.99,2.35,1.64,3.91,1.68c1.67,0.05,3.19-0.6,4.22-1.66
						c-0.79-0.85-2.25-1.44-3.92-1.49C1076.48,627.6,1074.89,628.2,1074.09,629.12z"/><ellipse cx="1089.59" cy="620.04" fill="#ffba9e" rx="6.02" ry="2.47" transform="rotate(-2.144 1089.865 619.355)"/><ellipse cx="1064.5" cy="619.37" fill="#ffba9e" rx="4.77" ry="1.96" transform="rotate(-2.144 1064.78 618.699)"/><circle cx="1088.33" cy="612.1" r=".69" fill="#fff"/><circle cx="1064.61" cy="611.12" r=".61" fill="#fff"/><path fill="#ffd4c2" d="M1061.09,646.44c1.48,5.71,6.37,19.06,19.78,19.06c13.16,0,17.49-12.57,18.79-18.54l-8.56-1.86
			c-2.47,5.32-17.94,5.7-19.03-0.65L1061.09,646.44z"/></g><g><path fill="#52aceb" d="M1100.42,152.05l-14.65-2.27l-14.65-2.27c-0.86-0.13-1.29,0.85-0.78,1.78l6.06,11.01l-29.78,16.02
				l-9.23-8.69l-2.76-2.6l-3.4,1.69l-42.52,21.2l-10.6-5.8l-2.19-1.2l-1.96,0.75l-47.88,18.34c-0.56,0.21-0.9,0.8-0.77,1.41
				c0.14,0.67,0.8,1.1,1.47,0.96l9.76-2.01l38.07-7.83l11.37,6.22l2.5,1.37l2.55-1.27l41.67-20.77l9.32,8.78l2.86,2.69l3.46-1.86
				l33.29-17.91l2.06,3.75l4.04,7.33c0.44,0.8,1.3,1.03,1.75,0.57c0.07-0.07,0.13-0.16,0.18-0.27l5.96-13.52l5.64-12.8l0.32-0.72
				C1101.91,153.34,1101.28,152.18,1100.42,152.05z"/><path fill="#b7d8f2" d="M1081.62,169.78l-33.29,17.91l-3.46,1.86l-1.65-1.55l3.35-1.8l32.24-17.35c0.63-0.34,1.41-0.26,1.96,0.2
				L1081.62,169.78z"/><path fill="#b7d8f2" d="M1101.57,154.13l-0.32,0.72l-5.64,12.8l-5.96,13.52c-0.05,0.11-0.11,0.2-0.18,0.27
				c-0.45,0.46-1.31,0.23-1.75-0.57l-0.39-0.71c0.14-0.03,0.27-0.1,0.38-0.21c0.07-0.07,0.13-0.16,0.18-0.27l5.96-13.52l5.64-12.8
				l0.32-0.72c0.09-0.21,0.11-0.44,0.09-0.67l0.53,0.08C1101.28,152.18,1101.91,153.34,1101.57,154.13z"/><path fill="#b7d8f2" d="M1032.69,178.09l-41.67,20.77l-2.55,1.27l-2.5-1.37l-11.37-6.22l-38.07,7.83l-9.76,2.01
				c-0.67,0.14-1.33-0.29-1.47-0.96c-0.04-0.2-0.03-0.41,0.02-0.59l9.44-1.94l37.75-7.76c0.2-0.04,0.42-0.01,0.6,0.09l11.08,6.07
				l2.5,1.37l2.55-1.27l40.78-20.33c0.54-0.27,1.18-0.19,1.64,0.2L1032.69,178.09z"/><rect width="31.01" height="69.88" x="890.61" y="261.23" fill="#e65247"/><rect width="6.62" height="69.88" x="915" y="261.23" fill="#ccc"/><rect width="31.01" height="77.94" x="931.03" y="253.18" fill="#ffc138"/><rect width="6.62" height="77.94" x="955.43" y="253.18" fill="#ccc"/><rect width="31.01" height="88.94" x="971.46" y="242.17" fill="#369457"/><rect width="6.62" height="88.94" x="995.85" y="242.17" fill="#ccc"/><rect width="31.01" height="99.15" x="1013.71" y="231.96" fill="#52aceb"/><rect width="6.62" height="99.15" x="1038.1" y="231.96" fill="#ccc"/><rect width="31.01" height="111.46" x="1055.97" y="219.65" fill="#fca51f"/><rect width="6.62" height="111.46" x="1080.36" y="219.65" fill="#ccc"/><g><rect width="31.01" height="128.12" x="1098.23" y="203" fill="#005387"/><rect width="6.62" height="128.12" x="1122.62" y="203" fill="#ccc"/></g></g><path fill="#d4efff" d="M642.81,136.61c-1.05,0-2.05,0.17-2.96,0.48c0.01-0.16,0.02-0.32,0.02-0.48c0-4.54-4.7-8.21-10.49-8.21
		c-2.11,0-4.07,0.49-5.72,1.33c-0.27-6.02-6.59-10.84-14.35-10.84c-7.93,0-14.36,5.03-14.36,11.24c0,0.12,0,0.25,0.01,0.37
		c-1.86-1.3-4.31-2.1-7.01-2.1c-5.8,0-10.49,3.68-10.49,8.21c0,0.33,0.03,0.65,0.07,0.97c-1.18-0.61-2.6-0.97-4.12-0.97
		c-4.14,0-7.49,2.62-7.49,5.86s3.35,5.86,7.49,5.86c1.99,0,3.79-0.61,5.14-1.6c1.71,2.71,5.28,4.57,9.41,4.57
		c2.63,0,5.03-0.76,6.87-2.01c1.67,0.87,3.67,1.38,5.83,1.38c2.87,0,5.47-0.9,7.36-2.36c1.89,1.46,4.5,2.36,7.36,2.36
		c2.48,0,4.76-0.67,6.55-1.8c1.9,1.5,4.53,2.42,7.44,2.42c3.87,0,7.25-1.64,9.07-4.08c1.23,0.69,2.74,1.1,4.37,1.1
		c4.14,0,7.49-2.62,7.49-5.86S646.95,136.61,642.81,136.61z"/><path fill="#d4efff" d="M1209.96,418.9c-1.05,0-2.06,0.17-2.96,0.48c0.01-0.16,0.02-0.32,0.02-0.48c0-4.54-4.7-8.21-10.49-8.21
		c-2.11,0-4.07,0.49-5.72,1.33c-0.27-6.02-6.59-10.84-14.35-10.84c-7.93,0-14.36,5.03-14.36,11.24c0,0.12,0,0.25,0.01,0.37
		c-1.86-1.3-4.31-2.1-7.01-2.1c-5.8,0-10.49,3.68-10.49,8.21c0,0.33,0.03,0.65,0.07,0.97c-1.18-0.61-2.6-0.97-4.12-0.97
		c-4.14,0-7.49,2.62-7.49,5.86s3.35,5.86,7.49,5.86c1.99,0,3.79-0.61,5.14-1.6c1.71,2.71,5.28,4.57,9.41,4.57
		c2.63,0,5.03-0.76,6.87-2.01c1.67,0.87,3.67,1.38,5.83,1.38c2.87,0,5.47-0.9,7.36-2.36c1.89,1.46,4.49,2.36,7.36,2.36
		c2.48,0,4.76-0.67,6.55-1.8c1.9,1.5,4.53,2.42,7.44,2.42c3.87,0,7.25-1.64,9.07-4.08c1.23,0.69,2.74,1.1,4.37,1.1
		c4.14,0,7.49-2.62,7.49-5.86S1214.1,418.9,1209.96,418.9z"/><path fill="#d4efff" d="M182.57,406.26c-1.05,0-2.06,0.17-2.96,0.48c0.01-0.16,0.02-0.32,0.02-0.48c0-4.54-4.7-8.21-10.49-8.21
		c-2.11,0-4.07,0.49-5.72,1.33c-0.27-6.02-6.59-10.84-14.35-10.84c-7.93,0-14.36,5.03-14.36,11.24c0,0.12,0,0.25,0.01,0.37
		c-1.86-1.3-4.31-2.1-7.01-2.1c-5.8,0-10.49,3.68-10.49,8.21c0,0.33,0.03,0.65,0.07,0.97c-1.18-0.61-2.6-0.97-4.12-0.97
		c-4.14,0-7.49,2.62-7.49,5.86s3.35,5.86,7.49,5.86c1.99,0,3.79-0.61,5.14-1.6c1.71,2.71,5.28,4.57,9.41,4.57
		c2.63,0,5.03-0.76,6.87-2.01c1.67,0.87,3.67,1.38,5.83,1.38c2.87,0,5.47-0.9,7.36-2.36c1.89,1.46,4.5,2.36,7.36,2.36
		c2.48,0,4.76-0.67,6.55-1.8c1.9,1.5,4.53,2.42,7.44,2.42c3.87,0,7.25-1.64,9.07-4.08c1.23,0.69,2.74,1.1,4.37,1.1
		c4.14,0,7.49-2.62,7.49-5.86S186.7,406.26,182.57,406.26z"/></svg>