<svg xmlns="http://www.w3.org/2000/svg" fill-rule="evenodd" clip-rule="evenodd" image-rendering="optimizeQuality" shape-rendering="geometricPrecision" text-rendering="geometricPrecision" viewBox="0 0 373.987 330.644"><polygon fill="#1d79bb" points="315.957 207.697 280.616 330.644 258.227 330.644 293.719 207.697" class="color000000 svgShape"/><polygon fill="#1d79bb" points="373.987 209.943 373.987 235.651 355.118 328.398 325.766 328.398 346.806 231.208 317.53 231.208 317.53 209.943" class="color000000 svgShape"/><path fill="#0396ff" fill-rule="nonzero" d="M308.744 197.218c-0.359,1.958 -2.238,3.255 -4.196,2.896 -1.959,-0.358 -3.255,-2.238 -2.896,-4.196 0.539,-2.892 0.991,-5.879 1.35,-8.956 0.205,-1.762 0.376,-3.516 0.511,-5.261l-40.676 0c-1.998,0 -3.617,-1.619 -3.617,-3.617 0,-1.998 1.619,-3.617 3.617,-3.617l44.517 0 0 0.011 0.169 0.003c1.989,0.094 3.527,1.783 3.433,3.772 -0.156,3.262 -0.417,6.44 -0.777,9.528 -0.363,3.12 -0.844,6.267 -1.435,9.437zm2.212 -32.544c0.094,1.99 -1.444,3.679 -3.433,3.772 -1.989,0.094 -3.678,-1.444 -3.772,-3.433 -0.722,-15.063 -3.963,-29.47 -9.31,-42.803 -5.024,-12.53 -11.907,-24.113 -20.307,-34.408l-27.07 28.66c-1.365,1.451 -3.649,1.521 -5.1,0.155 -1.451,-1.365 -1.521,-3.649 -0.156,-5.1l29.852 -31.605c0.085,-0.088 0.174,-0.173 0.269,-0.255 1.505,-1.303 3.783,-1.139 5.086,0.368 10.095,11.64 18.296,24.967 24.123,39.5 5.639,14.062 9.057,29.257 9.818,45.149zm-43.341 -94.488c1.443,1.373 1.5,3.657 0.127,5.1 -1.373,1.443 -3.657,1.5 -5.1,0.127 -11.333,-10.761 -24.57,-19.54 -39.151,-25.775 -12.995,-5.558 -27.058,-9.098 -41.79,-10.223l0 39.637c0,1.998 -1.619,3.618 -3.617,3.618 -1.998,0 -3.617,-1.62 -3.617,-3.618l0 -43.476 0.011 0 0.003 -0.169c0.094,-1.99 1.783,-3.527 3.772,-3.434 17,0.815 33.198,4.667 48.064,11.024 15.381,6.578 29.343,15.838 41.298,27.189zm-102.941 -38.215c1.99,-0.093 3.679,1.444 3.772,3.434 0.094,1.989 -1.443,3.679 -3.433,3.772 -16.498,0.791 -32.207,4.603 -46.583,10.894 -13.773,6.028 -26.325,14.334 -37.179,24.44l27.867 29.505c1.365,1.451 1.296,3.735 -0.156,5.1 -1.451,1.366 -3.735,1.296 -5.1,-0.156l-30.324 -32.105c-1.339,-1.424 -1.302,-3.666 0.099,-5.043 12.045,-11.826 26.226,-21.488 41.911,-28.353 15.158,-6.633 31.724,-10.654 49.126,-11.488zm-100.289 49.836c1.28,-1.53 3.557,-1.732 5.086,-0.452 1.53,1.279 1.732,3.556 0.452,5.086 -9.147,10.911 -16.567,23.318 -21.84,36.795 -4.665,11.924 -7.651,24.686 -8.668,37.991l40.559 0c1.998,0 3.617,1.619 3.617,3.617 0,1.997 -1.619,3.617 -3.617,3.617l-44.398 0 0 -0.011 -0.169 -0.004c-1.99,-0.093 -3.527,-1.782 -3.434,-3.772 0.742,-15.489 4.005,-30.313 9.385,-44.066 5.563,-14.218 13.386,-27.301 23.027,-38.801zm-32.414 96.446c-0.093,-1.989 1.444,-3.678 3.433,-3.772 1.99,-0.093 3.679,1.444 3.772,3.434 0.677,14.105 3.562,27.637 8.317,40.254 4.41,11.7 10.433,22.615 17.799,32.474l27.026 -28.616c1.366,-1.451 3.649,-1.52 5.101,-0.155 1.451,1.365 1.52,3.649 0.155,5.101l-29.85 31.604c-0.139,0.157 -0.293,0.305 -0.463,0.44 -1.56,1.24 -3.832,0.981 -5.072,-0.579 -8.988,-11.277 -16.27,-23.984 -21.449,-37.726 -5.014,-13.301 -8.056,-27.573 -8.769,-42.459zm39.245 90.43c-1.388,-1.428 -1.357,-3.711 0.071,-5.1 1.428,-1.389 3.712,-1.357 5.101,0.071 5.355,5.521 11.204,10.588 17.475,15.132 6.22,4.505 12.833,8.478 19.77,11.851 1.795,0.866 2.547,3.023 1.682,4.818 -0.866,1.794 -3.024,2.547 -4.819,1.681 -7.353,-3.575 -14.334,-7.765 -20.872,-12.502 -6.58,-4.766 -12.74,-10.108 -18.408,-15.951zm33.45 52.862c1.818,0.811 2.633,2.943 1.822,4.761 -0.811,1.818 -2.943,2.634 -4.761,1.823 -30.437,-13.568 -56.193,-35.744 -74.17,-63.433 -17.432,-26.848 -27.557,-58.865 -27.557,-93.232 0,-47.348 19.192,-90.214 50.221,-121.243 31.029,-31.029 73.895,-50.221 121.243,-50.221 47.348,0 90.214,19.192 121.243,50.221 31.029,31.029 50.221,73.895 50.221,121.243 0,4.321 -0.167,8.642 -0.492,12.956 -0.33,4.366 -0.82,8.669 -1.461,12.903 -0.296,1.974 -2.137,3.334 -4.111,3.038 -1.974,-0.296 -3.334,-2.138 -3.038,-4.111 0.62,-4.094 1.091,-8.219 1.404,-12.368 0.306,-4.061 0.464,-8.201 0.464,-12.418 0,-45.351 -18.383,-86.409 -48.102,-116.128 -29.719,-29.719 -70.777,-48.102 -116.128,-48.102 -45.351,0 -86.41,18.383 -116.129,48.102 -29.719,29.719 -48.101,70.777 -48.101,116.128 0,32.946 9.689,63.613 26.37,89.304 17.225,26.531 41.902,47.778 71.062,60.777z" class="colorff0303 svgShape"/><path fill="#0396ff" fill-rule="nonzero" d="M175.24 118.868c0,-1.998 1.62,-3.617 3.618,-3.617 1.997,0 3.617,1.619 3.617,3.617l0 39.79c2.031,0.606 3.849,1.711 5.309,3.171 1.461,1.461 2.566,3.279 3.172,5.31l32.764 0c1.997,0 3.617,1.62 3.617,3.617 0,1.998 -1.62,3.618 -3.617,3.618l-32.764 0c-0.606,2.031 -1.711,3.849 -3.172,5.309 -0.075,0.076 -0.153,0.147 -0.233,0.214 -2.265,2.158 -5.327,3.484 -8.693,3.484 -3.486,0 -6.642,-1.413 -8.927,-3.698 -0.076,-0.075 -0.147,-0.153 -0.214,-0.233 -2.158,-2.265 -3.484,-5.328 -3.484,-8.694 0,-3.476 1.414,-6.627 3.698,-8.912l0.007 -0.007 -0.007 -0.008c1.461,-1.46 3.278,-2.565 5.309,-3.171l0 -39.79zm7.429 48.077c-0.975,-0.976 -2.323,-1.579 -3.811,-1.579 -1.489,0 -2.837,0.603 -3.812,1.579l-0.007 -0.008c-0.971,0.974 -1.572,2.325 -1.572,3.819 0,1.421 0.543,2.712 1.431,3.673l0.148 0.139c0.975,0.975 2.323,1.579 3.812,1.579 1.42,0 2.711,-0.543 3.672,-1.431l0.139 -0.147c0.976,-0.976 1.579,-2.324 1.579,-3.813 0,-1.488 -0.603,-2.836 -1.579,-3.811z" class="colorff0303 svgShape"/><path fill="#1d79bb" d="M179.307 308.181l0 20.217-64.992 0 .049-16.922c19.269-31.473 30.725-50.942 34.369-58.429 3.644-7.488 5.466-13.328 5.466-17.496 0-3.22-.574-5.615-1.673-7.214-1.098-1.571-2.77-2.37-5.016-2.37-2.247 0-3.944.873-5.042 2.621-1.098 1.747-1.647 5.216-1.647 10.407l0 11.232-26.506 0 0-4.318c0-6.614.349-11.856 1.023-15.674.674-3.819 2.371-7.588 5.042-11.282 2.695-3.694 6.189-6.514 10.482-8.411 4.293-1.896 9.435-2.845 15.424-2.845 11.756 0 20.642 2.92 26.682 8.736 6.015 5.839 9.035 13.202 9.035 22.113 0 6.789-1.697 13.952-5.092 21.514-3.394 7.563-13.403 23.586-30 48.121l32.396 0zM248.194 209.943l0 77.422 8.386 0 0 20.217-8.386 0 0 20.816-29.502 0 0-20.816-35.191 0 0-20.217 25.582-77.422 39.111 0zm-21.59 67.964l0-50.392-13.128 50.392 13.128 0z" class="color000000 svgShape"/></svg>