<svg xmlns="http://www.w3.org/2000/svg" enable-background="new 0 0 256 256" viewBox="0 0 256 256"><path fill="#a8d7f9" d="M131.918,126.1c-10.584,13.31-26.198,11.432-31.448,10.333c-0.954-0.2-1.869,0.519-1.87,1.494c0,0.007,0,0.013,0,0.02v23.311c0,15.938,13.04,28.978,28.978,28.978h0c15.938,0,28.978-13.04,28.978-28.978v-25.814c0-0.151-0.002-0.302-0.005-0.453c-0.016-0.822-0.674-1.499-1.496-1.523c-12.039-0.353-18.381-5.124-20.819-7.513C133.572,125.302,132.498,125.371,131.918,126.1z" class="colorf9c1a8 svgShape"/><path fill="#1d79bb" d="M186.02,220.683c-0.278-4.997-3.773-9.232-8.626-10.454l-22.505-5.665l-7.954-3.922c-3.419-1.686-5.584-5.167-5.584-8.979v-4.933c-4.102,2.234-8.796,3.505-13.772,3.505h0c-4.64,0-9.03-1.112-12.929-3.072v4.5c0,3.812-2.165,7.293-5.584,8.979l-7.954,3.922l-22.505,5.665c-4.853,1.222-8.348,5.457-8.627,10.454l-2.204,29.461c-0.102,1.822,1.349,3.356,3.174,3.356h114.099c1.825,0,3.276-1.533,3.174-3.356L186.02,220.683z" class="color5290db svgShape"/><path fill="#67b6ef" d="M101.564,204.342c3.173,11.62,13.845,20.229,26.436,20.229h0c12.591,0,23.263-8.609,26.436-20.229l-7.502-3.699c-3.419-1.686-5.584-5.167-5.584-8.979v-4.933c-4.102,2.234-8.796,3.505-13.772,3.505h0c-4.64,0-9.03-1.112-12.929-3.072v4.5c0,3.812-2.165,7.293-5.584,8.979L101.564,204.342z" class="color67acef svgShape"/><path fill="#a8d7f9" d="M146.934 200.643c-3.419-1.686-5.584-5.167-5.584-8.979v-4.933c-4.102 2.234-8.796 3.505-13.772 3.505h0c-4.64 0-9.03-1.112-12.929-3.072v4.5c0 3.812-2.165 7.293-5.584 8.979l-1.249.616c3.775 7.324 11.416 12.366 20.183 12.366s16.408-5.042 20.183-12.366L146.934 200.643zM158.417 139.172c-.633 0-1.253.053-1.86.147 0 3.084 0 17.354 0 21.938 0 .654-.03 1.3-.073 1.943.631.102 1.273.169 1.933.169 6.682 0 12.099-5.417 12.099-12.099S165.098 139.172 158.417 139.172zM98.6 161.258c0-3.002 0-15.969 0-21.938-.607-.094-1.227-.147-1.86-.147-6.682 0-12.099 5.417-12.099 12.099s5.417 12.099 12.099 12.099c.659 0 1.302-.067 1.933-.169v0C98.63 162.558 98.6 161.911 98.6 161.258z" class="colorf9c1a8 svgShape"/><path fill="#414344" d="M96.741,139.173c0.633,0,1.253,0.053,1.86,0.147v-1.373c0-0.007,0-0.013,0-0.02c0.001-0.975,0.916-1.694,1.87-1.494c5.25,1.099,20.864,2.977,31.448-10.333c0.58-0.729,1.654-0.798,2.319-0.146c2.437,2.389,8.78,7.16,20.819,7.513c0.822,0.024,1.48,0.701,1.496,1.523c0.003,0.151,0.005,0.302,0.005,0.453v3.876c0.607-0.094,1.227-0.147,1.86-0.147c3.261,0,6.216,1.297,8.391,3.395v-21.762c0-9.104-7.449-16.553-16.553-16.553c-3.088,0-5.975,0.873-8.456,2.36c-2.898-4.837-8.177-8.102-14.195-8.102h-8.5c-16.451,0-29.912,13.46-29.912,29.912v13.403C91.262,140.169,93.883,139.173,96.741,139.173z" class="color414344 svgShape"/><circle cx="40.842" cy="87.52" r="38.342" fill="#86cbfc" class="colorfcdd86 svgShape"/><path fill="#65bdfc" d="M59.752,67.886h-37.82c-1.32,0-2.39,1.07-2.39,2.39v6.143c0,1.32,1.07,2.39,2.39,2.39h37.82c1.32,0,2.39-1.07,2.39-2.39v-6.143C62.142,68.956,61.072,67.886,59.752,67.886z" class="colorfc657e svgShape"/><path fill="#70c0f9" d="M30.806,87.001h-8.328c-1.32,0-2.39,1.07-2.39,2.39v15.374c0,1.32,1.07,2.39,2.39,2.39h8.328c1.32,0,2.39-1.07,2.39-2.39V89.391C33.196,88.071,32.126,87.001,30.806,87.001z" class="color70d6f9 svgShape"/><circle cx="215.158" cy="87.994" r="38.342" fill="#86cbfc" class="colorfcdd86 svgShape"/><path d="M40.842 128.362C18.322 128.362 0 110.041 0 87.52s18.322-40.842 40.842-40.842S81.685 65 81.685 87.52 63.363 128.362 40.842 128.362zM40.842 51.678C21.079 51.678 5 67.756 5 87.52s16.079 35.842 35.842 35.842 35.842-16.079 35.842-35.842S60.606 51.678 40.842 51.678zM215.158 128.836c-22.521 0-40.843-18.322-40.843-40.842s18.322-40.842 40.843-40.842S256 65.473 256 87.994 237.679 128.836 215.158 128.836zM215.158 52.151c-19.764 0-35.843 16.079-35.843 35.842s16.079 35.842 35.843 35.842S251 107.757 251 87.994 234.922 52.151 215.158 52.151z" class="color000000 svgShape"/><path d="M59.752 81.309h-37.82c-2.696 0-4.89-2.193-4.89-4.89v-6.144c0-2.696 2.194-4.89 4.89-4.89h37.82c2.696 0 4.89 2.193 4.89 4.89v6.144C64.642 79.115 62.449 81.309 59.752 81.309zM22.042 76.309h37.6v-5.923h-37.6V76.309zM59.752 70.386h.01H59.752zM30.806 109.655h-8.328c-2.696 0-4.89-2.193-4.89-4.89V89.391c0-2.696 2.193-4.89 4.89-4.89h8.328c2.696 0 4.89 2.193 4.89 4.89v15.375C35.696 107.461 33.502 109.655 30.806 109.655zM22.588 104.655h8.107V89.501h-8.107V104.655zM30.806 89.501h.01H30.806zM59.705 91.298H42.618c-1.381 0-2.5-1.119-2.5-2.5s1.119-2.5 2.5-2.5h17.087c1.381 0 2.5 1.119 2.5 2.5S61.086 91.298 59.705 91.298zM59.705 99.73H42.618c-1.381 0-2.5-1.119-2.5-2.5s1.119-2.5 2.5-2.5h17.087c1.381 0 2.5 1.119 2.5 2.5S61.086 99.73 59.705 99.73zM59.705 108.162H42.618c-1.381 0-2.5-1.119-2.5-2.5s1.119-2.5 2.5-2.5h17.087c1.381 0 2.5 1.119 2.5 2.5S61.086 108.162 59.705 108.162z" class="color000000 svgShape"/><path fill="#1d79bb" d="M231.958,66.619h-33.601c-2.31,0-4.2,1.89-4.2,4.2v9.601c0,2.31,1.89,4.2,4.2,4.2h33.601c2.31,0,4.2-1.89,4.2-4.2v-9.601C236.158,68.508,234.268,66.619,231.958,66.619z" class="color5290db svgShape"/><path fill="#1d79bb" d="M231.958,84.619h-33.601c-2.31,0-4.2,1.89-4.2,4.2v9.601c0,2.31,1.89,4.2,4.2,4.2h33.601c2.31,0,4.2-1.89,4.2-4.2v-9.601C236.158,86.508,234.268,84.619,231.958,84.619z" class="color5290db svgShape"/><path d="M231.958,87.119h-33.601c-3.694,0-6.699-3.005-6.699-6.7v-9.601c0-3.694,3.005-6.7,6.699-6.7h33.601c3.694,0,6.7,3.005,6.7,6.7v9.601C238.658,84.113,235.652,87.119,231.958,87.119z M198.357,69.119c-0.921,0-1.699,0.778-1.699,1.7v9.601c0,0.921,0.778,1.7,1.699,1.7h33.601c0.922,0,1.7-0.778,1.7-1.7v-9.601c0-0.921-0.778-1.7-1.7-1.7H198.357z" class="color000000 svgShape"/><path d="M217.951 78.119h-15c-1.381 0-2.5-1.119-2.5-2.5s1.119-2.5 2.5-2.5h15c1.381 0 2.5 1.119 2.5 2.5S219.332 78.119 217.951 78.119zM227.364 78.119h-.827c-1.381 0-2.5-1.119-2.5-2.5s1.119-2.5 2.5-2.5h.827c1.381 0 2.5 1.119 2.5 2.5S228.745 78.119 227.364 78.119zM231.958 105.119h-33.601c-3.694 0-6.699-3.005-6.699-6.7v-9.601c0-3.694 3.005-6.7 6.699-6.7 1.381 0 2.5 1.119 2.5 2.5s-1.119 2.5-2.5 2.5c-.921 0-1.699.778-1.699 1.7v9.601c0 .921.778 1.7 1.699 1.7h33.601c.922 0 1.7-.778 1.7-1.7v-9.601c0-.921-.778-1.7-1.7-1.7-1.381 0-2.5-1.119-2.5-2.5s1.119-2.5 2.5-2.5c3.694 0 6.7 3.005 6.7 6.7v9.601C238.658 102.113 235.652 105.119 231.958 105.119z" class="color000000 svgShape"/><path d="M217.951 96.119h-15c-1.381 0-2.5-1.119-2.5-2.5s1.119-2.5 2.5-2.5h15c1.381 0 2.5 1.119 2.5 2.5S219.332 96.119 217.951 96.119zM227.364 96.119h-.827c-1.381 0-2.5-1.119-2.5-2.5s1.119-2.5 2.5-2.5h.827c1.381 0 2.5 1.119 2.5 2.5S228.745 96.119 227.364 96.119zM214.805 112.723c-1.381 0-2.5-1.119-2.5-2.5v-6.408c0-1.381 1.119-2.5 2.5-2.5s2.5 1.119 2.5 2.5v6.408C217.305 111.604 216.186 112.723 214.805 112.723z" class="color000000 svgShape"/><path d="M222.404,113.869h-15.2c-1.381,0-2.5-1.119-2.5-2.5s1.119-2.5,2.5-2.5h15.2c1.381,0,2.5,1.119,2.5,2.5S223.785,113.869,222.404,113.869z" class="color000000 svgShape"/><circle cx="128" cy="49.994" r="38.342" fill="#86cbfc" class="colorfcdd86 svgShape"/><path fill="#65bdfc" d="M149.848,45.895h-2.796c-0.409,0-0.768-0.274-0.872-0.67c-0.438-1.674-1.1-3.256-1.954-4.713c-0.207-0.353-0.147-0.802,0.142-1.091l1.978-1.978c0.353-0.353,0.353-0.926,0-1.279l-4.517-4.517c-0.353-0.353-0.926-0.353-1.279,0l-1.978,1.978c-0.29,0.29-0.738,0.349-1.091,0.142c-1.458-0.854-3.04-1.516-4.713-1.954c-0.396-0.104-0.67-0.463-0.67-0.872v-2.796c0-0.5-0.405-0.905-0.904-0.905h-6.388c-0.5,0-0.904,0.405-0.904,0.905v2.796c0,0.409-0.274,0.768-0.67,0.872c-1.674,0.438-3.256,1.1-4.713,1.954c-0.353,0.207-0.802,0.147-1.091-0.142l-1.978-1.978c-0.353-0.353-0.926-0.353-1.279,0l-4.517,4.517c-0.353,0.353-0.353,0.926,0,1.279l1.978,1.978c0.289,0.29,0.349,0.738,0.142,1.091c-0.854,1.458-1.516,3.04-1.954,4.713c-0.103,0.396-0.463,0.67-0.872,0.67h-2.796c-0.5,0-0.905,0.405-0.905,0.904v6.388c0,0.5,0.405,0.904,0.905,0.904h2.796c0.409,0,0.769,0.274,0.872,0.67c0.438,1.674,1.1,3.256,1.954,4.713c0.207,0.353,0.147,0.802-0.142,1.091l-1.978,1.978c-0.353,0.353-0.353,0.926,0,1.279l4.517,4.517c0.353,0.353,0.926,0.353,1.279,0l1.978-1.978c0.289-0.289,0.738-0.349,1.091-0.142c1.458,0.854,3.04,1.516,4.713,1.954c0.396,0.103,0.67,0.463,0.67,0.872v2.796c0,0.5,0.405,0.904,0.904,0.904h6.388c0.5,0,0.904-0.405,0.904-0.904v-2.796c0-0.409,0.274-0.769,0.67-0.872c1.674-0.438,3.256-1.1,4.713-1.954c0.353-0.207,0.802-0.147,1.091,0.142l1.978,1.978c0.353,0.353,0.926,0.353,1.279,0l4.517-4.517c0.353-0.353,0.353-0.926,0-1.279l-1.978-1.978c-0.29-0.29-0.349-0.738-0.142-1.091c0.854-1.457,1.516-3.04,1.954-4.713c0.103-0.396,0.463-0.67,0.872-0.67h2.796c0.499,0,0.905-0.405,0.905-0.904V46.8C150.753,46.3,150.348,45.895,149.848,45.895z M128,60.639c-5.879,0-10.646-4.766-10.646-10.646S122.121,39.348,128,39.348c5.879,0,10.646,4.766,10.646,10.646S133.879,60.639,128,60.639z" class="colorfc657e svgShape"/><path d="M128,90.836c-22.521,0-40.842-18.322-40.842-40.842S105.479,9.151,128,9.151s40.842,18.322,40.842,40.842S150.521,90.836,128,90.836z M128,14.151c-19.764,0-35.842,16.079-35.842,35.842S108.236,85.836,128,85.836s35.842-16.079,35.842-35.842S147.764,14.151,128,14.151z" class="color000000 svgShape"/><path d="M131.193 75.246h-6.387c-1.877 0-3.404-1.527-3.404-3.404v-1.601c-1.048-.342-2.069-.765-3.052-1.266l-1.133 1.133c-1.284 1.286-3.53 1.286-4.815-.001l-4.516-4.515c-1.327-1.327-1.327-3.486-.001-4.814l1.134-1.134c-.501-.983-.924-2.004-1.265-3.052h-1.601c-1.877 0-3.405-1.527-3.405-3.404V46.8c0-1.877 1.527-3.405 3.405-3.405h1.601c.342-1.049.765-2.069 1.265-3.052l-1.132-1.133c-1.327-1.326-1.327-3.486-.001-4.813l4.519-4.518c1.285-1.285 3.528-1.286 4.814 0l1.133 1.133c.984-.501 2.004-.924 3.053-1.266v-1.601c0-1.877 1.527-3.404 3.404-3.404h6.387c1.878 0 3.405 1.527 3.405 3.404v1.601c1.048.341 2.068.764 3.052 1.265l1.132-1.132c1.329-1.327 3.487-1.328 4.814-.002l4.518 4.518c.644.643.997 1.498.997 2.407 0 .91-.354 1.766-.998 2.409l-1.131 1.131c.5.983.924 2.004 1.266 3.052h1.601c1.877 0 3.404 1.527 3.404 3.405v6.388c0 1.877-1.527 3.404-3.404 3.404h-1.601c-.342 1.049-.766 2.069-1.266 3.052l1.132 1.133c.644.643.997 1.498.997 2.407 0 .91-.354 1.766-.998 2.409l-4.516 4.515c-1.285 1.287-3.529 1.287-4.814 0l-1.133-1.132c-.982.5-2.003.924-3.052 1.266v1.601C134.599 73.719 133.071 75.246 131.193 75.246zM126.402 70.246h3.197v-1.2c0-1.546 1.043-2.9 2.537-3.291 1.43-.375 2.804-.944 4.082-1.693 1.334-.78 3.029-.56 4.122.531l.851.851 2.261-2.26-.85-.85c-1.095-1.092-1.313-2.788-.532-4.122.748-1.278 1.318-2.652 1.693-4.083.391-1.493 1.743-2.537 3.289-2.537h1.201v-3.197h-1.201c-1.547 0-2.899-1.043-3.29-2.538-.375-1.431-.944-2.805-1.692-4.083-.782-1.333-.563-3.029.533-4.123l.849-.849-2.261-2.261-.849.85c-1.097 1.094-2.79 1.313-4.124.532-1.278-.749-2.652-1.318-4.081-1.692-1.495-.391-2.538-1.745-2.538-3.291v-1.201h-3.197v1.201c0 1.546-1.043 2.9-2.537 3.291-1.43.374-2.803.943-4.083 1.692-1.333.782-3.029.563-4.122-.532l-.851-.85-2.26 2.26.85.851c1.095 1.094 1.313 2.79.531 4.123-.748 1.276-1.317 2.65-1.692 4.082-.39 1.494-1.744 2.537-3.291 2.537h-1.201v3.197h1.201c1.546 0 2.899 1.043 3.291 2.537.374 1.43.943 2.803 1.692 4.083.781 1.333.563 3.028-.532 4.122l-.85.85 2.261 2.26.85-.85c1.092-1.092 2.787-1.312 4.12-.533 1.281.75 2.655 1.32 4.085 1.694 1.494.391 2.537 1.744 2.537 3.291V70.246zM113.682 66.572c0 0-.001.001-.002.001L113.682 66.572zM149.849 48.395h.01H149.849zM144.578 35.675c0 .001-.001.001-.002.002L144.578 35.675zM128 63.139c-7.249 0-13.146-5.897-13.146-13.146S120.751 36.848 128 36.848c7.248 0 13.146 5.897 13.146 13.146S135.248 63.139 128 63.139zM128 41.848c-4.491 0-8.146 3.654-8.146 8.146 0 4.491 3.654 8.146 8.146 8.146s8.146-3.654 8.146-8.146C136.146 45.502 132.491 41.848 128 41.848zM159.052 134.94c-.043-2.163-1.766-3.908-3.922-3.972-11.355-.333-17.17-4.866-19.142-6.799-.82-.805-1.935-1.228-3.094-1.156-1.147.071-2.216.628-2.934 1.53-9.541 11.999-23.442 10.601-28.979 9.442-1.201-.253-2.438.048-3.392.822-.946.768-1.489 1.903-1.49 3.139v23.311c0 17.357 14.121 31.479 31.479 31.479 17.357 0 31.478-14.121 31.478-31.479v-25.814L159.052 134.94zM154.057 161.258c0 14.6-11.878 26.479-26.478 26.479S101.1 175.858 101.1 161.258v-22.16c6.008 1.042 21.331 2.133 32.134-10.661 3.217 2.863 9.704 6.961 20.822 7.494V161.258z" class="color000000 svgShape"/><path d="M166.808 144.208c-1.381 0-2.5-1.119-2.5-2.5v-20.902c0-7.749-6.304-14.053-14.053-14.053-2.504 0-4.983.693-7.171 2.004-.569.34-1.251.441-1.893.281-.644-.161-1.196-.571-1.537-1.14-2.545-4.248-7.162-6.886-12.051-6.886h-8.5c-15.115 0-27.412 12.297-27.412 27.412v12.702c0 1.381-1.119 2.5-2.5 2.5s-2.5-1.119-2.5-2.5v-12.702c0-17.872 14.54-32.412 32.412-32.412h8.5c5.851 0 11.41 2.775 15.003 7.371 2.414-1.071 5.02-1.629 7.648-1.629 10.506 0 19.053 8.547 19.053 19.053v20.902C169.308 143.088 168.188 144.208 166.808 144.208zM128 176.645c-4.56 0-8.808-2.258-11.363-6.041-.773-1.144-.472-2.698.672-3.471 1.143-.773 2.698-.473 3.471.672 1.625 2.404 4.324 3.84 7.221 3.84s5.596-1.436 7.221-3.84c.772-1.146 2.328-1.445 3.471-.672 1.145.773 1.445 2.327.672 3.471C136.808 174.387 132.56 176.645 128 176.645zM185.05 256H70.951c-1.554 0-3.058-.647-4.126-1.777-1.068-1.129-1.631-2.667-1.544-4.218l2.207-29.508c.338-6.075 4.563-11.194 10.509-12.691l22.248-5.6 7.716-3.805c2.584-1.274 4.189-3.856 4.189-6.737v-3.5c0-1.381 1.119-2.5 2.5-2.5s2.5 1.119 2.5 2.5v3.5c0 4.799-2.674 9.099-6.978 11.221l-7.955 3.922c-.158.078-.324.139-.495.182l-22.505 5.665c-3.813.96-6.522 4.243-6.741 8.168l-2.207 29.508c-.01.194.096.36.188.457.092.097.252.212.494.212H185.05c.241 0 .401-.115.493-.212.092-.097.198-.263.185-.504l-2.201-29.414c-.222-3.973-2.931-7.256-6.743-8.216l-22.505-5.665c-.171-.043-.337-.104-.495-.182l-7.955-3.922c-4.304-2.123-6.978-6.423-6.978-11.221v-3.933c0-1.381 1.119-2.5 2.5-2.5s2.5 1.119 2.5 2.5v3.933c0 2.881 1.605 5.462 4.189 6.737l7.716 3.804 22.248 5.6c5.946 1.497 10.171 6.616 10.512 12.739l2.201 29.414c.09 1.599-.474 3.137-1.541 4.266C188.107 255.353 186.604 256 185.05 256z" class="color000000 svgShape"/><path d="M165.185 256c-1.381 0-2.5-1.119-2.5-2.5v-24.97c0-1.381 1.119-2.5 2.5-2.5s2.5 1.119 2.5 2.5v24.97C167.685 254.881 166.565 256 165.185 256zM90.815 256c-1.381 0-2.5-1.119-2.5-2.5v-24.97c0-1.381 1.119-2.5 2.5-2.5s2.5 1.119 2.5 2.5v24.97C93.315 254.881 92.196 256 90.815 256z" class="color000000 svgShape"/><circle cx="116.453" cy="152.79" r="3.835" class="color000000 svgShape"/><circle cx="139.061" cy="152.79" r="3.835" class="color000000 svgShape"/><path d="M128,227.071c-13.157,0-24.953-8.84-28.685-21.497c-0.391-1.324,0.367-2.714,1.691-3.105c1.325-0.391,2.714,0.367,3.105,1.691c3.109,10.546,12.933,17.911,23.889,17.911c10.815,0,20.603-7.246,23.802-17.62c0.407-1.319,1.808-2.059,3.125-1.652c1.319,0.407,2.06,1.806,1.652,3.126C152.74,218.375,140.988,227.071,128,227.071z" class="color000000 svgShape"/><path d="M128 216.125c-9.06 0-17.473-4.937-21.955-12.885-.678-1.203-.253-2.728.95-3.406 1.204-.679 2.728-.253 3.406.95 3.597 6.378 10.341 10.341 17.599 10.341 7.312 0 14.081-4.006 17.663-10.456.671-1.208 2.193-1.641 3.399-.972 1.207.67 1.642 2.192.972 3.399C145.57 211.133 137.128 216.125 128 216.125zM158.417 165.87c-.446 0-.897-.024-1.379-.074-1.373-.142-2.372-1.37-2.229-2.743.141-1.374 1.359-2.368 2.743-2.23.284.029.572.047.865.047 5.293 0 9.599-4.306 9.599-9.599 0-5.293-4.306-9.599-9.599-9.599-.25 0-.496.011-.74.031-1.379.106-2.582-.916-2.692-2.292-.11-1.376.916-2.582 2.292-2.692.377-.03.756-.046 1.141-.046 8.05 0 14.599 6.549 14.599 14.599S166.467 165.87 158.417 165.87zM96.741 165.87c-8.05 0-14.599-6.549-14.599-14.599s6.549-14.599 14.599-14.599c.384 0 .764.017 1.14.046 1.376.111 2.402 1.316 2.292 2.693-.111 1.376-1.317 2.404-2.693 2.292-.243-.02-.49-.031-.739-.031-5.292 0-9.599 4.306-9.599 9.599 0 5.292 4.306 9.599 9.599 9.599.301 0 .598-.019.892-.05 1.374-.146 2.604.851 2.749 2.224.145 1.373-.851 2.604-2.224 2.749C97.661 165.845 97.198 165.87 96.741 165.87z" class="color000000 svgShape"/><path fill="#4caef5" d="M194.107,143.617c-2.726,0.508-4.874,2.612-5.392,5.282c-0.026,0.134-0.213,0.134-0.239,0c-0.518-2.67-2.666-4.775-5.392-5.282c-0.137-0.025-0.137-0.209,0-0.234c2.726-0.508,4.874-2.612,5.392-5.282c0.026-0.134,0.213-0.134,0.239,0c0.518,2.67,2.666,4.775,5.392,5.282C194.244,143.408,194.244,143.592,194.107,143.617z" class="colorf5c84c svgShape"/><path fill="#65bdfc" d="M189.918,17.551c-4.149,0.773-7.419,3.976-8.208,8.041c-0.04,0.204-0.325,0.204-0.364,0c-0.789-4.065-4.059-7.268-8.208-8.041c-0.208-0.039-0.208-0.318,0-0.357c4.149-0.773,7.419-3.976,8.208-8.041c0.04-0.204,0.325-0.204,0.364,0c0.789,4.065,4.059,7.268,8.208,8.041C190.126,17.233,190.126,17.512,189.918,17.551z" class="colorfc657e svgShape"/><circle cx="155.981" cy="3.377" r="3.377" fill="#70c0f9" class="color70d6f9 svgShape"/><circle cx="58.981" cy="202.377" r="3.377" fill="#4797d1" class="color87d147 svgShape"/><path fill="#70c0f9" d="M73.454,175.758h-1.824v-1.824c0-1.366-1.107-2.473-2.473-2.473s-2.473,1.107-2.473,2.473v1.824H64.86c-1.366,0-2.473,1.107-2.473,2.473s1.107,2.473,2.473,2.473h1.824v1.824c0,1.366,1.107,2.473,2.473,2.473s2.473-1.107,2.473-2.473v-1.824h1.824c1.366,0,2.473-1.107,2.473-2.473S74.819,175.758,73.454,175.758z" class="color70d6f9 svgShape"/></svg>