<svg xmlns="http://www.w3.org/2000/svg" viewBox="0 0 512 512"><path fill="#1d79bb" d="M53.088 210.343A8 8 0 0064.4 221.657a8 8 0 0111.315 0 8 8 0 0011.312-11.316 24 24 0 00-33.941 0zM240.845 204.422a8 8 0 003.577 10.733 43.98 43.98 0 0039.156 0 8 8 0 10-7.156-14.31 27.917 27.917 0 01-24.844 0A8 8 0 00240.845 204.422z" class="color000000 svgShape"/><circle cx="243" cy="176" r="9" fill="#1d79bb" class="color000000 svgShape"/><circle cx="285" cy="176" r="9" fill="#1d79bb" class="color000000 svgShape"/><path fill="#1d79bb" d="M470,400h-6v-8h8a24,24,0,0,0,0-48h-8a8,8,0,0,0-8-8H408a8,8,0,0,0-8,8v56H384V328.408A69.9,69.9,0,0,0,330.978,260.5l-11.078-2.77a28.057,28.057,0,0,0-18.492-24.1A56.115,56.115,0,0,0,317.659,208H324a27.981,27.981,0,0,0,20-47.569V144a80,80,0,0,0-160,0v16.431A27.981,27.981,0,0,0,204,208h6.341a56.115,56.115,0,0,0,16.251,25.631,28.052,28.052,0,0,0-18.521,24.484l-7.283,2.3c-22.52,7.114-39.745,24.535-46.076,46.6a69.931,69.931,0,0,0-2.712,19.3V368H136.039V258a18.021,18.021,0,0,0-18-18h-84a18.021,18.021,0,0,0-18,18V392a23.91,23.91,0,0,0,6.675,16.583A25.9,25.9,0,0,0,16,426v30a8,8,0,0,0,8,8H488a8,8,0,0,0,8-8V426A26.029,26.029,0,0,0,470,400Zm2-40a8,8,0,0,1,0,16h-8V360Zm-56-8h32v48H416ZM302.138,325.633l-1.561,3.682-7.366-3.12,1.56-3.682a4,4,0,1,1,7.367,3.12ZM287.05,340.961l7.286,3.087L284.189,368h-8.251ZM263.926,384H368v16H256v-8.074A7.936,7.936,0,0,1,263.926,384ZM324,192h-4V168h4a12,12,0,0,1,0,24ZM264,80a64.072,64.072,0,0,1,64,64v8.29a28.076,28.076,0,0,0-4-.29H312a43.536,43.536,0,0,1-39.155-24.2l-1.69-3.378A8,8,0,0,0,257.6,123.2L248,136a40.191,40.191,0,0,1-32,16H204a28.076,28.076,0,0,0-4,.29V144A64.072,64.072,0,0,1,264,80ZM204,192a12,12,0,0,1,0-24h4v24Zm20,0V167.418A56.317,56.317,0,0,0,260.8,145.6l2.265-3.021A59.31,59.31,0,0,0,304,167.474V192a40,40,0,0,1-80,0Zm12,56h56a12,12,0,0,1,0,24H236a12,12,0,0,1,0-24Zm-68,78.318a53.954,53.954,0,0,1,2.091-14.889c4.847-16.9,18.125-30.263,35.517-35.756l6.026-1.9A28.015,28.015,0,0,0,236,288h56a28.023,28.023,0,0,0,24.583-14.608l10.514,2.629A53.921,53.921,0,0,1,368,328.408V368H336V344a8,8,0,0,0-16,0v24H301.566l10.623-25.076,0-.007,4.678-11.042a20,20,0,1,0-36.831-15.6l-21.671,52.388A23.963,23.963,0,0,0,240,391.926V400H222.635A23.844,23.844,0,0,0,224,392.039V376a8,8,0,0,0-8-8V344a8,8,0,0,0-16,0v24H168ZM208,384v8.039A7.97,7.97,0,0,1,200.039,400H144a8.009,8.009,0,0,1-8-8v-8ZM42,400c-.438,0-.873.012-1.306.033-.216-.017-.434-.033-.655-.033a8.009,8.009,0,0,1-8-8v-8H120v8a23.885,23.885,0,0,0,1.376,8ZM32.039,258a2,2,0,0,1,2-2h84a2,2,0,0,1,2,2V368h-88ZM480,448H32V426a10.011,10.011,0,0,1,10-10H470a10.011,10.011,0,0,1,10,10Z" class="color000000 svgShape"/><path fill="#1d79bb" d="M409.307 309.7l2.94 5.881a8 8 0 0014.311-7.156l-2.941-5.881a7.687 7.687 0 011.443-8.884A23.669 23.669 0 00429.5 266.3l-2.94-5.881a8 8 0 00-14.311 7.156l2.941 5.881a7.687 7.687 0 01-1.443 8.884A23.666 23.666 0 00409.307 309.7zM439.988 306.5a8 8 0 1015.2-5 7.653 7.653 0 011.872-7.844A23.669 23.669 0 00461.5 266.3l-2.94-5.881a8 8 0 00-14.311 7.156l2.941 5.881a7.687 7.687 0 01-1.443 8.884A23.581 23.581 0 00439.988 306.5zM72 288a24 24 0 1024 24A24.028 24.028 0 0072 288zm0 32a8 8 0 118-8A8.009 8.009 0 0172 320zM41.774 202.344a40 40 0 0156.569 0 8 8 0 1011.314-11.315 56 56 0 00-79.2 0 8 8 0 0011.314 11.315z" class="color000000 svgShape"/></svg>