<svg width="45" height="43" viewBox="0 0 62 50" fill="none" xmlns="http://www.w3.org/2000/svg">
<path d="M24.3207 33.8532L24.3209 33.8532C26.579 34.7463 28.9473 35.1931 31.32 35.1931H31.321C33.6931 35.1931 36.0659 34.7464 38.3203 33.8532L58.5715 25.8317L58.5729 25.8312C59.1616 25.5939 59.4513 24.9305 59.2144 24.3413L59.2137 24.3395C58.9729 23.7538 58.3038 23.4714 57.7144 23.7039L57.7141 23.704L37.4629 31.7259C33.5021 33.2933 29.1389 33.2933 25.1781 31.7259C25.1781 31.7259 25.178 31.7259 25.178 31.7259L4.92686 23.704L4.92686 23.704L4.92588 23.7036C4.33428 23.4722 3.66352 23.7525 3.4266 24.3412L3.42657 24.3413C3.19022 24.9292 3.47803 25.5983 4.06968 25.8318C4.06972 25.8318 4.06976 25.8318 4.0698 25.8318L24.3207 33.8532Z" fill="#1D79BB" stroke="#1D79BB" strokeWidth="0.5"/>
<ellipse cx="30.9999" cy="22.7275" rx="3.44444" ry="3.40909" fill="#1D79BB"/>
<path d="M6.25228 48.8361H56.3975C57.9947 48.8361 59.2993 47.5483 59.2993 45.9637V13.2212C59.2993 11.6368 57.9947 10.3484 56.3975 10.3484H6.25228C4.65483 10.3484 3.34998 11.633 3.34998 13.2212V45.9637C3.34998 47.5482 4.65467 48.8361 6.25228 48.8361ZM5.65895 13.2204C5.65895 12.9013 5.92178 12.6354 6.25228 12.6354H56.3975C56.7245 12.6354 56.9899 12.9017 56.9899 13.2204V45.963C56.9899 46.2819 56.7274 46.5476 56.3975 46.5476H6.25228C5.92102 46.5476 5.65895 46.2844 5.65895 45.963V13.2204Z" fill="#1D79BB" stroke="#1D79BB" strokeWidth="0.5"/>
<path d="M38.3503 7.85374C38.3503 8.48869 38.8696 8.99953 39.5045 8.99955H39.5046C40.1392 8.99953 40.6592 8.49283 40.6592 7.85374V5.47871C40.6592 3.68648 39.1876 2.23706 37.388 2.23706H25.2488C23.4486 2.23706 21.9775 3.69022 21.9775 5.47871V7.85374C21.9775 8.48879 22.4969 8.99955 23.1322 8.99955C23.767 8.99955 24.2869 8.48886 24.2869 7.85374V5.47871C24.2869 4.95582 24.715 4.52823 25.2488 4.52823H37.388C37.9186 4.52823 38.3503 4.95648 38.3503 5.47871V7.85374Z" fill="#1D79BB" stroke="#1D79BB" strokeWidth="0.5"/>
</svg>
