<svg width="902" height="708" viewBox="0 0 902 708" fill="none" xmlns="http://www.w3.org/2000/svg">
<g clip-path="url(#clip0_451_3551)">
<path opacity="0.15" d="M53.5055 613.173C53.5055 613.173 9.83645 554.252 43.8311 488.741C82.2876 414.619 184.328 402.516 234.47 357.96C284.613 313.405 284.556 218.667 372.418 178.354C437.475 148.505 485.465 155.037 562.802 196.043C640.14 237.049 670.934 209.66 757.422 234.674C851.191 261.794 890.851 352.856 865.837 446.321C844.746 525.095 907.14 541.059 904.307 613.173H53.5055Z" fill="url(#paint0_linear_451_3551)"/>
<path d="M919.194 616.001H21.168C20.389 616.001 19.7516 615.365 19.7516 614.587C19.7516 613.81 20.389 613.173 21.168 613.173H919.194C919.973 613.173 920.611 613.81 920.611 614.587C920.611 615.365 919.973 616.001 919.194 616.001Z" fill="white"/>
<path d="M310.109 626.847H234.116C233.337 626.847 232.7 626.21 232.7 625.433C232.7 624.655 233.337 624.019 234.116 624.019H310.109C310.888 624.019 311.525 624.655 311.525 625.433C311.525 626.21 310.888 626.847 310.109 626.847Z" fill="white"/>
<path d="M621.032 626.847H505.351C504.572 626.847 503.935 626.21 503.935 625.433C503.935 624.655 504.572 624.019 505.351 624.019H621.032C621.811 624.019 622.449 624.655 622.449 625.433C622.449 626.21 621.811 626.847 621.032 626.847Z" fill="white"/>
<path d="M473.637 626.847H347.772C346.993 626.847 346.355 626.21 346.355 625.433C346.355 624.655 346.993 624.019 347.772 624.019H473.637C474.416 624.019 475.054 624.655 475.054 625.433C475.054 626.21 474.416 626.847 473.637 626.847Z" fill="white"/>
<path d="M800.511 626.847H665.651C664.872 626.847 664.234 626.21 664.234 625.433C664.234 624.655 664.872 624.019 665.651 624.019H800.511C801.29 624.019 801.927 624.655 801.927 625.433C801.927 626.21 801.29 626.847 800.511 626.847Z" fill="white"/>
<path d="M601.896 232.963L601.613 233.217C596.415 237.898 588.61 237.954 583.228 233.486C528.184 187.927 448.481 178.566 382.631 215.981C298.083 264.014 268.253 371.054 315.59 455.71L324.571 448.895C326.029 447.778 328.14 448.753 328.239 450.592L330.69 496.419C330.775 498.031 329.216 499.233 327.673 498.71L284.074 484.146C282.332 483.552 281.95 481.261 283.423 480.144L292.856 472.975C292.474 472.311 292.063 471.66 291.681 470.996C235.589 372.581 270.037 247.4 368.622 191.391C445.096 147.967 537.675 158.912 601.556 211.937C608.058 217.352 608.185 227.307 601.896 232.963Z" fill="white"/>
<path d="M571.754 548.186C495.28 591.61 402.701 580.665 338.82 527.655C332.304 522.253 332.176 512.298 338.48 506.628L338.777 506.36C343.975 501.679 351.78 501.623 357.162 506.091C412.206 551.65 491.895 561.011 557.745 523.596C642.293 475.577 672.123 368.523 624.786 283.867L615.805 290.682C614.346 291.799 612.236 290.824 612.137 288.985L609.686 243.158C609.601 241.546 611.159 240.358 612.703 240.867L656.301 255.431C658.044 256.025 658.426 258.316 656.953 259.433L647.52 266.602C647.902 267.266 648.313 267.917 648.695 268.581C704.786 366.996 670.338 492.177 571.754 548.186Z" fill="white"/>
<path d="M357.305 261.625C367.588 262.954 375.888 271.254 377.191 281.534C378.155 289.099 375.435 296.07 370.591 300.891L374.118 310.507C374.444 311.412 373.395 312.189 372.631 311.595L364.401 305.289C360.18 307.353 355.265 308.216 350.067 307.297C340.137 305.515 332.347 297.257 331.214 287.232C329.514 272.23 342.219 259.687 357.305 261.625Z" fill="white"/>
<path d="M362.234 284.178C362.234 286.03 363.735 287.543 365.605 287.543C367.46 287.543 368.976 286.045 368.976 284.178C368.976 282.326 367.474 280.813 365.605 280.813C363.735 280.813 362.234 282.326 362.234 284.178Z" fill="url(#paint1_linear_451_3551)"/>
<path d="M354.217 287.543C356.079 287.543 357.588 286.037 357.588 284.178C357.588 282.319 356.079 280.813 354.217 280.813C352.355 280.813 350.846 282.319 350.846 284.178C350.846 286.037 352.355 287.543 354.217 287.543Z" fill="url(#paint2_linear_451_3551)"/>
<path d="M339.457 284.178C339.457 286.03 340.959 287.543 342.829 287.543C344.684 287.543 346.2 286.045 346.2 284.178C346.2 282.326 344.698 280.813 342.829 280.813C340.973 280.813 339.457 282.326 339.457 284.178Z" fill="url(#paint3_linear_451_3551)"/>
<path opacity="0.5" d="M191.354 416.373H136.892C133.478 416.373 130.716 413.615 130.716 410.208V379.156C130.716 375.749 133.478 372.991 136.892 372.991H191.354C194.768 372.991 197.53 375.749 197.53 379.156V410.208C197.53 413.615 194.768 416.373 191.354 416.373Z" fill="url(#paint4_linear_451_3551)"/>
<path d="M190.079 413.686H132.812C130.178 413.686 128.053 411.551 128.053 408.935V375.084C128.053 372.454 130.192 370.333 132.812 370.333H190.079C192.714 370.333 194.838 372.468 194.838 375.084V408.935C194.838 411.565 192.714 413.686 190.079 413.686Z" fill="url(#paint5_linear_451_3551)"/>
<path d="M157.77 385.604L166.623 390.709C167.628 391.288 167.628 392.731 166.623 393.31L157.77 398.415C156.764 398.995 155.518 398.274 155.518 397.114V386.919C155.518 385.76 156.764 385.024 157.77 385.604Z" fill="white"/>
<path d="M719.489 223.376V216.546C719.489 215.783 718.937 215.132 718.172 215.019L709.957 213.747C709.362 213.648 708.88 213.223 708.71 212.644C708.172 210.805 707.435 209.038 706.529 207.398C706.231 206.875 706.274 206.224 706.628 205.729L711.529 199.027C711.982 198.405 711.911 197.556 711.373 197.019L706.543 192.197C706.005 191.66 705.141 191.589 704.532 192.042L697.818 196.934C697.336 197.288 696.685 197.33 696.146 197.033C694.489 196.128 692.733 195.393 690.891 194.856C690.31 194.686 689.886 194.205 689.786 193.611L688.512 185.41C688.398 184.661 687.747 184.095 686.982 184.095H680.14C679.375 184.095 678.724 184.646 678.611 185.41L677.336 193.611C677.237 194.205 676.812 194.686 676.231 194.856C674.39 195.393 672.619 196.128 670.976 197.033C670.452 197.33 669.8 197.288 669.305 196.934L662.591 192.042C661.967 191.589 661.118 191.66 660.579 192.197L655.749 197.019C655.211 197.556 655.14 198.419 655.593 199.027L660.494 205.729C660.848 206.21 660.891 206.86 660.593 207.398C659.687 209.052 658.95 210.805 658.412 212.644C658.242 213.223 657.761 213.648 657.166 213.747L648.95 215.019C648.2 215.132 647.633 215.783 647.633 216.546V223.376C647.633 224.139 648.185 224.79 648.95 224.903L657.166 226.176C657.761 226.275 658.242 226.699 658.412 227.279C658.95 229.117 659.687 230.884 660.593 232.524C660.891 233.048 660.848 233.698 660.494 234.193L655.593 240.895C655.14 241.518 655.211 242.366 655.749 242.903L660.579 247.725C661.118 248.262 661.982 248.333 662.591 247.881L669.305 242.988C669.786 242.635 670.438 242.592 670.976 242.889C672.633 243.794 674.39 244.529 676.231 245.067C676.812 245.236 677.237 245.717 677.336 246.311L678.611 254.512C678.724 255.262 679.375 255.827 680.14 255.827H686.982C687.747 255.827 688.398 255.276 688.512 254.512L689.786 246.311C689.886 245.717 690.31 245.236 690.891 245.067C692.733 244.529 694.503 243.794 696.146 242.889C696.67 242.592 697.322 242.635 697.818 242.988L704.532 247.881C705.155 248.333 706.005 248.262 706.543 247.725L711.373 242.903C711.911 242.366 711.982 241.503 711.529 240.895L706.628 234.193C706.274 233.712 706.231 233.062 706.529 232.524C707.435 230.87 708.172 229.117 708.71 227.279C708.88 226.699 709.362 226.275 709.957 226.176L718.172 224.903C718.923 224.79 719.489 224.139 719.489 223.376ZM683.554 235.027C675.225 235.027 668.469 228.282 668.469 219.968C668.469 211.654 675.225 204.909 683.554 204.909C691.883 204.909 698.639 211.654 698.639 219.968C698.639 228.282 691.897 235.027 683.554 235.027Z" fill="url(#paint6_linear_451_3551)"/>
<path d="M683.554 239.524C672.747 239.524 663.965 230.743 663.965 219.968C663.965 209.179 672.761 200.413 683.554 200.413C694.362 200.413 703.144 209.194 703.144 219.968C703.158 230.757 694.362 239.524 683.554 239.524ZM683.554 201.19C673.186 201.19 664.744 209.618 664.744 219.968C664.744 230.319 673.186 238.746 683.554 238.746C693.923 238.746 702.365 230.319 702.365 219.968C702.365 209.618 693.923 201.19 683.554 201.19Z" fill="url(#paint7_linear_451_3551)"/>
<path opacity="0.5" d="M255.292 604.915L241.581 602.794C240.575 602.639 239.768 601.918 239.485 600.956C238.592 597.874 237.36 594.947 235.844 592.189C235.363 591.299 235.434 590.224 236.029 589.418L244.216 578.233C244.966 577.201 244.853 575.773 243.946 574.868L235.887 566.822C234.98 565.917 233.55 565.804 232.53 566.554L221.312 574.741C220.504 575.335 219.428 575.391 218.535 574.91C215.773 573.397 212.841 572.167 209.754 571.276C208.79 570.994 208.068 570.188 207.926 569.198L205.787 555.51C205.589 554.238 204.513 553.319 203.224 553.319H191.821C190.547 553.319 189.456 554.238 189.258 555.51L187.133 569.198C186.977 570.188 186.255 570.994 185.292 571.276C182.204 572.167 179.272 573.397 176.51 574.91C175.617 575.391 174.541 575.335 173.733 574.741L162.529 566.554C161.495 565.804 160.065 565.917 159.158 566.822L151.099 574.868C150.192 575.773 150.079 577.201 150.829 578.233L159.031 589.418C159.626 590.224 159.682 591.299 159.201 592.189C157.685 594.947 156.453 597.874 155.56 600.956C155.277 601.918 154.47 602.639 153.478 602.794L139.767 604.915C138.492 605.113 137.571 606.202 137.571 607.475V613.173H172.359C172.359 599.288 183.62 588.046 197.53 588.046C211.425 588.046 222.7 599.288 222.7 613.173H257.474V607.475C257.474 606.202 256.553 605.113 255.292 604.915Z" fill="url(#paint8_linear_451_3551)"/>
<path d="M197.53 580.524C179.484 580.524 164.824 595.159 164.824 613.173H166.141C166.141 595.894 180.221 581.839 197.53 581.839C214.824 581.839 228.904 595.894 228.904 613.173H230.221C230.221 595.159 215.561 580.524 197.53 580.524Z" fill="url(#paint9_linear_451_3551)"/>
<path d="M434.147 585.572L438.439 599.062L446.555 605.227L453.963 600.914L452.66 584.794" fill="url(#paint10_linear_451_3551)"/>
<path d="M360.251 590.804L359.415 603.799C359.415 603.799 368.608 606.839 372.744 605.948L376.455 593.901L360.251 590.804Z" fill="url(#paint11_linear_451_3551)"/>
<path d="M453.665 593.943C453.665 593.943 451.725 595.244 447.107 595.753C439.968 596.531 435.705 595.753 435.705 595.753C435.705 595.753 415.478 530.935 418.849 509.188C416.994 505.285 414.444 498.795 411.583 491.159V491.145C408.892 483.99 405.959 475.803 403.141 467.8C396.186 448.089 389.968 429.41 389.968 429.41L435.761 413.729C435.761 413.729 445.549 482.053 447.815 504.946C450.011 527.132 453.665 593.943 453.665 593.943Z" fill="url(#paint12_linear_451_3551)"/>
<path opacity="0.4" d="M411.583 491.145C408.892 483.99 405.959 475.803 403.141 467.8L407.574 460.419L411.583 491.145Z" fill="url(#paint13_linear_451_3551)"/>
<path d="M415.336 431.418L371.186 430.499C371.186 430.499 368.834 497.692 368.31 506.699C368.31 506.699 368.792 512.384 365.789 525.548C362.475 540.098 359.613 595.202 359.613 595.202C359.613 595.202 368.197 598.129 378.225 597.549C378.225 597.549 392.262 546.687 395.081 511.959C402.574 489.873 415.336 431.418 415.336 431.418Z" fill="url(#paint14_linear_451_3551)"/>
<path d="M503.312 390.172C503.156 390.638 502.576 390.963 502.377 391.487C502.122 392.109 502.179 392.915 501.839 393.537C501.612 393.961 504.757 394.979 504.488 395.333C504.063 395.912 499.927 395.884 499.303 395.955C496.286 396.322 493.737 395.644 491.315 394.385C489.799 393.593 485.097 391.642 482.915 391.359C474.799 390.299 444.388 388.008 438.835 385.689C426.824 380.655 418.439 358.371 418.439 358.371L443.722 356.349C443.722 356.349 446.258 371.691 447.235 373.133C448.212 374.589 477.009 380.853 486.116 381.786C487.632 381.942 490.635 381.97 492.207 381.56C493.765 381.122 497.108 380.457 499.091 381.15C501.074 381.843 508.383 385.958 508.61 386.453C508.624 386.439 508.624 389.988 503.312 390.172Z" fill="url(#paint15_linear_451_3551)"/>
<path d="M482.504 394.979C482.504 394.979 484.883 388.786 485.436 381.702L448.268 371.832C448.268 371.832 444.147 347.341 435.974 334.46C434.146 331.575 432.447 329.171 431.271 328.549C420.124 322.667 417.163 361.934 417.163 361.934C417.163 361.934 423.792 377.106 433.325 386.127C440.435 392.872 482.504 394.979 482.504 394.979Z" fill="url(#paint16_linear_451_3551)"/>
<path d="M437.475 430.046C437.475 430.046 435.563 430.683 387.206 429.933C387.914 427.204 372.56 364.649 372.687 359.983C372.801 356.32 368.24 335.549 369.84 332.339C372.05 327.885 381.682 324.534 391.384 321.974C398.693 320.051 406.965 318.34 406.965 318.34L419.444 322.922C419.444 322.922 429.147 328.408 430.903 330.218C432.433 336.934 433.665 391.84 434.033 403.986C434.147 407.422 437.475 430.046 437.475 430.046Z" fill="white"/>
<path d="M409.203 333.626C399.132 331.674 391.398 321.988 391.398 321.988L393.948 320.688C393.948 320.688 395.109 319.585 395.294 317.845C396.186 308.966 392.617 299.859 392.617 299.859C398.863 304.257 407.135 306.887 411.2 308.343C411.314 309.107 411.654 312.387 412.461 315.23C412.971 316.969 413.651 318.524 414.586 319.231C414.826 319.415 419.274 335.577 409.203 333.626Z" fill="url(#paint17_linear_451_3551)"/>
<path d="M412.461 315.23C405.365 313.745 398.877 305.996 398.877 305.996L411.2 308.329C411.314 309.093 411.654 312.387 412.461 315.23Z" fill="#E3A39A"/>
<path d="M418.155 312.288C416.101 312.43 413.594 312.147 410.62 311.341C410.62 311.341 407.787 310.224 404.033 308.456V308.442C400.733 306.901 396.172 304.851 393.296 301.966C393.282 301.952 390.973 296.579 390.973 296.579C388.721 288.491 392.036 278.946 394.373 275.864C401.838 265.994 421.385 268.794 424.742 283.938C424.996 285.097 425.025 286.299 424.855 287.487C424.628 289.141 424.317 292.082 424.402 295.462C424.543 300.538 421.427 312.062 418.155 312.288Z" fill="url(#paint18_linear_451_3551)"/>
<path d="M415.662 283.471C414.302 283.146 413.637 283.019 412.093 282.481C412.787 282.722 413.098 284.828 410.053 284.687C407.192 284.56 406.866 289.905 402.192 291.715C401.838 294.175 401.951 297.088 402.673 300.17L400.081 299.902C399.755 298.459 399.217 295.32 398.112 293.793C398.112 293.779 398.098 293.779 398.098 293.765C397.957 293.553 396.625 291.616 394.09 292.238C393.07 292.492 391.795 293.567 391.866 296.268C391.937 298.502 392.73 300.425 393.736 301.627C394.175 305.162 395.01 308.697 395.053 309.828C394.217 309.743 384.401 289.382 385.619 280.261C386.554 273.22 390.973 270.632 394.798 270.632C396.724 262.685 406.285 262.303 411.101 263.449C415.605 264.523 418.368 266.729 423.495 269.26C429.387 272.159 431.895 270.519 432.39 273.276C433.368 278.791 427.617 286.341 415.662 283.471Z" fill="url(#paint19_linear_451_3551)"/>
<path d="M474.289 613.174H435.251C434.09 611.151 434.175 602.611 438.452 599.062C438.452 599.062 448.382 603.615 453.977 600.914C453.977 600.914 465.011 603.855 471.031 607.518C473.963 609.299 474.543 611.434 474.289 613.174Z" fill="url(#paint20_linear_451_3551)"/>
<path d="M359.571 601.352C359.571 601.352 354.161 604.265 350.634 606.386C347.107 608.493 347.05 613.173 347.05 613.173H376.455C376.455 613.173 376.455 604.845 373.934 602.088C366.186 603.841 359.571 601.352 359.571 601.352Z" fill="url(#paint21_linear_451_3551)"/>
<path d="M398.353 293.383V293.397C398.353 293.383 398.339 293.383 398.339 293.369C398.353 293.383 398.353 293.383 398.353 293.383Z" fill="url(#paint22_linear_451_3551)"/>
<path d="M410.067 339.069C410.067 339.069 401.554 394.371 402.319 404.948C403.084 415.524 413.424 431.404 415.336 431.418C417.773 431.432 423.353 413.842 423.566 405.909C423.792 397.977 415.266 338.461 415.266 338.461L410.067 339.069Z" fill="url(#paint23_linear_451_3551)"/>
<path d="M395.322 317.308C395.322 317.308 403.013 325.552 412.447 328.252L407.659 337.09C407.659 337.09 395.987 333.216 391.384 321.988L395.322 317.308Z" fill="url(#paint24_linear_451_3551)"/>
<path d="M413.481 317.845C413.481 317.845 416.045 322.3 412.461 328.253L416.045 335.591C416.045 335.591 420.294 327.206 415.676 320.207C415.407 319.811 415.096 319.443 414.756 319.104L413.481 317.845Z" fill="url(#paint25_linear_451_3551)"/>
<path d="M412.461 328.252L407.673 337.09L410.067 339.07C410.067 339.07 414.118 339.126 415.294 338.462L416.058 335.577L412.461 328.252Z" fill="url(#paint26_linear_451_3551)"/>
<path d="M417.588 322.116C417.588 322.116 419.317 323.02 419.515 331.137C419.883 347.2 413.608 390.284 413.608 390.284C413.608 390.284 401.937 345.475 395.605 330.543C393.098 324.618 391.398 321.974 391.398 321.974C391.398 321.974 378.452 322.073 369.061 328.931C368.098 329.638 367.56 331.434 367.106 332.692L371.908 362.344C371.908 362.344 378.735 396.266 375.166 418.423C374.033 425.451 367.744 446.067 367.744 446.067C367.744 446.067 379.005 450.083 385.648 450.28C408.042 450.945 412.319 444.243 413.92 440.496C415.096 437.724 415.875 431.432 415.875 431.432C415.875 431.432 418.707 438.502 420.237 440.496C426.342 448.414 442.008 446.01 442.008 446.01C442.008 446.01 437.674 424.051 436.413 410.844C435.138 397.51 436.767 357.282 436.767 357.282C436.767 357.282 435.421 338.73 431.314 328.577C428.637 326.386 421.243 322.526 417.588 322.116Z" fill="url(#paint27_linear_451_3551)"/>
<path d="M333.89 373.105C328.309 388.602 362.871 422.029 362.871 422.029C362.871 422.029 369.372 418.056 375.151 412.046L355.024 378.237L371.893 362.344L367.092 332.692C356.709 341.191 338.904 359.191 333.89 373.105Z" fill="url(#paint28_linear_451_3551)"/>
<path d="M353.848 452.43L329.245 414.337C328.395 413.022 328.777 411.268 330.095 410.42L384.614 375.324C385.931 374.476 387.687 374.858 388.537 376.173L413.141 414.266C413.991 415.581 413.608 417.334 412.291 418.183L357.772 453.278C356.455 454.127 354.698 453.745 353.848 452.43Z" fill="url(#paint29_linear_451_3551)"/>
<path d="M387.56 424.97C390.69 426.865 392.957 425.889 392.291 424.546C391.625 423.203 388.367 420.502 387.135 419.837C385.888 419.173 382.786 418.07 381.257 417.49C380.718 417.292 379.883 416.924 379.033 416.557C377.022 415.666 375.364 414.167 374.245 412.272C369.684 404.467 357.234 383.059 355.038 378.251C359.528 373.614 363.523 369.824 368.381 364.96C369.189 364.154 353.395 347.087 353.395 347.087C353.395 347.087 332.701 369.287 333.678 376.06C336.058 392.547 367.956 421.605 367.956 421.605C368.551 422.962 372.914 431.602 372.914 431.602C372.914 431.602 375.024 434.274 375.945 435.236C376.696 436.013 379.982 438.177 380.846 438.219C381.257 438.233 381.526 438.064 381.568 437.753C383.041 438.742 384.444 439.577 385.095 439.605C385.973 439.647 386.469 439.152 386.299 438.332C387.305 438.94 388.183 439.407 388.651 439.421C390.081 439.492 390.52 438.134 388.651 436.268C386.781 434.401 383.891 431.701 383.891 431.701L383.877 431.687C384.16 431.941 384.401 432.153 384.571 432.252C385.619 432.973 389.146 434.896 390.379 435.08C391.809 435.292 391.668 434.161 391.101 433.016C390.52 431.87 388.764 431.347 387.234 429.919C385.704 428.491 383.226 424.772 383.226 424.772C383.226 424.772 385.166 424.489 387.56 424.97Z" fill="url(#paint30_linear_451_3551)"/>
<path d="M333.89 373.105C328.309 388.602 362.871 422.029 362.871 422.029C362.871 422.029 369.372 418.056 375.151 412.046L355.024 378.237L374.245 362.146L368.621 329.341C358.239 337.839 338.904 359.191 333.89 373.105Z" fill="url(#paint31_linear_451_3551)"/>
<path d="M424.33 343.849C424.33 343.849 428.24 348.345 428.027 349.533C427.631 351.81 413.608 397.326 413.608 397.326C413.608 397.326 410.322 389.563 405.463 381.914C400.577 374.278 387.843 353.407 388.296 351.88C388.763 350.339 394.344 344.57 394.344 344.57C394.344 344.57 386.837 341.954 387.035 339.974C387.205 337.995 389.302 322.328 389.302 322.328C390.619 322.073 391.398 321.988 391.398 321.988C391.398 321.988 393.084 324.647 395.605 330.557C401.936 345.489 413.608 390.299 413.608 390.299C413.608 390.299 419.883 347.214 419.514 331.151C419.33 323.035 416.611 321.904 416.611 321.904C417.262 321.974 418.834 322.229 419.925 322.695C422.319 326.23 428.565 337.726 428.381 339.084C428.211 340.427 424.33 343.849 424.33 343.849Z" fill="url(#paint32_linear_451_3551)"/>
<path d="M521.088 355.076C521.088 355.076 508.751 363.008 500.805 362.57C497.66 362.4 489.53 359.275 480.904 355.585C472.277 351.894 463.127 347.61 457.886 345.107C457.886 345.107 451.484 344.372 448.481 344.428C445.648 344.485 441.64 343.043 440.039 342.477C438.821 339.564 437.461 336.821 435.974 334.474C435.337 333.47 434.699 332.508 434.118 331.674C434.317 331.377 434.784 331.391 435.521 331.505C437.249 331.773 441.413 333.003 441.413 333.003C441.413 333.003 441.413 333.003 443.524 333.244C445.634 333.47 447.433 333.541 447.433 333.541C447.433 333.541 444.175 332.098 443.155 331.08C442.135 330.062 442.135 328.677 443.155 328.973C444.175 329.27 446.47 329.087 449.359 330.359C452.249 331.618 452.376 332.947 453.878 334.191C455.379 335.464 456.753 336.34 456.753 336.34C460.677 337.203 469.997 339.253 476.938 340.639C485.974 342.449 500.422 346.535 500.422 346.535L510.706 339.677L521.088 355.076Z" fill="url(#paint33_linear_451_3551)"/>
<path d="M539.403 613.145C539.374 613.159 539.332 613.159 539.304 613.173H504.346C504.048 613.018 504.091 612.891 504.091 612.891C504.091 612.891 503.453 612.17 504.53 610.43C505.592 608.719 511.952 607.107 515.89 606.301C520.295 603.7 525.238 600.25 525.238 600.25C529.601 601.946 537.448 600.518 537.448 600.518C540.635 603.601 541.06 612.608 539.403 613.145Z" fill="white"/>
<path d="M619.007 602.286C617.86 603.488 615.537 604.93 613.186 606.047C611.883 606.641 607.364 609.257 602.902 611.83C601.132 612.82 599.12 613.343 597.109 613.343H589.8C588.44 613.343 587.945 612.41 587.987 611.83C588.086 610.303 589.375 609.016 591.514 608.62C592.038 608.522 594.205 606.33 598.837 603.29C600.197 601.126 602.038 596.29 602.038 596.29C608.653 595.442 612.477 592.444 612.477 592.444C616.628 593.59 618.427 599.359 619.007 602.286Z" fill="white"/>
<path d="M524.856 594.749C524.983 596.672 525.111 598.51 525.224 600.235C528.624 601.819 533.624 601.678 537.434 600.518C537.661 599.825 538.1 598.171 538.709 595.767C531.938 596.078 527.434 595.385 524.856 594.749Z" fill="url(#paint34_linear_451_3551)"/>
<path d="M543.354 320.984L534.53 351.216C533.17 352.262 531.654 353.379 530.096 354.482C526.881 356.773 523.524 358.993 521.102 360.576V360.591C519.034 361.934 517.66 362.796 517.66 362.796C509.742 355.062 504.36 343.043 504.36 343.043C504.36 343.043 518.297 332.353 527.348 327.248C536.4 322.13 543.354 320.984 543.354 320.984Z" fill="url(#paint35_linear_451_3551)"/>
<path opacity="0.5" d="M530.55 347.073L530.083 354.468C526.867 356.758 523.51 358.978 521.088 360.562L528.185 345.743L530.55 347.073Z" fill="url(#paint36_linear_451_3551)"/>
<path d="M551.995 413.46C546.301 405.188 531.57 409.289 526.697 411.099C524.502 411.961 520.578 476.086 519.771 507.293C519.742 508.693 521.796 563.486 523.879 595.145C526.456 595.781 534.983 596.403 541.74 596.092C544.714 572.054 550.054 520.486 545.437 509.951C546.867 505.328 550.338 490.608 553.185 478.066C554.304 473.088 555.338 468.465 556.088 464.93C556.783 461.72 557.278 459.415 557.406 458.623C557.732 456.856 557.958 454.523 558.142 451.864C558.865 440.213 557.93 422.128 551.995 413.46Z" fill="url(#paint37_linear_451_3551)"/>
<path d="M612.478 592.444C612.35 591.285 612.251 589.8 612.152 588.032C606.302 591.511 600.211 591.921 600.211 591.921C601.359 594.565 602.024 596.149 602.038 596.276C602.038 596.29 608.781 596.587 612.478 592.444Z" fill="url(#paint38_linear_451_3551)"/>
<path d="M612.874 587.749C610.65 571.022 602.081 522.295 590.806 511.577C590.225 501.722 592.095 457.944 592.236 454.013C592.732 439.138 586.556 420.091 578.808 413.361L544.729 414.068L554.516 458.298C557.958 472.07 561.499 502.429 566.797 516.031C567.25 517.191 590.806 578.53 597.109 593.094C597.109 593.094 602.35 592.444 607.038 591.115C612.067 589.687 612.874 587.749 612.874 587.749Z" fill="url(#paint39_linear_451_3551)"/>
<path d="M533.51 326.089C535.11 323.841 541.088 321.451 546.031 320.249C550.139 319.57 556.116 318.948 563.454 320.857C571.981 323.063 578.723 326.216 580.678 328.606C584.304 333.06 586.952 335.831 581.131 374.052C579.884 382.253 580.068 401.554 580.068 406.432C580.068 411.297 581.796 413.658 580.564 415.072C577.83 418.239 555.578 420.12 546.782 420.12C538.963 420.12 525.634 418.041 524.955 415.539C524.416 413.545 527.008 393.296 527.108 370.856C527.292 332.579 532.079 327.715 533.51 326.089Z" fill="url(#paint40_linear_451_3551)"/>
<path d="M548.071 327.291C548.071 327.291 537.802 387.782 537.604 394.979C537.406 402.19 544.955 415.892 546.018 415.892C548.355 415.906 552.731 405.259 554.105 396.068C555.465 386.863 552.689 327.658 552.689 327.658L548.071 327.291Z" fill="url(#paint41_linear_451_3551)"/>
<path d="M563.455 320.857C563.455 320.857 555.084 327.149 546.032 320.249C546.032 320.249 547.18 318.057 547.378 317.676C547.888 316.799 548.865 314.904 549.489 312.246C549.545 312.062 549.574 311.864 549.63 311.652C549.8 310.86 549.928 309.984 550.013 309.05C550.168 307.438 550.154 305.657 549.871 303.72L550.749 303.013L565.197 291.672L566.84 290.385C566.84 290.385 566.358 293.143 565.707 297.173C565.339 299.463 564.914 302.15 564.489 304.978C563.625 310.747 563.455 320.857 563.455 320.857Z" fill="url(#paint42_linear_451_3551)"/>
<path opacity="0.5" d="M560.21 305.317C560.21 305.317 560.21 305.317 560.196 305.331C558.128 308.329 553.468 314.31 547.363 317.661C547.873 316.785 548.85 314.89 549.474 312.232C548.511 312.514 547.646 312.67 546.811 312.741C546.853 312.076 546.882 311.397 546.867 310.676L547.831 310.097L549.998 309.036L561.4 303.493C561.4 303.493 561.004 304.2 560.21 305.317Z" fill="url(#paint43_linear_451_3551)"/>
<path d="M537.42 281.774C537.42 281.774 535.48 287.557 539.97 291.46L541.542 282.085L537.42 281.774Z" fill="url(#paint44_linear_451_3551)"/>
<path d="M562.562 302.404C561.84 303.422 561.047 304.398 560.197 305.317C560.197 305.317 560.197 305.317 560.183 305.331C558.795 306.844 557.208 308.216 555.494 309.375C553.285 310.874 551.273 311.751 549.46 312.232C548.497 312.514 547.633 312.67 546.797 312.741C542.959 313.066 540.721 311.595 540.721 311.595C537.123 306.265 537.251 297.611 538.072 291.05C538.398 288.392 538.837 286.087 539.177 284.461C539.489 282.99 539.744 282.128 539.744 282.128C539.758 282.057 539.758 282.014 539.772 281.958C541.33 273.488 552.676 273.191 560.48 277.956C560.948 278.239 561.373 278.536 561.798 278.861C563.965 280.417 565.764 282.41 566.826 284.758C568.653 288.759 567.534 293.312 565.664 297.187C565.565 297.399 565.466 297.597 565.353 297.809C564.517 299.534 563.497 301.103 562.562 302.404Z" fill="url(#paint45_linear_451_3551)"/>
<path d="M563.242 274.252C562.987 271.042 561.075 268.907 559.12 267.903C551.287 263.859 545.466 272.852 536.712 269.557C532.009 267.776 532.434 281.067 538.27 284.065C544.502 287.261 549.857 286.553 553.879 284.828C553.78 286.271 553.879 287.869 554.588 289.014C555.197 289.99 556.953 291.121 557.944 291.7C557.775 293.171 557.661 294.514 557.647 295.547L559.191 296.381C559.503 295.858 559.843 295.151 560.253 294.232C560.253 294.232 561.684 290.654 564.304 290.979C566.896 291.305 564.814 300.934 564.46 304.992C564.46 304.992 570.423 300.75 572.619 288.066C574.588 276.769 568.03 271.424 563.242 274.252Z" fill="url(#paint46_linear_451_3551)"/>
<path d="M573.724 369.315C573.724 369.315 561.16 388.941 556.585 390.666C547.477 394.131 521.981 394.173 512.632 394.06C510.933 394.484 507.08 396.336 504.913 396.308C504.091 396.294 502.93 396.068 501.811 395.785C500.678 395.502 499.601 395.163 498.907 394.937C497.151 394.668 495.012 393.226 494.672 392.929C494.332 392.646 494.162 391.939 494.162 391.939C494.162 391.939 493.44 391.571 493.085 391.331C492.717 391.091 492.76 390.497 492.76 390.497C491.216 390.002 491.173 389.182 491.414 388.772C491.641 388.347 492.972 388.263 492.972 388.263C492.972 388.263 493.057 387.683 493.85 387.457C494.374 387.287 499.233 387.089 499.275 387.075C500.154 387.541 502.845 388.871 504.431 388.757C506.358 388.644 507.08 387.768 506.372 387.117C505.777 386.552 504.346 385.845 503.95 385.647C503.879 385.618 503.836 385.59 503.836 385.59C503.836 385.59 500.38 383.922 499.077 382.762C497.76 381.617 498.425 380.91 498.836 380.712C499.247 380.528 503.383 381.235 504.275 381.56C505.933 382.182 512.519 385.548 512.519 385.548L548.213 375.932L555.069 362.811L573.724 369.315Z" fill="url(#paint47_linear_451_3551)"/>
<path d="M571.556 377.488C571.556 377.488 568.1 377.898 558.383 371.917C554.87 369.753 551.159 365.978 551.159 365.978C554.53 359.106 557.151 353.803 565.819 336.44C569.644 328.761 578.327 328.592 578.327 328.592C578.327 328.592 585.196 331.194 585.196 344.839C585.196 355.712 577.661 367.194 571.556 377.488Z" fill="url(#paint48_linear_451_3551)"/>
<path opacity="0.5" d="M556.088 464.93C555.338 468.465 554.318 473.074 553.185 478.066L551.527 444.808L556.088 464.93Z" fill="url(#paint49_linear_451_3551)"/>
<path d="M563.539 317.661C563.539 317.661 559.205 320.829 550.805 320.588L553.397 326.273C553.397 326.273 560.933 325.905 564.658 321.182L563.539 317.661Z" fill="url(#paint50_linear_451_3551)"/>
<path d="M547.024 318.34C547.024 318.34 548.072 320.108 550.806 320.588L547.859 325.283C547.859 325.283 546.018 324.053 545.338 320.419L547.024 318.34Z" fill="url(#paint51_linear_451_3551)"/>
<path d="M550.805 320.588L547.859 325.283L548.071 327.291L552.703 327.658L553.397 326.273L550.805 320.588Z" fill="url(#paint52_linear_451_3551)"/>
<path d="M686.897 532.109H664.942V613.173H686.897V532.109Z" fill="url(#paint53_linear_451_3551)"/>
<path d="M725 513.5H703.045V613.173H725V513.5Z" fill="url(#paint54_linear_451_3551)"/>
<path d="M763.116 494.906H741.161V613.173H763.116V494.906Z" fill="url(#paint55_linear_451_3551)"/>
<path d="M801.219 476.298H779.264V613.173H801.219V476.298Z" fill="url(#paint56_linear_451_3551)"/>
<path d="M799.575 426.851L767.408 437.724L776.6 442.532C765.241 454.424 728.583 488.939 671.33 505.879C671.33 505.879 737.691 500.011 784.49 451.695L787.479 462.003L799.575 426.851Z" fill="white"/>
<path d="M766.147 361.609H704.73C702.648 361.609 700.948 359.926 700.948 357.833V321.692C700.948 319.613 702.648 317.916 704.73 317.916H766.147C768.229 317.916 769.929 319.599 769.929 321.692V357.848C769.929 359.926 768.244 361.609 766.147 361.609Z" fill="url(#paint57_linear_451_3551)"/>
<path d="M740.127 316.375L735.467 323.417C734.674 324.604 733.342 325.326 731.898 325.326H700.453C698.087 325.326 696.175 327.234 696.175 329.596V372.186C696.175 374.547 698.087 376.456 700.453 376.456H770.453C772.819 376.456 774.731 374.547 774.731 372.186V318.736C774.731 316.375 772.819 314.466 770.453 314.466H743.697C742.252 314.466 740.92 315.187 740.127 316.375Z" fill="url(#paint58_linear_451_3551)"/>
<path d="M733.569 383.936H698.045C697.011 383.936 696.175 383.102 696.175 382.069C696.175 381.037 697.011 380.203 698.045 380.203H733.569C734.603 380.203 735.439 381.037 735.439 382.069C735.439 383.102 734.603 383.936 733.569 383.936Z" fill="url(#paint59_linear_451_3551)"/>
<path d="M741.529 391.077H698.045C697.011 391.077 696.175 390.242 696.175 389.21C696.175 388.178 697.011 387.344 698.045 387.344H741.529C742.563 387.344 743.399 388.178 743.399 389.21C743.413 390.242 742.563 391.077 741.529 391.077Z" fill="url(#paint60_linear_451_3551)"/>
<path d="M754.037 391.077H748.201C747.167 391.077 746.331 390.242 746.331 389.21C746.331 388.178 747.167 387.344 748.201 387.344H754.037C755.071 387.344 755.906 388.178 755.906 389.21C755.906 390.242 755.071 391.077 754.037 391.077Z" fill="url(#paint61_linear_451_3551)"/>
<path d="M712.096 398.231H698.045C697.011 398.231 696.175 397.397 696.175 396.365C696.175 395.333 697.011 394.499 698.045 394.499H712.096C713.13 394.499 713.965 395.333 713.965 396.365C713.965 397.397 713.13 398.231 712.096 398.231Z" fill="url(#paint62_linear_451_3551)"/>
<path d="M772.833 383.936H740.099C739.065 383.936 738.23 383.102 738.23 382.069C738.23 381.037 739.065 380.203 740.099 380.203H772.833C773.867 380.203 774.703 381.037 774.703 382.069C774.717 383.102 773.881 383.936 772.833 383.936Z" fill="url(#paint63_linear_451_3551)"/>
<path d="M282.87 314.452C282.87 317.859 282.332 321.14 281.326 324.222C277.219 336.906 265.278 346.097 251.199 346.097C247.856 346.097 244.626 345.574 241.609 344.612C235.731 342.746 230.604 339.239 226.751 334.601V334.587C222.232 329.129 219.513 322.101 219.513 314.452C219.513 296.989 233.706 282.821 251.213 282.821C268.678 282.821 282.87 296.989 282.87 314.452Z" fill="url(#paint64_linear_451_3551)"/>
<path d="M286.001 313.49C286.001 317.237 285.42 320.843 284.301 324.223L251.185 313.49V278.748C270.406 278.748 286.001 294.302 286.001 313.49Z" fill="url(#paint65_linear_451_3551)"/>
<path d="M251.185 313.49L239.867 350.184C232.927 347.992 226.892 343.849 222.346 338.377V338.362L251.185 313.49Z" fill="url(#paint66_linear_451_3551)"/>
<path d="M235.66 491.089C254.529 491.089 269.825 475.819 269.825 456.983C269.825 438.147 254.529 422.877 235.66 422.877C216.792 422.877 201.496 438.147 201.496 456.983C201.496 475.819 216.792 491.089 235.66 491.089Z" fill="url(#paint67_linear_451_3551)"/>
<path d="M235.66 491.089C254.529 491.089 269.825 475.819 269.825 456.983C269.825 438.147 254.529 422.877 235.66 422.877C216.792 422.877 201.496 438.147 201.496 456.983C201.496 475.819 216.792 491.089 235.66 491.089Z" fill="#F0C97C"/>
<path d="M235.66 489.887C253.864 489.887 268.621 475.155 268.621 456.983C268.621 438.811 253.864 424.079 235.66 424.079C217.457 424.079 202.7 438.811 202.7 456.983C202.7 475.155 217.457 489.887 235.66 489.887Z" fill="url(#paint68_linear_451_3551)"/>
<path d="M235.66 484.796C251.048 484.796 263.522 472.344 263.522 456.983C263.522 441.622 251.048 429.169 235.66 429.169C220.273 429.169 207.799 441.622 207.799 456.983C207.799 472.344 220.273 484.796 235.66 484.796Z" fill="#F0C97C"/>
<path d="M235.66 483.637C250.406 483.637 262.36 471.704 262.36 456.983C262.36 442.262 250.406 430.329 235.66 430.329C220.914 430.329 208.96 442.262 208.96 456.983C208.96 471.704 220.914 483.637 235.66 483.637Z" fill="url(#paint69_linear_451_3551)"/>
<path d="M236.85 454.933C232.941 453.321 231.822 452.331 231.822 450.535C231.822 449.093 232.87 447.396 235.83 447.396C238.578 447.396 240.292 448.372 241.029 448.796L241.652 449.149L243.182 445.119L242.728 444.851C241.156 443.932 239.4 443.409 237.36 443.267V439.011H233.422V443.508C229.4 444.356 226.836 447.255 226.836 451.03C226.836 455.541 230.49 457.591 234.414 459.132C237.643 460.447 238.961 461.776 238.961 463.756C238.961 465.905 237.077 467.418 234.385 467.418C232.303 467.418 230.136 466.768 228.451 465.651L227.799 465.212L226.326 469.299L226.708 469.568C228.252 470.67 230.717 471.434 233.125 471.575V476.001H237.105V471.363C241.255 470.472 244.003 467.348 244.003 463.459C243.989 459.528 241.85 456.969 236.85 454.933Z" fill="#F0C97C"/>
<path d="M708.782 296.918C717.692 296.918 724.915 289.708 724.915 280.813C724.915 271.918 717.692 264.707 708.782 264.707C699.872 264.707 692.648 271.918 692.648 280.813C692.648 289.708 699.872 296.918 708.782 296.918Z" fill="url(#paint70_linear_451_3551)"/>
<path d="M715.036 295.652C723.259 292.224 727.14 282.791 723.706 274.583C720.272 266.375 710.823 262.5 702.601 265.928C694.378 269.356 690.497 278.789 693.931 286.997C697.365 295.205 706.814 299.08 715.036 295.652Z" fill="#F0C97C"/>
<path d="M708.781 296.353C717.379 296.353 724.348 289.395 724.348 280.813C724.348 272.23 717.379 265.273 708.781 265.273C700.184 265.273 693.215 272.23 693.215 280.813C693.215 289.395 700.184 296.353 708.781 296.353Z" fill="url(#paint71_linear_451_3551)"/>
<path d="M714.91 292.461C721.333 289.069 723.786 281.12 720.388 274.708C716.99 268.295 709.027 265.847 702.604 269.239C696.18 272.632 693.727 280.58 697.126 286.993C700.524 293.405 708.486 295.853 714.91 292.461Z" fill="#F0C97C"/>
<path d="M708.781 293.397C715.744 293.397 721.388 287.763 721.388 280.813C721.388 273.863 715.744 268.228 708.781 268.228C701.819 268.228 696.175 273.863 696.175 280.813C696.175 287.763 701.819 293.397 708.781 293.397Z" fill="url(#paint72_linear_451_3551)"/>
<path d="M709.348 279.851C707.506 279.088 706.968 278.621 706.968 277.773C706.968 277.094 707.464 276.288 708.866 276.288C710.155 276.288 710.977 276.755 711.317 276.953L711.614 277.122L712.337 275.213L712.124 275.086C711.387 274.648 710.552 274.407 709.589 274.337V272.329H707.733V274.45C705.835 274.846 704.617 276.217 704.617 277.999C704.617 280.134 706.345 281.096 708.2 281.831C709.73 282.453 710.353 283.075 710.353 284.008C710.353 285.027 709.461 285.734 708.186 285.734C707.195 285.734 706.175 285.422 705.382 284.899L705.07 284.687L704.376 286.624L704.56 286.752C705.283 287.275 706.458 287.628 707.591 287.699V289.792H709.475V287.6C711.43 287.176 712.733 285.705 712.733 283.867C712.719 282.015 711.713 280.813 709.348 279.851Z" fill="#F0C97C"/>
<path d="M318.437 187.234C330.993 187.234 341.171 177.073 341.171 164.539C341.171 152.005 330.993 141.845 318.437 141.845C305.882 141.845 295.703 152.005 295.703 164.539C295.703 177.073 305.882 187.234 318.437 187.234Z" fill="url(#paint73_linear_451_3551)"/>
<path d="M327 185.56C338.628 180.832 344.215 167.589 339.479 155.982C334.743 144.374 321.478 138.797 309.85 143.525C298.222 148.252 292.635 161.495 297.371 173.103C302.107 184.71 315.373 190.287 327 185.56Z" fill="#F0C97C"/>
<path d="M318.437 186.442C330.555 186.442 340.378 176.636 340.378 164.54C340.378 152.443 330.555 142.637 318.437 142.637C306.32 142.637 296.497 152.443 296.497 164.54C296.497 176.636 306.32 186.442 318.437 186.442Z" fill="url(#paint74_linear_451_3551)"/>
<path d="M325.598 181.6C335.045 177.656 339.501 166.814 335.551 157.383C331.6 147.951 320.739 143.503 311.291 147.447C301.844 151.391 297.388 162.233 301.338 171.664C305.289 181.095 316.15 185.544 325.598 181.6Z" fill="#F0C97C"/>
<path d="M318.438 182.285C328.255 182.285 336.214 174.34 336.214 164.539C336.214 154.739 328.255 146.794 318.438 146.794C308.62 146.794 300.661 154.739 300.661 164.539C300.661 174.34 308.62 182.285 318.438 182.285Z" fill="url(#paint75_linear_451_3551)"/>
<path d="M319.231 163.182C316.638 162.107 315.888 161.457 315.888 160.255C315.888 159.293 316.582 158.176 318.551 158.176C320.378 158.176 321.511 158.827 322.007 159.11L322.418 159.35L323.437 156.663L323.14 156.494C322.092 155.886 320.93 155.532 319.57 155.447V152.619H316.95V155.617C314.273 156.183 312.559 158.12 312.559 160.623C312.559 163.62 314.981 164.992 317.602 166.01C319.755 166.887 320.633 167.777 320.633 169.078C320.633 170.506 319.386 171.51 317.587 171.51C316.199 171.51 314.755 171.086 313.636 170.337L313.196 170.054L312.219 172.783L312.474 172.967C313.494 173.702 315.137 174.211 316.752 174.296V177.237H319.4V174.155C322.163 173.561 323.99 171.482 323.99 168.895C323.976 166.236 322.559 164.539 319.231 163.182Z" fill="#F0C97C"/>
<path d="M671.316 481.389C686.297 481.389 698.441 469.265 698.441 454.311C698.441 439.356 686.297 427.232 671.316 427.232C656.336 427.232 644.192 439.356 644.192 454.311C644.192 469.265 656.336 481.389 671.316 481.389Z" fill="url(#paint76_linear_451_3551)"/>
<path d="M681.711 479.298C695.537 473.542 702.071 457.687 696.304 443.885C690.538 430.083 674.656 423.561 660.83 429.317C647.005 435.073 640.471 450.928 646.237 464.73C652.003 478.531 667.886 485.054 681.711 479.298Z" fill="#F0C97C"/>
<path d="M697.492 454.31C697.492 468.747 685.778 480.441 671.316 480.441C656.855 480.441 645.141 468.747 645.141 454.31C645.141 439.873 656.855 428.18 671.316 428.18C685.778 428.18 697.492 439.873 697.492 454.31Z" fill="url(#paint77_linear_451_3551)"/>
<path d="M679.551 474.791C690.882 470.247 696.377 457.393 691.825 446.082C687.272 434.77 674.396 429.285 663.065 433.829C651.734 438.374 646.239 451.228 650.792 462.539C655.344 473.85 668.22 479.336 679.551 474.791Z" fill="#F0C97C"/>
<path d="M671.316 475.478C683.027 475.478 692.521 466.001 692.521 454.311C692.521 442.62 683.027 433.143 671.316 433.143C659.606 433.143 650.112 442.62 650.112 454.311C650.112 466.001 659.606 475.478 671.316 475.478Z" fill="url(#paint78_linear_451_3551)"/>
<path d="M672.251 452.684C669.149 451.398 668.257 450.62 668.257 449.192C668.257 448.046 669.092 446.703 671.444 446.703C673.625 446.703 674.985 447.481 675.566 447.82L676.061 448.103L677.279 444.907L676.925 444.695C675.679 443.974 674.277 443.55 672.662 443.437V440.057H669.546V443.635C666.359 444.314 664.319 446.618 664.319 449.602C664.319 453.179 667.209 454.82 670.339 456.036C672.903 457.068 673.951 458.142 673.951 459.698C673.951 461.409 672.449 462.597 670.311 462.597C668.653 462.597 666.939 462.087 665.594 461.197L665.07 460.857L663.908 464.109L664.206 464.322C665.424 465.198 667.379 465.792 669.305 465.919V469.426H672.464V465.75C675.75 465.043 677.931 462.568 677.931 459.472C677.917 456.332 676.231 454.296 672.251 452.684Z" fill="#F0C97C"/>
<path d="M340.222 600.122H233.408V613.202H340.222V600.122Z" fill="url(#paint79_linear_451_3551)"/>
<path d="M324.967 600.122H322.432V613.202H324.967V600.122Z" fill="url(#paint80_linear_451_3551)"/>
<path d="M333.168 600.122H330.633V613.202H333.168V600.122Z" fill="url(#paint81_linear_451_3551)"/>
<path d="M242.997 600.122H240.462V613.202H242.997V600.122Z" fill="url(#paint82_linear_451_3551)"/>
<path d="M251.185 600.122H248.649V613.202H251.185V600.122Z" fill="url(#paint83_linear_451_3551)"/>
<path d="M259.386 600.122H256.85V613.202H259.386V600.122Z" fill="url(#paint84_linear_451_3551)"/>
<path d="M267.587 600.122H265.052V613.202H267.587V600.122Z" fill="url(#paint85_linear_451_3551)"/>
<path d="M275.788 600.122H273.253V613.202H275.788V600.122Z" fill="url(#paint86_linear_451_3551)"/>
<path d="M283.975 600.122H281.44V613.202H283.975V600.122Z" fill="url(#paint87_linear_451_3551)"/>
<path d="M292.176 600.122H289.641V613.202H292.176V600.122Z" fill="url(#paint88_linear_451_3551)"/>
<path d="M300.378 600.122H297.842V613.202H300.378V600.122Z" fill="url(#paint89_linear_451_3551)"/>
<path d="M308.579 600.122H306.043V613.202H308.579V600.122Z" fill="url(#paint90_linear_451_3551)"/>
<path d="M316.766 600.122H314.23V613.202H316.766V600.122Z" fill="url(#paint91_linear_451_3551)"/>
<path d="M351.242 584.271H244.428V597.351H351.242V584.271Z" fill="url(#paint92_linear_451_3551)"/>
<path d="M336.001 584.271H333.466V597.351H336.001V584.271Z" fill="url(#paint93_linear_451_3551)"/>
<path d="M344.188 584.271H341.652V597.351H344.188V584.271Z" fill="url(#paint94_linear_451_3551)"/>
<path d="M254.017 584.271H251.482V597.351H254.017V584.271Z" fill="url(#paint95_linear_451_3551)"/>
<path d="M262.219 584.271H259.683V597.351H262.219V584.271Z" fill="url(#paint96_linear_451_3551)"/>
<path d="M270.406 584.271H267.87V597.351H270.406V584.271Z" fill="url(#paint97_linear_451_3551)"/>
<path d="M278.607 584.271H276.071V597.351H278.607V584.271Z" fill="url(#paint98_linear_451_3551)"/>
<path d="M286.808 584.271H284.273V597.351H286.808V584.271Z" fill="url(#paint99_linear_451_3551)"/>
<path d="M295.009 584.271H292.474V597.351H295.009V584.271Z" fill="url(#paint100_linear_451_3551)"/>
<path d="M303.21 584.271H300.675V597.351H303.21V584.271Z" fill="url(#paint101_linear_451_3551)"/>
<path d="M311.398 584.271H308.862V597.351H311.398V584.271Z" fill="url(#paint102_linear_451_3551)"/>
<path d="M319.599 584.271H317.063V597.351H319.599V584.271Z" fill="url(#paint103_linear_451_3551)"/>
<path d="M327.8 584.271H325.265V597.351H327.8V584.271Z" fill="url(#paint104_linear_451_3551)"/>
<path d="M334.16 568.434H227.346V581.514H334.16V568.434Z" fill="url(#paint105_linear_451_3551)"/>
<path d="M318.905 568.434H316.369V581.514H318.905V568.434Z" fill="url(#paint106_linear_451_3551)"/>
<path d="M327.106 568.434H324.571V581.514H327.106V568.434Z" fill="url(#paint107_linear_451_3551)"/>
<path d="M236.935 568.434H234.4V581.514H236.935V568.434Z" fill="url(#paint108_linear_451_3551)"/>
<path d="M245.122 568.434H242.587V581.514H245.122V568.434Z" fill="url(#paint109_linear_451_3551)"/>
<path d="M253.323 568.434H250.788V581.514H253.323V568.434Z" fill="url(#paint110_linear_451_3551)"/>
<path d="M261.525 568.434H258.989V581.514H261.525V568.434Z" fill="url(#paint111_linear_451_3551)"/>
<path d="M269.726 568.434H267.19V581.514H269.726V568.434Z" fill="url(#paint112_linear_451_3551)"/>
<path d="M277.913 568.434H275.377V581.514H277.913V568.434Z" fill="url(#paint113_linear_451_3551)"/>
<path d="M286.114 568.434H283.579V581.514H286.114V568.434Z" fill="url(#paint114_linear_451_3551)"/>
<path d="M294.315 568.434H291.78V581.514H294.315V568.434Z" fill="url(#paint115_linear_451_3551)"/>
<path d="M302.516 568.434H299.981V581.514H302.516V568.434Z" fill="url(#paint116_linear_451_3551)"/>
<path d="M310.704 568.434H308.168V581.514H310.704V568.434Z" fill="url(#paint117_linear_451_3551)"/>
<path d="M336.115 552.598H229.3V565.677H336.115V552.598Z" fill="url(#paint118_linear_451_3551)"/>
<path d="M320.874 552.598H318.338V565.677H320.874V552.598Z" fill="url(#paint119_linear_451_3551)"/>
<path d="M329.06 552.598H326.525V565.677H329.06V552.598Z" fill="url(#paint120_linear_451_3551)"/>
<path d="M238.89 552.598H236.354V565.677H238.89V552.598Z" fill="url(#paint121_linear_451_3551)"/>
<path d="M247.091 552.598H244.556V565.677H247.091V552.598Z" fill="url(#paint122_linear_451_3551)"/>
<path d="M255.292 552.598H252.757V565.677H255.292V552.598Z" fill="url(#paint123_linear_451_3551)"/>
<path d="M263.479 552.598H260.944V565.677H263.479V552.598Z" fill="url(#paint124_linear_451_3551)"/>
<path d="M271.68 552.598H269.145V565.677H271.68V552.598Z" fill="url(#paint125_linear_451_3551)"/>
<path d="M279.882 552.598H277.346V565.677H279.882V552.598Z" fill="url(#paint126_linear_451_3551)"/>
<path d="M288.083 552.598H285.547V565.677H288.083V552.598Z" fill="url(#paint127_linear_451_3551)"/>
<path d="M296.27 552.598H293.735V565.677H296.27V552.598Z" fill="url(#paint128_linear_451_3551)"/>
<path d="M304.471 552.598H301.936V565.677H304.471V552.598Z" fill="url(#paint129_linear_451_3551)"/>
<path d="M312.672 552.598H310.137V565.677H312.672V552.598Z" fill="url(#paint130_linear_451_3551)"/>
<path d="M143.903 274.846C143.903 276.401 142.642 277.645 141.098 277.645C139.54 277.645 138.294 276.387 138.294 274.846C138.294 273.29 139.554 272.046 141.098 272.046C142.642 272.046 143.903 273.304 143.903 274.846Z" fill="url(#paint131_linear_451_3551)"/>
<path opacity="0.3" d="M262.7 150.47C265.806 150.47 268.324 147.957 268.324 144.857C268.324 141.756 265.806 139.243 262.7 139.243C259.595 139.243 257.077 141.756 257.077 144.857C257.077 147.957 259.595 150.47 262.7 150.47Z" fill="url(#paint132_linear_451_3551)"/>
<path opacity="0.3" d="M48.5337 505.059C50.2782 505.059 51.6924 503.647 51.6924 501.906C51.6924 500.164 50.2782 498.753 48.5337 498.753C46.7893 498.753 45.3751 500.164 45.3751 501.906C45.3751 503.647 46.7893 505.059 48.5337 505.059Z" fill="url(#paint133_linear_451_3551)"/>
<path d="M389.685 114.116C389.685 115.742 388.353 117.071 386.724 117.071C385.095 117.071 383.764 115.742 383.764 114.116C383.764 112.49 385.095 111.161 386.724 111.161C388.353 111.161 389.685 112.476 389.685 114.116Z" fill="url(#paint134_linear_451_3551)"/>
<path opacity="0.3" d="M589.134 142.806C589.758 146.101 586.925 148.929 583.624 148.307C581.797 147.953 580.296 146.469 579.956 144.63C579.333 141.336 582.165 138.508 585.466 139.13C587.279 139.498 588.78 140.982 589.134 142.806Z" fill="url(#paint135_linear_451_3551)"/>
<path opacity="0.3" d="M633.483 565.988C633.483 568.561 631.387 570.654 628.809 570.654C626.231 570.654 624.135 568.561 624.135 565.988C624.135 563.415 626.231 561.322 628.809 561.322C631.387 561.322 633.483 563.415 633.483 565.988Z" fill="url(#paint136_linear_451_3551)"/>
<path opacity="0.3" d="M651.826 598.92C653.281 598.92 654.461 597.743 654.461 596.29C654.461 594.838 653.281 593.66 651.826 593.66C650.371 593.66 649.191 594.838 649.191 596.29C649.191 597.743 650.371 598.92 651.826 598.92Z" fill="url(#paint137_linear_451_3551)"/>
<path d="M747.975 206.903C749.837 206.903 751.346 205.396 751.346 203.537C751.346 201.679 749.837 200.172 747.975 200.172C746.113 200.172 744.604 201.679 744.604 203.537C744.604 205.396 746.113 206.903 747.975 206.903Z" fill="url(#paint138_linear_451_3551)"/>
<path opacity="0.3" d="M255.901 518.124C255.901 520.372 254.074 522.196 251.822 522.196C249.57 522.196 247.743 520.372 247.743 518.124C247.743 515.876 249.57 514.052 251.822 514.052C254.074 514.066 255.901 515.876 255.901 518.124Z" fill="url(#paint139_linear_451_3551)"/>
<path d="M124.044 574.769C124.044 577.017 122.217 578.841 119.965 578.841C117.713 578.841 115.886 577.017 115.886 574.769C115.886 572.521 117.713 570.697 119.965 570.697C122.217 570.697 124.044 572.521 124.044 574.769Z" fill="url(#paint140_linear_451_3551)"/>
<path opacity="0.3" d="M769.816 293.779C769.816 296.027 767.989 297.851 765.736 297.851C763.484 297.851 761.657 296.027 761.657 293.779C761.657 291.531 763.484 289.707 765.736 289.707C768.003 289.721 769.816 291.531 769.816 293.779Z" fill="url(#paint141_linear_451_3551)"/>
<path d="M873.882 547.309C873.882 549.557 872.055 551.381 869.803 551.381C867.551 551.381 865.724 549.557 865.724 547.309C865.724 545.061 867.551 543.237 869.803 543.237C872.055 543.237 873.882 545.061 873.882 547.309Z" fill="url(#paint142_linear_451_3551)"/>
<path d="M648.667 493.379C648.667 494.609 647.662 495.613 646.429 495.613C645.197 495.613 644.191 494.609 644.191 493.379C644.191 492.149 645.197 491.145 646.429 491.145C647.662 491.145 648.667 492.149 648.667 493.379Z" fill="url(#paint143_linear_451_3551)"/>
<path opacity="0.3" d="M286.001 207.935C288.301 207.935 290.165 206.074 290.165 203.778C290.165 201.482 288.301 199.621 286.001 199.621C283.701 199.621 281.836 201.482 281.836 203.778C281.836 206.074 283.701 207.935 286.001 207.935Z" fill="url(#paint144_linear_451_3551)"/>
<path d="M668.668 167.014C668.668 170.111 666.146 172.628 663.044 172.628C659.942 172.628 657.421 170.111 657.421 167.014C657.421 163.917 659.942 161.4 663.044 161.4C666.146 161.4 668.668 163.917 668.668 167.014Z" fill="url(#paint145_linear_451_3551)"/>
<path opacity="0.3" d="M889.364 448.556C892.469 448.556 894.987 446.042 894.987 442.942C894.987 439.842 892.469 437.328 889.364 437.328C886.258 437.328 883.74 439.842 883.74 442.942C883.74 446.042 886.258 448.556 889.364 448.556Z" fill="url(#paint146_linear_451_3551)"/>
<path opacity="0.3" d="M834.335 590.21C835.665 590.21 836.743 589.134 836.743 587.806C836.743 586.479 835.665 585.402 834.335 585.402C833.005 585.402 831.927 586.479 831.927 587.806C831.927 589.134 833.005 590.21 834.335 590.21Z" fill="url(#paint147_linear_451_3551)"/>
<path d="M754.716 415.369C754.716 418.466 752.195 420.983 749.093 420.983C745.991 420.983 743.47 418.466 743.47 415.369C743.47 412.272 745.991 409.755 749.093 409.755C752.195 409.755 754.716 412.272 754.716 415.369Z" fill="url(#paint148_linear_451_3551)"/>
<path d="M166.354 475.619C168.325 475.619 169.923 474.024 169.923 472.056C169.923 470.088 168.325 468.493 166.354 468.493C164.382 468.493 162.784 470.088 162.784 472.056C162.784 474.024 164.382 475.619 166.354 475.619Z" fill="url(#paint149_linear_451_3551)"/>
<path d="M822.154 287.727H819.378V284.956C819.378 283.853 818.485 282.976 817.395 282.976C816.304 282.976 815.412 283.867 815.412 284.956V287.727H812.635C811.531 287.727 810.652 288.618 810.652 289.707C810.652 290.795 811.545 291.686 812.635 291.686H815.412V294.458C815.412 295.561 816.304 296.437 817.395 296.437C818.485 296.437 819.378 295.547 819.378 294.458V291.686H822.154C823.259 291.686 824.137 290.795 824.137 289.707C824.137 288.618 823.245 287.727 822.154 287.727Z" fill="white"/>
<path d="M820.893 515.65H818.117V512.878C818.117 511.775 817.225 510.899 816.134 510.899C815.043 510.899 814.151 511.79 814.151 512.878V515.65H811.375C810.27 515.65 809.392 516.541 809.392 517.629C809.392 518.732 810.284 519.609 811.375 519.609H814.151V522.38C814.151 523.483 815.043 524.36 816.134 524.36C817.225 524.36 818.117 523.469 818.117 522.38V519.609H820.893C821.998 519.609 822.876 518.718 822.876 517.629C822.876 516.541 821.984 515.65 820.893 515.65Z" fill="white"/>
<path opacity="0.3" d="M272.162 242.281H269.386V239.51C269.386 238.407 268.493 237.53 267.403 237.53C266.298 237.53 265.42 238.421 265.42 239.51V242.281H262.644C261.539 242.281 260.661 243.172 260.661 244.261C260.661 245.349 261.553 246.24 262.644 246.24H265.42V249.012C265.42 250.115 266.312 250.991 267.403 250.991C268.508 250.991 269.386 250.1 269.386 249.012V246.24H272.162C273.267 246.24 274.145 245.349 274.145 244.261C274.145 243.172 273.267 242.281 272.162 242.281Z" fill="url(#paint150_linear_451_3551)"/>
<path d="M196.34 333.597H193.564V330.826C193.564 329.723 192.671 328.846 191.58 328.846C190.476 328.846 189.597 329.737 189.597 330.826V333.597H186.821C185.716 333.597 184.838 334.488 184.838 335.577C184.838 336.666 185.731 337.556 186.821 337.556H189.597V340.328C189.597 341.431 190.49 342.307 191.58 342.307C192.685 342.307 193.564 341.417 193.564 340.328V337.556H196.34C197.445 337.556 198.323 336.666 198.323 335.577C198.323 334.488 197.445 333.597 196.34 333.597Z" fill="url(#paint151_linear_451_3551)"/>
<path d="M521.895 104.798H519.119V102.026C519.119 100.924 518.227 100.047 517.136 100.047C516.031 100.047 515.153 100.938 515.153 102.026V104.798H512.377C511.272 104.798 510.394 105.689 510.394 106.778C510.394 107.88 511.286 108.757 512.377 108.757H515.153V111.529C515.153 112.631 516.045 113.508 517.136 113.508C518.241 113.508 519.119 112.617 519.119 111.529V108.757H521.895C523 108.757 523.878 107.866 523.878 106.778C523.878 105.689 522.986 104.798 521.895 104.798Z" fill="url(#paint152_linear_451_3551)"/>
</g>
<defs>
<linearGradient id="paint0_linear_451_3551" x1="467.647" y1="611.716" x2="467.647" y2="113.862" gradientUnits="userSpaceOnUse">
<stop stop-color="white"/>
<stop offset="1" stop-color="#CFEDFF"/>
</linearGradient>
<linearGradient id="paint1_linear_451_3551" x1="374.211" y1="281.49" x2="336.451" y2="293.311" gradientUnits="userSpaceOnUse">
<stop stop-color="#4EC6FD"/>
<stop offset="1" stop-color="#1AA0FE"/>
</linearGradient>
<linearGradient id="paint2_linear_451_3551" x1="373.198" y1="278.254" x2="335.438" y2="290.075" gradientUnits="userSpaceOnUse">
<stop stop-color="#4EC6FD"/>
<stop offset="1" stop-color="#1AA0FE"/>
</linearGradient>
<linearGradient id="paint3_linear_451_3551" x1="372.186" y1="275.018" x2="334.425" y2="286.839" gradientUnits="userSpaceOnUse">
<stop stop-color="#4EC6FD"/>
<stop offset="1" stop-color="#1AA0FE"/>
</linearGradient>
<linearGradient id="paint4_linear_451_3551" x1="129.81" y1="374.378" x2="195" y2="413.087" gradientUnits="userSpaceOnUse">
<stop stop-color="#B5D9F8"/>
<stop offset="1" stop-color="#8EC1F8"/>
</linearGradient>
<linearGradient id="paint5_linear_451_3551" x1="126.656" y1="371.423" x2="192.749" y2="410.668" gradientUnits="userSpaceOnUse">
<stop stop-color="#B5D9F8"/>
<stop offset="1" stop-color="#8EC1F8"/>
</linearGradient>
<linearGradient id="paint6_linear_451_3551" x1="658.375" y1="194.825" x2="720.598" y2="257.156" gradientUnits="userSpaceOnUse">
<stop stop-color="#B5D9F8"/>
<stop offset="1" stop-color="#8EC1F8"/>
</linearGradient>
<linearGradient id="paint7_linear_451_3551" x1="711.648" y1="241.848" x2="656.855" y2="199.014" gradientUnits="userSpaceOnUse">
<stop stop-color="#7489D6"/>
<stop offset="1" stop-color="#7C90D9"/>
</linearGradient>
<linearGradient id="paint8_linear_451_3551" x1="161.645" y1="564.96" x2="250.284" y2="653.751" gradientUnits="userSpaceOnUse">
<stop stop-color="#B5D9F8"/>
<stop offset="1" stop-color="#8EC1F8"/>
</linearGradient>
<linearGradient id="paint9_linear_451_3551" x1="240.587" y1="638.762" x2="158.807" y2="574.83" gradientUnits="userSpaceOnUse">
<stop stop-color="#7489D6"/>
<stop offset="1" stop-color="#7C90D9"/>
</linearGradient>
<linearGradient id="paint10_linear_451_3551" x1="443.186" y1="583.81" x2="446.348" y2="603.405" gradientUnits="userSpaceOnUse">
<stop stop-color="#FFB8AB"/>
<stop offset="1" stop-color="#F99D8A"/>
</linearGradient>
<linearGradient id="paint11_linear_451_3551" x1="369.208" y1="588.328" x2="365.811" y2="604.404" gradientUnits="userSpaceOnUse">
<stop stop-color="#FFB8AB"/>
<stop offset="1" stop-color="#F99D8A"/>
</linearGradient>
<linearGradient id="paint12_linear_451_3551" x1="416.466" y1="443.581" x2="432.816" y2="603.366" gradientUnits="userSpaceOnUse">
<stop stop-color="#182C7E"/>
<stop offset="1" stop-color="#1A0048"/>
</linearGradient>
<linearGradient id="paint13_linear_451_3551" x1="405.91" y1="465.322" x2="408.69" y2="492.483" gradientUnits="userSpaceOnUse">
<stop stop-color="#182C7E"/>
<stop offset="1" stop-color="#1A0048"/>
</linearGradient>
<linearGradient id="paint14_linear_451_3551" x1="380.836" y1="448.541" x2="397.111" y2="607.586" gradientUnits="userSpaceOnUse">
<stop stop-color="#182C7E"/>
<stop offset="1" stop-color="#1A0048"/>
</linearGradient>
<linearGradient id="paint15_linear_451_3551" x1="482.062" y1="379.276" x2="510.154" y2="384.904" gradientUnits="userSpaceOnUse">
<stop stop-color="#FFB8AB"/>
<stop offset="1" stop-color="#F99D8A"/>
</linearGradient>
<linearGradient id="paint16_linear_451_3551" x1="462.084" y1="354.523" x2="368.276" y2="446.196" gradientUnits="userSpaceOnUse">
<stop stop-color="#182C7E"/>
<stop offset="1" stop-color="#1A0048"/>
</linearGradient>
<linearGradient id="paint17_linear_451_3551" x1="407.683" y1="277.964" x2="402.85" y2="327.492" gradientUnits="userSpaceOnUse">
<stop stop-color="#FFB8AB"/>
<stop offset="1" stop-color="#F99D8A"/>
</linearGradient>
<linearGradient id="paint18_linear_451_3551" x1="407.584" y1="279.428" x2="407.584" y2="327.757" gradientUnits="userSpaceOnUse">
<stop stop-color="#FFB8AB"/>
<stop offset="1" stop-color="#F99D8A"/>
</linearGradient>
<linearGradient id="paint19_linear_451_3551" x1="407.401" y1="253.598" x2="410.472" y2="301.106" gradientUnits="userSpaceOnUse">
<stop stop-color="#3945BA"/>
<stop offset="1" stop-color="#0C176F"/>
</linearGradient>
<linearGradient id="paint20_linear_451_3551" x1="434.599" y1="606.117" x2="474.338" y2="606.117" gradientUnits="userSpaceOnUse">
<stop stop-color="#002E7E"/>
<stop offset="1" stop-color="#151A6D"/>
</linearGradient>
<linearGradient id="paint21_linear_451_3551" x1="347.058" y1="607.264" x2="376.457" y2="607.264" gradientUnits="userSpaceOnUse">
<stop stop-color="#002E7E"/>
<stop offset="1" stop-color="#151A6D"/>
</linearGradient>
<linearGradient id="paint22_linear_451_3551" x1="398.351" y1="293.333" x2="398.351" y2="293.457" gradientUnits="userSpaceOnUse">
<stop stop-color="#FFB8AB"/>
<stop offset="1" stop-color="#F99D8A"/>
</linearGradient>
<linearGradient id="paint23_linear_451_3551" x1="389.968" y1="335.458" x2="440.151" y2="438.955" gradientUnits="userSpaceOnUse">
<stop stop-color="#6DB0FF"/>
<stop offset="1" stop-color="#4B56BB"/>
</linearGradient>
<linearGradient id="paint24_linear_451_3551" x1="391.389" y1="327.199" x2="412.459" y2="327.199" gradientUnits="userSpaceOnUse">
<stop stop-color="#B5D9F8"/>
<stop offset="1" stop-color="#8EC1F8"/>
</linearGradient>
<linearGradient id="paint25_linear_451_3551" x1="417.341" y1="318.521" x2="412.389" y2="334.936" gradientUnits="userSpaceOnUse">
<stop stop-color="#B5D9F8"/>
<stop offset="1" stop-color="#8EC1F8"/>
</linearGradient>
<linearGradient id="paint26_linear_451_3551" x1="408.145" y1="328.714" x2="414.27" y2="341.346" gradientUnits="userSpaceOnUse">
<stop stop-color="#6DB0FF"/>
<stop offset="1" stop-color="#4B56BB"/>
</linearGradient>
<linearGradient id="paint27_linear_451_3551" x1="404.544" y1="322.482" x2="404.544" y2="445.107" gradientUnits="userSpaceOnUse">
<stop stop-color="#182C7E"/>
<stop offset="1" stop-color="#1A0048"/>
</linearGradient>
<linearGradient id="paint28_linear_451_3551" x1="333.279" y1="377.36" x2="506.055" y2="377.36" gradientUnits="userSpaceOnUse">
<stop stop-color="#182C7E"/>
<stop offset="1" stop-color="#1A0048"/>
</linearGradient>
<linearGradient id="paint29_linear_451_3551" x1="352.473" y1="387.996" x2="387.437" y2="437.283" gradientUnits="userSpaceOnUse">
<stop stop-color="#B5D9F8"/>
<stop offset="1" stop-color="#8EC1F8"/>
</linearGradient>
<linearGradient id="paint30_linear_451_3551" x1="374.642" y1="434.999" x2="346.577" y2="352.312" gradientUnits="userSpaceOnUse">
<stop stop-color="#FFB8AB"/>
<stop offset="1" stop-color="#F99D8A"/>
</linearGradient>
<linearGradient id="paint31_linear_451_3551" x1="354.215" y1="322.482" x2="354.215" y2="445.107" gradientUnits="userSpaceOnUse">
<stop stop-color="#182C7E"/>
<stop offset="1" stop-color="#1A0048"/>
</linearGradient>
<linearGradient id="paint32_linear_451_3551" x1="406.696" y1="329.151" x2="415.878" y2="423.467" gradientUnits="userSpaceOnUse">
<stop stop-color="#184AA7"/>
<stop offset="1" stop-color="#190E5B"/>
</linearGradient>
<linearGradient id="paint33_linear_451_3551" x1="542.277" y1="460.901" x2="452.064" y2="296.42" gradientUnits="userSpaceOnUse">
<stop stop-color="#FFC39A"/>
<stop offset="1" stop-color="#E8A38C"/>
</linearGradient>
<linearGradient id="paint34_linear_451_3551" x1="600.999" y1="598.086" x2="488.879" y2="598.086" gradientUnits="userSpaceOnUse">
<stop stop-color="#FCCFB0"/>
<stop offset="1" stop-color="#FCBA97"/>
</linearGradient>
<linearGradient id="paint35_linear_451_3551" x1="556.388" y1="391.305" x2="518.126" y2="321.545" gradientUnits="userSpaceOnUse">
<stop stop-color="#435FEA"/>
<stop offset="1" stop-color="#008EFF"/>
</linearGradient>
<linearGradient id="paint36_linear_451_3551" x1="533.673" y1="344.455" x2="519.252" y2="362.513" gradientUnits="userSpaceOnUse">
<stop stop-color="#FFC39A"/>
<stop offset="1" stop-color="#E8A38C"/>
</linearGradient>
<linearGradient id="paint37_linear_451_3551" x1="528.412" y1="398.747" x2="549.49" y2="595.496" gradientUnits="userSpaceOnUse">
<stop stop-color="#002E66"/>
<stop offset="1" stop-color="#1A0048"/>
</linearGradient>
<linearGradient id="paint38_linear_451_3551" x1="600.992" y1="592.164" x2="488.892" y2="592.164" gradientUnits="userSpaceOnUse">
<stop stop-color="#FCCFB0"/>
<stop offset="1" stop-color="#FCBA97"/>
</linearGradient>
<linearGradient id="paint39_linear_451_3551" x1="567.684" y1="397.477" x2="588.497" y2="591.751" gradientUnits="userSpaceOnUse">
<stop stop-color="#002E66"/>
<stop offset="1" stop-color="#1A0048"/>
</linearGradient>
<linearGradient id="paint40_linear_451_3551" x1="584.006" y1="428.314" x2="515.905" y2="304.148" gradientUnits="userSpaceOnUse">
<stop stop-color="#435FEA"/>
<stop offset="1" stop-color="#008EFF"/>
</linearGradient>
<linearGradient id="paint41_linear_451_3551" x1="544.605" y1="319.048" x2="546.85" y2="426.98" gradientUnits="userSpaceOnUse">
<stop stop-color="#3945BA"/>
<stop offset="1" stop-color="#0C176F"/>
</linearGradient>
<linearGradient id="paint42_linear_451_3551" x1="535.863" y1="302.772" x2="566.873" y2="308.062" gradientUnits="userSpaceOnUse">
<stop stop-color="#FFC39A"/>
<stop offset="1" stop-color="#E8A38C"/>
</linearGradient>
<linearGradient id="paint43_linear_451_3551" x1="546.813" y1="310.582" x2="561.405" y2="310.582" gradientUnits="userSpaceOnUse">
<stop stop-color="#FFC39A"/>
<stop offset="1" stop-color="#E8A38C"/>
</linearGradient>
<linearGradient id="paint44_linear_451_3551" x1="537.002" y1="286.619" x2="541.539" y2="286.619" gradientUnits="userSpaceOnUse">
<stop stop-color="#3945BA"/>
<stop offset="1" stop-color="#0C176F"/>
</linearGradient>
<linearGradient id="paint45_linear_451_3551" x1="538.32" y1="292.168" x2="567.801" y2="297.197" gradientUnits="userSpaceOnUse">
<stop stop-color="#FFC39A"/>
<stop offset="1" stop-color="#E8A38C"/>
</linearGradient>
<linearGradient id="paint46_linear_451_3551" x1="533.507" y1="285.905" x2="572.977" y2="285.905" gradientUnits="userSpaceOnUse">
<stop stop-color="#3945BA"/>
<stop offset="1" stop-color="#0C176F"/>
</linearGradient>
<linearGradient id="paint47_linear_451_3551" x1="491.315" y1="379.546" x2="573.727" y2="379.546" gradientUnits="userSpaceOnUse">
<stop stop-color="#FFC39A"/>
<stop offset="1" stop-color="#E8A38C"/>
</linearGradient>
<linearGradient id="paint48_linear_451_3551" x1="516.31" y1="309.877" x2="584.365" y2="362.839" gradientUnits="userSpaceOnUse">
<stop stop-color="#435FEA"/>
<stop offset="1" stop-color="#008EFF"/>
</linearGradient>
<linearGradient id="paint49_linear_451_3551" x1="548.85" y1="446.955" x2="555.653" y2="475.129" gradientUnits="userSpaceOnUse">
<stop stop-color="#2E2A87"/>
<stop offset="1" stop-color="#000E42"/>
</linearGradient>
<linearGradient id="paint50_linear_451_3551" x1="572.454" y1="317.051" x2="551.454" y2="323.982" gradientUnits="userSpaceOnUse">
<stop stop-color="#435FEA"/>
<stop offset="1" stop-color="#008EFF"/>
</linearGradient>
<linearGradient id="paint51_linear_451_3551" x1="554.155" y1="319.599" x2="545.691" y2="322.392" gradientUnits="userSpaceOnUse">
<stop stop-color="#435FEA"/>
<stop offset="1" stop-color="#008EFF"/>
</linearGradient>
<linearGradient id="paint52_linear_451_3551" x1="550.508" y1="319.928" x2="550.689" y2="328.584" gradientUnits="userSpaceOnUse">
<stop stop-color="#3945BA"/>
<stop offset="1" stop-color="#0C176F"/>
</linearGradient>
<linearGradient id="paint53_linear_451_3551" x1="675.92" y1="465.413" x2="675.92" y2="639.427" gradientUnits="userSpaceOnUse">
<stop stop-color="#4EC6FD"/>
<stop offset="0.00461489" stop-color="#4EC6FD"/>
<stop offset="1" stop-color="#008EFF"/>
</linearGradient>
<linearGradient id="paint54_linear_451_3551" x1="714.027" y1="465.413" x2="714.027" y2="639.427" gradientUnits="userSpaceOnUse">
<stop stop-color="#4EC6FD"/>
<stop offset="0.00461489" stop-color="#4EC6FD"/>
<stop offset="1" stop-color="#008EFF"/>
</linearGradient>
<linearGradient id="paint55_linear_451_3551" x1="752.135" y1="465.413" x2="752.135" y2="639.427" gradientUnits="userSpaceOnUse">
<stop stop-color="#4EC6FD"/>
<stop offset="0.00461489" stop-color="#4EC6FD"/>
<stop offset="1" stop-color="#008EFF"/>
</linearGradient>
<linearGradient id="paint56_linear_451_3551" x1="790.242" y1="465.413" x2="790.242" y2="639.427" gradientUnits="userSpaceOnUse">
<stop stop-color="#4EC6FD"/>
<stop offset="0.00461489" stop-color="#4EC6FD"/>
<stop offset="1" stop-color="#008EFF"/>
</linearGradient>
<linearGradient id="paint57_linear_451_3551" x1="689.334" y1="313.323" x2="780.594" y2="365.835" gradientUnits="userSpaceOnUse">
<stop stop-color="white"/>
<stop offset="1" stop-color="#DEE3FC"/>
</linearGradient>
<linearGradient id="paint58_linear_451_3551" x1="684.887" y1="316.464" x2="789.605" y2="376.719" gradientUnits="userSpaceOnUse">
<stop stop-color="#49D5FF"/>
<stop offset="1" stop-color="#00BBFF"/>
</linearGradient>
<linearGradient id="paint59_linear_451_3551" x1="695.606" y1="370.478" x2="735.591" y2="393.485" gradientUnits="userSpaceOnUse">
<stop stop-color="white"/>
<stop offset="1" stop-color="#DEE3FC"/>
</linearGradient>
<linearGradient id="paint60_linear_451_3551" x1="695.55" y1="375.31" x2="743.526" y2="402.916" gradientUnits="userSpaceOnUse">
<stop stop-color="white"/>
<stop offset="1" stop-color="#DEE3FC"/>
</linearGradient>
<linearGradient id="paint61_linear_451_3551" x1="745.958" y1="386.254" x2="756.16" y2="392.124" gradientUnits="userSpaceOnUse">
<stop stop-color="white"/>
<stop offset="1" stop-color="#DEE3FC"/>
</linearGradient>
<linearGradient id="paint62_linear_451_3551" x1="695.757" y1="391.016" x2="714.192" y2="401.624" gradientUnits="userSpaceOnUse">
<stop stop-color="white"/>
<stop offset="1" stop-color="#DEE3FC"/>
</linearGradient>
<linearGradient id="paint63_linear_451_3551" x1="737.677" y1="371.286" x2="774.871" y2="392.688" gradientUnits="userSpaceOnUse">
<stop stop-color="white"/>
<stop offset="1" stop-color="#DEE3FC"/>
</linearGradient>
<linearGradient id="paint64_linear_451_3551" x1="281.676" y1="339.331" x2="215.902" y2="285.487" gradientUnits="userSpaceOnUse">
<stop stop-color="#89D7FF"/>
<stop offset="0.2174" stop-color="#9CDDFE"/>
<stop offset="1" stop-color="#DEF1FB"/>
</linearGradient>
<linearGradient id="paint65_linear_451_3551" x1="251.191" y1="301.48" x2="285.994" y2="301.48" gradientUnits="userSpaceOnUse">
<stop stop-color="#06B1FD"/>
<stop offset="1" stop-color="#0084FF"/>
</linearGradient>
<linearGradient id="paint66_linear_451_3551" x1="236.447" y1="276.201" x2="236.917" y2="348.315" gradientUnits="userSpaceOnUse">
<stop stop-color="#1AD2FF"/>
<stop offset="1" stop-color="#0063FF"/>
</linearGradient>
<linearGradient id="paint67_linear_451_3551" x1="201.496" y1="456.979" x2="269.831" y2="456.979" gradientUnits="userSpaceOnUse">
<stop stop-color="#FFE16F"/>
<stop offset="1" stop-color="#FFBB3F"/>
</linearGradient>
<linearGradient id="paint68_linear_451_3551" x1="209.193" y1="425.761" x2="251.515" y2="475.847" gradientUnits="userSpaceOnUse">
<stop stop-color="#FFE16F"/>
<stop offset="1" stop-color="#FFBB3F"/>
</linearGradient>
<linearGradient id="paint69_linear_451_3551" x1="206.056" y1="427.423" x2="260.546" y2="482.007" gradientUnits="userSpaceOnUse">
<stop stop-color="#FFE16F"/>
<stop offset="1" stop-color="#FFBB3F"/>
</linearGradient>
<linearGradient id="paint70_linear_451_3551" x1="692.65" y1="280.813" x2="724.926" y2="280.813" gradientUnits="userSpaceOnUse">
<stop stop-color="#FFE16F"/>
<stop offset="1" stop-color="#FFBB3F"/>
</linearGradient>
<linearGradient id="paint71_linear_451_3551" x1="696.285" y1="266.068" x2="716.275" y2="289.725" gradientUnits="userSpaceOnUse">
<stop stop-color="#FFE16F"/>
<stop offset="1" stop-color="#FFBB3F"/>
</linearGradient>
<linearGradient id="paint72_linear_451_3551" x1="694.803" y1="266.853" x2="720.54" y2="292.635" gradientUnits="userSpaceOnUse">
<stop stop-color="#FFE16F"/>
<stop offset="1" stop-color="#FFBB3F"/>
</linearGradient>
<linearGradient id="paint73_linear_451_3551" x1="295.699" y1="164.539" x2="341.18" y2="164.539" gradientUnits="userSpaceOnUse">
<stop stop-color="#FFE16F"/>
<stop offset="1" stop-color="#FFBB3F"/>
</linearGradient>
<linearGradient id="paint74_linear_451_3551" x1="300.822" y1="143.762" x2="328.989" y2="177.097" gradientUnits="userSpaceOnUse">
<stop stop-color="#FFE16F"/>
<stop offset="1" stop-color="#FFBB3F"/>
</linearGradient>
<linearGradient id="paint75_linear_451_3551" x1="298.734" y1="144.868" x2="335" y2="181.197" gradientUnits="userSpaceOnUse">
<stop stop-color="#FFE16F"/>
<stop offset="1" stop-color="#FFBB3F"/>
</linearGradient>
<linearGradient id="paint76_linear_451_3551" x1="644.182" y1="454.306" x2="698.441" y2="454.306" gradientUnits="userSpaceOnUse">
<stop stop-color="#FFE16F"/>
<stop offset="1" stop-color="#FFBB3F"/>
</linearGradient>
<linearGradient id="paint77_linear_451_3551" x1="650.293" y1="429.518" x2="683.898" y2="469.287" gradientUnits="userSpaceOnUse">
<stop stop-color="#FFE16F"/>
<stop offset="1" stop-color="#FFBB3F"/>
</linearGradient>
<linearGradient id="paint78_linear_451_3551" x1="647.802" y1="430.838" x2="691.069" y2="474.179" gradientUnits="userSpaceOnUse">
<stop stop-color="#FFE16F"/>
<stop offset="1" stop-color="#FFBB3F"/>
</linearGradient>
<linearGradient id="paint79_linear_451_3551" x1="233.406" y1="606.657" x2="340.22" y2="606.657" gradientUnits="userSpaceOnUse">
<stop stop-color="#FFE16F"/>
<stop offset="1" stop-color="#FFBB3F"/>
</linearGradient>
<linearGradient id="paint80_linear_451_3551" x1="237.626" y1="606.659" x2="347.381" y2="606.659" gradientUnits="userSpaceOnUse">
<stop stop-color="#FFE16F"/>
<stop offset="1" stop-color="#FFBB3F"/>
</linearGradient>
<linearGradient id="paint81_linear_451_3551" x1="237.627" y1="606.659" x2="347.381" y2="606.659" gradientUnits="userSpaceOnUse">
<stop stop-color="#FFE16F"/>
<stop offset="1" stop-color="#FFBB3F"/>
</linearGradient>
<linearGradient id="paint82_linear_451_3551" x1="237.63" y1="606.659" x2="347.372" y2="606.659" gradientUnits="userSpaceOnUse">
<stop stop-color="#FFE16F"/>
<stop offset="1" stop-color="#FFBB3F"/>
</linearGradient>
<linearGradient id="paint83_linear_451_3551" x1="237.628" y1="606.659" x2="347.389" y2="606.659" gradientUnits="userSpaceOnUse">
<stop stop-color="#FFE16F"/>
<stop offset="1" stop-color="#FFBB3F"/>
</linearGradient>
<linearGradient id="paint84_linear_451_3551" x1="237.629" y1="606.659" x2="347.383" y2="606.659" gradientUnits="userSpaceOnUse">
<stop stop-color="#FFE16F"/>
<stop offset="1" stop-color="#FFBB3F"/>
</linearGradient>
<linearGradient id="paint85_linear_451_3551" x1="237.631" y1="606.659" x2="347.374" y2="606.659" gradientUnits="userSpaceOnUse">
<stop stop-color="#FFE16F"/>
<stop offset="1" stop-color="#FFBB3F"/>
</linearGradient>
<linearGradient id="paint86_linear_451_3551" x1="237.628" y1="606.659" x2="347.383" y2="606.659" gradientUnits="userSpaceOnUse">
<stop stop-color="#FFE16F"/>
<stop offset="1" stop-color="#FFBB3F"/>
</linearGradient>
<linearGradient id="paint87_linear_451_3551" x1="237.628" y1="606.659" x2="347.382" y2="606.659" gradientUnits="userSpaceOnUse">
<stop stop-color="#FFE16F"/>
<stop offset="1" stop-color="#FFBB3F"/>
</linearGradient>
<linearGradient id="paint88_linear_451_3551" x1="237.63" y1="606.659" x2="347.379" y2="606.659" gradientUnits="userSpaceOnUse">
<stop stop-color="#FFE16F"/>
<stop offset="1" stop-color="#FFBB3F"/>
</linearGradient>
<linearGradient id="paint89_linear_451_3551" x1="237.628" y1="606.659" x2="347.382" y2="606.659" gradientUnits="userSpaceOnUse">
<stop stop-color="#FFE16F"/>
<stop offset="1" stop-color="#FFBB3F"/>
</linearGradient>
<linearGradient id="paint90_linear_451_3551" x1="237.626" y1="606.659" x2="347.382" y2="606.659" gradientUnits="userSpaceOnUse">
<stop stop-color="#FFE16F"/>
<stop offset="1" stop-color="#FFBB3F"/>
</linearGradient>
<linearGradient id="paint91_linear_451_3551" x1="237.635" y1="606.659" x2="347.378" y2="606.659" gradientUnits="userSpaceOnUse">
<stop stop-color="#FFE16F"/>
<stop offset="1" stop-color="#FFBB3F"/>
</linearGradient>
<linearGradient id="paint92_linear_451_3551" x1="244.432" y1="590.817" x2="351.247" y2="590.817" gradientUnits="userSpaceOnUse">
<stop stop-color="#FFE16F"/>
<stop offset="1" stop-color="#FFBB3F"/>
</linearGradient>
<linearGradient id="paint93_linear_451_3551" x1="248.663" y1="590.819" x2="358.405" y2="590.819" gradientUnits="userSpaceOnUse">
<stop stop-color="#FFE16F"/>
<stop offset="1" stop-color="#FFBB3F"/>
</linearGradient>
<linearGradient id="paint94_linear_451_3551" x1="248.653" y1="590.819" x2="358.407" y2="590.819" gradientUnits="userSpaceOnUse">
<stop stop-color="#FFE16F"/>
<stop offset="1" stop-color="#FFBB3F"/>
</linearGradient>
<linearGradient id="paint95_linear_451_3551" x1="248.656" y1="590.819" x2="358.41" y2="590.819" gradientUnits="userSpaceOnUse">
<stop stop-color="#FFE16F"/>
<stop offset="1" stop-color="#FFBB3F"/>
</linearGradient>
<linearGradient id="paint96_linear_451_3551" x1="248.657" y1="590.819" x2="358.399" y2="590.819" gradientUnits="userSpaceOnUse">
<stop stop-color="#FFE16F"/>
<stop offset="1" stop-color="#FFBB3F"/>
</linearGradient>
<linearGradient id="paint97_linear_451_3551" x1="248.655" y1="590.819" x2="358.411" y2="590.819" gradientUnits="userSpaceOnUse">
<stop stop-color="#FFE16F"/>
<stop offset="1" stop-color="#FFBB3F"/>
</linearGradient>
<linearGradient id="paint98_linear_451_3551" x1="248.655" y1="590.819" x2="358.409" y2="590.819" gradientUnits="userSpaceOnUse">
<stop stop-color="#FFE16F"/>
<stop offset="1" stop-color="#FFBB3F"/>
</linearGradient>
<linearGradient id="paint99_linear_451_3551" x1="248.659" y1="590.819" x2="358.401" y2="590.819" gradientUnits="userSpaceOnUse">
<stop stop-color="#FFE16F"/>
<stop offset="1" stop-color="#FFBB3F"/>
</linearGradient>
<linearGradient id="paint100_linear_451_3551" x1="248.654" y1="590.819" x2="358.41" y2="590.819" gradientUnits="userSpaceOnUse">
<stop stop-color="#FFE16F"/>
<stop offset="1" stop-color="#FFBB3F"/>
</linearGradient>
<linearGradient id="paint101_linear_451_3551" x1="248.654" y1="590.819" x2="358.408" y2="590.819" gradientUnits="userSpaceOnUse">
<stop stop-color="#FFE16F"/>
<stop offset="1" stop-color="#FFBB3F"/>
</linearGradient>
<linearGradient id="paint102_linear_451_3551" x1="248.66" y1="590.819" x2="358.404" y2="590.819" gradientUnits="userSpaceOnUse">
<stop stop-color="#FFE16F"/>
<stop offset="1" stop-color="#FFBB3F"/>
</linearGradient>
<linearGradient id="paint103_linear_451_3551" x1="248.653" y1="590.819" x2="358.409" y2="590.819" gradientUnits="userSpaceOnUse">
<stop stop-color="#FFE16F"/>
<stop offset="1" stop-color="#FFBB3F"/>
</linearGradient>
<linearGradient id="paint104_linear_451_3551" x1="248.653" y1="590.819" x2="358.408" y2="590.819" gradientUnits="userSpaceOnUse">
<stop stop-color="#FFE16F"/>
<stop offset="1" stop-color="#FFBB3F"/>
</linearGradient>
<linearGradient id="paint105_linear_451_3551" x1="227.344" y1="574.977" x2="334.159" y2="574.977" gradientUnits="userSpaceOnUse">
<stop stop-color="#FFE16F"/>
<stop offset="1" stop-color="#FFBB3F"/>
</linearGradient>
<linearGradient id="paint106_linear_451_3551" x1="231.564" y1="574.979" x2="341.32" y2="574.979" gradientUnits="userSpaceOnUse">
<stop stop-color="#FFE16F"/>
<stop offset="1" stop-color="#FFBB3F"/>
</linearGradient>
<linearGradient id="paint107_linear_451_3551" x1="231.565" y1="574.979" x2="341.319" y2="574.979" gradientUnits="userSpaceOnUse">
<stop stop-color="#FFE16F"/>
<stop offset="1" stop-color="#FFBB3F"/>
</linearGradient>
<linearGradient id="paint108_linear_451_3551" x1="231.568" y1="574.979" x2="341.311" y2="574.979" gradientUnits="userSpaceOnUse">
<stop stop-color="#FFE16F"/>
<stop offset="1" stop-color="#FFBB3F"/>
</linearGradient>
<linearGradient id="paint109_linear_451_3551" x1="231.567" y1="574.979" x2="341.322" y2="574.979" gradientUnits="userSpaceOnUse">
<stop stop-color="#FFE16F"/>
<stop offset="1" stop-color="#FFBB3F"/>
</linearGradient>
<linearGradient id="paint110_linear_451_3551" x1="231.567" y1="574.979" x2="341.321" y2="574.979" gradientUnits="userSpaceOnUse">
<stop stop-color="#FFE16F"/>
<stop offset="1" stop-color="#FFBB3F"/>
</linearGradient>
<linearGradient id="paint111_linear_451_3551" x1="231.569" y1="574.979" x2="341.313" y2="574.979" gradientUnits="userSpaceOnUse">
<stop stop-color="#FFE16F"/>
<stop offset="1" stop-color="#FFBB3F"/>
</linearGradient>
<linearGradient id="paint112_linear_451_3551" x1="231.566" y1="574.979" x2="341.321" y2="574.979" gradientUnits="userSpaceOnUse">
<stop stop-color="#FFE16F"/>
<stop offset="1" stop-color="#FFBB3F"/>
</linearGradient>
<linearGradient id="paint113_linear_451_3551" x1="231.566" y1="574.979" x2="341.321" y2="574.979" gradientUnits="userSpaceOnUse">
<stop stop-color="#FFE16F"/>
<stop offset="1" stop-color="#FFBB3F"/>
</linearGradient>
<linearGradient id="paint114_linear_451_3551" x1="231.571" y1="574.979" x2="341.314" y2="574.979" gradientUnits="userSpaceOnUse">
<stop stop-color="#FFE16F"/>
<stop offset="1" stop-color="#FFBB3F"/>
</linearGradient>
<linearGradient id="paint115_linear_451_3551" x1="231.566" y1="574.979" x2="341.32" y2="574.979" gradientUnits="userSpaceOnUse">
<stop stop-color="#FFE16F"/>
<stop offset="1" stop-color="#FFBB3F"/>
</linearGradient>
<linearGradient id="paint116_linear_451_3551" x1="231.565" y1="574.979" x2="341.32" y2="574.979" gradientUnits="userSpaceOnUse">
<stop stop-color="#FFE16F"/>
<stop offset="1" stop-color="#FFBB3F"/>
</linearGradient>
<linearGradient id="paint117_linear_451_3551" x1="231.573" y1="574.979" x2="341.316" y2="574.979" gradientUnits="userSpaceOnUse">
<stop stop-color="#FFE16F"/>
<stop offset="1" stop-color="#FFBB3F"/>
</linearGradient>
<linearGradient id="paint118_linear_451_3551" x1="229.307" y1="559.137" x2="336.121" y2="559.137" gradientUnits="userSpaceOnUse">
<stop stop-color="#FFE16F"/>
<stop offset="1" stop-color="#FFBB3F"/>
</linearGradient>
<linearGradient id="paint119_linear_451_3551" x1="233.527" y1="559.139" x2="343.282" y2="559.139" gradientUnits="userSpaceOnUse">
<stop stop-color="#FFE16F"/>
<stop offset="1" stop-color="#FFBB3F"/>
</linearGradient>
<linearGradient id="paint120_linear_451_3551" x1="233.537" y1="559.139" x2="343.28" y2="559.139" gradientUnits="userSpaceOnUse">
<stop stop-color="#FFE16F"/>
<stop offset="1" stop-color="#FFBB3F"/>
</linearGradient>
<linearGradient id="paint121_linear_451_3551" x1="233.53" y1="559.139" x2="343.286" y2="559.139" gradientUnits="userSpaceOnUse">
<stop stop-color="#FFE16F"/>
<stop offset="1" stop-color="#FFBB3F"/>
</linearGradient>
<linearGradient id="paint122_linear_451_3551" x1="233.53" y1="559.139" x2="343.284" y2="559.139" gradientUnits="userSpaceOnUse">
<stop stop-color="#FFE16F"/>
<stop offset="1" stop-color="#FFBB3F"/>
</linearGradient>
<linearGradient id="paint123_linear_451_3551" x1="233.532" y1="559.139" x2="343.274" y2="559.139" gradientUnits="userSpaceOnUse">
<stop stop-color="#FFE16F"/>
<stop offset="1" stop-color="#FFBB3F"/>
</linearGradient>
<linearGradient id="paint124_linear_451_3551" x1="233.529" y1="559.139" x2="343.284" y2="559.139" gradientUnits="userSpaceOnUse">
<stop stop-color="#FFE16F"/>
<stop offset="1" stop-color="#FFBB3F"/>
</linearGradient>
<linearGradient id="paint125_linear_451_3551" x1="233.527" y1="559.139" x2="343.288" y2="559.139" gradientUnits="userSpaceOnUse">
<stop stop-color="#FFE16F"/>
<stop offset="1" stop-color="#FFBB3F"/>
</linearGradient>
<linearGradient id="paint126_linear_451_3551" x1="233.534" y1="559.139" x2="343.276" y2="559.139" gradientUnits="userSpaceOnUse">
<stop stop-color="#FFE16F"/>
<stop offset="1" stop-color="#FFBB3F"/>
</linearGradient>
<linearGradient id="paint127_linear_451_3551" x1="233.528" y1="559.139" x2="343.284" y2="559.139" gradientUnits="userSpaceOnUse">
<stop stop-color="#FFE16F"/>
<stop offset="1" stop-color="#FFBB3F"/>
</linearGradient>
<linearGradient id="paint128_linear_451_3551" x1="233.528" y1="559.139" x2="343.283" y2="559.139" gradientUnits="userSpaceOnUse">
<stop stop-color="#FFE16F"/>
<stop offset="1" stop-color="#FFBB3F"/>
</linearGradient>
<linearGradient id="paint129_linear_451_3551" x1="233.535" y1="559.139" x2="343.278" y2="559.139" gradientUnits="userSpaceOnUse">
<stop stop-color="#FFE16F"/>
<stop offset="1" stop-color="#FFBB3F"/>
</linearGradient>
<linearGradient id="paint130_linear_451_3551" x1="233.528" y1="559.139" x2="343.282" y2="559.139" gradientUnits="userSpaceOnUse">
<stop stop-color="#FFE16F"/>
<stop offset="1" stop-color="#FFBB3F"/>
</linearGradient>
<linearGradient id="paint131_linear_451_3551" x1="149.165" y1="280.226" x2="497.829" y2="513.228" gradientUnits="userSpaceOnUse">
<stop stop-color="#DDF4FF"/>
<stop offset="1" stop-color="#AFE6FF"/>
</linearGradient>
<linearGradient id="paint132_linear_451_3551" x1="213.882" y1="112.341" x2="910.974" y2="578.188" gradientUnits="userSpaceOnUse">
<stop stop-color="#DDF4FF"/>
<stop offset="1" stop-color="#AFE6FF"/>
</linearGradient>
<linearGradient id="paint133_linear_451_3551" x1="14.686" y1="479.37" x2="254.841" y2="639.859" gradientUnits="userSpaceOnUse">
<stop stop-color="#DDF4FF"/>
<stop offset="1" stop-color="#AFE6FF"/>
</linearGradient>
<linearGradient id="paint134_linear_451_3551" x1="262.03" y1="31.0732" x2="703.284" y2="325.953" gradientUnits="userSpaceOnUse">
<stop stop-color="#DDF4FF"/>
<stop offset="1" stop-color="#D9FFFF"/>
</linearGradient>
<linearGradient id="paint135_linear_451_3551" x1="579.858" y1="143.728" x2="589.215" y2="143.728" gradientUnits="userSpaceOnUse">
<stop stop-color="#DDF4FF"/>
<stop offset="1" stop-color="#AFE6FF"/>
</linearGradient>
<linearGradient id="paint136_linear_451_3551" x1="624.121" y1="565.995" x2="633.478" y2="565.995" gradientUnits="userSpaceOnUse">
<stop stop-color="#DDF4FF"/>
<stop offset="1" stop-color="#AFE6FF"/>
</linearGradient>
<linearGradient id="paint137_linear_451_3551" x1="103.814" y1="231.334" x2="800.898" y2="697.18" gradientUnits="userSpaceOnUse">
<stop stop-color="#DDF4FF"/>
<stop offset="1" stop-color="#AFE6FF"/>
</linearGradient>
<linearGradient id="paint138_linear_451_3551" x1="518.913" y1="50.9877" x2="775.998" y2="222.791" gradientUnits="userSpaceOnUse">
<stop stop-color="#DDF4FF"/>
<stop offset="1" stop-color="#AFE6FF"/>
</linearGradient>
<linearGradient id="paint139_linear_451_3551" x1="113.37" y1="425.919" x2="810.462" y2="891.765" gradientUnits="userSpaceOnUse">
<stop stop-color="#DDF4FF"/>
<stop offset="1" stop-color="#AFE6FF"/>
</linearGradient>
<linearGradient id="paint140_linear_451_3551" x1="-18.4947" y1="482.556" x2="678.605" y2="948.408" gradientUnits="userSpaceOnUse">
<stop stop-color="#DDF4FF"/>
<stop offset="1" stop-color="#D9FFFF"/>
</linearGradient>
<linearGradient id="paint141_linear_451_3551" x1="627.291" y1="201.573" x2="1324.38" y2="667.415" gradientUnits="userSpaceOnUse">
<stop stop-color="#DDF4FF"/>
<stop offset="1" stop-color="#AFE6FF"/>
</linearGradient>
<linearGradient id="paint142_linear_451_3551" x1="731.346" y1="455.096" x2="1428.43" y2="920.944" gradientUnits="userSpaceOnUse">
<stop stop-color="#DDF4FF"/>
<stop offset="1" stop-color="#D9FFFF"/>
</linearGradient>
<linearGradient id="paint143_linear_451_3551" x1="570.194" y1="442.613" x2="953.983" y2="699.091" gradientUnits="userSpaceOnUse">
<stop stop-color="#DDF4FF"/>
<stop offset="1" stop-color="#D9FFFF"/>
</linearGradient>
<linearGradient id="paint144_linear_451_3551" x1="66.3733" y1="57.5179" x2="383.789" y2="269.638" gradientUnits="userSpaceOnUse">
<stop stop-color="#DDF4FF"/>
<stop offset="1" stop-color="#AFE6FF"/>
</linearGradient>
<linearGradient id="paint145_linear_451_3551" x1="282.361" y1="-86.5134" x2="979.452" y2="379.334" gradientUnits="userSpaceOnUse">
<stop stop-color="#DDF4FF"/>
<stop offset="1" stop-color="#AFE6FF"/>
</linearGradient>
<linearGradient id="paint146_linear_451_3551" x1="319.944" y1="63.7259" x2="1017.04" y2="529.574" gradientUnits="userSpaceOnUse">
<stop stop-color="#DDF4FF"/>
<stop offset="1" stop-color="#AFE6FF"/>
</linearGradient>
<linearGradient id="paint147_linear_451_3551" x1="140.535" y1="125.752" x2="837.613" y2="591.582" gradientUnits="userSpaceOnUse">
<stop stop-color="#DDF4FF"/>
<stop offset="1" stop-color="#AFE6FF"/>
</linearGradient>
<linearGradient id="paint148_linear_451_3551" x1="247.423" y1="81.2614" x2="944.515" y2="547.109" gradientUnits="userSpaceOnUse">
<stop stop-color="#DDF4FF"/>
<stop offset="1" stop-color="#D9FFFF"/>
</linearGradient>
<linearGradient id="paint149_linear_451_3551" x1="-2.49497" y1="359.602" x2="694.596" y2="825.449" gradientUnits="userSpaceOnUse">
<stop stop-color="#DDF4FF"/>
<stop offset="1" stop-color="#AFE6FF"/>
</linearGradient>
<linearGradient id="paint150_linear_451_3551" x1="260.658" y1="244.272" x2="274.154" y2="244.272" gradientUnits="userSpaceOnUse">
<stop stop-color="#DDF4FF"/>
<stop offset="1" stop-color="#AFE6FF"/>
</linearGradient>
<linearGradient id="paint151_linear_451_3551" x1="186.816" y1="330.83" x2="196.42" y2="340.451" gradientUnits="userSpaceOnUse">
<stop stop-color="#DDF4FF"/>
<stop offset="1" stop-color="#AFE6FF"/>
</linearGradient>
<linearGradient id="paint152_linear_451_3551" x1="510.657" y1="100.317" x2="526.48" y2="116.168" gradientUnits="userSpaceOnUse">
<stop stop-color="#DDF4FF"/>
<stop offset="1" stop-color="#AFE6FF"/>
</linearGradient>
<clipPath id="clip0_451_3551">
<rect width="902" height="707" fill="white" transform="translate(0 0.996094)"/>
</clipPath>
</defs>
</svg>
