<svg xmlns="http://www.w3.org/2000/svg" data-name="Layer 1" viewBox="0 0 1300 1000"><path fill="none" stroke="#f9d6af" stroke-dasharray="7.68" stroke-miterlimit="10" stroke-width="1.99" d="M344.38 653.21s-88.58-46.93-118.76-124.69C186.15 426.83 197 387.17 211.71 329.24c14.38-56.51 96.81-203.83 253.39-135.66s231.73-22.3 302.12-13.66 156.3-31.59 244.08-5.07 151.75 7.33 196.72 81.61c76 125.51 57.81 220.94-18.52 324.39"/><path fill="#fff4ea" d="M176.29 852.15s-165.88-128-122.1-192 117.89 30.31 117.89 30.31-53.84-163.8 18.37-177.46C260 499.87 301.3 611.3 301.3 611.3h367.6s52.21-103.57 117.89-66.52-32 169.25-32 169.25S818 640.79 865.1 675.32 762.37 852.15 762.37 852.15Z"/><path fill="#fff4ea" d="M754.79 714.05a477 477 0 0 0 29.12-39.65 355.83 355.83 0 0 0 24.39-42.52 219.7 219.7 0 0 0 9.25-22.58 126.08 126.08 0 0 0 5.69-23.53 87.64 87.64 0 0 0 .78-12 62.24 62.24 0 0 0-1.26-11.77 47 47 0 0 0-10.12-21c-10.52-11.63-25.22-20.68-41-21.78a55.89 55.89 0 0 0-23.39 3.34 86.62 86.62 0 0 0-21.17 11.38 134.88 134.88 0 0 0-18.27 16 181.78 181.78 0 0 0-15.69 18.75 203.72 203.72 0 0 0-24.19 42.63c1.35-3.88 2.86-7.7 4.49-11.48s3.44-7.48 5.33-11.14a207.11 207.11 0 0 1 12.65-21.24c9.35-13.56 20.34-26.23 33.69-36.27A85.93 85.93 0 0 1 746.93 519a66.86 66.86 0 0 1 12.25-3.27 56.38 56.38 0 0 1 12.72-.59 58.31 58.31 0 0 1 24.25 7.32 77 77 0 0 1 10.51 7 65.69 65.69 0 0 1 9.27 8.72 51.13 51.13 0 0 1 11 22.93 72.91 72.91 0 0 1 .39 25.21 128.87 128.87 0 0 1-6.16 24.21c-1.4 3.91-2.9 7.77-4.54 11.58s-3.42 7.54-5.26 11.24a327.46 327.46 0 0 1-25.67 42.24q-7.17 10-14.87 19.69c-5.17 6.44-10.46 12.72-16.03 18.77Zm-583.98-26.66c-2.46-3.77-5.13-7.39-7.89-10.94s-5.62-7-8.6-10.36A161.09 161.09 0 0 0 135 647.5a102.41 102.41 0 0 0-22.55-14.12 69.08 69.08 0 0 0-12.49-4.23 55 55 0 0 0-13-1.5A53.19 53.19 0 0 0 74 629.32 59.47 59.47 0 0 0 61.79 634a73.88 73.88 0 0 0-11.07 7.07 57.11 57.11 0 0 0-9.48 8.93 45.48 45.48 0 0 0-10.33 23.3 66 66 0 0 0 2 25.92 123.09 123.09 0 0 0 9.55 24.7c2 4 4.18 7.85 6.48 11.66s4.73 7.56 7.26 11.24a315.63 315.63 0 0 0 34.24 41.24c6.24 6.43 12.75 12.61 19.43 18.59s13.59 11.71 20.7 17.19c14.19 10.95 29.26 21 45.71 28.3A162.6 162.6 0 0 1 152 840.33q-5.85-3.42-11.52-7.12c-3.77-2.49-7.5-5-11.16-7.67a353.73 353.73 0 0 1-41.26-35.1 304.49 304.49 0 0 1-35.21-41.29 202 202 0 0 1-14.14-23.31 127.11 127.11 0 0 1-10-25.54 70.34 70.34 0 0 1-2-27.58 50.93 50.93 0 0 1 3.87-13.49 48.81 48.81 0 0 1 7.52-11.84A60.79 60.79 0 0 1 48.35 638a77.07 77.07 0 0 1 11.74-7.31 61.33 61.33 0 0 1 13-4.82 56.4 56.4 0 0 1 13.81-1.52 58.2 58.2 0 0 1 13.73 1.84 68 68 0 0 1 12.94 4.69 103.15 103.15 0 0 1 22.71 15.06 161.39 161.39 0 0 1 18.88 19.46 171 171 0 0 1 15.65 21.99Z"/><path fill="#fff4ea" d="M539.51 852.15s-165.89-128-122.1-192 117.89 30.32 117.89 30.32S481.45 526.66 553.66 513c69.55-13.13 110.85 98.3 110.85 98.3h367.6s52.21-103.55 117.89-66.5-32 169.25-32 169.25 63.16-73.26 110.31-38.73-102.73 176.83-102.73 176.83Z"/><path fill="#fff4ea" d="M1118 714.05a474.73 474.73 0 0 0 29.12-39.65 355.83 355.83 0 0 0 24.39-42.52 217.48 217.48 0 0 0 9.25-22.58 124.53 124.53 0 0 0 5.69-23.53 87.64 87.64 0 0 0 .78-12A61.44 61.44 0 0 0 1186 562a47 47 0 0 0-10.12-21c-10.52-11.63-25.22-20.68-41-21.78a55.82 55.82 0 0 0-23.38 3.34 86.5 86.5 0 0 0-21.18 11.38 134.88 134.88 0 0 0-18.27 16 181.78 181.78 0 0 0-15.69 18.75 203.72 203.72 0 0 0-24.19 42.63q2-5.82 4.49-11.48c1.65-3.77 3.44-7.48 5.33-11.14a208.93 208.93 0 0 1 12.65-21.24c9.36-13.56 20.35-26.23 33.69-36.27a85.82 85.82 0 0 1 21.82-12.19 66.54 66.54 0 0 1 12.24-3.27 56.44 56.44 0 0 1 12.73-.59 58.26 58.26 0 0 1 24.24 7.32 77 77 0 0 1 10.51 7 65.16 65.16 0 0 1 9.27 8.72 51.13 51.13 0 0 1 10.95 22.93 72.66 72.66 0 0 1 .39 25.21 128.87 128.87 0 0 1-6.16 24.21c-1.4 3.91-2.9 7.77-4.54 11.58s-3.42 7.54-5.26 11.24a327.46 327.46 0 0 1-25.67 42.24c-4.77 6.7-9.75 13.26-14.87 19.69S1123.57 708 1118 714.05Zm-584-26.66c-2.46-3.77-5.14-7.39-7.9-10.94s-5.61-7-8.6-10.36a161.09 161.09 0 0 0-19.36-18.59 102.34 102.34 0 0 0-22.54-14.12 68.92 68.92 0 0 0-12.5-4.23 55 55 0 0 0-13-1.5 53.19 53.19 0 0 0-12.93 1.67A59.7 59.7 0 0 0 425 634a73.88 73.88 0 0 0-11.07 7.07 57.5 57.5 0 0 0-9.48 8.94 45.48 45.48 0 0 0-10.33 23.3 66 66 0 0 0 2 25.92 123.09 123.09 0 0 0 9.55 24.7c2 4 4.19 7.85 6.48 11.66s4.73 7.56 7.26 11.24a317.23 317.23 0 0 0 34.24 41.24c6.24 6.43 12.75 12.61 19.43 18.59s13.6 11.71 20.7 17.19c14.19 10.95 29.26 21 45.72 28.3a162.23 162.23 0 0 1-24.3-11.82q-5.85-3.42-11.52-7.12c-3.77-2.49-7.49-5-11.16-7.67a353.73 353.73 0 0 1-41.26-35.1 305.21 305.21 0 0 1-35.21-41.29 200.5 200.5 0 0 1-14.13-23.31 125.93 125.93 0 0 1-10-25.54 70.34 70.34 0 0 1-2-27.58 50.93 50.93 0 0 1 3.87-13.49 48.81 48.81 0 0 1 7.52-11.84 61.18 61.18 0 0 1 10.25-9.39 77.56 77.56 0 0 1 11.74-7.31 61.33 61.33 0 0 1 13-4.82 56.43 56.43 0 0 1 13.82-1.52 58.12 58.12 0 0 1 13.72 1.84 67.8 67.8 0 0 1 12.94 4.69 103.15 103.15 0 0 1 22.71 15.06 161.39 161.39 0 0 1 18.88 19.46A172.06 172.06 0 0 1 534 687.39Z"/><path fill="#367194" d="M1226 863.45H118.5a5.72 5.72 0 0 1-5.7-5.7 5.72 5.72 0 0 1 5.7-5.7H1226a5.72 5.72 0 0 1 5.7 5.7 5.72 5.72 0 0 1-5.7 5.7ZM675.14 669.73h122.17v165.14H675.14z"/><rect width="463.7" height="32.4" x="504.37" y="820.7" fill="#367194" rx="6.92"/><path fill="none" stroke="#d2edf3" stroke-linecap="round" stroke-miterlimit="10" stroke-width="3.13" d="M719.8 821.94h242.43"/><rect width="757.88" height="493.39" x="357.28" y="246.35" fill="#367194" rx="79.6"/><rect width="442.96" height="707.45" x="514.74" y="139.32" fill="#e0f3fa" rx="49.76" transform="rotate(90 736.225 493.045)"/><path fill="#76d1f0" d="M1064.72 313.61v23.18h-657v-23.18a16.85 16.85 0 0 1 16.83-16.83h623.35a16.85 16.85 0 0 1 16.82 16.83Z"/><path fill="#fff" d="M1064.72 336.79v335.68a16.86 16.86 0 0 1-16.83 16.83H424.54a16.86 16.86 0 0 1-16.83-16.83V336.79Z"/><path fill="#099dc1" d="M450.05 318.06a6.45 6.45 0 1 1-6.45-6.46 6.45 6.45 0 0 1 6.45 6.46Z"/><path fill="#fff" d="M468.21 318.06a6.45 6.45 0 1 1-6.45-6.46 6.45 6.45 0 0 1 6.45 6.46Z"/><circle cx="479.92" cy="318.06" r="6.45" fill="#eb6a4e"/><path fill="#cdecf7" d="M839.38 351.25h-32.79a3 3 0 0 1-3-3 3 3 0 0 1 3-3h32.79a3 3 0 0 1 3 3 3 3 0 0 1-3 3Zm-366.44 0h-32.79a3 3 0 0 1-3-3 3 3 0 0 1 3-3h32.79a3 3 0 0 1 3 3 3 3 0 0 1-3 3Zm416.13 0h-32.79a3 3 0 0 1-3-3 3 3 0 0 1 3-3h32.79a3 3 0 0 1 3 3 3 3 0 0 1-3 3Zm49.68 0H906a3 3 0 0 1-3-3 3 3 0 0 1 3-3h32.79a3 3 0 0 1 3 3 3 3 0 0 1-3.04 3Zm49.68 0h-32.78a3 3 0 0 1-3-3 3 3 0 0 1 3-3h32.78a3 3 0 0 1 3 3 3 3 0 0 1-3 3Zm49.69 0h-32.79a3 3 0 0 1-3-3 3 3 0 0 1 3-3h32.79a3 3 0 0 1 3 3 3 3 0 0 1-3 3Z"/><path fill="#fff1e2" d="M429.66 373.72h354.8v219.77h-354.8z"/><path fill="none" stroke="#367194" stroke-linecap="round" stroke-linejoin="round" stroke-width=".36" d="M741 549.31s18.34 2.25 27.28-23.36"/><path fill="#367194" d="M768.6 522.68a9.19 9.19 0 0 0-.33 3.49 9.15 9.15 0 0 0 2.17-2.75c.54-1.37.31-2-.2-2.18s-1.09.08-1.64 1.44Zm-3.72 4.47a9.19 9.19 0 0 0 1.8 3 9.28 9.28 0 0 0 .11-3.5c-.37-1.42-.92-1.78-1.45-1.64s-.83.72-.46 2.14Zm4.44.7a9.08 9.08 0 0 0-2.64 2.3 9.05 9.05 0 0 0 3.46-.5c1.33-.61 1.59-1.22 1.36-1.71s-.85-.7-2.18-.09Zm-6.61 3.51a9.16 9.16 0 0 0 1.8 3 9.06 9.06 0 0 0 .11-3.5c-.37-1.42-.92-1.78-1.45-1.64s-.83.72-.46 2.14Zm4.95 1.47a9.13 9.13 0 0 0-3.15 1.54 9.18 9.18 0 0 0 3.47.41c1.45-.25 1.85-.76 1.76-1.3s-.64-.89-2.08-.65Zm-7.66 2.64a9.07 9.07 0 0 0 1.8 3 9.06 9.06 0 0 0 .11-3.5c-.37-1.42-.92-1.77-1.45-1.64s-.82.72-.46 2.14Zm5.14 1.92a9 9 0 0 0-3.33 1.08 8.91 8.91 0 0 0 3.38.89c1.47 0 1.94-.49 1.93-1s-.51-1.01-1.98-.97Zm-8.48 1.77a9.19 9.19 0 0 0 1.67 3.08 9 9 0 0 0 .26-3.49c-.3-1.44-.84-1.82-1.37-1.7s-.86.68-.56 2.11Zm5.12 2.51a9 9 0 0 0-3.45.57 9 9 0 0 0 3.22 1.38c1.45.18 2-.2 2.05-.74s-.36-1.04-1.82-1.21Zm-9.12.86a9.25 9.25 0 0 0 1.44 3.19 9.07 9.07 0 0 0 .52-3.46c-.21-1.45-.71-1.87-1.25-1.79s-.91.61-.71 2.06Zm4.94 3.36a9.12 9.12 0 0 0-3.5-.17 9.11 9.11 0 0 0 2.86 2c1.38.48 2 .22 2.16-.29s-.12-1.06-1.52-1.54Zm-9.37-1.15a9.1 9.1 0 0 0 1.19 3.29 9.07 9.07 0 0 0 .78-3.41c-.09-1.46-.56-1.92-1.1-1.89s-.96.54-.87 2.01Zm4.53 4.33a9.12 9.12 0 0 0-3.34-1 9.07 9.07 0 0 0 2.25 2.68c1.22.81 1.87.71 2.17.26s.16-1.13-1.08-1.94Z"/><path fill="none" stroke="#367194" stroke-linecap="round" stroke-linejoin="round" stroke-width=".28" d="M745.66 536.25s14.11-2.36 15.14-23.33"/><path fill="#367194" d="M760.31 510.42a7.14 7.14 0 0 0 .52 2.66 7.09 7.09 0 0 0 1-2.52c.1-1.13-.2-1.53-.62-1.57s-.79.3-.9 1.43Zm-1.79 4.13a7 7 0 0 0 2 1.84 7 7 0 0 0-.69-2.62c-.58-1-1.07-1.12-1.43-.9s-.46.71.12 1.68Zm3.48-.45a7 7 0 0 0-1.46 2.29 7.07 7.07 0 0 0 2.46-1.13c.86-.75.92-1.25.64-1.57s-.8-.33-1.64.41Zm-4.16 4.06a7.07 7.07 0 0 0 2 1.84 7.14 7.14 0 0 0-.68-2.63c-.59-1-1.07-1.11-1.44-.9s-.47.72.12 1.69Zm4 .01a7.14 7.14 0 0 0-2 1.83 7.07 7.07 0 0 0 2.68-.46c1-.5 1.2-1 1-1.35s-.66-.52-1.68-.02Zm-5.11 3.63a7 7 0 0 0 2 1.84A7 7 0 0 0 758 521c-.58-1-1.07-1.11-1.43-.89s-.42.72.16 1.69Zm4.27.31a7 7 0 0 0-2.24 1.53 7.08 7.08 0 0 0 2.71-.08c1.08-.35 1.33-.79 1.2-1.2s-.62-.61-1.67-.25Zm-5.94 3.17a7.13 7.13 0 0 0 1.94 1.92 7.08 7.08 0 0 0-.57-2.65c-.54-1-1-1.17-1.39-1s-.52.73.02 1.73Zm4.35.72a6.91 6.91 0 0 0-2.41 1.2 7 7 0 0 0 2.69.32c1.12-.19 1.44-.58 1.37-1s-.53-.69-1.65-.52Zm-6.58 2.66a7.08 7.08 0 0 0 1.77 2.05 7 7 0 0 0-.38-2.68c-.47-1-.94-1.24-1.32-1.06s-.54.65-.07 1.69Zm4.4 1.41a7.1 7.1 0 0 0-2.63.64 7 7 0 0 0 2.56.88c1.13.06 1.52-.27 1.54-.69s-.34-.78-1.47-.83Zm-7.23 1.2a7.16 7.16 0 0 0 1.6 2.18 7.08 7.08 0 0 0-.16-2.7c-.39-1.07-.84-1.31-1.24-1.16s-.57.61-.2 1.68Zm4.33 2.22a7.17 7.17 0 0 0-2.71 0 7 7 0 0 0 2.26 1.5c1.09.33 1.55.12 1.67-.29s-.13-.88-1.22-1.21Z"/><path fill="none" stroke="#367194" stroke-linecap="round" stroke-linejoin="round" stroke-width=".36" d="M726.1 549.87s-18.35 2.25-27.29-23.36"/><path fill="#367194" d="M698.5 523.24a9.07 9.07 0 0 1 .34 3.49 9.15 9.15 0 0 1-2.17-2.75c-.54-1.36-.31-2 .19-2.18s1.14.08 1.64 1.44Zm3.73 4.47a9.07 9.07 0 0 1-1.8 3 9.06 9.06 0 0 1-.11-3.5c.37-1.42.92-1.77 1.45-1.64s.83.72.46 2.14Zm-4.44.71a9.1 9.1 0 0 1 2.64 2.29 9.05 9.05 0 0 1-3.46-.5c-1.34-.61-1.59-1.21-1.37-1.71s.85-.69 2.19-.08Zm6.61 3.51a9.19 9.19 0 0 1-1.8 3 9.06 9.06 0 0 1-.11-3.5c.37-1.42.92-1.78 1.45-1.64s.83.72.46 2.14Zm-4.95 1.47a9 9 0 0 1 3.15 1.53 9.21 9.21 0 0 1-3.48.41c-1.44-.24-1.85-.76-1.76-1.3s.64-.89 2.09-.64Zm7.65 2.6a9.07 9.07 0 0 1-1.8 3 9 9 0 0 1-.11-3.49c.37-1.42.92-1.78 1.44-1.64s.84.74.47 2.13Zm-5.1 2a9.17 9.17 0 0 1 3.3 1 9.06 9.06 0 0 1-3.39.9c-1.46 0-1.93-.5-1.92-1s.51-.99 2.01-.9Zm8.44 1.72a8.94 8.94 0 0 1-1.66 3.08 9.17 9.17 0 0 1-.27-3.49c.31-1.43.84-1.81 1.38-1.7s.86.68.55 2.11Zm-5.12 2.51a9.07 9.07 0 0 1 3.46.57 9.11 9.11 0 0 1-3.22 1.39c-1.45.17-2-.21-2-.75s.31-1.03 1.76-1.21Zm9.12.86a9 9 0 0 1-1.44 3.2 9.22 9.22 0 0 1-.51-3.47c.2-1.45.71-1.87 1.25-1.79s.91.61.7 2.06Zm-4.93 3.36a9 9 0 0 1 3.49-.16 9 9 0 0 1-2.85 2c-1.38.47-2 .21-2.16-.3s.13-1.06 1.52-1.54Zm9.36-1.15a9 9 0 0 1-1.18 3.29 9.07 9.07 0 0 1-.78-3.41c.08-1.46.55-1.92 1.1-1.89s.99.55.86 2.01Zm-4.53 4.33a9.2 9.2 0 0 1 3.35-1 9 9 0 0 1-2.26 2.68c-1.22.81-1.86.71-2.16.26s-.15-1.13 1.07-1.94Z"/><path fill="none" stroke="#367194" stroke-linecap="round" stroke-linejoin="round" stroke-width=".28" d="M721.45 536.81s-14.12-2.35-15.14-23.33"/><path fill="#367194" d="M706.79 511a7 7 0 0 1-.51 2.66 7 7 0 0 1-1-2.51c-.11-1.13.2-1.54.62-1.58s.79.28.89 1.43Zm1.79 4.11a6.9 6.9 0 0 1-2 1.84 7.06 7.06 0 0 1 .68-2.62c.59-1 1.08-1.12 1.44-.9s.47.71-.12 1.68Z"/><path fill="#367194" d="M705.13 514.67a7.09 7.09 0 0 1 1.46 2.28 7.17 7.17 0 0 1-2.47-1.13c-.85-.75-.91-1.25-.63-1.57s.78-.33 1.64.42Zm4.14 4.05a7 7 0 0 1-2 1.84 7 7 0 0 1 .69-2.62c.58-1 1.07-1.12 1.43-.9s.46.71-.12 1.68Zm-4 .01a7 7 0 0 1 2 1.83 7 7 0 0 1-2.67-.46c-1-.5-1.21-1-1-1.35s.65-.52 1.67-.02Zm5.1 3.63a6.9 6.9 0 0 1-2 1.84 7.06 7.06 0 0 1 .68-2.62c.59-1 1.07-1.12 1.44-.9s.51.71-.12 1.68Z"/><path fill="#367194" d="M706.14 522.67a7 7 0 0 1 2.24 1.53 7.08 7.08 0 0 1-2.71-.08c-1.08-.35-1.33-.79-1.2-1.19s.59-.61 1.67-.26Zm5.91 3.17a7 7 0 0 1-1.92 1.92 7 7 0 0 1 .58-2.65c.54-1 1-1.16 1.39-1s.49.73-.05 1.73Zm-4.35.74a6.93 6.93 0 0 1 2.43 1.18 7 7 0 0 1-2.69.32c-1.12-.18-1.43-.58-1.36-1s.5-.69 1.62-.5Zm6.58 2.64a7.08 7.08 0 0 1-1.77 2 7 7 0 0 1 .38-2.68c.47-1 .93-1.23 1.32-1.06s.54.71.07 1.74Zm-4.4 1.41a7.1 7.1 0 0 1 2.63.64 7.15 7.15 0 0 1-2.56.89c-1.14.05-1.53-.28-1.55-.7s.34-.78 1.48-.83Zm7.21 1.2a7.08 7.08 0 0 1-1.61 2.19 7 7 0 0 1 .17-2.71c.39-1.07.84-1.3 1.23-1.16s.59.61.21 1.68Zm-4.32 2.22a7.07 7.07 0 0 1 2.71 0 6.91 6.91 0 0 1-2.26 1.49c-1.08.34-1.54.12-1.66-.28s.13-.87 1.21-1.21Z"/><path fill="#de9527" d="M478.68 480.61h175.71v.89H478.68z" transform="rotate(-77.13 566.539 481.053)"/><path fill="#de9527" d="M509.71 393.21h.89V568.9h-.89z" transform="rotate(-12.83 510.007 480.968)"/><path fill="#de9527" d="M463.86 477.99h172.38v.89H463.86z" transform="rotate(-84.06 550.007 478.438)"/><path fill="#de9527" d="M527.19 391.29h.89v175.79h-.89z" transform="rotate(-5.33 527.275 478.834)"/><path fill="#258b84" d="M581.39 413.53s14-2.45 22 7.6a44.87 44.87 0 0 0 20 13.86l6.26-16.51s-6.89-1.68-16.56-13c-7.4-8.68-21.59-11.63-27.41-10.13Z"/><path fill="#e5beda" d="M556.78 409.33s12.78-2.89 20.85 3.24 13.77 10.51 23.65 11.56l2.42-19.24s-4.21 1.16-14-6-17.12-12.59-31.22-6.19Z"/><path fill="#f283a9" d="M520.84 411.05s6.55-2.88 12.62 1.1 4.91 11.4 16.74 13.77l-.75-18s-6.36-2.21-11.68-10.67c-6.06-9.62-18.74-5.55-18.74-5.55Z"/><path fill="#f4827e" d="M496.17 417.64s-13-1.05-17 7.92-8.38 21.38-29.11 23.93l-7.5-23.95s19.58-3.61 24.63-17.17 23.92-13 23.92-13Z"/><path fill="#de9527" d="M518.01 385h.89v182.97h-.89z" transform="rotate(-9.52 518.68 476.646)"/><path fill="#fecc8b" d="M507 405.71s-14.72 2.2-15.94 16.66-12.73 18.77-12.73 18.77L471.91 420a45.71 45.71 0 0 0 9.59-19.07c3.31-14.7 22.24-14.7 22.24-14.7Z"/><path fill="#de9527" d="M578.88 593.49h-81.4a37.21 37.21 0 0 1 34.15-33.61c.94-.07 1.9-.11 2.86-.11h7.35a37.19 37.19 0 0 1 37.04 33.72Z"/><path fill="#f7a841" d="M565.85 593.49h-68.37a37.21 37.21 0 0 1 34.15-33.61 37.19 37.19 0 0 1 34.22 33.61Z"/><path fill="#faac56" d="M578.88 581.1a3 3 0 0 1-3 3h-75.36a3 3 0 0 1-3-3 3 3 0 0 1 .89-2.14 3 3 0 0 1 2.15-.89h75.33a3 3 0 0 1 2.99 3.03Z"/><path fill="#fdc07c" d="M571 581.1a3.06 3.06 0 0 1-3 3h-67.48a3 3 0 0 1-3-3 3 3 0 0 1 .89-2.14 3 3 0 0 1 2.15-.89H568a3 3 0 0 1 3 3.03Z"/><path fill="#faac56" d="M582.27 590.46a3.06 3.06 0 0 1-3 3h-82.14a3 3 0 0 1-3-3 3.06 3.06 0 0 1 3-3h82.11a3 3 0 0 1 3.03 3Z"/><path fill="#fdc07c" d="M575.12 590.46a3.06 3.06 0 0 1-3 3h-75a3 3 0 0 1-3-3 3.06 3.06 0 0 1 3-3h75a3 3 0 0 1 3 3Z"/><path fill="none" stroke="#fed3a3" stroke-linecap="round" stroke-linejoin="round" stroke-width=".67" d="M516.23 567.52a32.94 32.94 0 0 1 4.15-2.2 34.35 34.35 0 0 1 11.37-2.91h.08c.87-.07 1.77-.1 2.67-.1m-28.1 14.38a35.3 35.3 0 0 1 3.6-4.23 34.74 34.74 0 0 1 4-3.42"/><path fill="#248985" d="M701.38 450.16h63.98v19.67h-63.98z"/><path fill="#ffcb75" d="M760.65 454.87h-21.26a7.9 7.9 0 0 0-12 0h-21.3v10.25h21.25a7.9 7.9 0 0 0 12 0h21.26Z"/><path fill="#0e4b43" d="M759.82 472.83h-52.9l-5.54-3h63.98l-5.54 3z"/><path fill="#ffcb75" d="M706.92 472.83h52.89v1.95h-52.89z"/><path fill="#248985" d="M747.18 582.77h-27.64l-11.08-107.99h49.8l-11.08 107.99z"/><path fill="#0e4b43" d="M709.22 582.77h48.28v10.59h-48.28z"/><path fill="none" stroke="#248985" stroke-miterlimit="10" stroke-width=".64" d="m717.67 452.08 5.47-13.2"/><path fill="#248985" d="M722.37 441.32a2.11 2.11 0 0 1-1.14-2.75l1.33-3.2a2.11 2.11 0 0 1 2.75-1.14 2.11 2.11 0 0 1 1.13 2.75l-1.33 3.2a2.1 2.1 0 0 1-2.74 1.14Z"/><path fill="none" stroke="#248985" stroke-miterlimit="10" stroke-width=".64" d="m749.07 452.08-5.47-13.2"/><path fill="#248985" d="M744.37 441.32a2.11 2.11 0 0 0 1.13-2.75l-1.33-3.2a2.1 2.1 0 0 0-2.74-1.14 2.11 2.11 0 0 0-1.14 2.75l1.33 3.2a2.11 2.11 0 0 0 2.75 1.14Z"/><path fill="#d2edf3" d="M577.69 406.33a2.42 2.42 0 0 0-2.42 2.42V443l5.65-5.87h21.58a2.42 2.42 0 0 0 2.42-2.42v-25.96a2.42 2.42 0 0 0-2.42-2.42Z"/><path fill="#fff" d="M599.27 410.05v23.34h-18.35v-17.86l6.51-5.48h11.84z"/><path fill="#84c4be" d="M587.43 410.05v5.56h-6.51l6.51-5.56z"/><path fill="none" stroke="#d2edf3" stroke-linecap="round" stroke-linejoin="round" stroke-width=".41" d="M596.49 415.61h-6.4m6.75 3.01h-13.5m13.5 2.7h-13.5m13.5 2.7h-13.5m13.5 2.7h-13.5m13.5 2.7h-13.5"/><path fill="none" stroke="#e84554" stroke-miterlimit="10" stroke-width=".7" d="m597.44 431.95 1.83 3.78 5.65-10.08"/><path fill="#f58e83" d="M571.48 583.54h8.69l.78 4.45h-8.56l-.91-4.45z"/><path fill="#631418" d="M580.3 588h5a4.82 4.82 0 0 1 4.76 5.37h-17l-.68-5.37Z"/><path fill="#f58e83" d="M540.19 583.54h8.54l-.68 4.45h-8.42l.56-4.45z"/><path fill="#4c294c" d="M554.48 497.95 570.91 587h12.19l-6.43-87.09-22.19-1.96z"/><path fill="#4c294c" d="m541.29 499.91 25.3-.3-15.5 87.39h-13.26l3.46-87.09z"/><path fill="none" stroke="#937b94" stroke-linecap="round" stroke-miterlimit="10" stroke-width=".33" d="m560.73 532.21 1.78-10.06m2.26 0h-4.65"/><path fill="#381938" d="m577.28 508.1-15.29 3.89-1.6-1.66-1.54 1.88-17.97-1.8.2-5.16 35.65-2.76.55 5.61z"/><path fill="#4c294c" d="m574.76 454.59-9.55-3-6.26-.46-7.69.58-11.53 3.69v52.92c4.57.78 18.53 2.48 18.53 2.48l2.11-2.27 2.07 1.91 15.72-3.63c-1.26-16.81-3.4-52.22-3.4-52.22Z"/><path fill="#f4a799" d="M533 509.38s2.14 4.66 2.62 6.23.45 5.72.89 7.92 1.93 4.87 2.44 4.79a.41.41 0 0 0 .38-.52s1.35 1.89 2 1.7.27-.53.27-.53 1.2.85 1.71.56-.1-1-.1-1 .92.23 1.23-.34-1-2.55-1.49-3.55-1.35-3.42-1.17-3.76 2.07 2.53 2.73 2.27-1.17-4.8-2-6.37a11.1 11.1 0 0 1-1.58-4.13c-.42-2.1-.92-4-.92-4Z"/><path fill="#fff" d="m565.21 451.54-6.77-2.17-7.18 2.29 7.59 20.75 6.36-20.87z"/><path fill="#631418" d="M547.41 588h4.93a4.79 4.79 0 0 1 4.67 5.37H539l.62-5.37Z"/><path fill="#f4a799" d="M552.9 443.57v7.31c0 2.84 2.33 4.44 5.16 4.44s5.16-1.6 5.16-4.44v-7.31a5.17 5.17 0 0 0-5.16-5.16 5.11 5.11 0 0 0-3.64 1.52 4.63 4.63 0 0 0-.5.58 5.07 5.07 0 0 0-1.02 3.06Z"/><path fill="#f58e83" d="M553.92 440.51v1.87a7.8 7.8 0 0 0 7.78 7.78 14.55 14.55 0 0 0 1.52-.08v-6.51a5.17 5.17 0 0 0-5.16-5.16 5.11 5.11 0 0 0-3.64 1.52 4.63 4.63 0 0 0-.5.58Z"/><path fill="#f4a799" d="M559.62 448.17c4.35 0 7-1.64 6-7.2a53.51 53.51 0 0 1-.57-7.45 6.66 6.66 0 0 0-6.63-6.63 6.65 6.65 0 0 0-6.63 6.63v6.87a7.8 7.8 0 0 0 7.83 7.78Z"/><path fill="#4c294c" d="M530.22 497a6.22 6.22 0 0 0 7.71-4.19l8.72-29.52a6.22 6.22 0 0 0-4.2-7.71 6.21 6.21 0 0 0-7.7 4.19L526 489.31a6.23 6.23 0 0 0 4.22 7.69Zm63.94-6.58a6.21 6.21 0 0 0 1.44-8.65l-17.89-25a6.23 6.23 0 0 0-8.66-1.45 6.24 6.24 0 0 0-1.44 8.66l17.9 25a6.21 6.21 0 0 0 8.65 1.44Z"/><path fill="#4c294c" d="M584.49 483.45a6.43 6.43 0 0 0 4.33 8l25.22 6 2.71-9.43-24.3-8.89a6.42 6.42 0 0 0-7.96 4.32Zm-53.99 1.37a6.43 6.43 0 0 0-4.46 7.89l8 24.65 10.11-2.89-5.79-25.18a6.43 6.43 0 0 0-7.86-4.47Z"/><path fill="#fff" d="m534.43 518.26 10.16-2.8-.56-3.81-11.08 3.06 1.48 3.55z"/><path fill="#381938" d="M563.86 450.93a3.26 3.26 0 0 1 2 .81l.61 7.49-3.91 2.54 1.53 3.38s-4.36 4.86-5.25 7.52a42.93 42.93 0 0 1 1.39-10.2c.96-3.35 3.63-11.54 3.63-11.54Z"/><path fill="#fff" d="m563.22 450.46-4.98 4.81 1.35 3.57 4.59-7.87-.96-.51z"/><path fill="none" stroke="#68c1ed" stroke-miterlimit="10" stroke-width=".12" d="m558.24 455.27 1.35 3.57 2.92-4.79"/><path fill="#381938" d="M552.31 451.08a1.85 1.85 0 0 0-1.73.78l.19 7.31 3 2.74-.5 3.36s4.79 4.81 5.55 8c.03 0 .74-9.97-6.51-22.19Z"/><path fill="#fff" d="m558.24 455.27-5.34-4.81-1.06.62 5.3 7.76 1.1-3.57z"/><path fill="none" stroke="#68c1ed" stroke-miterlimit="10" stroke-width=".12" d="m558.24 455.27-1.1 3.57-2.04-2.92"/><path fill="none" stroke="#937b94" stroke-linecap="round" stroke-miterlimit="10" stroke-width=".33" d="m558.85 472.32 1.52 35.45m-20.64-21.04 3.08-10.42M554.48 495l-.15 8.06a2.54 2.54 0 0 1-2.32 2.7l-5.43-.1a2.55 2.55 0 0 1-2.21-2.79l.15-8.05Zm21.15-1 .52 8a2.55 2.55 0 0 1-2.09 2.89l-5.42.34a2.55 2.55 0 0 1-2.44-2.59l-.51-8Z"/><path fill="#f0876e" d="M639.19 528c-.53-.07-.73-4.14-.73-4.14s-.25 5.29-.94 5.33-.71-4.51-.71-4.51-.23 5.55-1.12 5.49-.57-5-.57-5c-.12.81-.55 4.24-1 4.2s-.55-1-.52-1.89.25-6.68-.21-6.77-1.09 2.4-1.54 3.16-1.1.88-1 .1a42.2 42.2 0 0 1 1.3-5.66 15.72 15.72 0 0 1 1.88-3.58 17.43 17.43 0 0 0 1.56-3.95l4.24 1.39c0 .77-.6 1.4-.6 1.91a8.61 8.61 0 0 0 .34 2.55 19.86 19.86 0 0 1 .24 4.54c-.19 1.23-.08 6.89-.62 6.83Z"/><path fill="#36241c" d="M566.14 428.83c-.68-2.12-4.48-4-8-2.86a32.53 32.53 0 0 0-4.23 2.17s-4.88-1.44-4.7 6 3.47 8.58 3.56 11.24c0 0 2.6-.74 2.56-4.46a11.8 11.8 0 0 1 1.24-5.83 23.34 23.34 0 0 0 5.67-.29c3.52-1.11 4.59-3.86 3.9-5.97Z"/><path fill="#f4a799" d="M555.2 438.56c1 1.33 1.71 2.38 1.2 2.93a3 3 0 0 1-3.77-.29c-1.09-1.06-1-2.14-.32-2.87a1.81 1.81 0 0 1 2.89.23Z"/><path fill="none" stroke="#36241c" stroke-linecap="round" stroke-miterlimit="10" stroke-width=".28" d="M552 427.19a2.25 2.25 0 0 1 2.11 1.58"/><path fill="none" stroke="#36241c" stroke-linecap="round" stroke-miterlimit="10" stroke-width=".28" d="M555 426.09a3.79 3.79 0 0 0-.89 2.82"/><path fill="#f0876e" d="M643.7 583.54H635l-.78 4.45h8.57l.91-4.45z"/><path fill="#242423" d="M634.87 588h-5a4.81 4.81 0 0 0-4.75 5.37h17l.68-5.37Zm4.65-103.58a6.43 6.43 0 0 1 5.76 7l-3.66 25.66-10.46-1.08 1.36-25.81a6.42 6.42 0 0 1 7-5.77Z"/><path fill="#fff" d="m630.99 513.9 10.5.72-.51 3.66-9.73-.81-.26-3.57z"/><path fill="#f0876e" d="M674.99 583.54h-8.55l.69 4.45h8.41l-.55-4.45z"/><path fill="#242423" d="M660.69 497.95 644.26 587h-12.18l6.43-87.09 22.18-1.96z"/><path fill="#242423" d="m673.88 499.91-25.29-.3 15.5 87.39h13.26l-3.47-87.09z"/><path fill="#090907" d="M637.88 508.45s12.74 2.93 14 3.28l2.9-1.23 2.4 1.75 17.08-2.33-.17-5.41-35.84-.51Z"/><path fill="none" stroke="#767673" stroke-linecap="round" stroke-miterlimit="10" stroke-width=".33" d="m654.44 532.21-1.77-10.06m-2.26 0h4.64"/><path fill="#242423" d="m640.42 454.59 9.54-3 6.26-.46 7.7.58 11.52 3.69v52.92c-4.56.78-18.52 2.48-18.52 2.48l-2.12-2.27-2.07 1.91-15.73-3.68c1.28-16.76 3.42-52.17 3.42-52.17Z"/><path fill="#fff" d="m649.96 451.54 6.77-2.17 7.19 2.29-7.6 20.75-6.36-20.87z"/><path fill="#242423" d="M667.76 588h-4.92a4.78 4.78 0 0 0-4.67 5.37h18.05l-.63-5.37Z"/><path fill="#f0876e" d="M662.27 443.57v7.31c0 2.84-2.32 4.44-5.16 4.44s-5.15-1.6-5.15-4.44v-7.31a5.15 5.15 0 0 1 8.8-3.64 4.55 4.55 0 0 1 .49.58 5.07 5.07 0 0 1 1.02 3.06Z"/><path fill="#e8745e" d="M661.25 440.51v1.87a7.8 7.8 0 0 1-7.78 7.78 14.35 14.35 0 0 1-1.51-.08v-6.51a5.15 5.15 0 0 1 8.8-3.64 4.55 4.55 0 0 1 .49.58Z"/><path fill="#f0876e" d="M655.56 448.17c-4.36 0-7-1.64-6-7.2a53.51 53.51 0 0 0 .57-7.45 6.65 6.65 0 0 1 6.63-6.63 6.66 6.66 0 0 1 6.63 6.63v6.87a7.8 7.8 0 0 1-7.83 7.78Z"/><path fill="#242423" d="M638.08 496.86a6.23 6.23 0 0 1-5.34-7l4-30.51a6.23 6.23 0 0 1 7-5.33 6.22 6.22 0 0 1 5.34 7l-4.08 30.5a6.21 6.21 0 0 1-6.92 5.34Z"/><path fill="#f7a841" d="M662.68 428.29s-5.38-5.13-10.55-6.29c-1.09-.25-2.85-.39-3.49.75-.42.76-.25 1.87.59 3.16-2.47 1.1-4 3.14-3.51 5 .57 2.19 3.7 3.28 7 2.42a9.75 9.75 0 0 0 1-.3c2.38-.66 4.42-1.64 5.69.79s.43 3.13 1.23 5.49-.63 4.63 1.66 6.77a37.36 37.36 0 0 1 2.12-7.28c1.28-2.8 3.58-10.62-1.74-10.51Z"/><path fill="none" stroke="#f7a841" stroke-linecap="round" stroke-miterlimit="10" stroke-width=".28" d="M654 433.79s4.48-1.38 5.74-2.55"/><path fill="#f0876e" d="M660 438.56c-1 1.33-1.7 2.38-1.2 2.93a3 3 0 0 0 3.77-.29c1.1-1.06 1-2.14.33-2.87a1.82 1.82 0 0 0-2.9.23Z"/><path fill="#090907" d="M651.32 450.93a3.24 3.24 0 0 0-2 .81l-.61 7.49 3.9 2.54-1.52 3.38s4.36 4.86 5.24 7.52a42.93 42.93 0 0 0-1.39-10.2c-.94-3.35-3.62-11.54-3.62-11.54Z"/><path fill="#fff" d="m651.96 450.46 4.98 4.81-1.36 3.57-4.59-7.87.97-.51z"/><path fill="none" stroke="#453b5e" stroke-miterlimit="10" stroke-width=".12" d="m656.94 455.27-1.36 3.57-2.92-4.79"/><path fill="#090907" d="M662.87 451.08a1.85 1.85 0 0 1 1.73.78l-.19 7.31-3 2.74.49 3.36s-4.78 4.81-5.55 8c-.03 0-.73-9.97 6.52-22.19Z"/><path fill="#fff" d="m656.94 455.27 5.33-4.81 1.06.62-5.3 7.76-1.09-3.57z"/><path fill="none" stroke="#453b5e" stroke-miterlimit="10" stroke-width=".12" d="m656.94 455.27 1.09 3.57 2.05-2.92"/><path fill="none" stroke="#767673" stroke-linecap="round" stroke-miterlimit="10" stroke-width=".33" d="m656.32 472.32-1.52 35.45"/><path fill="#242423" d="M661 495.77a6.22 6.22 0 0 1-3.77-7.92l10.3-29a6.22 6.22 0 0 1 7.92-3.77 6.23 6.23 0 0 1 3.77 7.93l-10.3 29a6.23 6.23 0 0 1-7.92 3.76Z"/><path fill="#242423" d="M669.45 487.2a6.44 6.44 0 0 1-5.27 7.38l-25.73 3.14-1.66-10.39 25.28-5.4a6.44 6.44 0 0 1 7.38 5.27Z"/><path fill="#f0876e" d="m615.63 495.3 5.71 2.67 6.29-5.22-11.55-2.52-.45 5.07z"/><path fill="#f4a799" d="m620.75 495.42 5.74-2.14-1.16-1.38 2.2-.91a2.82 2.82 0 0 1 2.31.07 3 3 0 0 0 2.32.11l1.2-.45a.59.59 0 0 1 .78.72.94.94 0 0 0 .66 1.77.94.94 0 0 0 .66 1.77.94.94 0 0 1-.56 1.21.95.95 0 1 1 .64 1.78l-12.13 4.52a1 1 0 0 1-1.18-.41 1 1 0 0 0-.72-1.91.94.94 0 1 0-.66-1.77.94.94 0 1 0-.66-1.77.94.94 0 0 1 .56-1.21Z"/><path fill="#fff" d="m631.94 489.65 2.94 9.57 4.53-.3-3.36-11.24-4.11 1.97z"/><path fill="none" stroke="#f0876e" stroke-linecap="round" stroke-linejoin="round" stroke-width=".11" d="m621.41 497.19 2.54-.88m-1.88 2.65 2.49-.86m-1.84 2.63 2.48-.94"/><path fill="#f0876e" d="M626.78 496c.1.64.46 1.1 1.06.85a1.37 1.37 0 0 0 .69-1 5.81 5.81 0 0 0 .08-1.39 4.37 4.37 0 0 0-2.44-4l-2-.88a2.86 2.86 0 0 0-1.8-.16l-.72.16a2.89 2.89 0 0 1-1.46 0l-4.79-1.41-.77 5.1 3.23.81a4 4 0 0 0 3-.42l.45-.26a3.57 3.57 0 0 1 3-.29h.07a3.69 3.69 0 0 1 2.4 2.89Zm.97 6.24a.85.85 0 0 1-1.2-.39l-.77-1.68a.62.62 0 0 1 .33-.76.64.64 0 0 1 .83.09L628 501a.86.86 0 0 1-.25 1.24Z"/><path fill="#f0876e" d="M629.18 501.5a.85.85 0 0 1-1.2-.39l-.76-1.68a.62.62 0 0 1 .33-.76.64.64 0 0 1 .82.09l1.08 1.51a.85.85 0 0 1-.27 1.23Z"/><path fill="#f0876e" d="M630.74 500.86a.85.85 0 0 1-1.2-.39l-.77-1.68a.63.63 0 0 1 .33-.76.65.65 0 0 1 .83.09l1.07 1.51a.85.85 0 0 1-.26 1.23Z"/><path fill="#f0876e" d="M632.18 500.07a.86.86 0 0 1-1.2-.39l-.76-1.68a.62.62 0 0 1 .33-.76.63.63 0 0 1 .82.09l1.08 1.5a.86.86 0 0 1-.27 1.24Z"/><path fill="#fff" d="m618.15 488.1-2.46 9.7-4.53-.07 2.79-11.4 4.2 1.77z"/><path fill="none" stroke="#f4a799" stroke-linecap="round" stroke-linejoin="round" stroke-width=".11" d="M625.69 493.91a3.81 3.81 0 0 0-2.52-1"/><path fill="none" stroke="#767673" stroke-linecap="round" stroke-miterlimit="10" stroke-width=".33" d="M639.76 497.56s26.55-3 28-3.13c3.78-.4 7.31-19.65 7.31-19.65m-37.19 12.32 21.22-4.53 4.23-11.92m-25.45 14.59 1.01-18.08"/><path fill="#d2edf3" d="M616.59 428.78v13.87a1 1 0 0 0 1 1h11.11l3.79 3.93v-18.8a1 1 0 0 0-1-1h-13.88a1 1 0 0 0-1.02 1Z"/><path fill="none" stroke="#e84554" stroke-miterlimit="10" stroke-width=".68" d="m619.04 435.35 3.58 6.2 10.08-14.3"/><path fill="#d2edf3" d="M700.82 392.66a3 3 0 0 0-3 3v35l7.87-7.38h48.56a3 3 0 0 0 3-3v-24.65a3 3 0 0 0-3-3Z"/><path fill="#fff" d="M751.53 398.71h-47.94a.75.75 0 0 1-.75-.75.75.75 0 0 1 .75-.74h47.94a.74.74 0 0 1 .74.74.74.74 0 0 1-.74.75Zm0 3.99h-47.94a.76.76 0 0 1-.75-.75.76.76 0 0 1 .75-.75h47.94a.75.75 0 0 1 .74.75.75.75 0 0 1-.74.75Zm0 3.98h-47.94a.76.76 0 0 1-.75-.75.75.75 0 0 1 .75-.74h47.94a.74.74 0 0 1 .74.74.75.75 0 0 1-.74.75Zm0 3.98h-47.94a.75.75 0 0 1-.75-.74.76.76 0 0 1 .75-.75h47.94a.75.75 0 0 1 .74.75.74.74 0 0 1-.74.74Zm0 3.99h-47.94a.76.76 0 0 1-.75-.75.76.76 0 0 1 .75-.75h47.94a.75.75 0 0 1 .74.75.75.75 0 0 1-.74.75Zm-21.8 4.13h-26.14a.75.75 0 0 1-.75-.74.75.75 0 0 1 .75-.75h26.14a.75.75 0 0 1 .75.75.75.75 0 0 1-.75.74Z"/><path fill="#d2edf3" d="M501.2 427v11.63a1.72 1.72 0 0 0 1.72 1.72h32.73l6.21 4.43V427a1.72 1.72 0 0 0-1.72-1.72h-37.22a1.72 1.72 0 0 0-1.72 1.72Z"/><path fill="#fff" d="M524.85 432.78a3 3 0 1 1-3-3 3 3 0 0 1 3 3Zm-8.06 0a3 3 0 1 1-3-3 3 3 0 0 1 3 3Zm16.12 0a3 3 0 1 1-3-3 3 3 0 0 1 3 3Z"/><path fill="#76d1f0" d="M678.13 610.49H432.41a2.76 2.76 0 0 1-2.75-2.75 2.76 2.76 0 0 1 2.75-2.75h245.72a2.75 2.75 0 0 1 2.74 2.75 2.75 2.75 0 0 1-2.74 2.75Z"/><path fill="#cdecf7" d="M781.71 642.09h-349.3a2.76 2.76 0 0 1-2.75-2.75 2.76 2.76 0 0 1 2.75-2.75h349.3a2.76 2.76 0 0 1 2.75 2.75 2.76 2.76 0 0 1-2.75 2.75Zm0 11.44h-349.3a2.75 2.75 0 0 1-2.75-2.75 2.75 2.75 0 0 1 2.75-2.74h349.3a2.75 2.75 0 0 1 2.75 2.74 2.75 2.75 0 0 1-2.75 2.75Zm0 11.47h-349.3a2.75 2.75 0 0 1-2.75-2.74 2.75 2.75 0 0 1 2.75-2.75h349.3a2.75 2.75 0 0 1 2.75 2.75 2.75 2.75 0 0 1-2.75 2.74Z"/><path fill="#76d1f0" d="M621.42 623h-189a2.76 2.76 0 0 1-2.75-2.75 2.76 2.76 0 0 1 2.75-2.75h189a2.75 2.75 0 0 1 2.75 2.75 2.75 2.75 0 0 1-2.75 2.75Z"/><path fill="#cdecf7" d="m607.06 684.63 6.85-11.87h-13.7l6.85 11.87z"/><path fill="#e0f3fa" d="M828.36 373.72h214.4V487.1h-214.4z"/><path fill="none" stroke="#d2edf3" stroke-linecap="round" stroke-linejoin="round" stroke-width="1.78" d="M806.59 373.72v3.56"/><path fill="none" stroke="#d2edf3" stroke-dasharray="7.14 7.14" stroke-linecap="round" stroke-linejoin="round" stroke-width="1.78" d="M806.59 384.41v281.91"/><path fill="none" stroke="#d2edf3" stroke-linecap="round" stroke-linejoin="round" stroke-width="1.78" d="M806.59 669.89v3.56"/><path fill="#76d1f0" d="M954.07 504H831.19a2.84 2.84 0 0 1-2.83-2.82 2.84 2.84 0 0 1 2.83-2.83h122.88a2.83 2.83 0 0 1 2.82 2.83 2.83 2.83 0 0 1-2.82 2.82ZM987 516.48H831a2.59 2.59 0 0 1-2.58-2.58 2.58 2.58 0 0 1 2.58-2.57h156a2.58 2.58 0 0 1 2.58 2.57 2.59 2.59 0 0 1-2.58 2.58Z"/><path fill="#e0f3fa" d="M828.36 533.61h214.4v113.38h-214.4z"/><path fill="#76d1f0" d="M1016.83 663.89H831.19a2.84 2.84 0 0 1-2.83-2.82 2.84 2.84 0 0 1 2.83-2.83h185.64a2.83 2.83 0 0 1 2.82 2.83 2.83 2.83 0 0 1-2.82 2.82ZM987 676.37H831a2.59 2.59 0 0 1-2.58-2.58 2.58 2.58 0 0 1 2.58-2.57h156a2.58 2.58 0 0 1 2.58 2.57 2.59 2.59 0 0 1-2.58 2.58Z"/><path fill="#fff" d="m962.03 590.3-52.93-30.56v61.11l52.93-30.55z"/><path fill="#f0876e" d="M291.93 819.95h28.49l2.56 14.6h-28.07l-2.98-14.6z"/><path fill="#631418" d="M320.86 834.55h16.42a15.8 15.8 0 0 1 15.58 17.6h-55.72l-2.23-17.6Z"/><path fill="#f0876e" d="M183.38 819.95h28l-2.24 14.6h-27.59l1.83-14.6z"/><path fill="#154a64" d="m236.21 539.4 47.18 285.81h48.63l-26.63-290.62-69.18 4.81z"/><path fill="#154a64" d="m196.52 536.4 73.4 8.43-49.52 280.38h-43.46l19.58-288.81z"/><path fill="#ea5d2a" d="m303.48 401.16-31.29-10-20.52-1.5-25.22 1.91-37.79 12.09v173.45c38.41 6.61 122.59-4.53 122.59-4.53.83-50.39-7.77-171.42-7.77-171.42Z"/><path fill="#fff" d="M272.19 391.14 250 384.02l-23.56 7.54 24.15 39.16 21.6-39.58z"/><path fill="#fff" d="M250.21 397.54s-12.49 4.18-13.9 15.38c0 0-19.17-13.22-7.11-26.43Zm0 0s12 2.79 14.51 13.86c0 0 16.43-18 4-23.42Z"/><path fill="#ea5d2a" d="M155.33 539.33a20.4 20.4 0 0 0 25.5-13.33l30.26-96.24a20.41 20.41 0 0 0-13.3-25.51 20.41 20.41 0 0 0-25.51 13.31L142 513.82a20.4 20.4 0 0 0 13.33 25.51Z"/><path fill="#f0876e" d="M228.68 390.84c22.56 15.58 40.27-.74 40.27-.74l-.87-7.64-1.58-13.69-14.44-9.95L234 346.36Z"/><path fill="#ea5d2a" d="M352.36 527.67a20.4 20.4 0 0 0 8.64-27.44l-46.67-89.45a20.39 20.39 0 0 0-27.44-8.63 20.4 20.4 0 0 0-8.63 27.44L324.92 519a20.4 20.4 0 0 0 27.44 8.67Z"/><path fill="#e8745e" d="M244.85 359.55c3.85 23.32 23.23 22.91 23.23 22.91l-1.58-13.69-14.44-9.95c-4.27.41-7.21.73-7.21.73Z"/><path fill="none" stroke="#fff" stroke-linecap="round" stroke-linejoin="round" stroke-width="1.06" d="m252.85 641.8 4.81-27.22m7.39 0h-15.21"/><path fill="#f0876e" d="M228.33 346.09a39.69 39.69 0 0 0 12 16.76c11.26 9.58 26.79 13.79 36.63 10.26 10.5-4.09 8.67-21.94 3.76-45.9-2.32-11.21-8.72-18.82-16.43-22.71a27.87 27.87 0 0 0-21.89-1.54c-14.51 5.17-21.52 22.42-14.07 43.13Z"/><path fill="#631418" d="M231.69 365.59s17.82-1 21.73-33.06c0 0 43.75-1.14 37.6-22-4.37-14.81-22.07-5-22.07-5s4.76-14.47-4-16.28c-11.57-2.41-21.23 10.1-30.32 18.12-6 5.28-17.65 13.59-13.56 26.25s10.33 26.81 10.62 31.97Z"/><path fill="#f0876e" d="M249.27 344.23c2.69 5.06 4.28 8.93 2.28 10.47-2.79 2-9.38 1-12.4-3.16s-2.18-7.74.61-9.76 7.1-2.1 9.51 2.45Z"/><path fill="none" stroke="#6da7c6" stroke-linecap="round" stroke-linejoin="round" stroke-width="1.08" d="M252.51 398.43c3.13 1.33 8.7 4.26 10.77 9m-26.04 1.64s3.21-7.52 9.56-10.49"/><path fill="none" stroke="#631418" stroke-linecap="round" stroke-linejoin="round" stroke-width=".54" d="m188.66 496.91 7.89-23.63"/><path fill="none" stroke="#631418" stroke-linecap="round" stroke-linejoin="round" stroke-width="1.08" d="M263.42 334.5s-6 1.39-10-2"/><path fill="#f0876e" d="M394.76 459.87s12.79-12.87 18.91-15.47c3.39-1.45 16.48-3.25 20.4-4.31s6.06-.33 6.27 1-11 5.36-10.55 6.56 13.27 3.15 18.57 1.75 7.58-.35 7.08 1.36c0 0 3.66.42 3.63 2.13s-3 2.69-3 2.69 2.06.9 1.53 2.83-4.55 3.57-4.55 3.57a1.48 1.48 0 0 1 .37 2.07c-.8 1.24-11.22 6.08-19.61 4-4.62-1.17-9.1-2.15-12.18-2.8-2.6-.55-6.36 2.23-8.64 3.59Z"/><path fill="#631418" d="M207.05 834.55h16.15c9.17 0 16.31 8.21 15.31 17.6h-59.16l2.05-17.6Z"/><path fill="#ea5d2a" d="M327.13 520.9a21.07 21.07 0 0 0 29.39 4.36l65.94-53.59-20.76-27.55-70.21 47.39a21.07 21.07 0 0 0-4.36 29.39Z"/><path fill="#f0876e" d="M165.71 582.19s7.93 16.29 9.75 21.82 2 20.15 3.75 27.88 7.22 17.06 9 16.76a1.46 1.46 0 0 0 1.32-1.88s4.93 6.56 7.17 5.86.89-1.92.89-1.92 4.32 2.93 6.09 1.86-.42-3.49-.42-3.49 3.27.73 4.32-1.29-3.83-8.94-5.54-12.44-5.06-12-4.43-13.17 7.52 8.75 9.82 7.78-4.53-16.87-7.69-22.35-4.21-7.08-5.88-14.46-3.56-13.91-3.56-13.91Z"/><path fill="#ea5d2a" d="M156.4 500.19a21.08 21.08 0 0 0-14.6 25.88l26.41 80.76 33.16-9.51-19.09-82.53a21.06 21.06 0 0 0-25.88-14.6Z"/><path fill="none" stroke="#631418" stroke-linecap="round" stroke-linejoin="round" stroke-width=".54" d="m308.75 488.05-11.57-22.18"/><path fill="#fff" stroke="#f7a841" stroke-miterlimit="10" stroke-width=".78" d="M549.05 162.62a29.11 29.11 0 0 0-4.87-4.12 28.68 28.68 0 0 0-7.54-3.62 29.1 29.1 0 0 0-8.55-1.28 28.7 28.7 0 0 0-15.09 4.26c-.62.39-1.23.79-1.82 1.22-.27.19-.52.39-.78.59-.63.49-1.24 1-1.84 1.55a28.78 28.78 0 0 0-9.28 20.12v1.11a28.79 28.79 0 0 0 26 28.69 27.35 27.35 0 0 0 2.88.15 28.72 28.72 0 0 0 16.62-5.29 28.34 28.34 0 0 0 2.63-2.12c.41-.35.79-.72 1.17-1.11l.34-.36a28.84 28.84 0 0 0 .13-39.76Z"/><path fill="#fff" stroke="#f7a841" stroke-miterlimit="10" stroke-width=".78" d="M492.77 182.44a34.84 34.84 0 0 0 32.44 34.76q.72 0 1.44.06h1.49c.48 0 1 0 1.43-.05a34.64 34.64 0 0 0 18.85-6.81c.91-.68 1.78-1.39 2.62-2.15.38-.35.76-.7 1.12-1.07l-2.19-2.76c-.37.37-.75.74-1.14 1.1a31.85 31.85 0 0 1-2.62 2.15 31.11 31.11 0 0 1-18.07 6.08h-.49c-.8 0-1.6 0-2.39-.09A31.32 31.32 0 0 1 506.78 159a29.75 29.75 0 0 1 2.64-2.11c.6-.43 1.22-.84 1.85-1.23l-2.19-2.77c-.64.4-1.26.83-1.87 1.27a31.68 31.68 0 0 0-2.64 2.11 34.72 34.72 0 0 0-11.8 26.17Z"/><path fill="#fff" stroke="#f7a841" stroke-miterlimit="10" stroke-width=".78" d="M547.42 203.85a28.15 28.15 0 0 1-2.64 2.12l1.38 1.71a31.85 31.85 0 0 0 2.62-2.15ZM506.78 159l1.76 2.18a29.81 29.81 0 0 1 2.62-2.14l-1.74-2.15a29.75 29.75 0 0 0-2.64 2.11Zm21.84 58.26c-.48 0-1 0-1.44.05h-.53v9.8h2.87v-9.84Zm2.61-48.49c.18 2.09 3.8 3.21 5.53 4.84 1.52 1.42 2.51 3.3.94 3.78s-3-.83-3.87-.21-1 4.17.09 5.84a4.59 4.59 0 0 0 5.78 1.81c2.72-1 4-1 4.48-.39a1.92 1.92 0 0 1 .21 2.5c-.33.77.13 1-.13 2s-2.79.71-4.35 1.66-2.75 2.75-.82 4.44 3 2.24 3.63 4.21 1.73 4.24 2.84 3.23c1.42-1.27-.42-2.75-.63-4.47s-.08-3.15 1.85-4.27 2.53-2.72 1.14-3.93-1.75-1.54-1.9-3.54.18-2.6 1.39-3a15 15 0 0 0 5-4.17c1.13-1.9 1.73-4.6-.29-5.93s-4.43-3-4.73-5.14-.65-4.47 1.67-5.36a29.22 29.22 0 0 0-4.87-4.14 3.58 3.58 0 0 0-3 2c-.76 1.87-1.75 4.08-3.93 5.2s-6.21.96-6.03 3.04Zm.16 5.02c-.36.5-1.71-.84-2.5-1.23s-2.74-.06-3.12-.68-.59-2.22.62-2.66 3.33-1.29 3.47 0-.32 1.41.44 2.34 1.58 1.57 1.09 2.23Zm-32.15 8.65a28.71 28.71 0 0 0 2.06 10.73 6.12 6.12 0 0 1 2.84-1.86c1.43-.26 2.05 1.66 2.48 2.52s1.37 1 1.47.1-1.43-4-.34-4.23 1.06 2 1.83 3.35 3 2 4.4 2.29 2.17.77 2.91 2.87 2.49 3.43 3.29 2-.52-3.5-.92-5.81.68-3.38-.29-5.07-1.93-5.12.41-7.3 2.94-3.83 2.7-5.61-7.06-3-10.4 0-6.62 2.63-8.91 3.15a7.54 7.54 0 0 0-3.51 1.75c-.02.38-.02.75-.02 1.12Z"/><path fill="#fff" stroke="#f7a841" stroke-miterlimit="10" stroke-width=".78" d="M542 226.89a1 1 0 0 0-.72-.3h-26.37a1 1 0 0 0-1 1 1 1 0 0 0 1 1h26.36a1 1 0 0 0 1-1 1.05 1.05 0 0 0-.27-.7Zm3.75 2.05a1 1 0 0 0-.72-.3h-33.89a1 1 0 0 0 0 2.05H545a1 1 0 0 0 1-1 1 1 0 0 0-.25-.75Z"/><path fill="#fff" stroke="#f7a841" stroke-linecap="round" stroke-linejoin="round" stroke-width=".85" d="M325.84 170.25h-29.51v52.16h39.36v-33.53"/><path fill="#fff" stroke="#f7a841" stroke-linecap="round" stroke-linejoin="round" stroke-width=".85" d="m351.54 164.13-27.81 34.22-8.54 1.71-.08-8.72 27.81-34.21 8.62 7zm-33.31 29.77 5.49 4.46m-1.14-4.21 26.22-32.25"/><path fill="#fff" stroke="#f7a841" stroke-miterlimit="10" stroke-width=".67" d="M1225.04 358.29h20.17v2.04h-20.17zm0 3.93h20.17v2.04h-20.17zm0 3.92h20.17v2.04h-20.17zm0 3.93h20.17v2.04h-20.17zm0 3.93h20.17v2.04h-20.17z"/><path fill="#fff" stroke="#f7a841" stroke-miterlimit="10" stroke-width=".67" d="M1269 358.29v-2.54a21.93 21.93 0 0 0-6.46-15.54 22.36 22.36 0 0 0-7-4.75c-.53-.22-1.06-.42-1.61-.6s-1-.3-1.46-.43-1.07-.25-1.61-.34-1-.16-1.46-.21-1.07-.09-1.61-.11h-1.46c-.54 0-1.08.05-1.61.11s-1 .12-1.46.21-1.08.21-1.61.34-1 .27-1.45.43-1.09.38-1.62.6a22.08 22.08 0 0 0-13.58 20.29v2.54h20.17v2H1225v1.89h20.17v2H1225v1.88h20.17v2.05H1225v1.88h20.17v2H1225V374h20.17v2H1225v1.89h20.17v2H1225v1.89h20.17v2H1225v2.54a22.06 22.06 0 0 0 13.52 20.28c.53.23 1.07.43 1.62.61s1 .3 1.45.43 1.07.25 1.61.34 1 .15 1.46.2 1.07.1 1.61.12h1.46c.54 0 1.08-.05 1.61-.12s1-.11 1.46-.2 1.08-.21 1.61-.34 1-.27 1.46-.44a15.58 15.58 0 0 0 1.61-.6 22.05 22.05 0 0 0 13.52-20.16v-2.54h-20.16v-2H1269V380h-20.16v-2H1269v-2h-20.16v-2H1269v-1.89h-20.16v-2H1269v-1.88h-20.16v-2.05H1269v-1.88h-20.16v-2H1269v-1.89h-20.16v-2Z"/><path fill="#fff" stroke="#f7a841" stroke-miterlimit="10" stroke-width=".67" d="M1225.04 377.93h20.17v2.04h-20.17zm0 3.93h20.17v2.04h-20.17zm23.83-23.57h20.16v2.04h-20.16zm0 3.93h20.16v2.04h-20.16zm0 3.92h20.16v2.04h-20.16zm0 3.93h20.16v2.04h-20.16zm0 3.93h20.16v2.04h-20.16zm0 3.93h20.16v2.04h-20.16zm0 3.93h20.16v2.04h-20.16zm-8.69-47v11.71a.81.81 0 0 1-1.62 0v-11.1c.53-.23 1.07-.47 1.62-.61Zm3.06-.77v12.48a.8.8 0 0 1-.8.8.81.81 0 0 1-.81-.8v-12.14c.53-.13 1.07-.25 1.61-.34Zm3.07-.32v12.8a.81.81 0 0 1-1.61 0v-12.69c.53-.06 1.07-.09 1.61-.11Zm3.07.11v12.69a.81.81 0 0 1-1.61 0v-12.8c.54.02 1.08.05 1.61.11Zm3.07.55v12.14a.81.81 0 0 1-1.61 0v-12.48c.54.09 1.08.21 1.61.34Zm3.07 1.04v11.1a.81.81 0 0 1-.81.8.8.8 0 0 1-.8-.8v-11.71c.55.14 1.09.38 1.61.61Zm-15.34 60.15v11.71c-.55-.18-1.09-.38-1.62-.61v-11.1a.81.81 0 0 1 1.62 0Zm3.06 0v12.48c-.54-.09-1.08-.21-1.61-.34v-12.14a.81.81 0 0 1 .81-.8.8.8 0 0 1 .8.8Zm3.07 0v12.8c-.54 0-1.08-.05-1.61-.12v-12.68a.81.81 0 0 1 1.61 0Zm3.07 0v12.68c-.53.07-1.07.1-1.61.12v-12.8a.81.81 0 0 1 1.61 0Zm3.07 0v12.14c-.53.13-1.07.25-1.61.34v-12.48a.81.81 0 0 1 1.61 0Zm3.07 0v11.1a15.58 15.58 0 0 1-1.61.6v-11.7a.8.8 0 0 1 .8-.8.81.81 0 0 1 .81.8Zm-30.48-37.33h20.17v2.04h-20.17z"/><path fill="#fff" stroke="#f7a841" stroke-miterlimit="10" stroke-width=".67" d="M1248.87 358.29h20.16v2.04h-20.16zm-23.83 3.93h20.17v2.04h-20.17zm23.83 0h20.16v2.04h-20.16zm-23.83 3.92h20.17v2.04h-20.17zm23.83 0h20.16v2.04h-20.16zm-23.83 3.93h20.17v2.04h-20.17zm23.83 0h20.16v2.04h-20.16zm-23.83 3.93h20.17v2.04h-20.17zm23.83 0h20.16v2.04h-20.16zm-23.83 3.93h20.17v2.04h-20.17zm23.83 0h20.16v2.04h-20.16zm-23.83 3.93h20.17v2.04h-20.17zm23.83 0h20.16v2.04h-20.16z"/><path fill="#fff" stroke="#f7a841" stroke-miterlimit="10" stroke-width=".67" d="M1249.24 413.41h-4.4a23.12 23.12 0 0 1-23.09-23.09v-18.86h1.78v18.86a21.33 21.33 0 0 0 21.31 21.31h4.4a21.33 21.33 0 0 0 21.31-21.31v-18.86h1.78v18.86a23.12 23.12 0 0 1-23.09 23.09Z"/><path fill="#fff" stroke="#f7a841" stroke-miterlimit="10" stroke-width=".67" d="M1256.54 409.84v3.79a1.61 1.61 0 0 1-1.23 1.57 25.29 25.29 0 0 1-6.07.73h-4.4a25.43 25.43 0 0 1-6.08-.73 1.61 1.61 0 0 1-1.22-1.57v-3.79a1.31 1.31 0 0 1 1.6-1.28 42.08 42.08 0 0 0 7.9.66 42.08 42.08 0 0 0 7.9-.66 1.31 1.31 0 0 1 1.6 1.28Z"/><path fill="#fff" stroke="#f7a841" stroke-miterlimit="10" stroke-width=".67" d="M1244.21 413.93h5.66v5.64a1.08 1.08 0 0 1-1.08 1.08h-3.5a1.08 1.08 0 0 1-1.08-1.08v-5.64Zm-19.16-46.24v7.54a2.42 2.42 0 0 1-2.42 2.41 2.57 2.57 0 0 1-.62-.08 2.43 2.43 0 0 1-1.78-2.33v-7.54a2.41 2.41 0 0 1 1.78-2.32 2.16 2.16 0 0 1 .62-.09 2.42 2.42 0 0 1 2.42 2.41Z"/><path fill="#fff" stroke="#f7a841" stroke-miterlimit="10" stroke-width=".67" d="M1223.79 367.69v7.54a1.84 1.84 0 1 1-3.56 0v-7.54a2.41 2.41 0 0 1 1.78-2.32 2.31 2.31 0 0 1 1.07.62 2.38 2.38 0 0 1 .71 1.7Zm50.06 0v7.54a2.44 2.44 0 0 1-1.74 2.32 2.42 2.42 0 0 1-3.07-2.32v-7.54a2.42 2.42 0 0 1 3.07-2.32 2.45 2.45 0 0 1 1.74 2.32Z"/><path fill="#fff" stroke="#f7a841" stroke-miterlimit="10" stroke-width=".67" d="M1273.85 367.69v7.54a1.81 1.81 0 1 1-3.48 0v-7.54a2.44 2.44 0 0 1 1.74-2.32 2.45 2.45 0 0 1 1.74 2.32Zm-27.62 50.41h1.61v10.6h-1.61z"/><path fill="#fff" stroke="#f7a841" stroke-miterlimit="10" stroke-width=".67" d="M1259.61 428.7h-25.14a1.72 1.72 0 0 1 1.72-1.73h21.69a1.72 1.72 0 0 1 1.73 1.73Z"/><path fill="#fff" stroke="#f7a841" stroke-miterlimit="10" stroke-width=".67" d="M1239 425.25h16a1.5 1.5 0 0 1 1.5 1.5v.25h-19v-.22a1.5 1.5 0 0 1 1.5-1.53Z"/><path fill="none" stroke="#367194" stroke-linecap="round" stroke-linejoin="round" stroke-width="1.54" d="M1128.81 807.28s78 1.85 104.89-109.37"/><path fill="#367194" d="M1233.65 684.06c-1.72 5.94 0 14.77 0 14.77s6.23-6.51 8-12.45.51-8.42-1.7-9.06-4.58.8-6.3 6.74Zm-13.81 20.28c2.14 5.81 8.81 11.86 8.81 11.86s1.14-8.93-1-14.73-4.59-7.08-6.74-6.28-3.2 3.35-1.07 9.15Zm18.96 1.14c-5.34 3.11-10.15 10.72-10.15 10.72s9-.42 14.34-3.53 6.17-5.75 5-7.74-3.85-2.57-9.19.55ZM1212.49 723c2.13 5.8 8.8 11.86 8.8 11.86s1.14-8.93-1-14.74-4.6-7.07-6.75-6.28-3.19 3.31-1.05 9.16Z"/><path fill="#367194" d="M1233.87 727.07c-6 1.63-12.58 7.74-12.58 7.74s8.8 1.92 14.77.29 7.44-4 6.84-6.17-3.06-3.48-9.03-1.86Zm-31.01 14.24c2.13 5.8 8.8 11.86 8.8 11.86s1.14-8.93-1-14.74-4.6-7.07-6.75-6.28-3.19 3.36-1.05 9.16Zm22.34 5.95c-6.14.78-13.54 5.91-13.54 5.91s8.45 3.12 14.58 2.35 7.93-2.89 7.64-5.17-2.55-3.87-8.68-3.09Zm-34.86 10.93c1.88 5.89 8.27 12.24 8.27 12.24s1.54-8.88-.34-14.77-4.28-7.27-6.46-6.57-3.35 3.21-1.47 9.1Zm22.53 8.4c-6.18-.14-14.26 3.84-14.26 3.84s7.89 4.34 14.07 4.48 8.27-1.68 8.32-4-1.94-4.18-8.13-4.32Zm-37.93 7.41c1.45 6 7.36 12.8 7.36 12.8s2.18-8.74.73-14.75-3.74-7.56-6-7-3.54 2.95-2.09 8.95Zm22.11 12.05c-6-1.44-14.75.75-14.75.75s6.8 5.91 12.82 7.34 8.43.1 9-2.13-1.05-4.52-7.07-5.96Zm-39.8-.96c1 6.11 6.34 13.34 6.34 13.34s2.85-8.54 1.88-14.65-3.14-7.83-5.41-7.46-3.79 2.68-2.81 8.77Z"/><path fill="#367194" d="M1178.06 801.4c-5.46-2.9-14.47-3-14.47-3s5.11 7.42 10.57 10.32 8.14 2.21 9.22.18.14-4.61-5.32-7.5Z"/><path fill="none" stroke="#367194" stroke-linecap="round" stroke-linejoin="round" stroke-width="1.19" d="M1131 741.64s60.12-5.72 70.64-93.71"/><path fill="#367194" d="M1200.37 637.29c-.78 4.72 1.39 11.35 1.39 11.35s4.18-5.58 5-10.3-.39-6.52-2.14-6.81-3.47 1.03-4.25 5.76Zm-8.76 16.86c2.18 4.26 7.86 8.31 7.86 8.31s.06-7-2.12-11.24-4.18-5-5.76-4.21-2.15 2.87.02 7.14Zm14.68-.87c-3.82 2.88-6.82 9.18-6.82 9.18s6.88-1.15 10.7-4 4.22-5 3.15-6.41-3.21-1.65-7.03 1.23Zm-18.63 15.85c2.17 4.27 7.85 8.31 7.85 8.31s.06-7-2.11-11.24-4.18-5-5.77-4.21-2.15 2.87.03 7.14Z"/><path fill="#367194" d="M1204.48 670.34c-4.44 1.8-9 7.1-9 7.1s6.94.67 11.38-1.12 5.37-3.73 4.7-5.38-2.64-2.39-7.08-.6Zm-22.55 13.79c2.18 4.26 7.86 8.31 7.86 8.31s.06-7-2.12-11.24-4.17-5-5.76-4.21-2.15 2.87.02 7.14Zm17.73 2.53c-4.65 1.16-9.87 5.78-9.87 5.78s6.78 1.63 11.43.47 5.83-2.94 5.4-4.67-2.32-2.74-6.96-1.58Zm-25.8 11.59c2 4.36 7.48 8.66 7.48 8.66s.36-7-1.62-11.33-4-5.2-5.57-4.46-2.28 2.78-.29 7.13Zm18.14 4.4c-4.77.46-10.61 4.26-10.61 4.26s6.46 2.61 11.23 2.16 6.2-2.05 6-3.82-1.9-3.06-6.62-2.6Zm-28.54 9.17c1.66 4.49 6.84 9.17 6.84 9.17s.87-6.92-.8-11.41-3.57-5.47-5.24-4.85-2.47 2.6-.8 7.09Z"/><path fill="#367194" d="M1181.57 719.06c-4.76-.55-11.27 1.93-11.27 1.93s5.77 3.92 10.52 4.47 6.5-.69 6.7-2.46-1.19-3.38-5.95-3.94Zm-30.7 2.94c1.31 4.61 6.1 9.68 6.1 9.68s1.41-6.83.1-11.44-3.13-5.73-4.84-5.24-2.67 2.37-1.36 7Z"/><path fill="#367194" d="M1168.37 732.6c-4.47-1.72-11.4-1-11.4-1s4.61 5.24 9.07 7 6.46 1 7.11-.7-.31-3.57-4.78-5.3Z"/><path fill="#b4745b" d="M1167.54 718.37v121.7a12.86 12.86 0 0 1-12.86 12.86H846.4a12.87 12.87 0 0 1-12.87-12.86v-121.7Z"/><path fill="#955941" d="M846.4 645.08h308.28a12.87 12.87 0 0 1 12.86 12.92v68h-334v-68a12.87 12.87 0 0 1 12.86-12.92Z"/><path fill="#955941" d="M946.6 637.48A50.67 50.67 0 0 0 997.07 688h6.93a50.47 50.47 0 0 0 0-101h-6.94a50.62 50.62 0 0 0-50.46 50.48Zm12.89 0a37.59 37.59 0 0 1 37.58-37.58h6.93a37.58 37.58 0 1 1 0 75.16h-6.94a37.6 37.6 0 0 1-37.57-37.58Z"/><path fill="#b4745b" d="M846.4 637.47h308.28a12.87 12.87 0 0 1 12.86 12.87v68h-334v-68a12.87 12.87 0 0 1 12.86-12.87Z"/><path fill="none" stroke="#955941" stroke-linecap="round" stroke-linejoin="round" stroke-width="2.27" d="M1150.14 840.07h4.53v-4.54"/><path fill="none" stroke="#955941" stroke-dasharray="9.51 9.51" stroke-linecap="round" stroke-linejoin="round" stroke-width="2.27" d="M1154.68 826.02V659.63"/><path fill="none" stroke="#955941" stroke-linecap="round" stroke-linejoin="round" stroke-width="2.27" d="M1154.67 654.87v-4.53h-4.53"/><path fill="none" stroke="#955941" stroke-dasharray="9.07 9.07" stroke-linecap="round" stroke-linejoin="round" stroke-width="2.27" d="m1141.07 650.33-285.6.01"/><path fill="none" stroke="#955941" stroke-linecap="round" stroke-linejoin="round" stroke-width="2.27" d="M850.94 650.34h-4.54v4.54"/><path fill="none" stroke="#955941" stroke-dasharray="9.51 9.51" stroke-linecap="round" stroke-linejoin="round" stroke-width="2.27" d="M846.4 664.39v166.39"/><path fill="none" stroke="#955941" stroke-linecap="round" stroke-linejoin="round" stroke-width="2.27" d="M846.4 835.53v4.54h4.54"/><path fill="none" stroke="#955941" stroke-dasharray="9.07 9.07" stroke-linecap="round" stroke-linejoin="round" stroke-width="2.27" d="M860 840.07h285.6"/><rect width="26.83" height="51.53" x="987.12" y="693.67" fill="#955941" rx="13.42"/><path fill="#fecc88" d="M987.14 703v24.69a13.4 13.4 0 1 0 26.8 0V703a13.43 13.43 0 0 0-8.35-12.44 14 14 0 0 0-5.07-1 14.17 14.17 0 0 0-5.07 1 13.58 13.58 0 0 0-8.31 12.44Z"/><path fill="#f7a841" d="M987.14 703v.93h26.8V703a13.43 13.43 0 0 0-8.35-12.44h-10.14a13.58 13.58 0 0 0-8.31 12.44Z"/><path fill="#955941" d="M980.18 701.28h40.71a6.67 6.67 0 0 0 6.67-6.67 6.67 6.67 0 0 0-6.67-6.68h-40.71a6.68 6.68 0 0 0-6.67 6.68 6.67 6.67 0 0 0 6.67 6.67Z"/><path fill="#f7a841" d="M1009.62 731.49a.69.69 0 0 0 .69-.69v-23.47a.69.69 0 0 0-.69-.69.69.69 0 0 0-.69.69v23.47a.69.69 0 0 0 .69.69Zm-3.03 1.78a.69.69 0 0 0 .69-.69v-25.25a.69.69 0 0 0-.69-.69.69.69 0 0 0-.69.69v25.25a.69.69 0 0 0 .69.69Zm-3.03 2.3a.69.69 0 0 0 .69-.69v-27.55a.69.69 0 0 0-.69-.69.69.69 0 0 0-.69.69v27.55a.69.69 0 0 0 .69.69Zm-3.02 2.14a.69.69 0 0 0 .69-.69v-29.69a.69.69 0 0 0-.69-.69.69.69 0 0 0-.69.69V737a.69.69 0 0 0 .69.71Zm-3.03-2.14a.69.69 0 0 0 .69-.69v-27.55a.69.69 0 0 0-.69-.69.69.69 0 0 0-.69.69v27.55a.69.69 0 0 0 .69.69Zm-3.03-2.3a.69.69 0 0 0 .69-.69v-25.25a.69.69 0 0 0-.69-.69.69.69 0 0 0-.69.69v25.25a.69.69 0 0 0 .69.69Zm-3.02-1.78a.69.69 0 0 1-.69-.69v-23.47a.69.69 0 0 1 .69-.69.69.69 0 0 1 .69.69v23.47a.69.69 0 0 1-.69.69Z"/><path fill="#f58e83" d="M887.97 820H858.9l-2.61 14.9h28.64l3.04-14.9z"/><path fill="#631418" d="M858.46 834.9h-16.77a16.12 16.12 0 0 0-15.89 18h56.85l2.28-18Z"/><path fill="#f58e83" d="M992.64 820h-28.58l2.29 14.9h28.16l-1.87-14.9z"/><path fill="#4c294c" d="m944.83 533.72-54.96 297.89h-40.76l21.5-291.35 74.22-6.54z"/><path fill="#4c294c" d="m988.95 540.26-84.62-1 51.85 292.35h44.36l-11.59-291.35z"/><path fill="none" stroke="#937b94" stroke-linecap="round" stroke-miterlimit="10" stroke-width="1.1" d="m923.92 648.32-5.94-33.66m-7.55 0h15.53"/><path fill="#381938" d="m868.56 567.67 51.17 13 5.35-5.55 5.13 6.3 60.14-6.04-.69-17.26-119.25-9.22-1.85 18.77z"/><path fill="#f58e83" d="M813.3 427.36a87.81 87.81 0 0 0-9.41-12.63c-4.28-4.56-9.36-7-9.94-11.11-1.25-8.95-2.2-26.84 4-26.9s11 2.86 16.31 10.74 10.17 38.94 10.17 38.94Z"/><path fill="#4c294c" d="m877 388.68 31.94-10.24 20.94-1.52 25.74 1.95 38.55 12.33v177c-15.27 2.63-62 8.3-62 8.3l-7.08-7.59-6.92 6.4-52.57-12.17c4.24-55.88 11.4-174.46 11.4-174.46Z"/><path fill="#fff" d="m908.93 378.44 22.66-7.25 24.03 7.68-25.41 69.4-21.28-69.83z"/><path fill="#f4a799" d="M1015.88 570.34s-7.17 15.58-8.77 20.85-1.51 19.11-3 26.46-6.48 16.29-8.16 16.05a1.4 1.4 0 0 1-1.3-1.76s-4.52 6.32-6.66 5.7-.88-1.79-.88-1.79-4 2.86-5.72 1.88.32-3.31.32-3.31-3.08.76-4.12-1.13 3.44-8.54 5-11.89 4.53-11.44 3.91-12.55-6.93 8.43-9.12 7.57 3.93-16.06 6.8-21.31 3.84-6.79 5.26-13.81 3.08-13.24 3.08-13.24Z"/><path fill="#631418" d="M968.48 834.9H952c-9.36 0-16.65 8.38-15.63 18h60.38l-2.1-18Z"/><path fill="#fff" d="M980.65 588.29h31.53v8.92h-31.53z" transform="rotate(15.43 996.574 592.87)"/><path fill="#f4a799" d="M950.11 351.79v24.46c0 9.5-7.78 14.85-17.25 14.85s-17.26-5.35-17.26-14.85v-24.46a17.25 17.25 0 0 1 29.45-12.18 16.77 16.77 0 0 1 1.65 1.94 17 17 0 0 1 3.41 10.24Z"/><path fill="#f58e83" d="M946.7 341.55v6.26a26.08 26.08 0 0 1-26 26 41.29 41.29 0 0 1-5.09-.27v-21.75a17.25 17.25 0 0 1 29.45-12.18 16.77 16.77 0 0 1 1.64 1.94Z"/><path fill="#f4a799" d="M927.66 367.19c-14.57 0-23.47-5.49-20.25-24.09 1.88-10.88 1.92-24.92 1.92-24.92A22.24 22.24 0 0 1 931.5 296a22.23 22.23 0 0 1 22.17 22.17v23a26.08 26.08 0 0 1-26.01 26.02Z"/><path fill="#e4bb91" d="M802.13 305.46h2.33v103.32h-2.33z"/><path fill="#4c294c" d="M1026 530.59a20.82 20.82 0 0 1-25.79-14L971 417.83a20.82 20.82 0 0 1 14-25.79 20.82 20.82 0 0 1 25.79 14l29.21 98.77a20.81 20.81 0 0 1-14 25.78Z"/><path fill="#f4a799" d="M811.16 421.93s-6.26-3.51-7.72-14.83 5.28-13.33 1.51-19.68-11.81-11.14-9.09-15.43 18.27 7.24 22.23 17.15 5.85 31.68 5.85 31.68Z"/><path fill="#4c294c" d="M827.13 517.77a20.82 20.82 0 0 1-8.81-28l47.62-91.28a20.81 20.81 0 0 1 28-8.81 20.82 20.82 0 0 1 8.81 28L855.13 509a20.81 20.81 0 0 1-28 8.77Z"/><path fill="#fff" d="M796.1 411.79h31.53v8.92H796.1z" transform="rotate(-16.3 798.045 411.435)"/><path fill="#4c294c" d="M842.44 519.52A21.5 21.5 0 0 1 815.81 505L795 420.85l33.84-9.7 28.11 81.74a21.48 21.48 0 0 1-14.51 26.63ZM1025 489.8a21.51 21.51 0 0 1 15 26.39l-26.85 82.45-33.87-9.64 19.38-84.24A21.49 21.49 0 0 1 1025 489.8Z"/><path fill="#381938" d="M913.48 376.44s-4.87.29-6.73 2.7l-2 25 13.06 8.49-5.14 11.37s14.59 16.26 17.54 25.16c0 0 0-17.7-4.65-34.13-3.16-11.22-12.08-38.59-12.08-38.59Z"/><path fill="#fff" d="m915.6 374.84 16.67 16.11-4.54 11.92-15.36-26.31 3.23-1.72z"/><path fill="none" stroke="#4c294c" stroke-miterlimit="10" stroke-width=".41" d="m932.27 390.95-4.54 11.92-9.76-16.01"/><path fill="#381938" d="M952.11 376.92s3.88-.48 5.78 2.6l-.63 24.48-10.14 9.17 1.65 11.21s-16 16.09-18.56 26.77c0-.01-2.36-33.34 21.9-74.23Z"/><path fill="#fff" d="m932.27 390.95 17.84-16.11 3.55 2.08-17.74 25.95-3.65-11.92z"/><path fill="none" stroke="#4c294c" stroke-miterlimit="10" stroke-width=".41" d="m932.27 390.95 3.65 11.92 6.85-9.77"/><path fill="none" stroke="#937b94" stroke-linecap="round" stroke-miterlimit="10" stroke-width="1.1" d="m930.21 447.97-5.09 118.58m69.05-70.37-10.29-34.86m-39.05 62.46.5 27c.09 5 3.58 9.11 7.76 9l18.16-.33c4.17-.08 7.51-4.27 7.42-9.32l-.5-27Zm-70.76-3.38-1.72 26.9c-.33 5 2.82 9.37 7 9.64l18.13 1.16c4.17.27 7.84-3.63 8.17-8.67l1.72-26.9Z"/><path fill="#36241c" d="M905.82 302.48c2.3-7.07 15-13.36 26.75-9.54 4.54 1.48 14.13 7.25 14.13 7.25s16.33-4.83 15.74 20.18S950.82 349 950.52 358c0 0-8.69-2.49-8.55-14.92s-4.14-19.51-4.14-19.51c-3.7.18-14.79.38-19-1-11.73-3.82-15.31-13.02-13.01-20.09Z"/><path fill="#f4a799" d="M942.42 335c-3.48 4.47-5.7 8-4 9.8 2.38 2.45 9 2.6 12.62-.95s3.45-7.16 1.08-9.6-6.57-3.25-9.7.75Z"/><path fill="none" stroke="#36241c" stroke-linecap="round" stroke-miterlimit="10" stroke-width=".94" d="M952.89 297s-4.66-.39-7.06 5.26"/><path fill="none" stroke="#36241c" stroke-linecap="round" stroke-miterlimit="10" stroke-width=".94" d="M942.84 293.31a12.78 12.78 0 0 1 3 9.46"/><path fill="none" stroke="#937b94" stroke-linecap="round" stroke-miterlimit="10" stroke-width="1.1" d="m871.45 477.69 7.45-14.29"/><path fill="#332d25" d="M704.49 291.79h100.18v19.09H704.49z"/><path fill="#ea5d2a" d="M704.49 310.87h100.18v19.09H704.49z"/><path fill="#fdc07c" d="M704.49 329.96h100.18v19.09H704.49z"/><path fill="#fff" stroke="#f7a841" stroke-miterlimit="10" stroke-width=".71" d="m1059.33 172.55 26.84 40.77a5.32 5.32 0 0 1-1.34 7.38 5.32 5.32 0 0 1-7.3-1.69l-7.87-12"/><path fill="#fff" stroke="#f7a841" stroke-miterlimit="10" stroke-width=".71" d="M1076.19 226.39a5.32 5.32 0 0 0 1.34-7.38 5.18 5.18 0 1 0 8.64-5.69l-18-27.31-2.29-15.53-17.29-5.48-4.57-7-30.56 20.12 11.31 17.18 5 7.63 21.81 33.14a5.18 5.18 0 1 0 8.64-5.69 5.18 5.18 0 1 0 8.64-5.69 5.32 5.32 0 0 0 7.33 1.7Z"/><path fill="#fff" stroke="#f7a841" stroke-miterlimit="10" stroke-width=".71" d="m1069.66 207.05 7.87 12a5.32 5.32 0 0 1-1.34 7.38 5.32 5.32 0 0 1-7.3-1.69"/><path fill="#fff" stroke="#f7a841" stroke-miterlimit="10" stroke-width=".71" d="m1061 212.74 7.87 12a5.31 5.31 0 0 1-1.34 7.37 5.31 5.31 0 0 1-7.3-1.68l-7.87-12"/><path fill="#fff" stroke="#f7a841" stroke-miterlimit="10" stroke-width=".71" d="m1052.38 218.43 7.87 12a5.31 5.31 0 0 1-1.34 7.37 5.31 5.31 0 0 1-7.3-1.68l-26.84-40.77m50.17-34.18-36.7 24.16a5.32 5.32 0 0 0-1.24 7.42 4.63 4.63 0 0 0 6.35 1.56l15.74-10.37 2.33 3.23v.06a14.54 14.54 0 0 0 8 5.38l3.62 1 8.67 13.17 32.84-21.62-19.31-29.34-4.39 2.88a6 6 0 0 1-4.72.78l-.32-.08a13.73 13.73 0 0 0-10.87 1.77Z"/><path fill="#fff" stroke="#f7a841" stroke-miterlimit="10" stroke-width=".71" d="M1020.2 203.67a4.49 4.49 0 0 1 1.28-6.2l4.65-3.06a4.49 4.49 0 0 1 6.2 1.28 4.48 4.48 0 0 1-1.28 6.19l-4.65 3.12a4.49 4.49 0 0 1-6.2-1.33Z"/><path fill="#fff" stroke="#f7a841" stroke-miterlimit="10" stroke-width=".71" d="M1025.12 211.14a4.48 4.48 0 0 1 1.28-6.19l4.65-3.07a4.5 4.5 0 0 1 6.2 1.28 4.49 4.49 0 0 1-1.28 6.2l-4.65 3.06a4.49 4.49 0 0 1-6.2-1.28Z"/><path fill="#fff" stroke="#f7a841" stroke-miterlimit="10" stroke-width=".71" d="M1030 218.62a4.5 4.5 0 0 1 1.28-6.2l4.65-3.06a4.49 4.49 0 0 1 6.2 1.27 4.49 4.49 0 0 1-1.28 6.2l-4.65 3.06a4.49 4.49 0 0 1-6.2-1.27Zm5 7.47a4.5 4.5 0 0 1 1.28-6.2l4.65-3.06a4.49 4.49 0 0 1 6.2 1.28 4.48 4.48 0 0 1-1.28 6.19l-4.65 3.07a4.5 4.5 0 0 1-6.2-1.28Z"/><path fill="#fff" stroke="#f7a841" stroke-miterlimit="10" stroke-width=".71" d="M1086.14 166.06h42.17v5.66h-42.17z" transform="rotate(56.64 1107.196 168.862)"/><path fill="#fff" stroke="#f7a841" stroke-miterlimit="10" stroke-width=".71" d="M1006.34 162.71h42.17v5.66h-42.17z" transform="rotate(146.64 1027.424 165.52)"/><rect width="47.62" height="64.28" x="773.37" y="143.17" fill="#fff" stroke="#f7a841" stroke-linecap="round" stroke-linejoin="round" rx="2.85" transform="rotate(-31.17 797.213 175.315)"/><path fill="#fff" stroke="#f7a841" stroke-linecap="round" stroke-linejoin="round" d="m771.53 165.52 21.04-12.72m-16.33 19.36 27.57-16.68m-24.35 21.99 22.76-13.78m-15.29 17.83 25.11-15.2m-20.37 21.19 24.3-14.7m-25.54 23.96 29.31-17.73m-24.66 24.26 28.79-17.42"/><rect width="47.62" height="64.28" x="762.54" y="162.94" fill="#fff" stroke="#f7a841" stroke-linecap="round" stroke-linejoin="round" rx="2.85" transform="rotate(-42.8 786.392 195.076)"/><path fill="#f7a841" d="M759.23 191.61a9 9 0 0 1 1-1 2.35 2.35 0 0 1 1.49-.74 1.52 1.52 0 0 1 1.18.54 1.69 1.69 0 0 1 .51 1.19 2.81 2.81 0 0 1-1.32 2l1.55 1.68-.54.5Zm2.41 1.52a2.61 2.61 0 0 0 .49-.37 1.23 1.23 0 0 0 .22-1.87c-.51-.55-1.15-.45-1.75.1a3 3 0 0 0-.47.51Zm3.65-1.9.79 1.72-.56.52-2.45-5.5.65-.61 5.3 2.87-.57.53-1.67-.9Zm1-1.69-1.53-.83a8.6 8.6 0 0 1-.92-.56c.17.31.34.63.49 1l.71 1.59Zm2.71-.47a2.58 2.58 0 0 0 1.22-.62 1 1 0 0 0 .22-1.53c-.37-.39-.8-.4-1.56-.1-.91.39-1.66.43-2.21-.16a1.65 1.65 0 0 1 .3-2.39 2.47 2.47 0 0 1 1.12-.65l.26.58a2.15 2.15 0 0 0-1 .54.92.92 0 0 0-.21 1.35c.36.39.8.35 1.58 0 1-.39 1.64-.38 2.21.24a1.72 1.72 0 0 1-.35 2.56 3 3 0 0 1-1.32.72Zm3-2.83a2.68 2.68 0 0 0 1.22-.62 1 1 0 0 0 .21-1.53c-.36-.39-.79-.41-1.56-.1s-1.65.43-2.2-.16a1.65 1.65 0 0 1 .3-2.4 2.68 2.68 0 0 1 1.12-.65l.25.58a2.35 2.35 0 0 0-1 .54c-.58.53-.48 1.08-.21 1.36s.79.35 1.58 0c1-.39 1.63-.38 2.2.24a1.72 1.72 0 0 1-.35 2.56 2.88 2.88 0 0 1-1.31.72Zm-.08-6.38a9 9 0 0 1 1-1 2.38 2.38 0 0 1 1.49-.74 1.55 1.55 0 0 1 1.18.54 1.69 1.69 0 0 1 .51 1.19 2.76 2.76 0 0 1-1.33 2l1.56 1.68-.54.5Zm2.41 1.52a2.59 2.59 0 0 0 .48-.37 1.22 1.22 0 0 0 .23-1.86c-.52-.56-1.16-.46-1.75.09a3 3 0 0 0-.47.51Zm6.31-5.89c1.34 1.44 1.17 3 .1 4a2.63 2.63 0 0 1-3.85-.38 2.71 2.71 0 0 1-.09-4 2.59 2.59 0 0 1 3.84.38Zm-3.18 3.08c.83.89 2.06 1.25 2.91.46s.61-2-.27-3-2-1.3-2.92-.47-.57 2.09.28 3.01Zm2.04-5.71a7.32 7.32 0 0 1 1-1.05 2.34 2.34 0 0 1 1.5-.81 1.39 1.39 0 0 1 1.06.49 1.48 1.48 0 0 1 .2 1.8 1.42 1.42 0 0 1 1.4.27 8.72 8.72 0 0 0 1.39.85l-.56.52a7 7 0 0 1-1.21-.74c-.66-.46-1.08-.47-1.59 0l-.51.47 1.68 1.82-.54.5Zm2.3 1.4.55-.51a1.12 1.12 0 0 0 .21-1.67c-.5-.54-1.11-.41-1.69.11a2.59 2.59 0 0 0-.48.55Zm2.26-4.88-1.28 1.18-.42-.46 3.1-2.87.42.46-1.28 1.18 3.45 3.73-.54.51Z"/></svg>