<svg xmlns="http://www.w3.org/2000/svg" viewBox="0 0 64 64"><g data-name="Male User"><path fill="#88c5cc" fill-rule="evenodd" d="M32,1a31,31,0,0,0-8.53,60.8l.06,0A30.95,30.95,0,0,0,57.25,49.94,31,31,0,0,0,32,1Z"/><path d="M38.16,16.73l-.79.24-.84-.58-8-.82L25,25.68l.12.42,5.5,9.56L20.32,45.86l-5,2.21,7.86,13.65.26.08.06,0A30.95,30.95,0,0,0,57.25,49.94Z" opacity=".1"/><polygon fill="#deb17f" points="27.88 29.9 27.88 33.54 32.59 37.47 34.1 35.92 36.53 33.42 36.53 29.43 27.88 29.9"/><path fill="#b8d0dc" d="M32.56,36.14H32s-4.18,4-4.15,4.28l4.12,9h.73l3.8-9.24Z"/><path fill="#3e5973" d="M33,38.82a.78.78,0,0,1,.08-.54l.54-.92a.14.14,0,0,0,0-.16l-.62-.56a1.52,1.52,0,0,1-.39-.41c-.05-.12-.22-.39-.4-.27a1.27,1.27,0,0,0-.32.38,3.42,3.42,0,0,1-.4.36l-.55.5a.13.13,0,0,0,0,.16l.54.92a.78.78,0,0,1,.08.54L30,44.64a.28.28,0,0,0,0,.09l2,4.57a.35.35,0,0,0,.42,0l2-4.57a.28.28,0,0,0,0-.09Z"/><path fill="#647d5c" d="M39.59,35l-2.4-.66c-.09,0-5.22,15-5.22,15h15a2.56,2.56,0,0,0,2.56-2.55c0-1.92,0-4.24,0-4.24C49.49,37.66,42.43,35.81,39.59,35Z"/><path fill="#647d5c" d="M27.33,34.37l-2.4.66C22.1,35.81,15,37.66,15,42.62v4.23a2.55,2.55,0,0,0,2.55,2.55h15S27.43,34.35,27.33,34.37Z"/><path fill="#e5f4fc" d="M36.54,33l-4.22,2.85a.21.21,0,0,1-.24,0L27.87,33l-.77,1.85,1.59,5.59,3.37-4.3a.18.18,0,0,1,.28,0l3.37,4.3,1.48-6.05Z"/><path fill="#4d6046" d="M40.34,36.77A15.05,15.05,0,0,0,39.59,35l-2.4-.66-2,5.52-.66,1.77-2.42,6.45-2.16-6.45-1.2-3.22-1.42-4.06-2.49.68a17.61,17.61,0,0,0-.74,1.71l2.59,1.15-2.25.86,6.09,10.63h3.33L40,38.78l-2.25-.86Z"/><path fill="#fed299" d="M38.11,22.39a.74.74,0,0,0-.35.1L37.62,21l-.49-.79A9.31,9.31,0,0,0,37,17.78a4.66,4.66,0,0,0-.93-.75s-.18-.6-1.45-.21-2.33.74-2.33.74l-4.79,1.58a18.08,18.08,0,0,1-1.25,1.33c-.28.22-.31.37-.53.8a2,2,0,0,0-.18,1c-1.25,0-1.1,1.23-.9,2.29.23,1.21.4,2,1.21,2a.57.57,0,0,0,.28-.08c.45,3.86,1.54,4.73,4.26,6.44a3.15,3.15,0,0,0,2.91,0c1.79-1.24,4.46-1.76,4.51-6.35a.54.54,0,0,0,.22,0c.81,0,1-.75,1.2-2S39.61,22.28,38.11,22.39Z"/><path fill="#404040" d="M36.38,15.7c-.23-2.55-3.94-2.51-3.94-2.51-6.17.26-7.62,4.32-7.55,5.42s.1,3.81.1,3.81c.94.25.92,1.41.9,1.76a.09.09,0,0,0,.09.1h.18a.09.09,0,0,0,.08,0,4.54,4.54,0,0,0,.36-2.17,1.14,1.14,0,0,1,1.11-1.21c6,0,4.58-.59,6.92-2.16,1.94-1.15,2,1.67,2.11,2.48s.86,2,.59,3c0,.06,0,.12.12.12h.23a.09.09,0,0,0,.09-.1,2.29,2.29,0,0,1,.68-1.81C39.57,15.86,37,15.63,36.38,15.7Z"/></g></svg>