<svg xmlns="http://www.w3.org/2000/svg" viewBox="0 0 64 64"><g class="color000000 svgShape" data-name="21-Quality"><path fill="#68c0ff" d="M61 32c0 1.87-2.164 3.503-2.514 5.27-.36 1.821 1.008 4.156.313 5.831-.707 1.705-3.332 2.385-4.346 3.9-1.023 1.527-.653 4.211-1.947 5.506s-3.979.924-5.505 1.946c-1.515 1.014-2.196 3.64-3.9 4.346-1.676.695-4.01-.673-5.83-.313-1.768.35-3.401 2.514-5.271 2.514s-3.503-2.164-5.27-2.514c-1.821-.36-4.156 1.008-5.831.313-1.705-.707-2.385-3.332-3.9-4.346-1.527-1.023-4.211-.653-5.506-1.947S10.57 48.527 9.547 47c-1.014-1.515-3.64-2.196-4.346-3.9-.695-1.676.673-4.01.313-5.83C5.164 35.502 3 33.87 3 31.999s2.164-3.503 2.514-5.27c.36-1.821-1.008-4.156-.313-5.831.707-1.705 3.332-2.385 4.346-3.9 1.023-1.527.653-4.211 1.947-5.506S15.473 10.57 17 9.547c1.515-1.014 2.196-3.64 3.9-4.346 1.676-.695 4.01.673 5.83.313C28.498 5.164 30.13 3 32 3s3.503 2.164 5.27 2.514c1.821.36 4.156-1.008 5.831-.313 1.705.707 2.385 3.332 3.9 4.346 1.527 1.023 4.211.653 5.506 1.947s.924 3.979 1.946 5.505c1.014 1.515 3.64 2.196 4.346 3.9.695 1.676-.673 4.01-.313 5.83C58.836 28.498 61 30.13 61 32Z" class="colorffe668 svgShape"/><circle cx="32" cy="32" r="21" fill="#57b9ff" class="colorffb657 svgShape"/><path fill="#a6d9fd" d="M36 27a12.133 12.133 0 0 0 1-5c0-2-1-4-3-4a2.15 2.15 0 0 0-2 2c0 5-3 5-6 8v12a8.76 8.76 0 0 0 6 2h8a4 4 0 0 0 4-4v-7a4 4 0 0 0-4-4Z" class="colorfdd5a6 svgShape"/><rect width="6" height="17" x="20" y="25" fill="#1d79bb" class="color68b1fc svgShape" rx="2"/><path d="M60.525 35.494A6.42 6.42 0 0 0 62 32a6.42 6.42 0 0 0-1.475-3.494 6.185 6.185 0 0 1-1.058-1.97 6.374 6.374 0 0 1 .225-2.308 6.23 6.23 0 0 0 .031-3.711 6.38 6.38 0 0 0-2.681-2.637 6.241 6.241 0 0 1-1.758-1.438 6.315 6.315 0 0 1-.667-2.193 6.368 6.368 0 0 0-1.404-3.462 6.37 6.37 0 0 0-3.462-1.403 6.305 6.305 0 0 1-2.193-.667 6.265 6.265 0 0 1-1.437-1.758 6.38 6.38 0 0 0-2.636-2.682 6.23 6.23 0 0 0-3.713.03 6.366 6.366 0 0 1-2.308.225 6.182 6.182 0 0 1-1.97-1.057A6.421 6.421 0 0 0 32 2a6.421 6.421 0 0 0-3.494 1.475 6.178 6.178 0 0 1-1.97 1.057 6.367 6.367 0 0 1-2.308-.224 6.244 6.244 0 0 0-3.712-.03 6.383 6.383 0 0 0-2.636 2.68 6.25 6.25 0 0 1-1.437 1.758 6.31 6.31 0 0 1-2.194.668 6.362 6.362 0 0 0-3.461 1.402 6.368 6.368 0 0 0-1.404 3.462 6.3 6.3 0 0 1-.668 2.194A6.257 6.257 0 0 1 6.96 17.88a6.388 6.388 0 0 0-2.682 2.637 6.236 6.236 0 0 0 .03 3.712 6.374 6.374 0 0 1 .226 2.307 6.185 6.185 0 0 1-1.058 1.97A6.42 6.42 0 0 0 2 32a6.42 6.42 0 0 0 1.475 3.494 6.185 6.185 0 0 1 1.058 1.97 6.374 6.374 0 0 1-.225 2.308 6.23 6.23 0 0 0-.031 3.711 6.38 6.38 0 0 0 2.681 2.637 6.241 6.241 0 0 1 1.758 1.438 6.315 6.315 0 0 1 .667 2.193 6.368 6.368 0 0 0 1.404 3.462 6.37 6.37 0 0 0 3.462 1.403 6.305 6.305 0 0 1 2.193.667 6.265 6.265 0 0 1 1.437 1.758 6.38 6.38 0 0 0 2.636 2.682 6.245 6.245 0 0 0 3.713-.03 6.366 6.366 0 0 1 2.308-.225 6.182 6.182 0 0 1 1.97 1.057A6.421 6.421 0 0 0 32 62a6.421 6.421 0 0 0 3.494-1.475 6.178 6.178 0 0 1 1.97-1.057 6.327 6.327 0 0 1 2.308.224 6.22 6.22 0 0 0 3.712.03 6.383 6.383 0 0 0 2.636-2.68 6.25 6.25 0 0 1 1.437-1.758 6.31 6.31 0 0 1 2.194-.668 6.362 6.362 0 0 0 3.461-1.402 6.368 6.368 0 0 0 1.404-3.462 6.3 6.3 0 0 1 .668-2.194 6.257 6.257 0 0 1 1.758-1.437 6.388 6.388 0 0 0 2.68-2.637 6.236 6.236 0 0 0-.03-3.711 6.374 6.374 0 0 1-.225-2.308 6.185 6.185 0 0 1 1.058-1.97Zm-1.651-1.129a7.623 7.623 0 0 0-1.369 2.711 7.833 7.833 0 0 0 .23 3.106 4.868 4.868 0 0 1 .14 2.537 4.909 4.909 0 0 1-1.926 1.726 7.706 7.706 0 0 0-2.327 2 7.756 7.756 0 0 0-.971 2.935 4.895 4.895 0 0 1-.853 2.42 4.894 4.894 0 0 1-2.418.851 7.756 7.756 0 0 0-2.936.971 7.709 7.709 0 0 0-2 2.328 4.898 4.898 0 0 1-1.726 1.925 4.876 4.876 0 0 1-2.537-.14 7.868 7.868 0 0 0-3.105-.23 7.61 7.61 0 0 0-2.71 1.369A4.93 4.93 0 0 1 32 60a4.93 4.93 0 0 1-2.366-1.126 7.61 7.61 0 0 0-2.71-1.37 4.526 4.526 0 0 0-.872-.08 11.038 11.038 0 0 0-2.234.31 4.877 4.877 0 0 1-2.536.141 4.899 4.899 0 0 1-1.727-1.926 7.704 7.704 0 0 0-2-2.328 7.747 7.747 0 0 0-2.935-.97 4.906 4.906 0 0 1-2.42-.852 4.9 4.9 0 0 1-.852-2.42 7.749 7.749 0 0 0-.97-2.934 7.698 7.698 0 0 0-2.328-2 4.901 4.901 0 0 1-1.925-1.727 4.87 4.87 0 0 1 .14-2.536 7.824 7.824 0 0 0 .23-3.106 7.623 7.623 0 0 0-1.369-2.71A4.925 4.925 0 0 1 4 32a4.925 4.925 0 0 1 1.126-2.365 7.623 7.623 0 0 0 1.369-2.711 7.833 7.833 0 0 0-.23-3.106 4.868 4.868 0 0 1-.14-2.537 4.909 4.909 0 0 1 1.926-1.726 7.706 7.706 0 0 0 2.327-2 7.756 7.756 0 0 0 .971-2.935 4.895 4.895 0 0 1 .853-2.42 4.894 4.894 0 0 1 2.418-.851 7.756 7.756 0 0 0 2.936-.971 7.709 7.709 0 0 0 2-2.328 4.898 4.898 0 0 1 1.726-1.925 4.865 4.865 0 0 1 2.537.14 7.868 7.868 0 0 0 3.105.23 7.61 7.61 0 0 0 2.71-1.369A4.93 4.93 0 0 1 32 4a4.93 4.93 0 0 1 2.366 1.126 7.61 7.61 0 0 0 2.71 1.37 7.888 7.888 0 0 0 3.106-.23 4.866 4.866 0 0 1 2.536-.141 4.899 4.899 0 0 1 1.727 1.926 7.704 7.704 0 0 0 2 2.328 7.747 7.747 0 0 0 2.935.97 4.906 4.906 0 0 1 2.42.852 4.9 4.9 0 0 1 .852 2.42 7.749 7.749 0 0 0 .97 2.934 7.698 7.698 0 0 0 2.328 2 4.901 4.901 0 0 1 1.925 1.727 4.87 4.87 0 0 1-.14 2.536 7.824 7.824 0 0 0-.23 3.106 7.623 7.623 0 0 0 1.369 2.71A4.925 4.925 0 0 1 60 32a4.925 4.925 0 0 1-1.126 2.365ZM32 10a22 22 0 1 0 22 22 22.025 22.025 0 0 0-22-22Zm0 42a20 20 0 1 1 20-20 20.023 20.023 0 0 1-20 20Zm8-26h-2.568A14.256 14.256 0 0 0 38 22c0-2.484-1.374-5-4-5a3.16 3.16 0 0 0-3 3c0 2.997-1.123 3.787-2.983 5.095-.382.268-.79.558-1.209.88A2.996 2.996 0 0 0 24 24h-2a3.003 3.003 0 0 0-3 3v13a3.003 3.003 0 0 0 3 3h2a2.994 2.994 0 0 0 2.529-1.4A10.646 10.646 0 0 0 32 43h8a5.006 5.006 0 0 0 5-5v-7a5.006 5.006 0 0 0-5-5ZM25 40a1.001 1.001 0 0 1-1 1h-2a1.001 1.001 0 0 1-1-1V27a1.001 1.001 0 0 1 1-1h2a1.001 1.001 0 0 1 1 1Zm18-2a3.003 3.003 0 0 1-3 3h-8a8.24 8.24 0 0 1-5-1.47V28.435a19.373 19.373 0 0 1 2.167-1.703C31.138 25.345 33 24.035 33 20a1.17 1.17 0 0 1 1-1c1.582 0 2 1.962 2 3a11.328 11.328 0 0 1-.895 4.553A1 1 0 0 0 36 28h4a3.003 3.003 0 0 1 3 3Z" class="color000000 svgShape"/></g></svg>