<svg width="45" height="43" viewBox="0 0 73 71" fill="none" xmlns="http://www.w3.org/2000/svg">
<g clip-path="url(#clip0_442_3070)">
<path d="M41.2839 2.26562H32.5811V10.8957H41.2839V2.26562Z" fill="#1D79BB"/>
<path d="M1.48395 12.04H10.6752C11.0187 12.04 11.2847 11.7498 11.2847 11.4073V1.754C11.2847 1.41158 11.0187 1.12134 10.6752 1.12134H1.48395C1.14042 1.12134 0.87439 1.41156 0.87439 1.754V11.4073C0.87439 11.7497 1.1404 12.04 1.48395 12.04ZM10.0655 2.38673V10.7747H2.09347V2.38673H10.0655Z" fill="#1D79BB" stroke="#1D79BB" stroke-width="0.8"/>
<path d="M62.7584 12.04H71.9496C72.2931 12.04 72.5591 11.7498 72.5591 11.4073V1.754C72.5591 1.41158 72.2931 1.12134 71.9496 1.12134H62.7584C62.4149 1.12134 62.1488 1.41156 62.1488 1.754V11.4073C62.1488 11.7497 62.4148 12.04 62.7584 12.04ZM71.3399 2.38673V10.7747H63.3679V2.38673H71.3399Z" fill="#1D79BB" stroke="#1D79BB" stroke-width="0.8"/>
<path d="M6.3288 34.5567C6.36103 34.5623 6.39286 34.5644 6.42232 34.5644H6.48623L6.4907 34.5598C6.76297 34.5284 6.9845 34.31 7.02509 34.0241C8.96456 20.4789 19.3269 9.60172 32.2123 7.56593C32.5508 7.51247 32.7722 7.18558 32.7237 6.84719C32.6744 6.50755 32.3692 6.26164 32.0291 6.31456C25.4001 7.36161 19.3795 10.5588 14.6186 15.5599C9.85775 20.5608 6.81487 26.8815 5.81865 33.8381C5.77028 34.1761 5.99098 34.5026 6.3288 34.5567ZM6.3288 34.5567C6.3292 34.5567 6.32959 34.5568 6.32999 34.5568L6.35338 34.4087L6.32752 34.5564C6.32795 34.5565 6.32837 34.5567 6.3288 34.5567Z" fill="#1D79BB"/>
<path d="M6.3288 34.5567C6.36103 34.5623 6.39286 34.5644 6.42232 34.5644H6.48623L6.4907 34.5598C6.76297 34.5284 6.9845 34.31 7.02509 34.0241C8.96456 20.4789 19.3269 9.60172 32.2123 7.56593C32.5508 7.51247 32.7721 7.18558 32.7237 6.84719C32.6744 6.50755 32.3692 6.26164 32.0291 6.31456C25.4001 7.36161 19.3795 10.5588 14.6186 15.5599C9.85775 20.5608 6.81487 26.8815 5.81865 33.8381M6.3288 34.5567C5.99098 34.5027 5.77028 34.1761 5.81865 33.8381M6.3288 34.5567C6.3292 34.5568 6.32959 34.5568 6.32999 34.5568L6.35338 34.4087L6.32752 34.5564C6.32795 34.5565 6.32837 34.5567 6.3288 34.5567ZM5.81865 33.8381L5.96714 33.8594" stroke="#1D79BB" stroke-width="0.8"/>
<path d="M68.0238 34.5567C67.9916 34.5623 67.9596 34.5644 67.9302 34.5644H67.8664L67.8618 34.5598C67.5895 34.5284 67.368 34.31 67.3274 34.0241C65.3879 20.4789 55.0255 9.60172 42.1401 7.56593C41.8016 7.51247 41.5803 7.18558 41.6288 6.84719C41.6781 6.50755 41.9833 6.26164 42.3233 6.31456C48.9522 7.36161 54.9729 10.5588 59.7339 15.5599C64.4947 20.5608 67.5376 26.8815 68.5338 33.8381C68.5822 34.1761 68.3616 34.5026 68.0238 34.5567ZM68.0238 34.5567C68.0234 34.5567 68.0229 34.5568 68.0225 34.5568L67.9991 34.4087L68.025 34.5564C68.0245 34.5565 68.0242 34.5567 68.0238 34.5567Z" fill="#1D79BB"/>
<path d="M68.0238 34.5567C67.9916 34.5623 67.9596 34.5644 67.9302 34.5644H67.8664L67.8618 34.5598C67.5895 34.5284 67.368 34.31 67.3274 34.0241C65.3879 20.4789 55.0255 9.60172 42.1401 7.56593C41.8016 7.51247 41.5803 7.18558 41.6288 6.84719C41.6781 6.50755 41.9833 6.26164 42.3233 6.31456C48.9522 7.36161 54.9729 10.5588 59.7339 15.5599C64.4947 20.5608 67.5376 26.8815 68.5338 33.8381M68.0238 34.5567C68.3616 34.5027 68.5822 34.1761 68.5338 33.8381M68.0238 34.5567C68.0234 34.5568 68.0229 34.5568 68.0225 34.5568L67.9991 34.4087L68.025 34.5564C68.0245 34.5565 68.0242 34.5567 68.0238 34.5567ZM68.5338 33.8381L68.3854 33.8594" stroke="#1D79BB" stroke-width="0.8"/>
<path d="M1.48395 44.2172H10.6752C11.0187 44.2172 11.2847 43.927 11.2847 43.5846V33.9312C11.2847 33.5888 11.0187 33.2986 10.6752 33.2986H1.48395C1.14042 33.2986 0.87439 33.5888 0.87439 33.9312V43.5846C0.87439 43.927 1.1404 44.2172 1.48395 44.2172ZM10.0655 34.564V42.9519H2.09347V34.564H10.0655Z" fill="#1D79BB" stroke="#1D79BB" stroke-width="0.8"/>
<path d="M62.7584 44.2172H71.9496C72.2931 44.2172 72.5591 43.927 72.5591 43.5846V33.9312C72.5591 33.5888 72.2931 33.2986 71.9496 33.2986H62.7584C62.4149 33.2986 62.1488 33.5888 62.1488 33.9312V43.5846C62.1488 43.927 62.4148 44.2172 62.7584 44.2172ZM71.3399 34.564V42.9519H63.3679V34.564H71.3399Z" fill="#1D79BB" stroke="#1D79BB" stroke-width="0.8"/>
<path d="M32.1217 12.04H41.3129C41.6564 12.04 41.9224 11.7498 41.9224 11.4073V1.754C41.9224 1.41158 41.6564 1.12134 41.3129 1.12134H32.1217C31.7781 1.12134 31.5121 1.41156 31.5121 1.754V11.4073C31.5121 11.7497 31.7781 12.04 32.1217 12.04ZM40.7032 2.38673V10.7747H32.7312V2.38673H40.7032Z" fill="#1D79BB" stroke="#1D79BB" stroke-width="0.3"/>
<path d="M10.6754 7.21332H32.1208C32.4643 7.21332 32.7304 6.92308 32.7304 6.58066C32.7304 6.23824 32.4643 5.948 32.1208 5.948H10.6754C10.3318 5.948 10.0658 6.23823 10.0658 6.58066C10.0658 6.92308 10.3318 7.21332 10.6754 7.21332Z" fill="#1D79BB" stroke="#1D79BB" stroke-width="0.8"/>
<path d="M41.3121 7.21332H62.7575C63.1011 7.21332 63.3671 6.92308 63.3671 6.58066C63.3671 6.23824 63.1011 5.948 62.7575 5.948H41.3121C40.9686 5.948 40.7025 6.23824 40.7025 6.58066C40.7025 6.92308 40.9685 7.21332 41.3121 7.21332Z" fill="#1D79BB" stroke="#1D79BB" stroke-width="0.3"/>
<path d="M36.1078 36.4392C36.1078 36.7671 36.3927 37.0121 36.7174 37.0121C37.0421 37.0121 37.3269 36.7671 37.3269 36.4392V16.7038C37.3269 16.3758 37.0421 16.1309 36.7174 16.1309C36.3927 16.1309 36.1078 16.3758 36.1078 16.7038V36.4392Z" fill="#1D79BB" stroke="#1D79BB" stroke-width="0.3"/>
<path d="M31.5121 40.7667C31.5121 43.4888 33.8553 45.6883 36.7173 45.6883C39.5794 45.6883 41.9225 43.4888 41.9225 40.7667C41.9225 38.0446 39.5794 35.845 36.7173 35.845C33.8552 35.845 31.5121 38.0446 31.5121 40.7667ZM32.7313 40.7667C32.7313 38.7046 34.5111 37.0126 36.7173 37.0126C38.9236 37.0126 40.7033 38.7046 40.7033 40.7667C40.7033 42.8287 38.9236 44.5207 36.7173 44.5207C34.5111 44.5207 32.7313 42.8287 32.7313 40.7667Z" fill="#1D79BB" stroke="#1D79BB" stroke-width="0.3"/>
<path d="M39.7375 16.2808H33.5754L21.5244 43.6115L29.1467 52.3117L26.1444 69.558H47.4713L44.4686 52.3117L51.9369 43.6115L39.7375 16.2808Z" stroke="#1D79BB" stroke-width="1.5" stroke-linejoin="round"/>
<path d="M27.376 62.5518H46.085" stroke="#1D79BB" stroke-width="1.5" stroke-linejoin="round"/>
</g>
<defs>
<clipPath id="clip0_442_3070">
<rect width="73" height="71" fill="white"/>
</clipPath>
</defs>
</svg>
